<svg width="7128" height="1918" xmlns="http://www.w3.org/2000/svg" xmlns:xlink="http://www.w3.org/1999/xlink" xml:space="preserve" overflow="hidden"><g transform="translate(-264 -123)"><g><g><g><path d="M487.557 31.8656 347.799 31.8656 270.783 167.022 333.363 167.022 251.267 333.823 467.014 140.769 396.923 140.769Z" fill="#FFD400" transform="matrix(1 0 0 1.00146 264 612)"/><path d="M321.1 78.7205 270.783 167.022 333.363 167.022 251.267 333.823 414.648 187.624 360.191 187.624 399.181 140.769 396.923 140.769 448.557 78.7205Z" fill="#FFB000" transform="matrix(1 0 0 1.00146 264 612)"/><path d="M251.261 341.887C246.81 341.889 243.201 338.282 243.199 333.831 243.198 332.594 243.483 331.373 244.03 330.264L320.406 175.086 270.788 175.086C266.331 175.082 262.721 171.466 262.725 167.009 262.727 165.615 263.089 164.245 263.777 163.032L340.788 27.8764C342.224 25.358 344.9 23.8026 347.799 23.8011L487.557 23.8011C492.011 23.7998 495.623 27.4093 495.624 31.8632 495.624 33.75 494.963 35.5772 493.756 37.0269L414.127 132.704 467.014 132.704C471.465 132.697 475.079 136.299 475.087 140.75 475.091 143.053 474.109 145.247 472.39 146.78L256.638 339.833C255.161 341.159 253.246 341.89 251.261 341.887ZM284.659 158.957 333.363 158.957C337.814 158.955 341.424 162.562 341.426 167.013 341.426 168.25 341.142 169.471 340.595 170.581L276.842 300.113 445.906 148.833 396.923 148.833C392.469 148.835 388.857 145.225 388.856 140.771 388.855 138.884 389.516 137.057 390.724 135.608L470.347 39.9301 352.487 39.9301 284.659 158.957Z" fill="#33363A" transform="matrix(1 0 0 1.00146 264 612)"/><path d="M608.068 453.833C608.068 564.995 489.616 655.129 343.503 655.129 197.385 655.129 78.9386 564.989 78.9386 453.833 78.9386 342.651 197.385 209.43 343.503 209.43 489.616 209.43 608.068 342.656 608.068 453.833Z" fill="#FFF800" transform="matrix(1 0 0 1.00146 264 612)"/><path d="M608.068 453.833C608.068 564.995 489.616 655.129 343.503 655.129 197.385 655.129 78.9386 564.989 78.9386 453.833 78.9386 342.651 197.385 266.048 343.503 266.048 489.616 266.054 608.068 342.656 608.068 453.833Z" fill="#FFD400" transform="matrix(1 0 0 1.00146 264 612)"/><path d="M399.842 401.156C399.842 408.645 374.621 409.989 343.503 409.989 312.385 409.989 287.164 408.645 287.164 401.156 287.164 393.656 312.385 374.075 343.503 374.075 374.621 374.075 399.842 393.656 399.842 401.156Z" fill="#FFF800" transform="matrix(1 0 0 1.00146 264 612)"/><path d="M608.068 453.833C608.068 564.995 489.616 655.129 343.503 655.129 197.385 655.129 78.9386 564.989 78.9386 453.833 78.9386 342.64 112.6 552.436 343.503 552.436 574.406 552.436 608.068 342.645 608.068 453.833Z" fill="#FFB000" transform="matrix(1 0 0 1.00146 264 612)"/><path d="M343.503 663.199C193.175 663.199 70.8741 569.28 70.8741 453.839 70.8741 339.484 192.482 201.371 343.503 201.371 494.525 201.371 616.132 339.484 616.132 453.833 616.132 569.28 493.831 663.199 343.503 663.199ZM343.503 217.495C201.417 217.495 87.0031 346.785 87.0031 453.833 87.0031 560.382 202.068 647.065 343.503 647.065 484.939 647.065 600.003 560.387 600.003 453.833 600.003 346.785 485.584 217.495 343.503 217.495Z" fill="#33363A" transform="matrix(1 0 0 1.00146 264 612)"/><path d="M49.4494 254.156C83.7773 310.828 131.874 344.145 178.401 349.914 186.423 292.097 173.713 225.011 139.38 168.339 105.052 111.651 56.9548 78.3334 10.4332 72.586 2.40634 130.382 15.1214 197.484 49.4494 254.156Z" fill="#FFD400" transform="matrix(1 0 0 1.00146 264 612)"/><path d="M10.4332 72.586C2.41172 130.382 15.1214 197.479 49.4547 254.151 83.7827 310.823 131.88 344.14 178.406 349.909L10.4332 72.586Z" fill="#FFB000" transform="matrix(1 0 0 1.00146 264 612)"/><path d="M185.955 275.785C180.358 236.355 166.638 197.753 146.283 164.151 111.783 107.194 62.6268 70.9032 11.4171 64.5807 7.04329 64.0333 3.04293 67.1061 2.44398 71.4731-6.21731 133.849 8.40097 201.957 42.5515 258.328 65.8795 296.855 96.1053 326.188 129.966 343.156 133.947 345.151 138.793 343.541 140.788 339.559 142.783 335.577 141.173 330.732 137.191 328.737 106.057 313.129 78.1053 285.893 56.3526 249.968 46.3827 233.458 38.154 215.957 31.7988 197.747 64.5945 192.371 102.535 209.129 98.0031 127.925 110.573 140.624 122.213 155.543 132.487 172.505 151.729 204.258 164.691 240.753 169.987 278.048 170.616 282.457 174.713 285.495 179.105 284.898 183.51 284.277 186.577 280.204 185.957 275.799 185.956 275.795 185.955 275.79 185.955 275.785Z" fill="#33363A" transform="matrix(1 0 0 1.00146 264 612)"/><path d="M637.552 254.156C603.224 310.828 555.127 344.145 508.6 349.914 500.579 292.097 513.283 225.011 547.622 168.339 581.955 111.656 630.052 78.3387 676.579 72.5968 684.595 130.382 671.89 197.484 637.552 254.156Z" fill="#FFD400" transform="matrix(1 0 0 1.00146 264 612)"/><path d="M676.579 72.586C684.595 130.382 671.89 197.479 637.552 254.151 603.224 310.823 555.127 344.14 508.6 349.909L676.579 72.586Z" fill="#FFB000" transform="matrix(1 0 0 1.00146 264 612)"/><path d="M684.562 71.4785C683.958 67.1146 679.961 64.0448 675.589 64.586 624.38 70.9086 575.218 107.199 540.718 164.156 520.358 197.774 506.638 236.382 501.052 275.79 500.472 280.206 503.582 284.256 507.998 284.836 512.348 285.407 516.356 282.396 517.019 278.059 522.299 240.78 535.272 204.285 554.514 172.516 564.788 155.554 576.428 140.634 588.998 127.936 584.46 209.14 622.406 192.382 655.208 197.758 648.852 215.968 640.624 233.468 630.654 249.979 608.89 285.914 580.939 313.151 549.815 328.747 545.818 330.712 544.17 335.545 546.135 339.542 548.099 343.539 552.932 345.187 556.929 343.223 556.967 343.204 557.004 343.186 557.041 343.167 590.89 326.204 621.116 296.871 644.455 258.339 678.6 201.973 693.224 133.866 684.562 71.4785Z" fill="#33363A" transform="matrix(1 0 0 1.00146 264 612)"/><path d="M139.121 471.909C139.121 492.732 156.002 509.613 176.826 509.613 197.649 509.613 214.53 492.732 214.53 471.909 214.53 451.085 197.649 434.204 176.826 434.204 156.002 434.204 139.121 451.085 139.121 471.909Z" fill="#FF1A1A" transform="matrix(1 0 0 1.00146 264 612)"/><path d="M214.53 471.909C214.281 492.734 197.198 509.414 176.373 509.165 155.899 508.921 139.361 492.383 139.116 471.909" fill="#D61D1D" transform="matrix(1 0 0 1.00146 264 612)"/><path d="M472.466 471.909C472.466 492.735 489.349 509.618 510.175 509.618 531.002 509.618 547.885 492.735 547.885 471.909 547.885 451.082 531.002 434.199 510.175 434.199 489.349 434.199 472.466 451.082 472.466 471.909Z" fill="#FF1A1A" transform="matrix(1 0 0 1.00146 264 612)"/><path d="M547.88 471.909C547.528 492.735 530.36 509.333 509.533 508.982 489.202 508.638 472.804 492.24 472.46 471.909" fill="#D61D1D" transform="matrix(1 0 0 1.00146 264 612)"/><path d="M395.315 431.618C390.861 431.618 387.251 435.229 387.251 439.683 387.239 447.369 381.006 453.594 373.32 453.597L365.492 453.597C357.809 453.591 351.58 447.367 351.568 439.683L351.568 431.86C351.568 431.468 351.509 431.092 351.455 430.715L368.175 422.35C372.154 420.335 373.747 415.476 371.732 411.497 370.363 408.795 367.597 407.085 364.568 407.07L322.433 407.07C317.974 407.092 314.376 410.726 314.398 415.185 314.414 418.215 316.123 420.981 318.826 422.35L335.541 430.715C335.487 431.092 335.428 431.468 335.428 431.86L335.428 439.683C335.419 447.366 329.191 453.591 321.509 453.597L313.675 453.597C305.989 453.594 299.757 447.369 299.745 439.683 299.745 435.229 296.135 431.618 291.681 431.618 287.227 431.618 283.616 435.229 283.616 439.683 283.64 456.272 297.086 469.711 313.675 469.726L321.509 469.726C329.861 469.722 337.833 466.23 343.498 460.091 349.165 466.23 357.138 469.722 365.492 469.726L373.32 469.726C389.909 469.711 403.356 456.272 403.38 439.683 403.38 435.229 399.769 431.618 395.315 431.618Z" fill="#33363A" transform="matrix(1 0 0 1.00146 264 612)"/><path d="M256.611 377.118C256.614 401.021 237.239 420.4 213.337 420.403 213.329 420.403 213.322 420.403 213.315 420.403 189.412 420.406 170.033 401.032 170.03 377.129 170.03 377.126 170.03 377.122 170.03 377.118 170.027 353.21 189.406 333.826 213.315 333.823 237.224 333.82 256.608 353.199 256.611 377.108 256.611 377.111 256.611 377.115 256.611 377.118Z" fill="#6D5C4D" transform="matrix(1 0 0 1.00146 264 612)"/><path d="M174.148 363.048C174.148 372.791 182.046 380.688 191.788 380.688 201.53 380.688 209.428 372.791 209.428 363.048 209.428 353.306 201.53 345.409 191.788 345.409 182.046 345.409 174.148 353.306 174.148 363.048Z" fill="#FFFFFF" transform="matrix(1 0 0 1.00146 264 612)"/><path d="M213.315 325.758C195.869 325.758 180.449 334.522 171.164 347.86 170.608 348.633 170.095 349.435 169.627 350.264 164.625 358.328 161.972 367.628 161.966 377.118 161.966 405.436 184.998 428.468 213.315 428.468 241.638 428.468 264.675 405.436 264.675 377.118 264.675 348.796 241.632 325.758 213.315 325.758ZM213.315 412.339C199.096 412.322 186.277 403.769 180.804 390.645 184.466 390.548 188.928 389.559 193.923 388.527 195.837 388.366 197.681 388.005 199.455 387.446 203.804 386.667 208.46 386.054 213.31 386.054 226.283 386.054 237.896 390.43 245.831 390.645 240.357 403.771 227.536 412.325 213.315 412.339Z" fill="#33363A" transform="matrix(1 0 0 1.00146 264 612)"/><path d="M182.224 363.048C182.224 368.331 186.506 372.613 191.788 372.613 197.07 372.613 201.353 368.331 201.353 363.048 201.353 357.766 197.07 353.484 191.788 353.484 186.506 353.484 182.224 357.766 182.224 363.048Z" fill="#FFFFFF" transform="matrix(1 0 0 1.00146 264 612)"/><path d="M516.966 377.118C516.972 401.018 497.602 420.397 473.702 420.403 473.695 420.403 473.688 420.403 473.681 420.403 449.778 420.409 430.396 401.037 430.39 377.134 430.39 377.129 430.39 377.124 430.39 377.118 430.124 353.211 449.288 333.615 473.196 333.348 497.103 333.082 516.699 352.246 516.966 376.154 516.969 376.475 516.969 376.797 516.966 377.118Z" fill="#6D5C4D" transform="matrix(1 0 0 1.00146 264 612)"/><path d="M434.519 363.048C434.519 372.788 442.415 380.683 452.154 380.683 461.893 380.683 469.788 372.788 469.788 363.048 469.788 353.309 461.893 345.414 452.154 345.414 442.415 345.414 434.519 353.309 434.519 363.048Z" fill="#FFFFFF" transform="matrix(1 0 0 1.00146 264 612)"/><path d="M473.686 325.758C456.251 325.758 440.837 334.516 431.552 347.844 430.984 348.63 430.459 349.447 429.982 350.29 424.986 358.348 422.337 367.638 422.331 377.118 422.331 405.436 445.369 428.468 473.686 428.468 502.003 428.468 525.036 405.436 525.036 377.118 525.03 348.796 501.998 325.758 473.686 325.758ZM473.686 412.339C459.466 412.322 446.646 403.769 441.17 390.645 444.874 390.543 449.38 389.565 454.455 388.511 456.256 388.35 457.992 388.011 459.67 387.495 464.073 386.699 468.772 386.054 473.686 386.054 486.659 386.054 498.261 390.43 506.197 390.645 500.724 403.769 487.905 412.322 473.686 412.339Z" fill="#33363A" transform="matrix(1 0 0 1.00146 264 612)"/><path d="M442.595 363.048C442.595 368.331 446.877 372.613 452.159 372.613 457.442 372.613 461.724 368.331 461.724 363.048 461.724 357.766 457.442 353.484 452.159 353.484 446.877 353.484 442.595 357.766 442.595 363.048Z" fill="#FFFFFF" transform="matrix(1 0 0 1.00146 264 612)"/></g></g></g><text font-family="Franklin Gothic Book,Franklin Gothic Book_MSFontService,sans-serif" font-weight="400" font-size="912" transform="matrix(1 0 0 1 1037.87 1283)">Pokémon Tools</text><path d="M6698 564.5C6698 491.322 6757.32 432 6830.5 432L7118.5 432C7191.68 432 7251 491.322 7251 564.5L7251 564.5C7251 637.678 7191.68 697 7118.5 697L6830.5 697C6757.32 697 6698 637.678 6698 564.5Z" fill="#8B3DF1" fill-rule="evenodd"/><text fill="#FFFFFF" font-family="DengXian,DengXian_MSFontService,sans-serif" font-weight="400" font-size="202" transform="matrix(1 0 0 1 6784.1 632)">PRO</text></g></svg>