<svg width="1383" height="758" xmlns="http://www.w3.org/2000/svg" xmlns:xlink="http://www.w3.org/1999/xlink" xml:space="preserve" overflow="hidden"><defs><filter id="fx0" x="-10%" y="-10%" width="120%" height="120%" filterUnits="userSpaceOnUse" primitiveUnits="userSpaceOnUse"><feComponentTransfer color-interpolation-filters="sRGB"><feFuncR type="discrete" tableValues="0 0"/><feFuncG type="discrete" tableValues="0 0"/><feFuncB type="discrete" tableValues="0 0"/><feFuncA type="linear" slope="0.4" intercept="0"/></feComponentTransfer><feGaussianBlur stdDeviation="6.11111 6.11111"/></filter><filter id="fx1" x="-10%" y="-10%" width="120%" height="120%" filterUnits="userSpaceOnUse" primitiveUnits="userSpaceOnUse"><feComponentTransfer color-interpolation-filters="sRGB"><feFuncR type="discrete" tableValues="0 0"/><feFuncG type="discrete" tableValues="0 0"/><feFuncB type="discrete" tableValues="0 0"/><feFuncA type="linear" slope="0.431373" intercept="0"/></feComponentTransfer><feGaussianBlur stdDeviation="4.56444 4.56444"/></filter><filter id="fx2" x="-10%" y="-10%" width="120%" height="120%" filterUnits="userSpaceOnUse" primitiveUnits="userSpaceOnUse"><feComponentTransfer color-interpolation-filters="sRGB"><feFuncR type="discrete" tableValues="0 0"/><feFuncG type="discrete" tableValues="0 0"/><feFuncB type="discrete" tableValues="0 0"/><feFuncA type="linear" slope="0.4" intercept="0"/></feComponentTransfer><feGaussianBlur stdDeviation="6.11111 6.11111"/></filter><filter id="fx3" x="-10%" y="-10%" width="120%" height="120%" filterUnits="userSpaceOnUse" primitiveUnits="userSpaceOnUse"><feComponentTransfer color-interpolation-filters="sRGB"><feFuncR type="discrete" tableValues="0 0"/><feFuncG type="discrete" tableValues="0 0"/><feFuncB type="discrete" tableValues="0 0"/><feFuncA type="linear" slope="0.431373" intercept="0"/></feComponentTransfer><feGaussianBlur stdDeviation="4.56444 4.56444"/></filter><clipPath id="clip4"><rect x="2188" y="-50" width="1383" height="758"/></clipPath><clipPath id="clip5"><rect x="214" y="183" width="599" height="389"/></clipPath><clipPath id="clip6"><rect x="0" y="0" width="1026" height="761"/></clipPath><clipPath id="clip7"><rect x="219" y="187" width="552" height="342"/></clipPath><clipPath id="clip8"><rect x="0" y="0" width="988" height="723"/></clipPath><clipPath id="clip9"><rect x="219" y="187" width="552" height="342"/></clipPath><clipPath id="clip10"><rect x="2196" y="0" width="520" height="521"/></clipPath><clipPath id="clip11"><rect x="2196" y="0" width="520" height="521"/></clipPath><clipPath id="clip12"><rect x="2196" y="0" width="520" height="521"/></clipPath></defs><g clip-path="url(#clip4)" transform="translate(-2188 50)"><g filter="url(#fx0)" transform="translate(2187 -10)"><g><path d="M19.7227 279.723C19.7227 136.129 136.128 19.7227 279.722 19.7227L993.723 19.7227C1137.32 19.7227 1253.72 136.129 1253.72 279.723L1253.72 279.723C1253.72 423.317 1137.32 539.723 993.723 539.723L279.722 539.723C136.128 539.723 19.7227 423.317 19.7227 279.723Z" fill="#FFFFFF" fill-rule="evenodd"/></g></g><g clip-path="url(#clip5)" filter="url(#fx2)" transform="translate(2547 -52)"><g clip-path="url(#clip6)"><g clip-path="url(#clip7)" filter="url(#fx1)" transform="translate(19 19)"><g clip-path="url(#clip8)"><path d="M187.075-73.6377C187.075-61.7139 184.819-51.1865 180.308-42.0557 175.796-32.9248 169.727-25.4053 162.1-19.4971 153.076-12.4072 143.408-7.38525 133.096-4.43115 122.783-1.47705 109.463 0 93.1348 0L24.3311 0 24.3311-239.927 87.9785-239.927C105.059-239.927 117.869-239.363 126.409-238.235 134.949-237.107 143.14-234.448 150.981-230.259 159.575-225.64 165.859-219.597 169.834-212.131 173.809-204.666 175.796-195.884 175.796-185.786 175.796-174.507 172.815-164.409 166.853-155.493 160.891-146.577 152.646-139.595 142.119-134.546L142.119-133.257C156.406-129.39 167.471-122.327 175.312-112.068 183.154-101.809 187.075-88.999 187.075-73.6377ZM142.603-181.274C142.603-187.075 141.636-192.097 139.702-196.34 137.769-200.583 134.653-203.94 130.356-206.411 125.2-209.312 119.453-211.084 113.115-211.729 106.777-212.373 98.0225-212.695 86.8506-212.695L56.2353-212.695 56.2353-142.441 92.4902-142.441C102.48-142.441 109.839-142.952 114.565-143.972 119.292-144.993 124.18-147.114 129.229-150.337 134.062-153.452 137.5-157.534 139.541-162.583 141.582-167.632 142.603-173.862 142.603-181.274ZM153.882-72.3486C153.882-81.3721 152.593-88.811 150.015-94.6655 147.437-100.52 142.227-105.488 134.385-109.57 129.336-112.256 123.831-113.975 117.869-114.727 111.907-115.479 103.447-115.854 92.4902-115.854L56.2353-115.854 56.2353-27.2314 82.1777-27.2314C96.1426-27.2314 107.153-27.876 115.21-29.165 123.267-30.4541 130.356-33.1934 136.479-37.3828 142.495-41.5723 146.899-46.3257 149.692-51.6431 152.485-56.9604 153.882-63.8623 153.882-72.3486ZM357.922 0 327.63 0 327.63-19.9805C318.284-11.8164 309.422-5.61279 301.043-1.36963 292.664 2.87353 283.318 4.99512 273.006 4.99512 265.164 4.99512 257.778 3.70605 250.85 1.12793 243.921-1.4502 237.879-5.53223 232.722-11.1182 227.566-16.7041 223.565-23.7402 220.718-32.2266 217.871-40.7129 216.448-51.0254 216.448-63.1641L216.448-179.985 246.741-179.985 246.741-77.5049C246.741-67.9443 247.09-60.022 247.788-53.7378 248.486-47.4536 250.071-41.9482 252.542-37.2217 255.012-32.6025 258.369-29.2187 262.612-27.0703 266.856-24.9219 272.952-23.8477 280.901-23.8477 288.313-23.8477 296.209-25.9424 304.588-30.1318 312.966-34.3213 320.647-39.4775 327.63-45.6006L327.63-179.985 357.922-179.985ZM509.924-48.8232 509.924-147.598C502.405-151.25 495.449-153.855 489.058-155.413 482.666-156.97 476.301-157.749 469.964-157.749 454.602-157.749 442.517-152.109 433.709-140.83 424.9-129.551 420.496-113.384 420.496-92.3291 420.496-72.3486 423.853-57.1484 430.567-46.7285 437.28-36.3086 448.157-31.0986 463.196-31.0986 471.038-31.0986 479.121-32.6562 487.446-35.7715 495.772-38.8867 503.264-43.2373 509.924-48.8232ZM408.089 28.8428C410.13 29.7021 413.137 30.8569 417.112 32.3071 421.087 33.7573 425.598 35.1269 430.647 36.416 436.233 37.8125 441.389 38.9404 446.116 39.7998 450.842 40.6592 455.999 41.0889 461.585 41.0889 470.93 41.0889 478.853 39.8535 485.352 37.3828 491.851 34.9121 496.926 31.4746 500.579 27.0703 504.016 22.666 506.433 17.5635 507.83 11.7627 509.226 5.96191 509.924-0.644531 509.924-8.05664L509.924-23.8477C501.76-16.7578 493.757-11.521 485.916-8.13721 478.074-4.75342 468.245-3.06152 456.428-3.06152 435.911-3.06152 419.583-10.6885 407.444-25.9424 395.305-41.1963 389.236-63.1103 389.236-91.6846 389.236-106.616 391.331-119.856 395.52-131.404 399.71-142.952 405.349-152.754 412.439-160.811 419.207-168.545 427.21-174.507 436.448-178.696 445.686-182.886 455.247-184.98 465.13-184.98 474.475-184.98 482.559-183.879 489.38-181.677 496.201-179.475 503.049-176.333 509.924-172.251L511.697-179.985 540.217-179.985 540.217-20.4639C540.217 10.0439 533.557 32.4414 520.237 46.7285 506.917 61.0156 486.56 68.1592 459.168 68.1592 450.359 68.1592 441.362 67.4609 432.178 66.0644 422.993 64.668 414.426 62.7881 406.477 60.4248L406.477 28.8428Z" fill="#707070" transform="matrix(1 0 0 1 -2334.1 494)"/></g></g><path d="M187.075-73.6377C187.075-61.7139 184.819-51.1865 180.308-42.0557 175.796-32.9248 169.727-25.4053 162.1-19.4971 153.076-12.4072 143.408-7.38525 133.096-4.43115 122.783-1.47705 109.463 0 93.1348 0L24.3311 0 24.3311-239.927 87.9785-239.927C105.059-239.927 117.869-239.363 126.409-238.235 134.949-237.107 143.14-234.448 150.981-230.259 159.575-225.64 165.859-219.597 169.834-212.131 173.809-204.666 175.796-195.884 175.796-185.786 175.796-174.507 172.815-164.409 166.853-155.493 160.891-146.577 152.646-139.595 142.119-134.546L142.119-133.257C156.406-129.39 167.471-122.327 175.312-112.068 183.154-101.809 187.075-88.999 187.075-73.6377ZM142.603-181.274C142.603-187.075 141.636-192.097 139.702-196.34 137.769-200.583 134.653-203.94 130.356-206.411 125.2-209.312 119.453-211.084 113.115-211.729 106.777-212.373 98.0225-212.695 86.8506-212.695L56.2353-212.695 56.2353-142.441 92.4902-142.441C102.48-142.441 109.839-142.952 114.565-143.972 119.292-144.993 124.18-147.114 129.229-150.337 134.062-153.452 137.5-157.534 139.541-162.583 141.582-167.632 142.603-173.862 142.603-181.274ZM153.882-72.3486C153.882-81.3721 152.593-88.811 150.015-94.6655 147.437-100.52 142.227-105.488 134.385-109.57 129.336-112.256 123.831-113.975 117.869-114.727 111.907-115.479 103.447-115.854 92.4902-115.854L56.2353-115.854 56.2353-27.2314 82.1777-27.2314C96.1426-27.2314 107.153-27.876 115.21-29.165 123.267-30.4541 130.356-33.1934 136.479-37.3828 142.495-41.5723 146.899-46.3257 149.692-51.6431 152.485-56.9604 153.882-63.8623 153.882-72.3486ZM357.922 0 327.63 0 327.63-19.9805C318.284-11.8164 309.422-5.61279 301.043-1.36963 292.664 2.87353 283.318 4.99512 273.006 4.99512 265.164 4.99512 257.778 3.70605 250.85 1.12793 243.921-1.4502 237.879-5.53223 232.722-11.1182 227.566-16.7041 223.565-23.7402 220.718-32.2266 217.871-40.7129 216.448-51.0254 216.448-63.1641L216.448-179.985 246.741-179.985 246.741-77.5049C246.741-67.9443 247.09-60.022 247.788-53.7378 248.486-47.4536 250.071-41.9482 252.542-37.2217 255.012-32.6025 258.369-29.2187 262.612-27.0703 266.856-24.9219 272.952-23.8477 280.901-23.8477 288.313-23.8477 296.209-25.9424 304.588-30.1318 312.966-34.3213 320.647-39.4775 327.63-45.6006L327.63-179.985 357.922-179.985ZM509.924-48.8232 509.924-147.598C502.405-151.25 495.449-153.855 489.058-155.413 482.666-156.97 476.301-157.749 469.964-157.749 454.602-157.749 442.517-152.109 433.709-140.83 424.9-129.551 420.496-113.384 420.496-92.3291 420.496-72.3486 423.853-57.1484 430.567-46.7285 437.28-36.3086 448.157-31.0986 463.196-31.0986 471.038-31.0986 479.121-32.6562 487.446-35.7715 495.772-38.8867 503.264-43.2373 509.924-48.8232ZM408.089 28.8428C410.13 29.7021 413.137 30.8569 417.112 32.3071 421.087 33.7573 425.598 35.1269 430.647 36.416 436.233 37.8125 441.389 38.9404 446.116 39.7998 450.842 40.6592 455.999 41.0889 461.585 41.0889 470.93 41.0889 478.853 39.8535 485.352 37.3828 491.851 34.9121 496.926 31.4746 500.579 27.0703 504.016 22.666 506.433 17.5635 507.83 11.7627 509.226 5.96191 509.924-0.644531 509.924-8.05664L509.924-23.8477C501.76-16.7578 493.757-11.521 485.916-8.13721 478.074-4.75342 468.245-3.06152 456.428-3.06152 435.911-3.06152 419.583-10.6885 407.444-25.9424 395.305-41.1963 389.236-63.1103 389.236-91.6846 389.236-106.616 391.331-119.856 395.52-131.404 399.71-142.952 405.349-152.754 412.439-160.811 419.207-168.545 427.21-174.507 436.448-178.696 445.686-182.886 455.247-184.98 465.13-184.98 474.475-184.98 482.559-183.879 489.38-181.677 496.201-179.475 503.049-176.333 509.924-172.251L511.697-179.985 540.217-179.985 540.217-20.4639C540.217 10.0439 533.557 32.4414 520.237 46.7285 506.917 61.0156 486.56 68.1592 459.168 68.1592 450.359 68.1592 441.362 67.4609 432.178 66.0644 422.993 64.668 414.426 62.7881 406.477 60.4248L406.477 28.8428Z" fill="#707070" transform="matrix(1 0 0 1 222.219 452)"/></g></g><path d="M2197 260C2197 116.406 2313.41-7.85525e-14 2457-7.85525e-14L3171 0C3314.59-7.85525e-14 3431 116.406 3431 260L3431 260C3431 403.594 3314.59 520 3171 520L2457 520C2313.41 520 2197 403.594 2197 260Z" fill="#FFFFFF" fill-rule="evenodd"/><g clip-path="url(#clip9)" filter="url(#fx3)" transform="translate(2556 -42)"><g><path d="M187.075-73.6377C187.075-61.7139 184.819-51.1865 180.308-42.0557 175.796-32.9248 169.727-25.4053 162.1-19.4971 153.076-12.4072 143.408-7.38525 133.096-4.43115 122.783-1.47705 109.463 0 93.1348 0L24.3311 0 24.3311-239.927 87.9785-239.927C105.059-239.927 117.869-239.363 126.409-238.235 134.949-237.107 143.14-234.448 150.981-230.259 159.575-225.64 165.859-219.597 169.834-212.131 173.809-204.666 175.796-195.884 175.796-185.786 175.796-174.507 172.815-164.409 166.853-155.493 160.891-146.577 152.646-139.595 142.119-134.546L142.119-133.257C156.406-129.39 167.471-122.327 175.312-112.068 183.154-101.809 187.075-88.999 187.075-73.6377ZM142.603-181.274C142.603-187.075 141.636-192.097 139.702-196.34 137.769-200.583 134.653-203.94 130.356-206.411 125.2-209.312 119.453-211.084 113.115-211.729 106.777-212.373 98.0225-212.695 86.8506-212.695L56.2353-212.695 56.2353-142.441 92.4902-142.441C102.48-142.441 109.839-142.952 114.565-143.972 119.292-144.993 124.18-147.114 129.229-150.337 134.062-153.452 137.5-157.534 139.541-162.583 141.582-167.632 142.603-173.862 142.603-181.274ZM153.882-72.3486C153.882-81.3721 152.593-88.811 150.015-94.6655 147.437-100.52 142.227-105.488 134.385-109.57 129.336-112.256 123.831-113.975 117.869-114.727 111.907-115.479 103.447-115.854 92.4902-115.854L56.2353-115.854 56.2353-27.2314 82.1777-27.2314C96.1426-27.2314 107.153-27.876 115.21-29.165 123.267-30.4541 130.356-33.1934 136.479-37.3828 142.495-41.5723 146.899-46.3257 149.692-51.6431 152.485-56.9604 153.882-63.8623 153.882-72.3486ZM357.922 0 327.63 0 327.63-19.9805C318.284-11.8164 309.422-5.61279 301.043-1.36963 292.664 2.87353 283.318 4.99512 273.006 4.99512 265.164 4.99512 257.778 3.70605 250.85 1.12793 243.921-1.4502 237.879-5.53223 232.722-11.1182 227.566-16.7041 223.565-23.7402 220.718-32.2266 217.871-40.7129 216.448-51.0254 216.448-63.1641L216.448-179.985 246.741-179.985 246.741-77.5049C246.741-67.9443 247.09-60.022 247.788-53.7378 248.486-47.4536 250.071-41.9482 252.542-37.2217 255.012-32.6025 258.369-29.2187 262.612-27.0703 266.856-24.9219 272.952-23.8477 280.901-23.8477 288.313-23.8477 296.209-25.9424 304.588-30.1318 312.966-34.3213 320.647-39.4775 327.63-45.6006L327.63-179.985 357.922-179.985ZM509.924-48.8232 509.924-147.598C502.405-151.25 495.449-153.855 489.058-155.413 482.666-156.97 476.301-157.749 469.964-157.749 454.602-157.749 442.517-152.109 433.709-140.83 424.9-129.551 420.496-113.384 420.496-92.3291 420.496-72.3486 423.853-57.1484 430.567-46.7285 437.28-36.3086 448.157-31.0986 463.196-31.0986 471.038-31.0986 479.121-32.6562 487.446-35.7715 495.772-38.8867 503.264-43.2373 509.924-48.8232ZM408.089 28.8428C410.13 29.7021 413.137 30.8569 417.112 32.3071 421.087 33.7573 425.598 35.1269 430.647 36.416 436.233 37.8125 441.389 38.9404 446.116 39.7998 450.842 40.6592 455.999 41.0889 461.585 41.0889 470.93 41.0889 478.853 39.8535 485.352 37.3828 491.851 34.9121 496.926 31.4746 500.579 27.0703 504.016 22.666 506.433 17.5635 507.83 11.7627 509.226 5.96191 509.924-0.644531 509.924-8.05664L509.924-23.8477C501.76-16.7578 493.757-11.521 485.916-8.13721 478.074-4.75342 468.245-3.06152 456.428-3.06152 435.911-3.06152 419.583-10.6885 407.444-25.9424 395.305-41.1963 389.236-63.1103 389.236-91.6846 389.236-106.616 391.331-119.856 395.52-131.404 399.71-142.952 405.349-152.754 412.439-160.811 419.207-168.545 427.21-174.507 436.448-178.696 445.686-182.886 455.247-184.98 465.13-184.98 474.475-184.98 482.559-183.879 489.38-181.677 496.201-179.475 503.049-176.333 509.924-172.251L511.697-179.985 540.217-179.985 540.217-20.4639C540.217 10.0439 533.557 32.4414 520.237 46.7285 506.917 61.0156 486.56 68.1592 459.168 68.1592 450.359 68.1592 441.362 67.4609 432.178 66.0644 422.993 64.668 414.426 62.7881 406.477 60.4248L406.477 28.8428Z" fill="#707070" transform="matrix(1 0 0 1 213.179 442)"/></g></g><text fill="#707070" font-family="Tahoma,Tahoma_MSFontService,sans-serif" font-weight="400" font-size="330" transform="matrix(1 0 0 1 2759.5 390)">Bug</text><g clip-path="url(#clip10)"><g clip-path="url(#clip11)"><g clip-path="url(#clip12)"><path d="M519 259.5C519 402.818 402.818 519 259.5 519 116.182 519-2.88103e-14 402.818-2.88103e-14 259.5-8.64309e-14 116.182 116.182-2.88103e-14 259.5-2.88103e-14 402.818-8.64309e-14 519 116.182 519 259.5Z" fill="#9F9F28" transform="matrix(1 0 0 1.00193 2197 0)"/><path d="M117.262 293.377C117.241 258.101 120.505 234.888 130.216 212.932 137.94 195.436 146.719 192.415 160.991 203.728 180.373 219.075 201.802 229.495 225.866 234.848 238.841 237.747 243.808 245.349 239.51 258.649 224.853 304.041 210.134 349.433 196.125 395.028 191.3 410.699 184.042 410.172 172.851 401.657 133.196 371.47 117.586 330.254 117.262 293.377Z" fill="#FFFFFF" transform="matrix(1 0 0 1.00193 2197 0)"/><path d="M401.779 284.396C401.374 329.869 385.986 368.774 350.67 398.434 333.417 412.909 328.065 411.267 321.496 390.73 307.812 347.852 294.796 304.75 280.584 262.034 275.293 246.16 278.983 237.868 295.546 234.239 318.192 229.272 338.485 219.136 356.792 204.681 372.423 192.334 380.837 194.909 388.946 213.378 398.9 236.023 401.779 259.966 401.779 284.376Z" fill="#FFFFFF" transform="matrix(1 0 0 1.00193 2197 0)"/><path d="M259.318 212.932C228.056 213.783 201.133 203.282 177.089 184.346 164.58 174.514 162.755 165.411 174.919 152.862 223.089 103.111 294.614 102.867 343.452 152.172 356.529 165.37 354.441 174.798 341.121 185.056 316.874 203.708 289.89 214.067 259.338 212.932Z" fill="#FFFFFF" transform="matrix(1 0 0 1.00193 2197 0)"/><path d="M260.311 363.057C268.481 362.611 275.82 362.307 283.159 361.759 292.789 361.05 295.688 367.03 297.371 375.018 299.074 383.067 296.296 387.77 288.471 390.081 269.393 395.717 250.377 395.596 231.259 390.345 222.339 387.892 219.926 382.56 221.873 373.781 223.778 365.206 228.056 360.969 237.138 361.78 245.126 362.489 253.134 362.672 260.331 363.057Z" fill="#FFFFFF" transform="matrix(1 0 0 1.00193 2197 0)"/><path d="M259.277 346.128C249.424 344.304 234.929 349.068 235.638 331.937 236.267 316.833 246.343 313.225 260.838 313.265 275.455 313.306 283.24 319.347 283.342 332.565 283.484 349.534 268.826 344.142 259.297 346.128Z" fill="#FFFFFF" transform="matrix(1 0 0 1.00193 2197 0)"/></g></g></g></g></svg>