<svg width="1496" height="758" xmlns="http://www.w3.org/2000/svg" xmlns:xlink="http://www.w3.org/1999/xlink" xml:space="preserve" overflow="hidden"><defs><filter id="fx0" x="-10%" y="-10%" width="120%" height="120%" filterUnits="userSpaceOnUse" primitiveUnits="userSpaceOnUse"><feComponentTransfer color-interpolation-filters="sRGB"><feFuncR type="discrete" tableValues="0 0"/><feFuncG type="discrete" tableValues="0 0"/><feFuncB type="discrete" tableValues="0 0"/><feFuncA type="linear" slope="0.4" intercept="0"/></feComponentTransfer><feGaussianBlur stdDeviation="6.11111 6.11111"/></filter><filter id="fx1" x="-10%" y="-10%" width="120%" height="120%" filterUnits="userSpaceOnUse" primitiveUnits="userSpaceOnUse"><feComponentTransfer color-interpolation-filters="sRGB"><feFuncR type="discrete" tableValues="0 0"/><feFuncG type="discrete" tableValues="0 0"/><feFuncB type="discrete" tableValues="0 0"/><feFuncA type="linear" slope="0.431373" intercept="0"/></feComponentTransfer><feGaussianBlur stdDeviation="4.56444 4.56444"/></filter><filter id="fx2" x="-10%" y="-10%" width="120%" height="120%" filterUnits="userSpaceOnUse" primitiveUnits="userSpaceOnUse"><feComponentTransfer color-interpolation-filters="sRGB"><feFuncR type="discrete" tableValues="0 0"/><feFuncG type="discrete" tableValues="0 0"/><feFuncB type="discrete" tableValues="0 0"/><feFuncA type="linear" slope="0.4" intercept="0"/></feComponentTransfer><feGaussianBlur stdDeviation="6.11111 6.11111"/></filter><filter id="fx3" x="-10%" y="-10%" width="120%" height="120%" filterUnits="userSpaceOnUse" primitiveUnits="userSpaceOnUse"><feComponentTransfer color-interpolation-filters="sRGB"><feFuncR type="discrete" tableValues="0 0"/><feFuncG type="discrete" tableValues="0 0"/><feFuncB type="discrete" tableValues="0 0"/><feFuncA type="linear" slope="0.431373" intercept="0"/></feComponentTransfer><feGaussianBlur stdDeviation="4.56444 4.56444"/></filter><clipPath id="clip4"><rect x="2188" y="574" width="1496" height="758"/></clipPath><clipPath id="clip5"><rect x="214" y="169" width="747" height="338"/></clipPath><clipPath id="clip6"><rect x="0" y="0" width="1145" height="761"/></clipPath><clipPath id="clip7"><rect x="219" y="175" width="699" height="289"/></clipPath><clipPath id="clip8"><rect x="0" y="0" width="1107" height="723"/></clipPath><clipPath id="clip9"><rect x="219" y="175" width="699" height="289"/></clipPath><clipPath id="clip10"><rect x="2196" y="623" width="520" height="521"/></clipPath><clipPath id="clip11"><rect x="2196" y="623" width="520" height="521"/></clipPath><clipPath id="clip12"><rect x="2196" y="623" width="520" height="521"/></clipPath></defs><g clip-path="url(#clip4)" transform="translate(-2188 -574)"><g filter="url(#fx0)" transform="translate(2187 614)"><g><path d="M19.7227 279.723C19.7227 136.129 136.129 19.7226 279.723 19.7226L1105.72 19.7226C1249.32 19.7226 1365.72 136.129 1365.72 279.723L1365.72 279.723C1365.72 423.317 1249.32 539.723 1105.72 539.723L279.723 539.723C136.129 539.723 19.7227 423.317 19.7227 279.723Z" fill="#FFFFFF" fill-rule="evenodd"/></g></g><g clip-path="url(#clip5)" filter="url(#fx2)" transform="translate(2540 573)"><g clip-path="url(#clip6)"><g clip-path="url(#clip7)" filter="url(#fx1)" transform="translate(19 19)"><g clip-path="url(#clip8)"><path d="M213.501-119.722C213.501-97.8076 209.07-78.042 200.208-60.4248 191.345-42.8076 179.448-29.0576 164.517-19.1748 152.378-11.5478 140.051-6.44531 127.537-3.86719 115.022-1.28906 99.043 0 79.5996 0L24.3311 0 24.3311-239.927 78.9551-239.927C101.514-239.927 119.211-238.235 132.048-234.851 144.885-231.467 155.815-226.821 164.839-220.913 180.308-210.708 192.285-197.146 200.771-180.227 209.258-163.308 213.501-143.14 213.501-119.722ZM180.308-120.205C180.308-138.682 177.246-154.446 171.123-167.498 165-180.549 155.923-190.728 143.892-198.032 135.405-203.188 126.328-206.895 116.66-209.15 106.992-211.406 94.9609-212.534 80.5664-212.534L56.2353-212.534 56.2353-27.3926 80.5664-27.3926C94.7461-27.3926 107.153-28.5205 117.788-30.7764 128.423-33.0322 138.145-37.2217 146.953-43.3447 158.018-50.8643 166.343-60.8813 171.929-73.396 177.515-85.9106 180.308-101.514 180.308-120.205ZM346.471-44.3115 346.471-94.2627C339.274-93.6182 330.17-92.7319 319.159-91.604 308.149-90.4761 299.259-88.8916 292.492-86.8506 284.435-84.3799 277.775-80.5933 272.511-75.4907 267.248-70.3882 264.616-63.2715 264.616-54.1406 264.616-43.8281 267.516-36.04 273.317-30.7764 279.118-25.5127 287.604-22.8809 298.776-22.8809 308.337-22.8809 316.984-24.9487 324.718-29.0845 332.453-33.2202 339.704-38.2959 346.471-44.3115ZM346.471-19.1748C344.001-17.3486 340.697-14.7974 336.562-11.521 332.426-8.24463 328.424-5.63965 324.557-3.70605 319.186-0.913086 314.003 1.23535 309.008 2.73926 304.013 4.24316 297.004 4.99512 287.98 4.99512 280.568 4.99512 273.532 3.59863 266.872 0.805664 260.212-1.9873 254.357-5.9082 249.308-10.957 244.474-15.8984 240.607-21.9946 237.707-29.2456 234.806-36.4966 233.356-44.1504 233.356-52.207 233.356-64.668 235.988-75.2759 241.252-84.0308 246.515-92.7856 254.84-99.7412 266.227-104.897 276.325-109.517 288.249-112.712 301.999-114.485 315.749-116.257 330.573-117.573 346.471-118.433L346.471-124.233C346.471-131.323 345.397-137.043 343.249-141.394 341.1-145.745 338.092-149.102 334.225-151.465 330.358-153.936 325.631-155.574 320.046-156.379 314.46-157.185 308.713-157.588 302.804-157.588 295.822-157.588 287.604-156.541 278.151-154.446 268.698-152.351 259.245-149.316 249.792-145.342L248.019-145.342 248.019-176.118C253.605-177.729 261.608-179.502 272.028-181.436 282.448-183.369 292.76-184.336 302.965-184.336 315.319-184.336 325.739-183.369 334.225-181.436 342.712-179.502 350.339-176.011 357.106-170.962 363.659-166.02 368.547-159.629 371.769-151.787 374.992-143.945 376.603-134.385 376.603-123.105L376.603 0 346.471 0ZM514.336-147.437 512.725-147.437C510.469-148.081 508.079-148.484 505.554-148.645 503.03-148.806 499.995-148.887 496.45-148.887 488.286-148.887 480.176-147.114 472.119-143.569 464.062-140.024 456.436-134.761 449.238-127.778L449.238 0 418.945 0 418.945-179.985 449.238-179.985 449.238-153.237C460.303-163.013 469.944-169.915 478.162-173.943 486.379-177.971 494.355-179.985 502.09-179.985 505.205-179.985 507.541-179.905 509.099-179.744 510.657-179.583 512.402-179.341 514.336-179.019ZM687.321 0 647.521 0 580.329-86.8506 568.405-75.249 568.405 0 538.112 0 538.112-250.723 568.405-250.723 568.405-103.931 639.626-179.985 677.331-179.985 603.371-104.736Z" fill="#707070" transform="matrix(1 0 0 1 -2326.52 -131)"/></g></g><path d="M213.501-119.722C213.501-97.8076 209.07-78.042 200.208-60.4248 191.345-42.8076 179.448-29.0576 164.517-19.1748 152.378-11.5478 140.051-6.44531 127.537-3.86719 115.022-1.28906 99.043 0 79.5996 0L24.3311 0 24.3311-239.927 78.9551-239.927C101.514-239.927 119.211-238.235 132.048-234.851 144.885-231.467 155.815-226.821 164.839-220.913 180.308-210.708 192.285-197.146 200.771-180.227 209.258-163.308 213.501-143.14 213.501-119.722ZM180.308-120.205C180.308-138.682 177.246-154.446 171.123-167.498 165-180.549 155.923-190.728 143.892-198.032 135.405-203.188 126.328-206.895 116.66-209.15 106.992-211.406 94.9609-212.534 80.5664-212.534L56.2353-212.534 56.2353-27.3926 80.5664-27.3926C94.7461-27.3926 107.153-28.5205 117.788-30.7764 128.423-33.0322 138.145-37.2217 146.953-43.3447 158.018-50.8643 166.343-60.8813 171.929-73.396 177.515-85.9106 180.308-101.514 180.308-120.205ZM346.471-44.3115 346.471-94.2627C339.274-93.6182 330.17-92.7319 319.159-91.604 308.149-90.4761 299.259-88.8916 292.492-86.8506 284.435-84.3799 277.775-80.5933 272.511-75.4907 267.248-70.3882 264.616-63.2715 264.616-54.1406 264.616-43.8281 267.516-36.04 273.317-30.7764 279.118-25.5127 287.604-22.8809 298.776-22.8809 308.337-22.8809 316.984-24.9487 324.718-29.0845 332.453-33.2202 339.704-38.2959 346.471-44.3115ZM346.471-19.1748C344.001-17.3486 340.697-14.7974 336.562-11.521 332.426-8.24463 328.424-5.63965 324.557-3.70605 319.186-0.913086 314.003 1.23535 309.008 2.73926 304.013 4.24316 297.004 4.99512 287.98 4.99512 280.568 4.99512 273.532 3.59863 266.872 0.805664 260.212-1.9873 254.357-5.9082 249.308-10.957 244.474-15.8984 240.607-21.9946 237.707-29.2456 234.806-36.4966 233.356-44.1504 233.356-52.207 233.356-64.668 235.988-75.2759 241.252-84.0308 246.515-92.7856 254.84-99.7412 266.227-104.897 276.325-109.517 288.249-112.712 301.999-114.485 315.749-116.257 330.573-117.573 346.471-118.433L346.471-124.233C346.471-131.323 345.397-137.043 343.249-141.394 341.1-145.745 338.092-149.102 334.225-151.465 330.358-153.936 325.631-155.574 320.046-156.379 314.46-157.185 308.713-157.588 302.804-157.588 295.822-157.588 287.604-156.541 278.151-154.446 268.698-152.351 259.245-149.316 249.792-145.342L248.019-145.342 248.019-176.118C253.605-177.729 261.608-179.502 272.028-181.436 282.448-183.369 292.76-184.336 302.965-184.336 315.319-184.336 325.739-183.369 334.225-181.436 342.712-179.502 350.339-176.011 357.106-170.962 363.659-166.02 368.547-159.629 371.769-151.787 374.992-143.945 376.603-134.385 376.603-123.105L376.603 0 346.471 0ZM514.336-147.437 512.725-147.437C510.469-148.081 508.079-148.484 505.554-148.645 503.03-148.806 499.995-148.887 496.45-148.887 488.286-148.887 480.176-147.114 472.119-143.569 464.062-140.024 456.436-134.761 449.238-127.778L449.238 0 418.945 0 418.945-179.985 449.238-179.985 449.238-153.237C460.303-163.013 469.944-169.915 478.162-173.943 486.379-177.971 494.355-179.985 502.09-179.985 505.205-179.985 507.541-179.905 509.099-179.744 510.657-179.583 512.402-179.341 514.336-179.019ZM687.321 0 647.521 0 580.329-86.8506 568.405-75.249 568.405 0 538.112 0 538.112-250.723 568.405-250.723 568.405-103.931 639.626-179.985 677.331-179.985 603.371-104.736Z" fill="#707070" transform="matrix(1 0 0 1 222.802 451)"/></g></g><path d="M2197 884C2197 740.406 2313.41 624 2457 624L3283 624C3426.59 624 3543 740.406 3543 884L3543 884C3543 1027.59 3426.59 1144 3283 1144L2457 1144C2313.41 1144 2197 1027.59 2197 884Z" fill="#FFFFFF" fill-rule="evenodd"/><g clip-path="url(#clip9)" filter="url(#fx3)" transform="translate(2550 582)"><g><path d="M213.501-119.722C213.501-97.8076 209.07-78.042 200.208-60.4248 191.345-42.8076 179.448-29.0576 164.517-19.1748 152.378-11.5478 140.051-6.44531 127.537-3.86719 115.022-1.28906 99.043 0 79.5996 0L24.3311 0 24.3311-239.927 78.9551-239.927C101.514-239.927 119.211-238.235 132.048-234.851 144.885-231.467 155.815-226.821 164.839-220.913 180.308-210.708 192.285-197.146 200.771-180.227 209.258-163.308 213.501-143.14 213.501-119.722ZM180.308-120.205C180.308-138.682 177.246-154.446 171.123-167.498 165-180.549 155.923-190.728 143.892-198.032 135.405-203.188 126.328-206.895 116.66-209.15 106.992-211.406 94.9609-212.534 80.5664-212.534L56.2353-212.534 56.2353-27.3926 80.5664-27.3926C94.7461-27.3926 107.153-28.5205 117.788-30.7764 128.423-33.0322 138.145-37.2217 146.953-43.3447 158.018-50.8643 166.343-60.8813 171.929-73.396 177.515-85.9106 180.308-101.514 180.308-120.205ZM346.471-44.3115 346.471-94.2627C339.274-93.6182 330.17-92.7319 319.159-91.604 308.149-90.4761 299.259-88.8916 292.492-86.8506 284.435-84.3799 277.775-80.5933 272.511-75.4907 267.248-70.3882 264.616-63.2715 264.616-54.1406 264.616-43.8281 267.516-36.04 273.317-30.7764 279.118-25.5127 287.604-22.8809 298.776-22.8809 308.337-22.8809 316.984-24.9487 324.718-29.0845 332.453-33.2202 339.704-38.2959 346.471-44.3115ZM346.471-19.1748C344.001-17.3486 340.697-14.7974 336.562-11.521 332.426-8.24463 328.424-5.63965 324.557-3.70605 319.186-0.913086 314.003 1.23535 309.008 2.73926 304.013 4.24316 297.004 4.99512 287.98 4.99512 280.568 4.99512 273.532 3.59863 266.872 0.805664 260.212-1.9873 254.357-5.9082 249.308-10.957 244.474-15.8984 240.607-21.9946 237.707-29.2456 234.806-36.4966 233.356-44.1504 233.356-52.207 233.356-64.668 235.988-75.2759 241.252-84.0308 246.515-92.7856 254.84-99.7412 266.227-104.897 276.325-109.517 288.249-112.712 301.999-114.485 315.749-116.257 330.573-117.573 346.471-118.433L346.471-124.233C346.471-131.323 345.397-137.043 343.249-141.394 341.1-145.745 338.092-149.102 334.225-151.465 330.358-153.936 325.631-155.574 320.046-156.379 314.46-157.185 308.713-157.588 302.804-157.588 295.822-157.588 287.604-156.541 278.151-154.446 268.698-152.351 259.245-149.316 249.792-145.342L248.019-145.342 248.019-176.118C253.605-177.729 261.608-179.502 272.028-181.436 282.448-183.369 292.76-184.336 302.965-184.336 315.319-184.336 325.739-183.369 334.225-181.436 342.712-179.502 350.339-176.011 357.106-170.962 363.659-166.02 368.547-159.629 371.769-151.787 374.992-143.945 376.603-134.385 376.603-123.105L376.603 0 346.471 0ZM514.336-147.437 512.725-147.437C510.469-148.081 508.079-148.484 505.554-148.645 503.03-148.806 499.995-148.887 496.45-148.887 488.286-148.887 480.176-147.114 472.119-143.569 464.062-140.024 456.436-134.761 449.238-127.778L449.238 0 418.945 0 418.945-179.985 449.238-179.985 449.238-153.237C460.303-163.013 469.944-169.915 478.162-173.943 486.379-177.971 494.355-179.985 502.09-179.985 505.205-179.985 507.541-179.905 509.099-179.744 510.657-179.583 512.402-179.341 514.336-179.019ZM687.321 0 647.521 0 580.329-86.8506 568.405-75.249 568.405 0 538.112 0 538.112-250.723 568.405-250.723 568.405-103.931 639.626-179.985 677.331-179.985 603.371-104.736Z" fill="#707070" transform="matrix(1 0 0 1 212.762 442)"/></g></g><text fill="#707070" font-family="Tahoma,Tahoma_MSFontService,sans-serif" font-weight="400" font-size="330" transform="matrix(1 0 0 1 2753.08 1014)">Dark</text><g clip-path="url(#clip10)"><g clip-path="url(#clip11)"><g clip-path="url(#clip12)"><path d="M519 259.5C519 402.818 402.818 519 259.5 519 116.182 519-2.88103e-14 402.818-2.88103e-14 259.5-8.64309e-14 116.182 116.182-2.88103e-14 259.5-2.88103e-14 402.818-8.64309e-14 519 116.182 519 259.5Z" fill="#4F4747" transform="matrix(1 0 0 1.00193 2197 624)"/><path d="M150.956 170.783C166.141 186.11 186.941 201.092 205.775 205.106 202.978 210.864 201.964 215.385 200.971 221.791 195.335 257.919 198.558 291.998 225.603 319.712 245.998 340.614 273.144 340.553 293.539 319.53 320.483 291.735 323.767 257.675 317.888 221.548 317.016 216.237 313.975 202.998 314.076 202.815 314.279 202.451 314.076 202.653 316.103 202.045 329.241 198.984 353.853 185.847 368.916 170.621 400.056 194.706 416.862 245.451 397.664 285.876 371.43 341.101 310.163 390.811 232.577 374.998 173.48 362.955 133.156 325.348 115.092 267.123 106.699 240.098 118.478 194.179 150.976 170.783Z" fill="#FFFFFF" transform="matrix(1 0 0 1.00193 2197 624)"/><path d="M283.666 252.161C283.119 262.906 282.064 277.726 271.401 289.566 263.048 298.831 255.263 299.358 247.762 289.505 232.699 269.738 232.638 247.154 238.679 224.245 242.653 209.202 244.477 208.229 259.48 208.229 274.502 208.229 275.638 209.404 280.524 224.143 283.119 232.009 283.727 239.916 283.686 252.181Z" fill="#FFFFFF" transform="matrix(1 0 0 1.00193 2197 624)"/></g></g></g></g></svg>