<svg width="1864" height="758" xmlns="http://www.w3.org/2000/svg" xmlns:xlink="http://www.w3.org/1999/xlink" xml:space="preserve" overflow="hidden"><defs><filter id="fx0" x="-10%" y="-10%" width="120%" height="120%" filterUnits="userSpaceOnUse" primitiveUnits="userSpaceOnUse"><feComponentTransfer color-interpolation-filters="sRGB"><feFuncR type="discrete" tableValues="0 0"/><feFuncG type="discrete" tableValues="0 0"/><feFuncB type="discrete" tableValues="0 0"/><feFuncA type="linear" slope="0.4" intercept="0"/></feComponentTransfer><feGaussianBlur stdDeviation="6.11111 6.11111"/></filter><filter id="fx1" x="-10%" y="-10%" width="120%" height="120%" filterUnits="userSpaceOnUse" primitiveUnits="userSpaceOnUse"><feComponentTransfer color-interpolation-filters="sRGB"><feFuncR type="discrete" tableValues="0 0"/><feFuncG type="discrete" tableValues="0 0"/><feFuncB type="discrete" tableValues="0 0"/><feFuncA type="linear" slope="0.431373" intercept="0"/></feComponentTransfer><feGaussianBlur stdDeviation="4.56444 4.56444"/></filter><filter id="fx2" x="-10%" y="-10%" width="120%" height="120%" filterUnits="userSpaceOnUse" primitiveUnits="userSpaceOnUse"><feComponentTransfer color-interpolation-filters="sRGB"><feFuncR type="discrete" tableValues="0 0"/><feFuncG type="discrete" tableValues="0 0"/><feFuncB type="discrete" tableValues="0 0"/><feFuncA type="linear" slope="0.4" intercept="0"/></feComponentTransfer><feGaussianBlur stdDeviation="6.11111 6.11111"/></filter><filter id="fx3" x="-10%" y="-10%" width="120%" height="120%" filterUnits="userSpaceOnUse" primitiveUnits="userSpaceOnUse"><feComponentTransfer color-interpolation-filters="sRGB"><feFuncR type="discrete" tableValues="0 0"/><feFuncG type="discrete" tableValues="0 0"/><feFuncB type="discrete" tableValues="0 0"/><feFuncA type="linear" slope="0.431373" intercept="0"/></feComponentTransfer><feGaussianBlur stdDeviation="4.56444 4.56444"/></filter><clipPath id="clip4"><rect x="2188" y="1196" width="1864" height="758"/></clipPath><clipPath id="clip5"><rect x="214" y="183" width="1094" height="389"/></clipPath><clipPath id="clip6"><rect x="0" y="0" width="1519" height="761"/></clipPath><clipPath id="clip7"><rect x="219" y="187" width="1047" height="342"/></clipPath><clipPath id="clip8"><rect x="0" y="0" width="1481" height="723"/></clipPath><clipPath id="clip9"><rect x="219" y="187" width="1047" height="342"/></clipPath><clipPath id="clip10"><rect x="2196" y="1246" width="520" height="520"/></clipPath><clipPath id="clip11"><rect x="2196" y="1246" width="520" height="520"/></clipPath><clipPath id="clip12"><rect x="2196" y="1246" width="520" height="520"/></clipPath></defs><g clip-path="url(#clip4)" transform="translate(-2188 -1196)"><g filter="url(#fx0)" transform="translate(2187 1236)"><g><path d="M19.7227 279.723C19.7227 136.129 136.129 19.7228 279.722 19.7228L1473.72 19.7228C1617.32 19.7228 1733.72 136.129 1733.72 279.723L1733.72 279.723C1733.72 423.317 1617.32 539.723 1473.72 539.723L279.722 539.723C136.129 539.723 19.7227 423.317 19.7227 279.723Z" fill="#FFFFFF" fill-rule="evenodd"/></g></g><g clip-path="url(#clip5)" filter="url(#fx2)" transform="translate(2534 1195)"><g clip-path="url(#clip6)"><g clip-path="url(#clip7)" filter="url(#fx1)" transform="translate(19 19)"><g clip-path="url(#clip8)"><path d="M213.501-119.722C213.501-97.8076 209.07-78.042 200.208-60.4248 191.345-42.8076 179.448-29.0576 164.517-19.1748 152.378-11.5478 140.051-6.44531 127.537-3.86719 115.022-1.28906 99.043 0 79.5996 0L24.3311 0 24.3311-239.927 78.9551-239.927C101.514-239.927 119.211-238.235 132.048-234.851 144.885-231.467 155.815-226.821 164.839-220.913 180.308-210.708 192.285-197.146 200.771-180.227 209.258-163.308 213.501-143.14 213.501-119.722ZM180.308-120.205C180.308-138.682 177.246-154.446 171.123-167.498 165-180.549 155.923-190.728 143.892-198.032 135.405-203.188 126.328-206.895 116.66-209.15 106.992-211.406 94.9609-212.534 80.5664-212.534L56.2353-212.534 56.2353-27.3926 80.5664-27.3926C94.7461-27.3926 107.153-28.5205 117.788-30.7764 128.423-33.0322 138.145-37.2217 146.953-43.3447 158.018-50.8643 166.343-60.8813 171.929-73.396 177.515-85.9106 180.308-101.514 180.308-120.205ZM341.315-147.437 339.704-147.437C337.448-148.081 335.058-148.484 332.533-148.645 330.009-148.806 326.974-148.887 323.429-148.887 315.265-148.887 307.155-147.114 299.098-143.569 291.042-140.024 283.415-134.761 276.217-127.778L276.217 0 245.924 0 245.924-179.985 276.217-179.985 276.217-153.237C287.282-163.013 296.923-169.915 305.141-173.943 313.359-177.971 321.335-179.985 329.069-179.985 332.184-179.985 334.521-179.905 336.078-179.744 337.636-179.583 339.381-179.341 341.315-179.019ZM460-44.3115 460-94.2627C452.803-93.6182 443.699-92.7319 432.688-91.604 421.678-90.4761 412.789-88.8916 406.021-86.8506 397.964-84.3799 391.304-80.5933 386.041-75.4907 380.777-70.3882 378.145-63.2715 378.145-54.1406 378.145-43.8281 381.045-36.04 386.846-30.7764 392.647-25.5127 401.133-22.8809 412.305-22.8809 421.866-22.8809 430.513-24.9487 438.248-29.0845 445.982-33.2202 453.233-38.2959 460-44.3115ZM460-19.1748C457.53-17.3486 454.227-14.7974 450.091-11.521 445.955-8.24463 441.954-5.63965 438.086-3.70605 432.715-0.913086 427.532 1.23535 422.537 2.73926 417.542 4.24316 410.533 4.99512 401.509 4.99512 394.097 4.99512 387.061 3.59863 380.401 0.805664 373.741-1.9873 367.886-5.9082 362.837-10.957 358.003-15.8984 354.136-21.9946 351.236-29.2456 348.335-36.4966 346.885-44.1504 346.885-52.207 346.885-64.668 349.517-75.2759 354.781-84.0308 360.044-92.7856 368.37-99.7412 379.756-104.897 389.854-109.517 401.778-112.712 415.528-114.485 429.278-116.257 444.102-117.573 460-118.433L460-124.233C460-131.323 458.926-137.043 456.778-141.394 454.629-145.745 451.622-149.102 447.754-151.465 443.887-153.936 439.161-155.574 433.575-156.379 427.989-157.185 422.242-157.588 416.333-157.588 409.351-157.588 401.133-156.541 391.68-154.446 382.227-152.351 372.774-149.316 363.321-145.342L361.548-145.342 361.548-176.118C367.134-177.729 375.137-179.502 385.557-181.436 395.977-183.369 406.29-184.336 416.495-184.336 428.848-184.336 439.268-183.369 447.754-181.436 456.241-179.502 463.868-176.011 470.635-170.962 477.188-166.02 482.076-159.629 485.298-151.787 488.521-143.945 490.132-134.385 490.132-123.105L490.132 0 460 0ZM640.756-48.8232 640.756-147.598C633.236-151.25 626.281-153.855 619.889-155.413 613.497-156.97 607.133-157.749 600.795-157.749 585.433-157.749 573.348-152.109 564.54-140.83 555.731-129.551 551.327-113.384 551.327-92.3291 551.327-72.3486 554.684-57.1484 561.398-46.7285 568.112-36.3086 578.988-31.0986 594.027-31.0986 601.869-31.0986 609.952-32.6562 618.278-35.7715 626.603-38.8867 634.096-43.2373 640.756-48.8232ZM538.92 28.8428C540.961 29.7021 543.969 30.8569 547.943 32.3071 551.918 33.7573 556.43 35.1269 561.478 36.416 567.064 37.8125 572.221 38.9404 576.947 39.7998 581.674 40.6592 586.83 41.0889 592.416 41.0889 601.762 41.0889 609.684 39.8535 616.183 37.3828 622.682 34.9121 627.758 31.4746 631.41 27.0703 634.847 22.666 637.264 17.5635 638.661 11.7627 640.057 5.96191 640.756-0.644531 640.756-8.05664L640.756-23.8477C632.592-16.7578 624.589-11.521 616.747-8.13721 608.905-4.75342 599.076-3.06152 587.26-3.06152 566.742-3.06152 550.414-10.6885 538.275-25.9424 526.137-41.1963 520.067-63.1103 520.067-91.6846 520.067-106.616 522.162-119.856 526.351-131.404 530.541-142.952 536.18-152.754 543.27-160.811 550.038-168.545 558.041-174.507 567.279-178.696 576.517-182.886 586.078-184.98 595.961-184.98 605.306-184.98 613.39-183.879 620.211-181.677 627.033-179.475 633.881-176.333 640.756-172.251L642.528-179.985 671.049-179.985 671.049-20.4639C671.049 10.0439 664.388 32.4414 651.068 46.7285 637.748 61.0156 617.391 68.1592 589.999 68.1592 581.19 68.1592 572.194 67.4609 563.009 66.0644 553.825 64.668 545.258 62.7881 537.308 60.4248L537.308 28.8428ZM862.743-89.9121C862.743-59.6191 855.438-36.228 840.829-19.7388 826.219-3.24951 806.776 4.99512 782.499 4.99512 757.469 4.99512 737.784-3.51807 723.444-20.5444 709.103-37.5708 701.932-60.6934 701.932-89.9121 701.932-119.99 709.318-143.354 724.088-160.005 738.859-176.655 758.329-184.98 782.499-184.98 806.776-184.98 826.219-176.682 840.829-160.085 855.438-143.489 862.743-120.098 862.743-89.9121ZM831.483-89.9121C831.483-113.223 827.24-130.544 818.754-141.877 810.267-153.21 798.182-158.877 782.499-158.877 766.708-158.877 754.542-153.21 746.002-141.877 737.462-130.544 733.192-113.223 733.192-89.9121 733.192-67.3535 737.462-50.2466 746.002-38.5913 754.542-26.936 766.708-21.1084 782.499-21.1084 798.075-21.1084 810.133-26.8286 818.673-38.269 827.213-49.7095 831.483-66.9238 831.483-89.9121ZM1035.46 0 1005.17 0 1005.17-102.48C1005.17-110.752 1004.76-118.459 1003.96-125.603 1003.15-132.747 1001.62-138.467 999.366-142.764 996.895-147.275 993.458-150.632 989.053-152.834 984.649-155.037 978.633-156.138 971.006-156.138 963.487-156.138 955.726-154.124 947.723-150.095 939.72-146.067 931.905-140.83 924.278-134.385L924.278 0 893.985 0 893.985-179.985 924.278-179.985 924.278-160.005C933.301-168.062 942.217-174.238 951.026-178.535 959.834-182.832 969.126-184.98 978.902-184.98 996.626-184.98 1010.48-179.153 1020.47-167.498 1030.46-155.842 1035.46-138.95 1035.46-116.821Z" fill="#707070" transform="matrix(1 0 0 1 -2321.48 -753)"/></g></g><path d="M213.501-119.722C213.501-97.8076 209.07-78.042 200.208-60.4248 191.345-42.8076 179.448-29.0576 164.517-19.1748 152.378-11.5478 140.051-6.44531 127.537-3.86719 115.022-1.28906 99.043 0 79.5996 0L24.3311 0 24.3311-239.927 78.9551-239.927C101.514-239.927 119.211-238.235 132.048-234.851 144.885-231.467 155.815-226.821 164.839-220.913 180.308-210.708 192.285-197.146 200.771-180.227 209.258-163.308 213.501-143.14 213.501-119.722ZM180.308-120.205C180.308-138.682 177.246-154.446 171.123-167.498 165-180.549 155.923-190.728 143.892-198.032 135.405-203.188 126.328-206.895 116.66-209.15 106.992-211.406 94.9609-212.534 80.5664-212.534L56.2353-212.534 56.2353-27.3926 80.5664-27.3926C94.7461-27.3926 107.153-28.5205 117.788-30.7764 128.423-33.0322 138.145-37.2217 146.953-43.3447 158.018-50.8643 166.343-60.8813 171.929-73.396 177.515-85.9106 180.308-101.514 180.308-120.205ZM341.315-147.437 339.704-147.437C337.448-148.081 335.058-148.484 332.533-148.645 330.009-148.806 326.974-148.887 323.429-148.887 315.265-148.887 307.155-147.114 299.098-143.569 291.042-140.024 283.415-134.761 276.217-127.778L276.217 0 245.924 0 245.924-179.985 276.217-179.985 276.217-153.237C287.282-163.013 296.923-169.915 305.141-173.943 313.359-177.971 321.335-179.985 329.069-179.985 332.184-179.985 334.521-179.905 336.078-179.744 337.636-179.583 339.381-179.341 341.315-179.019ZM460-44.3115 460-94.2627C452.803-93.6182 443.699-92.7319 432.688-91.604 421.678-90.4761 412.789-88.8916 406.021-86.8506 397.964-84.3799 391.304-80.5933 386.041-75.4907 380.777-70.3882 378.145-63.2715 378.145-54.1406 378.145-43.8281 381.045-36.04 386.846-30.7764 392.647-25.5127 401.133-22.8809 412.305-22.8809 421.866-22.8809 430.513-24.9487 438.248-29.0845 445.982-33.2202 453.233-38.2959 460-44.3115ZM460-19.1748C457.53-17.3486 454.227-14.7974 450.091-11.521 445.955-8.24463 441.954-5.63965 438.086-3.70605 432.715-0.913086 427.532 1.23535 422.537 2.73926 417.542 4.24316 410.533 4.99512 401.509 4.99512 394.097 4.99512 387.061 3.59863 380.401 0.805664 373.741-1.9873 367.886-5.9082 362.837-10.957 358.003-15.8984 354.136-21.9946 351.236-29.2456 348.335-36.4966 346.885-44.1504 346.885-52.207 346.885-64.668 349.517-75.2759 354.781-84.0308 360.044-92.7856 368.37-99.7412 379.756-104.897 389.854-109.517 401.778-112.712 415.528-114.485 429.278-116.257 444.102-117.573 460-118.433L460-124.233C460-131.323 458.926-137.043 456.778-141.394 454.629-145.745 451.622-149.102 447.754-151.465 443.887-153.936 439.161-155.574 433.575-156.379 427.989-157.185 422.242-157.588 416.333-157.588 409.351-157.588 401.133-156.541 391.68-154.446 382.227-152.351 372.774-149.316 363.321-145.342L361.548-145.342 361.548-176.118C367.134-177.729 375.137-179.502 385.557-181.436 395.977-183.369 406.29-184.336 416.495-184.336 428.848-184.336 439.268-183.369 447.754-181.436 456.241-179.502 463.868-176.011 470.635-170.962 477.188-166.02 482.076-159.629 485.298-151.787 488.521-143.945 490.132-134.385 490.132-123.105L490.132 0 460 0ZM640.756-48.8232 640.756-147.598C633.236-151.25 626.281-153.855 619.889-155.413 613.497-156.97 607.133-157.749 600.795-157.749 585.433-157.749 573.348-152.109 564.54-140.83 555.731-129.551 551.327-113.384 551.327-92.3291 551.327-72.3486 554.684-57.1484 561.398-46.7285 568.112-36.3086 578.988-31.0986 594.027-31.0986 601.869-31.0986 609.952-32.6562 618.278-35.7715 626.603-38.8867 634.096-43.2373 640.756-48.8232ZM538.92 28.8428C540.961 29.7021 543.969 30.8569 547.943 32.3071 551.918 33.7573 556.43 35.1269 561.478 36.416 567.064 37.8125 572.221 38.9404 576.947 39.7998 581.674 40.6592 586.83 41.0889 592.416 41.0889 601.762 41.0889 609.684 39.8535 616.183 37.3828 622.682 34.9121 627.758 31.4746 631.41 27.0703 634.847 22.666 637.264 17.5635 638.661 11.7627 640.057 5.96191 640.756-0.644531 640.756-8.05664L640.756-23.8477C632.592-16.7578 624.589-11.521 616.747-8.13721 608.905-4.75342 599.076-3.06152 587.26-3.06152 566.742-3.06152 550.414-10.6885 538.275-25.9424 526.137-41.1963 520.067-63.1103 520.067-91.6846 520.067-106.616 522.162-119.856 526.351-131.404 530.541-142.952 536.18-152.754 543.27-160.811 550.038-168.545 558.041-174.507 567.279-178.696 576.517-182.886 586.078-184.98 595.961-184.98 605.306-184.98 613.39-183.879 620.211-181.677 627.033-179.475 633.881-176.333 640.756-172.251L642.528-179.985 671.049-179.985 671.049-20.4639C671.049 10.0439 664.388 32.4414 651.068 46.7285 637.748 61.0156 617.391 68.1592 589.999 68.1592 581.19 68.1592 572.194 67.4609 563.009 66.0644 553.825 64.668 545.258 62.7881 537.308 60.4248L537.308 28.8428ZM862.743-89.9121C862.743-59.6191 855.438-36.228 840.829-19.7388 826.219-3.24951 806.776 4.99512 782.499 4.99512 757.469 4.99512 737.784-3.51807 723.444-20.5444 709.103-37.5708 701.932-60.6934 701.932-89.9121 701.932-119.99 709.318-143.354 724.088-160.005 738.859-176.655 758.329-184.98 782.499-184.98 806.776-184.98 826.219-176.682 840.829-160.085 855.438-143.489 862.743-120.098 862.743-89.9121ZM831.483-89.9121C831.483-113.223 827.24-130.544 818.754-141.877 810.267-153.21 798.182-158.877 782.499-158.877 766.708-158.877 754.542-153.21 746.002-141.877 737.462-130.544 733.192-113.223 733.192-89.9121 733.192-67.3535 737.462-50.2466 746.002-38.5913 754.542-26.936 766.708-21.1084 782.499-21.1084 798.075-21.1084 810.133-26.8286 818.673-38.269 827.213-49.7095 831.483-66.9238 831.483-89.9121ZM1035.46 0 1005.17 0 1005.17-102.48C1005.17-110.752 1004.76-118.459 1003.96-125.603 1003.15-132.747 1001.62-138.467 999.366-142.764 996.895-147.275 993.458-150.632 989.053-152.834 984.649-155.037 978.633-156.138 971.006-156.138 963.487-156.138 955.726-154.124 947.723-150.095 939.72-146.067 931.905-140.83 924.278-134.385L924.278 0 893.985 0 893.985-179.985 924.278-179.985 924.278-160.005C933.301-168.062 942.217-174.238 951.026-178.535 959.834-182.832 969.126-184.98 978.902-184.98 996.626-184.98 1010.48-179.153 1020.47-167.498 1030.46-155.842 1035.46-138.95 1035.46-116.821Z" fill="#707070" transform="matrix(1 0 0 1 221.836 451)"/></g></g><path d="M2197 1506C2197 1362.41 2313.41 1246 2457 1246L3651 1246C3794.59 1246 3911 1362.41 3911 1506L3911 1506C3911 1649.59 3794.59 1766 3651 1766L2457 1766C2313.41 1766 2197 1649.59 2197 1506Z" fill="#FFFFFF" fill-rule="evenodd"/><g clip-path="url(#clip9)" filter="url(#fx3)" transform="translate(2543 1204)"><g><path d="M213.501-119.722C213.501-97.8076 209.07-78.042 200.208-60.4248 191.345-42.8076 179.448-29.0576 164.517-19.1748 152.378-11.5478 140.051-6.44531 127.537-3.86719 115.022-1.28906 99.043 0 79.5996 0L24.3311 0 24.3311-239.927 78.9551-239.927C101.514-239.927 119.211-238.235 132.048-234.851 144.885-231.467 155.815-226.821 164.839-220.913 180.308-210.708 192.285-197.146 200.771-180.227 209.258-163.308 213.501-143.14 213.501-119.722ZM180.308-120.205C180.308-138.682 177.246-154.446 171.123-167.498 165-180.549 155.923-190.728 143.892-198.032 135.405-203.188 126.328-206.895 116.66-209.15 106.992-211.406 94.9609-212.534 80.5664-212.534L56.2353-212.534 56.2353-27.3926 80.5664-27.3926C94.7461-27.3926 107.153-28.5205 117.788-30.7764 128.423-33.0322 138.145-37.2217 146.953-43.3447 158.018-50.8643 166.343-60.8813 171.929-73.396 177.515-85.9106 180.308-101.514 180.308-120.205ZM341.315-147.437 339.704-147.437C337.448-148.081 335.058-148.484 332.533-148.645 330.009-148.806 326.974-148.887 323.429-148.887 315.265-148.887 307.155-147.114 299.098-143.569 291.042-140.024 283.415-134.761 276.217-127.778L276.217 0 245.924 0 245.924-179.985 276.217-179.985 276.217-153.237C287.282-163.013 296.923-169.915 305.141-173.943 313.359-177.971 321.335-179.985 329.069-179.985 332.184-179.985 334.521-179.905 336.078-179.744 337.636-179.583 339.381-179.341 341.315-179.019ZM460-44.3115 460-94.2627C452.803-93.6182 443.699-92.7319 432.688-91.604 421.678-90.4761 412.789-88.8916 406.021-86.8506 397.964-84.3799 391.304-80.5933 386.041-75.4907 380.777-70.3882 378.145-63.2715 378.145-54.1406 378.145-43.8281 381.045-36.04 386.846-30.7764 392.647-25.5127 401.133-22.8809 412.305-22.8809 421.866-22.8809 430.513-24.9487 438.248-29.0845 445.982-33.2202 453.233-38.2959 460-44.3115ZM460-19.1748C457.53-17.3486 454.227-14.7974 450.091-11.521 445.955-8.24463 441.954-5.63965 438.086-3.70605 432.715-0.913086 427.532 1.23535 422.537 2.73926 417.542 4.24316 410.533 4.99512 401.509 4.99512 394.097 4.99512 387.061 3.59863 380.401 0.805664 373.741-1.9873 367.886-5.9082 362.837-10.957 358.003-15.8984 354.136-21.9946 351.236-29.2456 348.335-36.4966 346.885-44.1504 346.885-52.207 346.885-64.668 349.517-75.2759 354.781-84.0308 360.044-92.7856 368.37-99.7412 379.756-104.897 389.854-109.517 401.778-112.712 415.528-114.485 429.278-116.257 444.102-117.573 460-118.433L460-124.233C460-131.323 458.926-137.043 456.778-141.394 454.629-145.745 451.622-149.102 447.754-151.465 443.887-153.936 439.161-155.574 433.575-156.379 427.989-157.185 422.242-157.588 416.333-157.588 409.351-157.588 401.133-156.541 391.68-154.446 382.227-152.351 372.774-149.316 363.321-145.342L361.548-145.342 361.548-176.118C367.134-177.729 375.137-179.502 385.557-181.436 395.977-183.369 406.29-184.336 416.495-184.336 428.848-184.336 439.268-183.369 447.754-181.436 456.241-179.502 463.868-176.011 470.635-170.962 477.188-166.02 482.076-159.629 485.298-151.787 488.521-143.945 490.132-134.385 490.132-123.105L490.132 0 460 0ZM640.756-48.8232 640.756-147.598C633.236-151.25 626.281-153.855 619.889-155.413 613.497-156.97 607.133-157.749 600.795-157.749 585.433-157.749 573.348-152.109 564.54-140.83 555.731-129.551 551.327-113.384 551.327-92.3291 551.327-72.3486 554.684-57.1484 561.398-46.7285 568.112-36.3086 578.988-31.0986 594.027-31.0986 601.869-31.0986 609.952-32.6562 618.278-35.7715 626.603-38.8867 634.096-43.2373 640.756-48.8232ZM538.92 28.8428C540.961 29.7021 543.969 30.8569 547.943 32.3071 551.918 33.7573 556.43 35.1269 561.478 36.416 567.064 37.8125 572.221 38.9404 576.947 39.7998 581.674 40.6592 586.83 41.0889 592.416 41.0889 601.762 41.0889 609.684 39.8535 616.183 37.3828 622.682 34.9121 627.758 31.4746 631.41 27.0703 634.847 22.666 637.264 17.5635 638.661 11.7627 640.057 5.96191 640.756-0.644531 640.756-8.05664L640.756-23.8477C632.592-16.7578 624.589-11.521 616.747-8.13721 608.905-4.75342 599.076-3.06152 587.26-3.06152 566.742-3.06152 550.414-10.6885 538.275-25.9424 526.137-41.1963 520.067-63.1103 520.067-91.6846 520.067-106.616 522.162-119.856 526.351-131.404 530.541-142.952 536.18-152.754 543.27-160.811 550.038-168.545 558.041-174.507 567.279-178.696 576.517-182.886 586.078-184.98 595.961-184.98 605.306-184.98 613.39-183.879 620.211-181.677 627.033-179.475 633.881-176.333 640.756-172.251L642.528-179.985 671.049-179.985 671.049-20.4639C671.049 10.0439 664.388 32.4414 651.068 46.7285 637.748 61.0156 617.391 68.1592 589.999 68.1592 581.19 68.1592 572.194 67.4609 563.009 66.0644 553.825 64.668 545.258 62.7881 537.308 60.4248L537.308 28.8428ZM862.743-89.9121C862.743-59.6191 855.438-36.228 840.829-19.7388 826.219-3.24951 806.776 4.99512 782.499 4.99512 757.469 4.99512 737.784-3.51807 723.444-20.5444 709.103-37.5708 701.932-60.6934 701.932-89.9121 701.932-119.99 709.318-143.354 724.088-160.005 738.859-176.655 758.329-184.98 782.499-184.98 806.776-184.98 826.219-176.682 840.829-160.085 855.438-143.489 862.743-120.098 862.743-89.9121ZM831.483-89.9121C831.483-113.223 827.24-130.544 818.754-141.877 810.267-153.21 798.182-158.877 782.499-158.877 766.708-158.877 754.542-153.21 746.002-141.877 737.462-130.544 733.192-113.223 733.192-89.9121 733.192-67.3535 737.462-50.2466 746.002-38.5913 754.542-26.936 766.708-21.1084 782.499-21.1084 798.075-21.1084 810.133-26.8286 818.673-38.269 827.213-49.7095 831.483-66.9238 831.483-89.9121ZM1035.46 0 1005.17 0 1005.17-102.48C1005.17-110.752 1004.76-118.459 1003.96-125.603 1003.15-132.747 1001.62-138.467 999.366-142.764 996.895-147.275 993.458-150.632 989.053-152.834 984.649-155.037 978.633-156.138 971.006-156.138 963.487-156.138 955.726-154.124 947.723-150.095 939.72-146.067 931.905-140.83 924.278-134.385L924.278 0 893.985 0 893.985-179.985 924.278-179.985 924.278-160.005C933.301-168.062 942.217-174.238 951.026-178.535 959.834-182.832 969.126-184.98 978.902-184.98 996.626-184.98 1010.48-179.153 1020.47-167.498 1030.46-155.842 1035.46-138.95 1035.46-116.821Z" fill="#707070" transform="matrix(1 0 0 1 212.795 442)"/></g></g><text fill="#707070" font-family="Tahoma,Tahoma_MSFontService,sans-serif" font-weight="400" font-size="330" transform="matrix(1 0 0 1 2746.11 1636)">Dragon</text><g clip-path="url(#clip10)"><g clip-path="url(#clip11)"><g clip-path="url(#clip12)"><path d="M519 259.5C519 402.818 402.818 519 259.5 519 116.182 519-2.88103e-14 402.818-2.88103e-14 259.5-8.64309e-14 116.182 116.182-2.88103e-14 259.5-2.88103e-14 402.818-8.64309e-14 519 116.182 519 259.5Z" fill="#576FBC" transform="matrix(1 0 0 1.00193 2197 1246)"/><path d="M346.534 252.222C348.156 283.058 336.296 309.129 316.205 331.187 306.352 342.013 301.75 353.123 301.993 367.375 302.135 376.093 300.696 384.871 299.54 393.548 296.54 416.193 283.382 427.101 259.419 427.06 235.476 427.019 222.521 416.153 219.379 393.426 219.014 390.75 218.507 388.054 218.527 385.378 218.669 360.421 211.695 339.398 194.341 319.631 165.452 286.748 164.823 227.792 188.948 196.997 200.748 181.954 198.376 162.248 204.255 145.138 209.06 131.149 212.405 116.653 216.561 102.442 217.534 99.0966 219.622 96.238 223.616 96.3597 227.711 96.4813 229.11 99.6034 229.921 103.05 233.57 118.802 238.132 134.413 240.524 150.348 242.45 163.14 250.539 162.411 259.561 162.451 268.684 162.492 276.631 162.958 278.517 150.226 280.767 134.96 285.247 120.019 288.714 104.935 289.626 100.962 290.214 96.4408 295.485 96.4408 300.412 96.4408 301.872 100.475 303.007 104.55 306.818 118.174 310.873 131.717 314.563 145.381 320.665 167.945 323.118 191.483 338.06 211.29 346.797 222.866 346.128 238.091 346.534 252.262Z" fill="#FFFFFF" transform="matrix(1 0 0 1.00193 2197 1246)"/><path d="M393.71 194.483C427.729 229.698 431.966 325.308 377.045 367.801 365.226 354.927 359.935 337.857 349.636 324.051 348.318 322.287 348.135 318.212 349.271 316.306 360.239 298.06 359.306 274.827 375.545 258.446 391.44 242.389 394.582 220.717 393.73 194.483Z" fill="#FFFFFF" transform="matrix(1 0 0 1.00193 2197 1246)"/><path d="M286.808 312.11C300.209 290.417 311.785 271.705 324.557 251.046 336.235 288.329 323.868 309.434 286.808 312.11Z" fill="#576FBC" transform="matrix(1 0 0 1.00193 2197 1246)"/><path d="M125.047 194.483C91.0277 229.698 86.7906 325.308 141.711 367.801 153.531 354.927 158.822 337.857 169.121 324.051 170.439 322.287 170.621 318.212 169.486 316.306 158.518 298.06 159.451 274.827 143.212 258.446 127.317 242.389 124.175 220.717 125.026 194.483Z" fill="#FFFFFF" transform="matrix(1 0 0 1.00193 2197 1246)"/><path d="M234.077 312.11C220.676 290.417 209.1 271.705 196.328 251.046 184.65 288.329 197.017 309.434 234.077 312.11Z" fill="#576FBC" transform="matrix(1 0 0 1.00193 2197 1246)"/></g></g></g></g></svg>