<svg width="1864" height="758" xmlns="http://www.w3.org/2000/svg" xmlns:xlink="http://www.w3.org/1999/xlink" xml:space="preserve" overflow="hidden"><defs><filter id="fx0" x="-10%" y="-10%" width="120%" height="120%" filterUnits="userSpaceOnUse" primitiveUnits="userSpaceOnUse"><feComponentTransfer color-interpolation-filters="sRGB"><feFuncR type="discrete" tableValues="0 0"/><feFuncG type="discrete" tableValues="0 0"/><feFuncB type="discrete" tableValues="0 0"/><feFuncA type="linear" slope="0.4" intercept="0"/></feComponentTransfer><feGaussianBlur stdDeviation="6.11111 6.11111"/></filter><filter id="fx1" x="-10%" y="-10%" width="120%" height="120%" filterUnits="userSpaceOnUse" primitiveUnits="userSpaceOnUse"><feComponentTransfer color-interpolation-filters="sRGB"><feFuncR type="discrete" tableValues="0 0"/><feFuncG type="discrete" tableValues="0 0"/><feFuncB type="discrete" tableValues="0 0"/><feFuncA type="linear" slope="0.431373" intercept="0"/></feComponentTransfer><feGaussianBlur stdDeviation="4.56444 4.56444"/></filter><filter id="fx2" x="-10%" y="-10%" width="120%" height="120%" filterUnits="userSpaceOnUse" primitiveUnits="userSpaceOnUse"><feComponentTransfer color-interpolation-filters="sRGB"><feFuncR type="discrete" tableValues="0 0"/><feFuncG type="discrete" tableValues="0 0"/><feFuncB type="discrete" tableValues="0 0"/><feFuncA type="linear" slope="0.4" intercept="0"/></feComponentTransfer><feGaussianBlur stdDeviation="6.11111 6.11111"/></filter><filter id="fx3" x="-10%" y="-10%" width="120%" height="120%" filterUnits="userSpaceOnUse" primitiveUnits="userSpaceOnUse"><feComponentTransfer color-interpolation-filters="sRGB"><feFuncR type="discrete" tableValues="0 0"/><feFuncG type="discrete" tableValues="0 0"/><feFuncB type="discrete" tableValues="0 0"/><feFuncA type="linear" slope="0.431373" intercept="0"/></feComponentTransfer><feGaussianBlur stdDeviation="4.56444 4.56444"/></filter><clipPath id="clip4"><rect x="2188" y="1818" width="1864" height="758"/></clipPath><clipPath id="clip5"><rect x="214" y="169" width="1098" height="338"/></clipPath><clipPath id="clip6"><rect x="0" y="0" width="1508" height="761"/></clipPath><clipPath id="clip7"><rect x="219" y="175" width="1050" height="289"/></clipPath><clipPath id="clip8"><rect x="0" y="0" width="1470" height="723"/></clipPath><clipPath id="clip9"><rect x="219" y="175" width="1050" height="289"/></clipPath><clipPath id="clip10"><rect x="2196" y="1867" width="520" height="522"/></clipPath><clipPath id="clip11"><rect x="2196" y="1867" width="520" height="522"/></clipPath><clipPath id="clip12"><rect x="2196" y="1867" width="520" height="522"/></clipPath></defs><g clip-path="url(#clip4)" transform="translate(-2188 -1818)"><g filter="url(#fx0)" transform="translate(2187 1858)"><g><path d="M19.7227 279.723C19.7227 136.129 136.129 19.7227 279.722 19.7227L1473.72 19.7227C1617.32 19.7227 1733.72 136.129 1733.72 279.723L1733.72 279.723C1733.72 423.317 1617.32 539.723 1473.72 539.723L279.722 539.723C136.129 539.723 19.7227 423.317 19.7227 279.723Z" fill="#FFFFFF" fill-rule="evenodd"/></g></g><g clip-path="url(#clip5)" filter="url(#fx2)" transform="translate(2545 1816)"><g clip-path="url(#clip6)"><g clip-path="url(#clip7)" filter="url(#fx1)" transform="translate(19 19)"><g clip-path="url(#clip8)"><path d="M24.3311 0 24.3311-239.927 174.346-239.927 174.346-211.567 56.2353-211.567 56.2353-145.825 166.289-145.825 166.289-117.466 56.2353-117.466 56.2353-28.3594 174.346-28.3594 174.346 0ZM237.904 0 207.611 0 207.611-250.723 237.904-250.723ZM360.741 4.18945C332.059 4.18945 309.796-3.89404 293.951-20.061 278.106-36.228 270.184-59.1894 270.184-88.9453 270.184-118.271 277.865-141.609 293.226-158.958 308.587-176.306 328.675-184.98 353.49-184.98 364.661-184.98 374.544-183.369 383.138-180.146 391.732-176.924 399.251-171.875 405.697-165 412.142-158.125 417.083-149.719 420.521-139.783 423.958-129.846 425.677-117.681 425.677-103.286L425.677-86.8506 300.96-86.8506C300.96-65.9033 306.224-49.8975 316.751-38.833 327.279-27.7686 341.834-22.2363 360.418-22.2363 367.078-22.2363 373.604-22.9883 379.996-24.4922 386.388-25.9961 392.161-27.9297 397.318-30.293 402.796-32.7637 407.415-35.1538 411.175-37.4634 414.935-39.7729 418.05-41.9482 420.521-43.9893L422.293-43.9893 422.293-10.957C418.748-9.56055 414.344-7.81494 409.08-5.72021 403.817-3.62549 399.09-1.9873 394.901-0.805664 388.992 0.805664 383.648 2.04102 378.868 2.90039 374.088 3.75977 368.045 4.18945 360.741 4.18945ZM396.19-110.054C395.975-118.218 395.008-125.254 393.289-131.162 391.571-137.07 389.1-142.065 385.877-146.147 382.332-150.659 377.794-154.097 372.262-156.46 366.729-158.823 359.881-160.005 351.717-160.005 343.66-160.005 336.812-158.796 331.173-156.379 325.533-153.962 320.404-150.444 315.784-145.825 311.273-141.099 307.835-135.862 305.472-130.115 303.109-124.368 301.605-117.681 300.96-110.054ZM527.728 4.02832C515.374 4.02832 504.041 2.12158 493.729-1.69189 483.416-5.50537 474.554-11.2793 467.142-19.0137 459.73-26.748 453.983-36.4966 449.901-48.2593 445.819-60.022 443.778-73.8525 443.778-89.751 443.778-105.542 445.899-119.185 450.142-130.679 454.386-142.173 460.052-151.841 467.142-159.683 474.232-167.524 483.067-173.567 493.648-177.81 504.229-182.053 515.589-184.175 527.728-184.175 537.611-184.175 547.144-182.778 556.329-179.985 565.513-177.192 573.704-173.97 580.902-170.317L580.902-136.318 579.129-136.318C576.981-138.145 574.215-140.239 570.831-142.603 567.447-144.966 563.338-147.383 558.504-149.854 554.315-152.002 549.373-153.882 543.68-155.493 537.987-157.104 532.508-157.91 527.244-157.91 511.561-157.91 498.966-151.975 489.459-140.105 479.952-128.235 475.199-111.45 475.199-89.751 475.199-68.4814 479.791-51.9116 488.975-40.0415 498.16-28.1714 510.916-22.2363 527.244-22.2363 537.127-22.2363 546.527-24.2773 555.443-28.3594 564.359-32.4414 572.254-37.7051 579.129-44.1504L580.902-44.1504 580.902-10.1514C577.894-8.75488 574.134-7.06299 569.622-5.07568 565.111-3.08838 561.029-1.61133 557.376-0.644531 552.22 0.859375 547.601 2.01416 543.519 2.81982 539.437 3.62549 534.173 4.02832 527.728 4.02832ZM663.044 3.54492C646.501 3.54492 633.61-1.15479 624.372-10.5542 615.133-19.9536 610.514-34.8047 610.514-55.1074L610.514-154.849 590.05-154.849 590.05-179.985 610.514-179.985 610.514-231.709 640.807-231.709 640.807-179.985 696.559-179.985 696.559-154.849 640.807-154.849 640.807-69.2871C640.807-60.1562 640.968-53.1201 641.291-48.1787 641.613-43.2373 642.848-38.6182 644.997-34.3213 646.823-30.5615 649.777-27.7417 653.859-25.8618 657.941-23.9819 663.473-23.042 670.456-23.042 675.397-23.042 680.177-23.7671 684.797-25.2173 689.416-26.6675 692.746-27.876 694.787-28.8428L696.559-28.8428 696.559-1.61133C690.866-5.96046e-08 685.092 1.26221 679.237 2.17529 673.383 3.08838 667.985 3.54492 663.044 3.54492ZM814.544-147.437 812.933-147.437C810.677-148.081 808.287-148.484 805.763-148.645 803.238-148.806 800.203-148.887 796.659-148.887 788.494-148.887 780.384-147.114 772.327-143.569 764.271-140.024 756.644-134.761 749.447-127.778L749.447 0 719.154 0 719.154-179.985 749.447-179.985 749.447-153.237C760.511-163.013 770.152-169.915 778.37-173.943 786.588-177.971 794.564-179.985 802.298-179.985 805.413-179.985 807.75-179.905 809.307-179.744 810.865-179.583 812.611-179.341 814.544-179.019ZM869.258 0 838.965 0 838.965-179.985 869.258-179.985ZM871.353-210.117 836.87-210.117 836.87-241.538 871.353-241.538ZM985.488 4.02832C973.135 4.02832 961.802 2.12158 951.489-1.69189 941.177-5.50537 932.314-11.2793 924.902-19.0137 917.49-26.748 911.743-36.4966 907.661-48.2593 903.579-60.022 901.538-73.8525 901.538-89.751 901.538-105.542 903.66-119.185 907.903-130.679 912.146-142.173 917.812-151.841 924.902-159.683 931.992-167.524 940.828-173.567 951.409-177.81 961.99-182.053 973.35-184.175 985.488-184.175 995.371-184.175 1004.9-182.778 1014.09-179.985 1023.27-177.192 1031.46-173.97 1038.66-170.317L1038.66-136.318 1036.89-136.318C1034.74-138.145 1031.98-140.239 1028.59-142.603 1025.21-144.966 1021.1-147.383 1016.26-149.854 1012.08-152.002 1007.13-153.882 1001.44-155.493 995.747-157.104 990.268-157.91 985.005-157.91 969.321-157.91 956.726-151.975 947.219-140.105 937.712-128.235 932.959-111.45 932.959-89.751 932.959-68.4814 937.551-51.9116 946.736-40.0415 955.92-28.1714 968.677-22.2363 985.005-22.2363 994.888-22.2363 1004.29-24.2773 1013.2-28.3594 1022.12-32.4414 1030.01-37.7051 1036.89-44.1504L1038.66-44.1504 1038.66-10.1514C1035.65-8.75488 1031.89-7.06299 1027.38-5.07568 1022.87-3.08838 1018.79-1.61133 1015.14-0.644531 1009.98 0.859375 1005.36 2.01416 1001.28 2.81982 997.197 3.62549 991.934 4.02832 985.488 4.02832Z" fill="#707070" transform="matrix(1 0 0 1 -2331.93 -1374)"/></g></g><path d="M24.3311 0 24.3311-239.927 174.346-239.927 174.346-211.567 56.2353-211.567 56.2353-145.825 166.289-145.825 166.289-117.466 56.2353-117.466 56.2353-28.3594 174.346-28.3594 174.346 0ZM237.904 0 207.611 0 207.611-250.723 237.904-250.723ZM360.741 4.18945C332.059 4.18945 309.796-3.89404 293.951-20.061 278.106-36.228 270.184-59.1894 270.184-88.9453 270.184-118.271 277.865-141.609 293.226-158.958 308.587-176.306 328.675-184.98 353.49-184.98 364.661-184.98 374.544-183.369 383.138-180.146 391.732-176.924 399.251-171.875 405.697-165 412.142-158.125 417.083-149.719 420.521-139.783 423.958-129.846 425.677-117.681 425.677-103.286L425.677-86.8506 300.96-86.8506C300.96-65.9033 306.224-49.8975 316.751-38.833 327.279-27.7686 341.834-22.2363 360.418-22.2363 367.078-22.2363 373.604-22.9883 379.996-24.4922 386.388-25.9961 392.161-27.9297 397.318-30.293 402.796-32.7637 407.415-35.1538 411.175-37.4634 414.935-39.7729 418.05-41.9482 420.521-43.9893L422.293-43.9893 422.293-10.957C418.748-9.56055 414.344-7.81494 409.08-5.72021 403.817-3.62549 399.09-1.9873 394.901-0.805664 388.992 0.805664 383.648 2.04102 378.868 2.90039 374.088 3.75977 368.045 4.18945 360.741 4.18945ZM396.19-110.054C395.975-118.218 395.008-125.254 393.289-131.162 391.571-137.07 389.1-142.065 385.877-146.147 382.332-150.659 377.794-154.097 372.262-156.46 366.729-158.823 359.881-160.005 351.717-160.005 343.66-160.005 336.812-158.796 331.173-156.379 325.533-153.962 320.404-150.444 315.784-145.825 311.273-141.099 307.835-135.862 305.472-130.115 303.109-124.368 301.605-117.681 300.96-110.054ZM527.728 4.02832C515.374 4.02832 504.041 2.12158 493.729-1.69189 483.416-5.50537 474.554-11.2793 467.142-19.0137 459.73-26.748 453.983-36.4966 449.901-48.2593 445.819-60.022 443.778-73.8525 443.778-89.751 443.778-105.542 445.899-119.185 450.142-130.679 454.386-142.173 460.052-151.841 467.142-159.683 474.232-167.524 483.067-173.567 493.648-177.81 504.229-182.053 515.589-184.175 527.728-184.175 537.611-184.175 547.144-182.778 556.329-179.985 565.513-177.192 573.704-173.97 580.902-170.317L580.902-136.318 579.129-136.318C576.981-138.145 574.215-140.239 570.831-142.603 567.447-144.966 563.338-147.383 558.504-149.854 554.315-152.002 549.373-153.882 543.68-155.493 537.987-157.104 532.508-157.91 527.244-157.91 511.561-157.91 498.966-151.975 489.459-140.105 479.952-128.235 475.199-111.45 475.199-89.751 475.199-68.4814 479.791-51.9116 488.975-40.0415 498.16-28.1714 510.916-22.2363 527.244-22.2363 537.127-22.2363 546.527-24.2773 555.443-28.3594 564.359-32.4414 572.254-37.7051 579.129-44.1504L580.902-44.1504 580.902-10.1514C577.894-8.75488 574.134-7.06299 569.622-5.07568 565.111-3.08838 561.029-1.61133 557.376-0.644531 552.22 0.859375 547.601 2.01416 543.519 2.81982 539.437 3.62549 534.173 4.02832 527.728 4.02832ZM663.044 3.54492C646.501 3.54492 633.61-1.15479 624.372-10.5542 615.133-19.9536 610.514-34.8047 610.514-55.1074L610.514-154.849 590.05-154.849 590.05-179.985 610.514-179.985 610.514-231.709 640.807-231.709 640.807-179.985 696.559-179.985 696.559-154.849 640.807-154.849 640.807-69.2871C640.807-60.1562 640.968-53.1201 641.291-48.1787 641.613-43.2373 642.848-38.6182 644.997-34.3213 646.823-30.5615 649.777-27.7417 653.859-25.8618 657.941-23.9819 663.473-23.042 670.456-23.042 675.397-23.042 680.177-23.7671 684.797-25.2173 689.416-26.6675 692.746-27.876 694.787-28.8428L696.559-28.8428 696.559-1.61133C690.866-5.96046e-08 685.092 1.26221 679.237 2.17529 673.383 3.08838 667.985 3.54492 663.044 3.54492ZM814.544-147.437 812.933-147.437C810.677-148.081 808.287-148.484 805.763-148.645 803.238-148.806 800.203-148.887 796.659-148.887 788.494-148.887 780.384-147.114 772.327-143.569 764.271-140.024 756.644-134.761 749.447-127.778L749.447 0 719.154 0 719.154-179.985 749.447-179.985 749.447-153.237C760.511-163.013 770.152-169.915 778.37-173.943 786.588-177.971 794.564-179.985 802.298-179.985 805.413-179.985 807.75-179.905 809.307-179.744 810.865-179.583 812.611-179.341 814.544-179.019ZM869.258 0 838.965 0 838.965-179.985 869.258-179.985ZM871.353-210.117 836.87-210.117 836.87-241.538 871.353-241.538ZM985.488 4.02832C973.135 4.02832 961.802 2.12158 951.489-1.69189 941.177-5.50537 932.314-11.2793 924.902-19.0137 917.49-26.748 911.743-36.4966 907.661-48.2593 903.579-60.022 901.538-73.8525 901.538-89.751 901.538-105.542 903.66-119.185 907.903-130.679 912.146-142.173 917.812-151.841 924.902-159.683 931.992-167.524 940.828-173.567 951.409-177.81 961.99-182.053 973.35-184.175 985.488-184.175 995.371-184.175 1004.9-182.778 1014.09-179.985 1023.27-177.192 1031.46-173.97 1038.66-170.317L1038.66-136.318 1036.89-136.318C1034.74-138.145 1031.98-140.239 1028.59-142.603 1025.21-144.966 1021.1-147.383 1016.26-149.854 1012.08-152.002 1007.13-153.882 1001.44-155.493 995.747-157.104 990.268-157.91 985.005-157.91 969.321-157.91 956.726-151.975 947.219-140.105 937.712-128.235 932.959-111.45 932.959-89.751 932.959-68.4814 937.551-51.9116 946.736-40.0415 955.92-28.1714 968.677-22.2363 985.005-22.2363 994.888-22.2363 1004.29-24.2773 1013.2-28.3594 1022.12-32.4414 1030.01-37.7051 1036.89-44.1504L1038.66-44.1504 1038.66-10.1514C1035.65-8.75488 1031.89-7.06299 1027.38-5.07568 1022.87-3.08838 1018.79-1.61133 1015.14-0.644531 1009.98 0.859375 1005.36 2.01416 1001.28 2.81982 997.197 3.62549 991.934 4.02832 985.488 4.02832Z" fill="#707070" transform="matrix(1 0 0 1 222.385 452)"/></g></g><path d="M2197 2128C2197 1984.41 2313.41 1868 2457 1868L3651 1868C3794.59 1868 3911 1984.41 3911 2128L3911 2128C3911 2271.59 3794.59 2388 3651 2388L2457 2388C2313.41 2388 2197 2271.59 2197 2128Z" fill="#FFFFFF" fill-rule="evenodd"/><g clip-path="url(#clip9)" filter="url(#fx3)" transform="translate(2554 1826)"><g><path d="M24.3311 0 24.3311-239.927 174.346-239.927 174.346-211.567 56.2353-211.567 56.2353-145.825 166.289-145.825 166.289-117.466 56.2353-117.466 56.2353-28.3594 174.346-28.3594 174.346 0ZM237.904 0 207.611 0 207.611-250.723 237.904-250.723ZM360.741 4.18945C332.059 4.18945 309.796-3.89404 293.951-20.061 278.106-36.228 270.184-59.1894 270.184-88.9453 270.184-118.271 277.865-141.609 293.226-158.958 308.587-176.306 328.675-184.98 353.49-184.98 364.661-184.98 374.544-183.369 383.138-180.146 391.732-176.924 399.251-171.875 405.697-165 412.142-158.125 417.083-149.719 420.521-139.783 423.958-129.846 425.677-117.681 425.677-103.286L425.677-86.8506 300.96-86.8506C300.96-65.9033 306.224-49.8975 316.751-38.833 327.279-27.7686 341.834-22.2363 360.418-22.2363 367.078-22.2363 373.604-22.9883 379.996-24.4922 386.388-25.9961 392.161-27.9297 397.318-30.293 402.796-32.7637 407.415-35.1538 411.175-37.4634 414.935-39.7729 418.05-41.9482 420.521-43.9893L422.293-43.9893 422.293-10.957C418.748-9.56055 414.344-7.81494 409.08-5.72021 403.817-3.62549 399.09-1.9873 394.901-0.805664 388.992 0.805664 383.648 2.04102 378.868 2.90039 374.088 3.75977 368.045 4.18945 360.741 4.18945ZM396.19-110.054C395.975-118.218 395.008-125.254 393.289-131.162 391.571-137.07 389.1-142.065 385.877-146.147 382.332-150.659 377.794-154.097 372.262-156.46 366.729-158.823 359.881-160.005 351.717-160.005 343.66-160.005 336.812-158.796 331.173-156.379 325.533-153.962 320.404-150.444 315.784-145.825 311.273-141.099 307.835-135.862 305.472-130.115 303.109-124.368 301.605-117.681 300.96-110.054ZM527.728 4.02832C515.374 4.02832 504.041 2.12158 493.729-1.69189 483.416-5.50537 474.554-11.2793 467.142-19.0137 459.73-26.748 453.983-36.4966 449.901-48.2593 445.819-60.022 443.778-73.8525 443.778-89.751 443.778-105.542 445.899-119.185 450.142-130.679 454.386-142.173 460.052-151.841 467.142-159.683 474.232-167.524 483.067-173.567 493.648-177.81 504.229-182.053 515.589-184.175 527.728-184.175 537.611-184.175 547.144-182.778 556.329-179.985 565.513-177.192 573.704-173.97 580.902-170.317L580.902-136.318 579.129-136.318C576.981-138.145 574.215-140.239 570.831-142.603 567.447-144.966 563.338-147.383 558.504-149.854 554.315-152.002 549.373-153.882 543.68-155.493 537.987-157.104 532.508-157.91 527.244-157.91 511.561-157.91 498.966-151.975 489.459-140.105 479.952-128.235 475.199-111.45 475.199-89.751 475.199-68.4814 479.791-51.9116 488.975-40.0415 498.16-28.1714 510.916-22.2363 527.244-22.2363 537.127-22.2363 546.527-24.2773 555.443-28.3594 564.359-32.4414 572.254-37.7051 579.129-44.1504L580.902-44.1504 580.902-10.1514C577.894-8.75488 574.134-7.06299 569.622-5.07568 565.111-3.08838 561.029-1.61133 557.376-0.644531 552.22 0.859375 547.601 2.01416 543.519 2.81982 539.437 3.62549 534.173 4.02832 527.728 4.02832ZM663.044 3.54492C646.501 3.54492 633.61-1.15479 624.372-10.5542 615.133-19.9536 610.514-34.8047 610.514-55.1074L610.514-154.849 590.05-154.849 590.05-179.985 610.514-179.985 610.514-231.709 640.807-231.709 640.807-179.985 696.559-179.985 696.559-154.849 640.807-154.849 640.807-69.2871C640.807-60.1562 640.968-53.1201 641.291-48.1787 641.613-43.2373 642.848-38.6182 644.997-34.3213 646.823-30.5615 649.777-27.7417 653.859-25.8618 657.941-23.9819 663.473-23.042 670.456-23.042 675.397-23.042 680.177-23.7671 684.797-25.2173 689.416-26.6675 692.746-27.876 694.787-28.8428L696.559-28.8428 696.559-1.61133C690.866-5.96046e-08 685.092 1.26221 679.237 2.17529 673.383 3.08838 667.985 3.54492 663.044 3.54492ZM814.544-147.437 812.933-147.437C810.677-148.081 808.287-148.484 805.763-148.645 803.238-148.806 800.203-148.887 796.659-148.887 788.494-148.887 780.384-147.114 772.327-143.569 764.271-140.024 756.644-134.761 749.447-127.778L749.447 0 719.154 0 719.154-179.985 749.447-179.985 749.447-153.237C760.511-163.013 770.152-169.915 778.37-173.943 786.588-177.971 794.564-179.985 802.298-179.985 805.413-179.985 807.75-179.905 809.307-179.744 810.865-179.583 812.611-179.341 814.544-179.019ZM869.258 0 838.965 0 838.965-179.985 869.258-179.985ZM871.353-210.117 836.87-210.117 836.87-241.538 871.353-241.538ZM985.488 4.02832C973.135 4.02832 961.802 2.12158 951.489-1.69189 941.177-5.50537 932.314-11.2793 924.902-19.0137 917.49-26.748 911.743-36.4966 907.661-48.2593 903.579-60.022 901.538-73.8525 901.538-89.751 901.538-105.542 903.66-119.185 907.903-130.679 912.146-142.173 917.812-151.841 924.902-159.683 931.992-167.524 940.828-173.567 951.409-177.81 961.99-182.053 973.35-184.175 985.488-184.175 995.371-184.175 1004.9-182.778 1014.09-179.985 1023.27-177.192 1031.46-173.97 1038.66-170.317L1038.66-136.318 1036.89-136.318C1034.74-138.145 1031.98-140.239 1028.59-142.603 1025.21-144.966 1021.1-147.383 1016.26-149.854 1012.08-152.002 1007.13-153.882 1001.44-155.493 995.747-157.104 990.268-157.91 985.005-157.91 969.321-157.91 956.726-151.975 947.219-140.105 937.712-128.235 932.959-111.45 932.959-89.751 932.959-68.4814 937.551-51.9116 946.736-40.0415 955.92-28.1714 968.677-22.2363 985.005-22.2363 994.888-22.2363 1004.29-24.2773 1013.2-28.3594 1022.12-32.4414 1030.01-37.7051 1036.89-44.1504L1038.66-44.1504 1038.66-10.1514C1035.65-8.75488 1031.89-7.06299 1027.38-5.07568 1022.87-3.08838 1018.79-1.61133 1015.14-0.644531 1009.98 0.859375 1005.36 2.01416 1001.28 2.81982 997.197 3.62549 991.934 4.02832 985.488 4.02832Z" fill="#707070" transform="matrix(1 0 0 1 213.345 442)"/></g></g><text fill="#707070" font-family="Tahoma,Tahoma_MSFontService,sans-serif" font-weight="400" font-size="330" transform="matrix(1 0 0 1 2757.66 2258)">Electric</text><g clip-path="url(#clip10)"><g clip-path="url(#clip11)"><g clip-path="url(#clip12)"><path d="M519 259.5C519 402.818 402.818 519 259.5 519 116.182 519-2.88103e-14 402.818-2.88103e-14 259.5-8.64309e-14 116.182 116.182-2.88103e-14 259.5-2.88103e-14 402.818-8.64309e-14 519 116.182 519 259.5Z" fill="#DFBC28" transform="matrix(1 0 0 1.00193 2197 1868)"/><path d="M228.968 417.369C220.149 415.2 222.704 408.834 224.082 404.333 230.327 383.756 236.672 363.178 243.991 342.946 248.715 329.869 247.964 320.746 234.949 312.13 213.054 297.634 192.78 280.747 171.371 265.501 157.971 255.952 155.315 245.167 163.667 230.996 187.266 190.976 210.742 150.936 238.03 113.207 248.471 98.7722 258.851 96.7651 273.813 106.05 297.776 120.931 322.287 134.94 346.879 148.766 361.252 156.856 362.266 165.289 351.055 177.271 334.451 194.99 319.388 214.169 302.358 231.462 291.755 242.227 293.985 249.221 304.264 257.675 317.259 268.38 329.646 279.855 342.256 291.046 349.717 297.675 350.447 304.345 342.743 311.582 306.859 345.318 271.076 379.154 235.212 412.909 233.307 414.713 230.914 416.011 228.968 417.39Z" fill="#FFFFFF" transform="matrix(1 0 0 1.00193 2197 1868)"/></g></g></g></g></svg>