<svg width="1496" height="758" xmlns="http://www.w3.org/2000/svg" xmlns:xlink="http://www.w3.org/1999/xlink" xml:space="preserve" overflow="hidden"><defs><filter id="fx0" x="-10%" y="-10%" width="120%" height="120%" filterUnits="userSpaceOnUse" primitiveUnits="userSpaceOnUse"><feComponentTransfer color-interpolation-filters="sRGB"><feFuncR type="discrete" tableValues="0 0"/><feFuncG type="discrete" tableValues="0 0"/><feFuncB type="discrete" tableValues="0 0"/><feFuncA type="linear" slope="0.4" intercept="0"/></feComponentTransfer><feGaussianBlur stdDeviation="6.11111 6.11111"/></filter><filter id="fx1" x="-10%" y="-10%" width="120%" height="120%" filterUnits="userSpaceOnUse" primitiveUnits="userSpaceOnUse"><feComponentTransfer color-interpolation-filters="sRGB"><feFuncR type="discrete" tableValues="0 0"/><feFuncG type="discrete" tableValues="0 0"/><feFuncB type="discrete" tableValues="0 0"/><feFuncA type="linear" slope="0.431373" intercept="0"/></feComponentTransfer><feGaussianBlur stdDeviation="4.56444 4.56444"/></filter><filter id="fx2" x="-10%" y="-10%" width="120%" height="120%" filterUnits="userSpaceOnUse" primitiveUnits="userSpaceOnUse"><feComponentTransfer color-interpolation-filters="sRGB"><feFuncR type="discrete" tableValues="0 0"/><feFuncG type="discrete" tableValues="0 0"/><feFuncB type="discrete" tableValues="0 0"/><feFuncA type="linear" slope="0.4" intercept="0"/></feComponentTransfer><feGaussianBlur stdDeviation="6.11111 6.11111"/></filter><filter id="fx3" x="-10%" y="-10%" width="120%" height="120%" filterUnits="userSpaceOnUse" primitiveUnits="userSpaceOnUse"><feComponentTransfer color-interpolation-filters="sRGB"><feFuncR type="discrete" tableValues="0 0"/><feFuncG type="discrete" tableValues="0 0"/><feFuncB type="discrete" tableValues="0 0"/><feFuncA type="linear" slope="0.431373" intercept="0"/></feComponentTransfer><feGaussianBlur stdDeviation="4.56444 4.56444"/></filter><clipPath id="clip4"><rect x="82" y="-50" width="1496" height="758"/></clipPath><clipPath id="clip5"><rect x="214" y="180" width="747" height="389"/></clipPath><clipPath id="clip6"><rect x="0" y="0" width="1153" height="761"/></clipPath><clipPath id="clip7"><rect x="219" y="184" width="699" height="342"/></clipPath><clipPath id="clip8"><rect x="0" y="0" width="1115" height="723"/></clipPath><clipPath id="clip9"><rect x="219" y="184" width="699" height="342"/></clipPath><clipPath id="clip10"><rect x="91" y="0" width="520" height="521"/></clipPath><clipPath id="clip11"><rect x="91" y="0" width="520" height="521"/></clipPath><clipPath id="clip12"><rect x="91" y="0" width="520" height="521"/></clipPath></defs><g clip-path="url(#clip4)" transform="translate(-82 50)"><g filter="url(#fx0)" transform="translate(81 -10)"><g><path d="M19.7228 279.724C19.7228 136.129 136.129 19.7227 279.723 19.7227L1106.72 19.7227C1250.32 19.7227 1366.72 136.129 1366.72 279.724L1366.72 279.724C1366.72 423.318 1250.32 539.724 1106.72 539.724L279.723 539.723C136.129 539.723 19.7228 423.317 19.7228 279.722Z" fill="#FFFFFF" fill-rule="evenodd"/></g></g><g clip-path="url(#clip5)" filter="url(#fx2)" transform="translate(427 -52)"><g clip-path="url(#clip6)"><g clip-path="url(#clip7)" filter="url(#fx1)" transform="translate(19 19)"><g clip-path="url(#clip8)"><path d="M167.9-211.567 56.2353-211.567 56.2353-143.892 163.228-143.892 163.228-115.532 56.2353-115.532 56.2353 0 24.3311 0 24.3311-239.927 167.9-239.927ZM279.188-44.3115 279.188-94.2627C271.991-93.6182 262.887-92.7319 251.876-91.604 240.865-90.4761 231.976-88.8916 225.208-86.8506 217.152-84.3799 210.492-80.5933 205.228-75.4907 199.964-70.3882 197.333-63.2715 197.333-54.1406 197.333-43.8281 200.233-36.04 206.034-30.7764 211.834-25.5127 220.321-22.8809 231.493-22.8809 241.053-22.8809 249.701-24.9487 257.435-29.0845 265.169-33.2202 272.42-38.2959 279.188-44.3115ZM279.188-19.1748C276.717-17.3486 273.414-14.7974 269.278-11.521 265.143-8.24463 261.141-5.63965 257.274-3.70605 251.903-0.913086 246.72 1.23535 241.725 2.73926 236.729 4.24316 229.72 4.99512 220.697 4.99512 213.285 4.99512 206.249 3.59863 199.588 0.805664 192.928-1.9873 187.074-5.9082 182.025-10.957 177.191-15.8984 173.324-21.9946 170.423-29.2456 167.523-36.4966 166.073-44.1504 166.073-52.207 166.073-64.668 168.705-75.2759 173.968-84.0308 179.232-92.7856 187.557-99.7412 198.944-104.897 209.042-109.517 220.965-112.712 234.715-114.485 248.465-116.257 263.29-117.573 279.188-118.433L279.188-124.233C279.188-131.323 278.114-137.043 275.965-141.394 273.817-145.745 270.809-149.102 266.942-151.465 263.075-153.936 258.348-155.574 252.762-156.379 247.176-157.185 241.429-157.588 235.521-157.588 228.539-157.588 220.321-156.541 210.868-154.446 201.415-152.351 191.961-149.316 182.508-145.342L180.736-145.342 180.736-176.118C186.322-177.729 194.325-179.502 204.745-181.436 215.165-183.369 225.477-184.336 235.682-184.336 248.036-184.336 258.456-183.369 266.942-181.436 275.428-179.502 283.055-176.011 289.823-170.962 296.375-166.02 301.263-159.629 304.486-151.787 307.708-143.945 309.32-134.385 309.32-123.105L309.32 0 279.188 0ZM382.599 0 352.306 0 352.306-179.985 382.599-179.985ZM384.694-210.117 350.212-210.117 350.212-241.538 384.694-241.538ZM522.678-147.437 521.066-147.437C518.81-148.081 516.42-148.484 513.896-148.645 511.371-148.806 508.337-148.887 504.792-148.887 496.628-148.887 488.517-147.114 480.461-143.569 472.404-140.024 464.777-134.761 457.58-127.778L457.58 0 427.287 0 427.287-179.985 457.58-179.985 457.58-153.237C468.644-163.013 478.285-169.915 486.503-173.943 494.721-177.971 502.697-179.985 510.431-179.985 513.547-179.985 515.883-179.905 517.441-179.744 518.998-179.583 520.744-179.341 522.678-179.019ZM687.928-179.985 591.087 66.3867 558.7 66.3867 590.926-8.70117 525.506-179.985 558.216-179.985 607.362-46.7285 656.346-179.985Z" fill="#707070" transform="matrix(1 0 0 1 -214.425 494)"/></g></g><path d="M167.9-211.567 56.2353-211.567 56.2353-143.892 163.228-143.892 163.228-115.532 56.2353-115.532 56.2353 0 24.3311 0 24.3311-239.927 167.9-239.927ZM279.188-44.3115 279.188-94.2627C271.991-93.6182 262.887-92.7319 251.876-91.604 240.865-90.4761 231.976-88.8916 225.208-86.8506 217.152-84.3799 210.492-80.5933 205.228-75.4907 199.964-70.3882 197.333-63.2715 197.333-54.1406 197.333-43.8281 200.233-36.04 206.034-30.7764 211.834-25.5127 220.321-22.8809 231.493-22.8809 241.053-22.8809 249.701-24.9487 257.435-29.0845 265.169-33.2202 272.42-38.2959 279.188-44.3115ZM279.188-19.1748C276.717-17.3486 273.414-14.7974 269.278-11.521 265.143-8.24463 261.141-5.63965 257.274-3.70605 251.903-0.913086 246.72 1.23535 241.725 2.73926 236.729 4.24316 229.72 4.99512 220.697 4.99512 213.285 4.99512 206.249 3.59863 199.588 0.805664 192.928-1.9873 187.074-5.9082 182.025-10.957 177.191-15.8984 173.324-21.9946 170.423-29.2456 167.523-36.4966 166.073-44.1504 166.073-52.207 166.073-64.668 168.705-75.2759 173.968-84.0308 179.232-92.7856 187.557-99.7412 198.944-104.897 209.042-109.517 220.965-112.712 234.715-114.485 248.465-116.257 263.29-117.573 279.188-118.433L279.188-124.233C279.188-131.323 278.114-137.043 275.965-141.394 273.817-145.745 270.809-149.102 266.942-151.465 263.075-153.936 258.348-155.574 252.762-156.379 247.176-157.185 241.429-157.588 235.521-157.588 228.539-157.588 220.321-156.541 210.868-154.446 201.415-152.351 191.961-149.316 182.508-145.342L180.736-145.342 180.736-176.118C186.322-177.729 194.325-179.502 204.745-181.436 215.165-183.369 225.477-184.336 235.682-184.336 248.036-184.336 258.456-183.369 266.942-181.436 275.428-179.502 283.055-176.011 289.823-170.962 296.375-166.02 301.263-159.629 304.486-151.787 307.708-143.945 309.32-134.385 309.32-123.105L309.32 0 279.188 0ZM382.599 0 352.306 0 352.306-179.985 382.599-179.985ZM384.694-210.117 350.212-210.117 350.212-241.538 384.694-241.538ZM522.678-147.437 521.066-147.437C518.81-148.081 516.42-148.484 513.896-148.645 511.371-148.806 508.337-148.887 504.792-148.887 496.628-148.887 488.517-147.114 480.461-143.569 472.404-140.024 464.777-134.761 457.58-127.778L457.58 0 427.287 0 427.287-179.985 457.58-179.985 457.58-153.237C468.644-163.013 478.285-169.915 486.503-173.943 494.721-177.971 502.697-179.985 510.431-179.985 513.547-179.985 515.883-179.905 517.441-179.744 518.998-179.583 520.744-179.341 522.678-179.019ZM687.928-179.985 591.087 66.3867 558.7 66.3867 590.926-8.70117 525.506-179.985 558.216-179.985 607.362-46.7285 656.346-179.985Z" fill="#707070" transform="matrix(1 0 0 1 221.893 452)"/></g></g><path d="M91.0001 260.001C91.0001 116.406 207.406-8.57457e-14 351-8.57457e-14L1178 0C1321.6-4.28729e-14 1438 116.406 1438 260.001L1438 260.001C1438 403.595 1321.59 520.002 1178 520.002L351 520C207.406 520 91.0001 403.594 91.0001 259.999Z" fill="#FFFFFF" fill-rule="evenodd"/><g clip-path="url(#clip9)" filter="url(#fx3)" transform="translate(436 -42)"><g><path d="M167.9-211.567 56.2353-211.567 56.2353-143.892 163.228-143.892 163.228-115.532 56.2353-115.532 56.2353 0 24.3311 0 24.3311-239.927 167.9-239.927ZM279.188-44.3115 279.188-94.2627C271.991-93.6182 262.887-92.7319 251.876-91.604 240.865-90.4761 231.976-88.8916 225.208-86.8506 217.152-84.3799 210.492-80.5933 205.228-75.4907 199.964-70.3882 197.333-63.2715 197.333-54.1406 197.333-43.8281 200.233-36.04 206.034-30.7764 211.834-25.5127 220.321-22.8809 231.493-22.8809 241.053-22.8809 249.701-24.9487 257.435-29.0845 265.169-33.2202 272.42-38.2959 279.188-44.3115ZM279.188-19.1748C276.717-17.3486 273.414-14.7974 269.278-11.521 265.143-8.24463 261.141-5.63965 257.274-3.70605 251.903-0.913086 246.72 1.23535 241.725 2.73926 236.729 4.24316 229.72 4.99512 220.697 4.99512 213.285 4.99512 206.249 3.59863 199.588 0.805664 192.928-1.9873 187.074-5.9082 182.025-10.957 177.191-15.8984 173.324-21.9946 170.423-29.2456 167.523-36.4966 166.073-44.1504 166.073-52.207 166.073-64.668 168.705-75.2759 173.968-84.0308 179.232-92.7856 187.557-99.7412 198.944-104.897 209.042-109.517 220.965-112.712 234.715-114.485 248.465-116.257 263.29-117.573 279.188-118.433L279.188-124.233C279.188-131.323 278.114-137.043 275.965-141.394 273.817-145.745 270.809-149.102 266.942-151.465 263.075-153.936 258.348-155.574 252.762-156.379 247.176-157.185 241.429-157.588 235.521-157.588 228.539-157.588 220.321-156.541 210.868-154.446 201.415-152.351 191.961-149.316 182.508-145.342L180.736-145.342 180.736-176.118C186.322-177.729 194.325-179.502 204.745-181.436 215.165-183.369 225.477-184.336 235.682-184.336 248.036-184.336 258.456-183.369 266.942-181.436 275.428-179.502 283.055-176.011 289.823-170.962 296.375-166.02 301.263-159.629 304.486-151.787 307.708-143.945 309.32-134.385 309.32-123.105L309.32 0 279.188 0ZM382.599 0 352.306 0 352.306-179.985 382.599-179.985ZM384.694-210.117 350.212-210.117 350.212-241.538 384.694-241.538ZM522.678-147.437 521.066-147.437C518.81-148.081 516.42-148.484 513.896-148.645 511.371-148.806 508.337-148.887 504.792-148.887 496.628-148.887 488.517-147.114 480.461-143.569 472.404-140.024 464.777-134.761 457.58-127.778L457.58 0 427.287 0 427.287-179.985 457.58-179.985 457.58-153.237C468.644-163.013 478.285-169.915 486.503-173.943 494.721-177.971 502.697-179.985 510.431-179.985 513.547-179.985 515.883-179.905 517.441-179.744 518.998-179.583 520.744-179.341 522.678-179.019ZM687.928-179.985 591.087 66.3867 558.7 66.3867 590.926-8.70117 525.506-179.985 558.216-179.985 607.362-46.7285 656.346-179.985Z" fill="#707070" transform="matrix(1 0 0 1 212.852 442)"/></g></g><text fill="#707070" font-family="Tahoma,Tahoma_MSFontService,sans-serif" font-weight="400" font-size="330" transform="matrix(1 0 0 1 639.17 390)">Fairy</text><g clip-path="url(#clip10)"><g clip-path="url(#clip11)"><g clip-path="url(#clip12)"><path d="M520 260C520 403.594 403.594 520 260 520 116.406 520-2.88658e-14 403.594-2.88658e-14 260-8.65974e-14 116.406 116.406-2.88658e-14 260-2.88658e-14 403.594-8.65974e-14 520 116.406 520 260Z" fill="#E18CE1" transform="matrix(1 0 0 1 91.0001 0)"/><path d="M342.347 269.364C350.005 283.055 358.028 294.856 360.973 308.973 365.483 330.545 358.515 339.036 336.7 340.945 322.176 342.225 315.92 342.123 287.97 328.148 286.508 353.905 309.136 382.058 303.326 409.662 302.717 412.547 299.04 413.481 297.03 411.308 275.255 387.806 273.833 356.545 260 328.981 246.614 356.301 244.298 387.176 223.478 411.673 221.569 413.908 217.851 413.115 217.161 410.251 210.437 382.586 233.269 355.773 232.761 330.24 222.97 338.284 200.261 341.961 186.57 341.087 160.997 339.462 154.131 330.931 159.758 306.211 162.805 292.764 171.884 282.425 177.166 269.039 160.976 258.598 144.584 249.945 133.169 233.716 112.044 203.734 111.069 170.584 114.542 136.683 115.903 123.358 127.867 118.767 140.298 118.402 185.859 117.081 226.241 127.664 253.297 168.391 254.231 169.799 256.337 173.421 259.614 179.258 262.945 174.18 265.098 170.889 266.073 169.386 292.723 128.436 332.881 117.061 378.544 118.402 398.531 118.991 405.498 127.237 406.697 147.57 408.708 181.533 403.894 213.159 381.53 240.866 371.272 253.561 356.708 259.106 342.367 269.344Z" fill="#FFFFFF" transform="matrix(1 0 0 1 91.0001 0)"/><path d="M260.02 197.803C266.987 219.111 284.375 236.051 308.262 236.173 299.934 257.948 283.501 264.814 265.2 266.459 243.08 268.45 224.392 260.772 210.884 237.981 233.269 234.812 251.591 219.801 260 197.783Z" fill="#E291E2" transform="matrix(1 0 0 1 91.0001 0)"/></g></g></g></g></svg>