<svg width="1965" height="758" xmlns="http://www.w3.org/2000/svg" xmlns:xlink="http://www.w3.org/1999/xlink" xml:space="preserve" overflow="hidden"><defs><filter id="fx0" x="-10%" y="-10%" width="120%" height="120%" filterUnits="userSpaceOnUse" primitiveUnits="userSpaceOnUse"><feComponentTransfer color-interpolation-filters="sRGB"><feFuncR type="discrete" tableValues="0 0"/><feFuncG type="discrete" tableValues="0 0"/><feFuncB type="discrete" tableValues="0 0"/><feFuncA type="linear" slope="0.4" intercept="0"/></feComponentTransfer><feGaussianBlur stdDeviation="6.11111 6.11111"/></filter><filter id="fx1" x="-10%" y="-10%" width="120%" height="120%" filterUnits="userSpaceOnUse" primitiveUnits="userSpaceOnUse"><feComponentTransfer color-interpolation-filters="sRGB"><feFuncR type="discrete" tableValues="0 0"/><feFuncG type="discrete" tableValues="0 0"/><feFuncB type="discrete" tableValues="0 0"/><feFuncA type="linear" slope="0.431373" intercept="0"/></feComponentTransfer><feGaussianBlur stdDeviation="4.56444 4.56444"/></filter><filter id="fx2" x="-10%" y="-10%" width="120%" height="120%" filterUnits="userSpaceOnUse" primitiveUnits="userSpaceOnUse"><feComponentTransfer color-interpolation-filters="sRGB"><feFuncR type="discrete" tableValues="0 0"/><feFuncG type="discrete" tableValues="0 0"/><feFuncB type="discrete" tableValues="0 0"/><feFuncA type="linear" slope="0.4" intercept="0"/></feComponentTransfer><feGaussianBlur stdDeviation="6.11111 6.11111"/></filter><filter id="fx3" x="-10%" y="-10%" width="120%" height="120%" filterUnits="userSpaceOnUse" primitiveUnits="userSpaceOnUse"><feComponentTransfer color-interpolation-filters="sRGB"><feFuncR type="discrete" tableValues="0 0"/><feFuncG type="discrete" tableValues="0 0"/><feFuncB type="discrete" tableValues="0 0"/><feFuncA type="linear" slope="0.431373" intercept="0"/></feComponentTransfer><feGaussianBlur stdDeviation="4.56444 4.56444"/></filter><clipPath id="clip4"><rect x="82" y="574" width="1965" height="758"/></clipPath><clipPath id="clip5"><rect x="214" y="169" width="1204" height="403"/></clipPath><clipPath id="clip6"><rect x="0" y="0" width="1630" height="761"/></clipPath><clipPath id="clip7"><rect x="219" y="175" width="1156" height="354"/></clipPath><clipPath id="clip8"><rect x="0" y="0" width="1592" height="723"/></clipPath><clipPath id="clip9"><rect x="219" y="175" width="1153" height="354"/></clipPath></defs><g clip-path="url(#clip4)" transform="translate(-82 -574)"><g filter="url(#fx0)" transform="translate(81 614)"><g><path d="M19.7228 279.723C19.7228 136.129 136.128 19.7226 279.722 19.7226L1574.72 19.7226C1718.32 19.7226 1834.72 136.129 1834.72 279.723L1834.72 279.723C1834.72 423.317 1718.32 539.723 1574.72 539.723L279.722 539.723C136.128 539.723 19.7228 423.317 19.7228 279.723Z" fill="#FFFFFF" fill-rule="evenodd"/></g></g><g clip-path="url(#clip5)" filter="url(#fx2)" transform="translate(418 573)"><g clip-path="url(#clip6)"><g clip-path="url(#clip7)" filter="url(#fx1)" transform="translate(19 19)"><g clip-path="url(#clip8)"><path d="M167.9-211.567 56.2353-211.567 56.2353-143.892 163.228-143.892 163.228-115.532 56.2353-115.532 56.2353 0 24.3311 0 24.3311-239.927 167.9-239.927ZM224.727 0 194.434 0 194.434-179.985 224.727-179.985ZM226.821-210.117 192.339-210.117 192.339-241.538 226.821-241.538ZM377.695-48.8232 377.695-147.598C370.176-151.25 363.22-153.855 356.829-155.413 350.437-156.97 344.072-157.749 337.734-157.749 322.373-157.749 310.288-152.109 301.479-140.83 292.671-129.551 288.267-113.384 288.267-92.3291 288.267-72.3486 291.624-57.1484 298.337-46.7285 305.051-36.3086 315.928-31.0986 330.967-31.0986 338.809-31.0986 346.892-32.6562 355.217-35.7715 363.542-38.8867 371.035-43.2373 377.695-48.8232ZM275.859 28.8428C277.9 29.7021 280.908 30.8569 284.883 32.3071 288.857 33.7573 293.369 35.1269 298.418 36.416 304.004 37.8125 309.16 38.9404 313.887 39.7998 318.613 40.6592 323.77 41.0889 329.355 41.0889 338.701 41.0889 346.624 39.8535 353.123 37.3828 359.622 34.9121 364.697 31.4746 368.35 27.0703 371.787 22.666 374.204 17.5635 375.601 11.7627 376.997 5.96191 377.695-0.644531 377.695-8.05664L377.695-23.8477C369.531-16.7578 361.528-11.521 353.686-8.13721 345.845-4.75342 336.016-3.06152 324.199-3.06152 303.682-3.06152 287.353-10.6885 275.215-25.9424 263.076-41.1963 257.007-63.1103 257.007-91.6846 257.007-106.616 259.102-119.856 263.291-131.404 267.48-142.952 273.12-152.754 280.21-160.811 286.978-168.545 294.98-174.507 304.219-178.696 313.457-182.886 323.018-184.98 332.9-184.98 342.246-184.98 350.33-183.879 357.151-181.677 363.972-179.475 370.82-176.333 377.695-172.251L379.468-179.985 407.988-179.985 407.988-20.4639C407.988 10.0439 401.328 32.4414 388.008 46.7285 374.687 61.0156 354.331 68.1592 326.938 68.1592 318.13 68.1592 309.133 67.4609 299.949 66.0644 290.764 64.668 282.197 62.7881 274.248 60.4248L274.248 28.8428ZM593.076 0 562.783 0 562.783-102.48C562.783-110.752 562.38-118.459 561.575-125.603 560.769-132.747 559.238-138.467 556.982-142.764 554.512-147.275 551.074-150.632 546.67-152.834 542.266-155.037 536.25-156.138 528.623-156.138 521.103-156.138 513.342-154.124 505.339-150.095 497.336-146.067 489.521-140.83 481.894-134.385L481.894 0 451.602 0 451.602-250.723 481.894-250.723 481.894-160.005C490.918-168.062 499.834-174.238 508.643-178.535 517.451-182.832 526.743-184.98 536.518-184.98 554.243-184.98 568.101-179.153 578.091-167.498 588.081-155.842 593.076-138.95 593.076-116.821ZM689.971 3.54492C673.428 3.54492 660.537-1.15479 651.299-10.5542 642.06-19.9536 637.441-34.8047 637.441-55.1074L637.441-154.849 616.977-154.849 616.977-179.985 637.441-179.985 637.441-231.709 667.734-231.709 667.734-179.985 723.486-179.985 723.486-154.849 667.734-154.849 667.734-69.2871C667.734-60.1562 667.895-53.1201 668.218-48.1787 668.54-43.2373 669.775-38.6182 671.924-34.3213 673.75-30.5615 676.704-27.7417 680.786-25.8618 684.868-23.9819 690.4-23.042 697.383-23.042 702.324-23.042 707.104-23.7671 711.724-25.2173 716.343-26.6675 719.673-27.876 721.714-28.8428L723.486-28.8428 723.486-1.61133C717.793-5.96046e-08 712.019 1.26221 706.164 2.17529 700.31 3.08838 694.912 3.54492 689.971 3.54492ZM777.018 0 746.725 0 746.725-179.985 777.018-179.985ZM779.113-210.117 744.63-210.117 744.63-241.538 779.113-241.538ZM963.18 0 932.887 0 932.887-102.48C932.887-110.752 932.484-118.459 931.679-125.603 930.873-132.747 929.342-138.467 927.087-142.764 924.616-147.275 921.178-150.632 916.774-152.834 912.37-155.037 906.354-156.138 898.727-156.138 891.208-156.138 883.446-154.124 875.443-150.095 867.441-146.067 859.626-140.83 851.999-134.385L851.999 0 821.706 0 821.706-179.985 851.999-179.985 851.999-160.005C861.022-168.062 869.938-174.238 878.747-178.535 887.555-182.832 896.847-184.98 906.623-184.98 924.347-184.98 938.205-179.153 948.195-167.498 958.185-155.842 963.18-138.95 963.18-116.821ZM1113.89-48.8232 1113.89-147.598C1106.37-151.25 1099.42-153.855 1093.03-155.413 1086.63-156.97 1080.27-157.749 1073.93-157.749 1058.57-157.749 1046.49-152.109 1037.68-140.83 1028.87-129.551 1024.46-113.384 1024.46-92.3291 1024.46-72.3486 1027.82-57.1484 1034.54-46.7285 1041.25-36.3086 1052.13-31.0986 1067.16-31.0986 1075.01-31.0986 1083.09-32.6562 1091.42-35.7715 1099.74-38.8867 1107.23-43.2373 1113.89-48.8232ZM1012.06 28.8428C1014.1 29.7021 1017.11 30.8569 1021.08 32.3071 1025.06 33.7573 1029.57 35.1269 1034.62 36.416 1040.2 37.8125 1045.36 38.9404 1050.08 39.7998 1054.81 40.6592 1059.97 41.0889 1065.55 41.0889 1074.9 41.0889 1082.82 39.8535 1089.32 37.3828 1095.82 34.9121 1100.9 31.4746 1104.55 27.0703 1107.98 22.666 1110.4 17.5635 1111.8 11.7627 1113.19 5.96191 1113.89-0.644531 1113.89-8.05664L1113.89-23.8477C1105.73-16.7578 1097.73-11.521 1089.88-8.13721 1082.04-4.75342 1072.21-3.06152 1060.4-3.06152 1039.88-3.06152 1023.55-10.6885 1011.41-25.9424 999.274-41.1963 993.205-63.1103 993.205-91.6846 993.205-106.616 995.299-119.856 999.489-131.404 1003.68-142.952 1009.32-152.754 1016.41-160.811 1023.18-168.545 1031.18-174.507 1040.42-178.696 1049.65-182.886 1059.22-184.98 1069.1-184.98 1078.44-184.98 1086.53-183.879 1093.35-181.677 1100.17-179.475 1107.02-176.333 1113.89-172.251L1115.67-179.985 1144.19-179.985 1144.19-20.4639C1144.19 10.0439 1137.53 32.4414 1124.21 46.7285 1110.89 61.0156 1090.53 68.1592 1063.14 68.1592 1054.33 68.1592 1045.33 67.4609 1036.15 66.0644 1026.96 64.668 1018.4 62.7881 1010.45 60.4248L1010.45 28.8428Z" fill="#707070" transform="matrix(1 0 0 1 -204.698 -131)"/></g></g><path d="M167.9-211.567 56.2353-211.567 56.2353-143.892 163.228-143.892 163.228-115.532 56.2353-115.532 56.2353 0 24.3311 0 24.3311-239.927 167.9-239.927ZM224.727 0 194.434 0 194.434-179.985 224.727-179.985ZM226.821-210.117 192.339-210.117 192.339-241.538 226.821-241.538ZM377.695-48.8232 377.695-147.598C370.176-151.25 363.22-153.855 356.829-155.413 350.437-156.97 344.072-157.749 337.734-157.749 322.373-157.749 310.288-152.109 301.479-140.83 292.671-129.551 288.267-113.384 288.267-92.3291 288.267-72.3486 291.624-57.1484 298.337-46.7285 305.051-36.3086 315.928-31.0986 330.967-31.0986 338.809-31.0986 346.892-32.6562 355.217-35.7715 363.542-38.8867 371.035-43.2373 377.695-48.8232ZM275.859 28.8428C277.9 29.7021 280.908 30.8569 284.883 32.3071 288.857 33.7573 293.369 35.1269 298.418 36.416 304.004 37.8125 309.16 38.9404 313.887 39.7998 318.613 40.6592 323.77 41.0889 329.355 41.0889 338.701 41.0889 346.624 39.8535 353.123 37.3828 359.622 34.9121 364.697 31.4746 368.35 27.0703 371.787 22.666 374.204 17.5635 375.601 11.7627 376.997 5.96191 377.695-0.644531 377.695-8.05664L377.695-23.8477C369.531-16.7578 361.528-11.521 353.686-8.13721 345.845-4.75342 336.016-3.06152 324.199-3.06152 303.682-3.06152 287.353-10.6885 275.215-25.9424 263.076-41.1963 257.007-63.1103 257.007-91.6846 257.007-106.616 259.102-119.856 263.291-131.404 267.48-142.952 273.12-152.754 280.21-160.811 286.978-168.545 294.98-174.507 304.219-178.696 313.457-182.886 323.018-184.98 332.9-184.98 342.246-184.98 350.33-183.879 357.151-181.677 363.972-179.475 370.82-176.333 377.695-172.251L379.468-179.985 407.988-179.985 407.988-20.4639C407.988 10.0439 401.328 32.4414 388.008 46.7285 374.687 61.0156 354.331 68.1592 326.938 68.1592 318.13 68.1592 309.133 67.4609 299.949 66.0644 290.764 64.668 282.197 62.7881 274.248 60.4248L274.248 28.8428ZM593.076 0 562.783 0 562.783-102.48C562.783-110.752 562.38-118.459 561.575-125.603 560.769-132.747 559.238-138.467 556.982-142.764 554.512-147.275 551.074-150.632 546.67-152.834 542.266-155.037 536.25-156.138 528.623-156.138 521.103-156.138 513.342-154.124 505.339-150.095 497.336-146.067 489.521-140.83 481.894-134.385L481.894 0 451.602 0 451.602-250.723 481.894-250.723 481.894-160.005C490.918-168.062 499.834-174.238 508.643-178.535 517.451-182.832 526.743-184.98 536.518-184.98 554.243-184.98 568.101-179.153 578.091-167.498 588.081-155.842 593.076-138.95 593.076-116.821ZM689.971 3.54492C673.428 3.54492 660.537-1.15479 651.299-10.5542 642.06-19.9536 637.441-34.8047 637.441-55.1074L637.441-154.849 616.977-154.849 616.977-179.985 637.441-179.985 637.441-231.709 667.734-231.709 667.734-179.985 723.486-179.985 723.486-154.849 667.734-154.849 667.734-69.2871C667.734-60.1562 667.895-53.1201 668.218-48.1787 668.54-43.2373 669.775-38.6182 671.924-34.3213 673.75-30.5615 676.704-27.7417 680.786-25.8618 684.868-23.9819 690.4-23.042 697.383-23.042 702.324-23.042 707.104-23.7671 711.724-25.2173 716.343-26.6675 719.673-27.876 721.714-28.8428L723.486-28.8428 723.486-1.61133C717.793-5.96046e-08 712.019 1.26221 706.164 2.17529 700.31 3.08838 694.912 3.54492 689.971 3.54492ZM777.018 0 746.725 0 746.725-179.985 777.018-179.985ZM779.113-210.117 744.63-210.117 744.63-241.538 779.113-241.538ZM963.18 0 932.887 0 932.887-102.48C932.887-110.752 932.484-118.459 931.679-125.603 930.873-132.747 929.342-138.467 927.087-142.764 924.616-147.275 921.178-150.632 916.774-152.834 912.37-155.037 906.354-156.138 898.727-156.138 891.208-156.138 883.446-154.124 875.443-150.095 867.441-146.067 859.626-140.83 851.999-134.385L851.999 0 821.706 0 821.706-179.985 851.999-179.985 851.999-160.005C861.022-168.062 869.938-174.238 878.747-178.535 887.555-182.832 896.847-184.98 906.623-184.98 924.347-184.98 938.205-179.153 948.195-167.498 958.185-155.842 963.18-138.95 963.18-116.821ZM1113.89-48.8232 1113.89-147.598C1106.37-151.25 1099.42-153.855 1093.03-155.413 1086.63-156.97 1080.27-157.749 1073.93-157.749 1058.57-157.749 1046.49-152.109 1037.68-140.83 1028.87-129.551 1024.46-113.384 1024.46-92.3291 1024.46-72.3486 1027.82-57.1484 1034.54-46.7285 1041.25-36.3086 1052.13-31.0986 1067.16-31.0986 1075.01-31.0986 1083.09-32.6562 1091.42-35.7715 1099.74-38.8867 1107.23-43.2373 1113.89-48.8232ZM1012.06 28.8428C1014.1 29.7021 1017.11 30.8569 1021.08 32.3071 1025.06 33.7573 1029.57 35.1269 1034.62 36.416 1040.2 37.8125 1045.36 38.9404 1050.08 39.7998 1054.81 40.6592 1059.97 41.0889 1065.55 41.0889 1074.9 41.0889 1082.82 39.8535 1089.32 37.3828 1095.82 34.9121 1100.9 31.4746 1104.55 27.0703 1107.98 22.666 1110.4 17.5635 1111.8 11.7627 1113.19 5.96191 1113.89-0.644531 1113.89-8.05664L1113.89-23.8477C1105.73-16.7578 1097.73-11.521 1089.88-8.13721 1082.04-4.75342 1072.21-3.06152 1060.4-3.06152 1039.88-3.06152 1023.55-10.6885 1011.41-25.9424 999.274-41.1963 993.205-63.1103 993.205-91.6846 993.205-106.616 995.299-119.856 999.489-131.404 1003.68-142.952 1009.32-152.754 1016.41-160.811 1023.18-168.545 1031.18-174.507 1040.42-178.696 1049.65-182.886 1059.22-184.98 1069.1-184.98 1078.44-184.98 1086.53-183.879 1093.35-181.677 1100.17-179.475 1107.02-176.333 1113.89-172.251L1115.67-179.985 1144.19-179.985 1144.19-20.4639C1144.19 10.0439 1137.53 32.4414 1124.21 46.7285 1110.89 61.0156 1090.53 68.1592 1063.14 68.1592 1054.33 68.1592 1045.33 67.4609 1036.15 66.0644 1026.96 64.668 1018.4 62.7881 1010.45 60.4248L1010.45 28.8428Z" fill="#707070" transform="matrix(1 0 0 1 222.62 451)"/></g></g><path d="M91.0001 884C91.0001 740.406 207.406 624 350.999 624L1646 624C1789.59 624 1906 740.406 1906 884L1906 884C1906 1027.59 1789.59 1144 1646 1144L350.999 1144C207.406 1144 91.0001 1027.59 91.0001 884Z" fill="#FFFFFF" fill-rule="evenodd"/><g clip-path="url(#clip9)" filter="url(#fx3)" transform="translate(428 582)"><g><path d="M167.9-211.567 56.2353-211.567 56.2353-143.892 163.228-143.892 163.228-115.532 56.2353-115.532 56.2353 0 24.3311 0 24.3311-239.927 167.9-239.927ZM224.727 0 194.434 0 194.434-179.985 224.727-179.985ZM226.821-210.117 192.339-210.117 192.339-241.538 226.821-241.538ZM377.695-48.8232 377.695-147.598C370.176-151.25 363.22-153.855 356.829-155.413 350.437-156.97 344.072-157.749 337.734-157.749 322.373-157.749 310.288-152.109 301.479-140.83 292.671-129.551 288.267-113.384 288.267-92.3291 288.267-72.3486 291.624-57.1484 298.337-46.7285 305.051-36.3086 315.928-31.0986 330.967-31.0986 338.809-31.0986 346.892-32.6562 355.217-35.7715 363.542-38.8867 371.035-43.2373 377.695-48.8232ZM275.859 28.8428C277.9 29.7021 280.908 30.8569 284.883 32.3071 288.857 33.7573 293.369 35.1269 298.418 36.416 304.004 37.8125 309.16 38.9404 313.887 39.7998 318.613 40.6592 323.77 41.0889 329.355 41.0889 338.701 41.0889 346.624 39.8535 353.123 37.3828 359.622 34.9121 364.697 31.4746 368.35 27.0703 371.787 22.666 374.204 17.5635 375.601 11.7627 376.997 5.96191 377.695-0.644531 377.695-8.05664L377.695-23.8477C369.531-16.7578 361.528-11.521 353.686-8.13721 345.845-4.75342 336.016-3.06152 324.199-3.06152 303.682-3.06152 287.353-10.6885 275.215-25.9424 263.076-41.1963 257.007-63.1103 257.007-91.6846 257.007-106.616 259.102-119.856 263.291-131.404 267.48-142.952 273.12-152.754 280.21-160.811 286.978-168.545 294.98-174.507 304.219-178.696 313.457-182.886 323.018-184.98 332.9-184.98 342.246-184.98 350.33-183.879 357.151-181.677 363.972-179.475 370.82-176.333 377.695-172.251L379.468-179.985 407.988-179.985 407.988-20.4639C407.988 10.0439 401.328 32.4414 388.008 46.7285 374.687 61.0156 354.331 68.1592 326.938 68.1592 318.13 68.1592 309.133 67.4609 299.949 66.0644 290.764 64.668 282.197 62.7881 274.248 60.4248L274.248 28.8428ZM593.076 0 562.783 0 562.783-102.48C562.783-110.752 562.38-118.459 561.575-125.603 560.769-132.747 559.238-138.467 556.982-142.764 554.512-147.275 551.074-150.632 546.67-152.834 542.266-155.037 536.25-156.138 528.623-156.138 521.103-156.138 513.342-154.124 505.339-150.095 497.336-146.067 489.521-140.83 481.894-134.385L481.894 0 451.602 0 451.602-250.723 481.894-250.723 481.894-160.005C490.918-168.062 499.834-174.238 508.643-178.535 517.451-182.832 526.743-184.98 536.518-184.98 554.243-184.98 568.101-179.153 578.091-167.498 588.081-155.842 593.076-138.95 593.076-116.821ZM689.971 3.54492C673.428 3.54492 660.537-1.15479 651.299-10.5542 642.06-19.9536 637.441-34.8047 637.441-55.1074L637.441-154.849 616.977-154.849 616.977-179.985 637.441-179.985 637.441-231.709 667.734-231.709 667.734-179.985 723.486-179.985 723.486-154.849 667.734-154.849 667.734-69.2871C667.734-60.1562 667.895-53.1201 668.218-48.1787 668.54-43.2373 669.775-38.6182 671.924-34.3213 673.75-30.5615 676.704-27.7417 680.786-25.8618 684.868-23.9819 690.4-23.042 697.383-23.042 702.324-23.042 707.104-23.7671 711.724-25.2173 716.343-26.6675 719.673-27.876 721.714-28.8428L723.486-28.8428 723.486-1.61133C717.793-5.96046e-08 712.019 1.26221 706.164 2.17529 700.31 3.08838 694.912 3.54492 689.971 3.54492ZM777.018 0 746.725 0 746.725-179.985 777.018-179.985ZM779.113-210.117 744.63-210.117 744.63-241.538 779.113-241.538ZM963.18 0 932.887 0 932.887-102.48C932.887-110.752 932.484-118.459 931.679-125.603 930.873-132.747 929.342-138.467 927.087-142.764 924.616-147.275 921.178-150.632 916.774-152.834 912.37-155.037 906.354-156.138 898.727-156.138 891.208-156.138 883.446-154.124 875.443-150.095 867.441-146.067 859.626-140.83 851.999-134.385L851.999 0 821.706 0 821.706-179.985 851.999-179.985 851.999-160.005C861.022-168.062 869.938-174.238 878.747-178.535 887.555-182.832 896.847-184.98 906.623-184.98 924.347-184.98 938.205-179.153 948.195-167.498 958.185-155.842 963.18-138.95 963.18-116.821ZM1113.89-48.8232 1113.89-147.598C1106.37-151.25 1099.42-153.855 1093.03-155.413 1086.63-156.97 1080.27-157.749 1073.93-157.749 1058.57-157.749 1046.49-152.109 1037.68-140.83 1028.87-129.551 1024.46-113.384 1024.46-92.3291 1024.46-72.3486 1027.82-57.1484 1034.54-46.7285 1041.25-36.3086 1052.13-31.0986 1067.16-31.0986 1075.01-31.0986 1083.09-32.6562 1091.42-35.7715 1099.74-38.8867 1107.23-43.2373 1113.89-48.8232ZM1012.06 28.8428C1014.1 29.7021 1017.11 30.8569 1021.08 32.3071 1025.06 33.7573 1029.57 35.1269 1034.62 36.416 1040.2 37.8125 1045.36 38.9404 1050.08 39.7998 1054.81 40.6592 1059.97 41.0889 1065.55 41.0889 1074.9 41.0889 1082.82 39.8535 1089.32 37.3828 1095.82 34.9121 1100.9 31.4746 1104.55 27.0703 1107.98 22.666 1110.4 17.5635 1111.8 11.7627 1113.19 5.96191 1113.89-0.644531 1113.89-8.05664L1113.89-23.8477C1105.73-16.7578 1097.73-11.521 1089.88-8.13721 1082.04-4.75342 1072.21-3.06152 1060.4-3.06152 1039.88-3.06152 1023.55-10.6885 1011.41-25.9424 999.274-41.1963 993.205-63.1103 993.205-91.6846 993.205-106.616 995.299-119.856 999.489-131.404 1003.68-142.952 1009.32-152.754 1016.41-160.811 1023.18-168.545 1031.18-174.507 1040.42-178.696 1049.65-182.886 1059.22-184.98 1069.1-184.98 1078.44-184.98 1086.53-183.879 1093.35-181.677 1100.17-179.475 1107.02-176.333 1113.89-172.251L1115.67-179.985 1144.19-179.985 1144.19-20.4639C1144.19 10.0439 1137.53 32.4414 1124.21 46.7285 1110.89 61.0156 1090.53 68.1592 1063.14 68.1592 1054.33 68.1592 1045.33 67.4609 1036.15 66.0644 1026.96 64.668 1018.4 62.7881 1010.45 60.4248L1010.45 28.8428Z" fill="#707070" transform="matrix(1 0 0 1 212.58 442)"/></g></g><text fill="#707070" font-family="Tahoma,Tahoma_MSFontService,sans-serif" font-weight="400" font-size="330" transform="matrix(1 0 0 1 630.897 1014)">Fighting</text><g><g><g><path d="M520 260C520 403.594 403.594 520 260 520 116.406 520-2.88658e-14 403.594-2.88658e-14 260-8.65974e-14 116.406 116.406-2.88658e-14 260-2.88658e-14 403.594-8.65974e-14 520 116.406 520 260Z" fill="#E49021" transform="matrix(1 0 0 1 91.0001 624)"/><path d="M380.595 315.778C381.712 316.144 382.525 317.22 382.647 318.398 386.181 352.34 382.403 358.13 352.076 369.748 314.864 383.987 276.737 395.078 237.758 403.487 224.575 406.331 211.717 405.986 200.078 400.319 180.68 390.853 162.642 378.828 145.661 365.422 139.77 360.77 136.825 354.758 136.622 347.303 136.297 335.197 137.272 323.05 136.622 310.944 136.033 300.178 140.075 294.165 150.861 294.186 179.258 294.226 207.655 294.186 236.051 294.328 241.597 294.348 247.609 295.12 248.584 301.965 250.311 314.295 259.065 314.153 268.165 314.153 298.594 314.112 329.022 314.112 359.45 314.234 366.234 314.255 373.14 313.422 380.575 315.798Z" fill="#FFFFFF" transform="matrix(1 0 0 1 91.0001 624)"/><path d="M135.667 197.031C135.667 181.492 135.322 165.933 135.769 150.394 136.236 133.636 138.389 131.787 154.639 131.117 179.725 130.061 182.162 132.376 182.203 158.011 182.264 187.078 182.426 216.145 182.101 245.192 181.898 262.661 177.755 266.337 160.347 266.703 141.517 267.069 136.337 262.986 135.809 245.7 135.322 229.491 135.708 213.261 135.708 197.031 135.708 197.031 135.687 197.031 135.667 197.031Z" fill="#FFFFFF" transform="matrix(1 0 0 1 91.0001 624)"/><path d="M330.89 297.68C317.383 297.68 303.855 297.598 290.347 297.7 277.915 297.801 271.497 291.708 271.172 279.337 270.989 272.594 270.705 265.809 271.172 259.086 271.903 248.137 277.57 241.353 289.067 241.292 316.773 241.13 344.48 241.312 372.165 241.211 380.737 241.17 383.5 245.436 384.414 253.601 389.126 295.689 387.42 297.822 345.089 297.822 340.356 297.822 335.623 297.822 330.89 297.822 330.89 297.781 330.89 297.72 330.89 297.68Z" fill="#FFFFFF" transform="matrix(1 0 0 1 91.0001 624)"/><path d="M249.417 199.367C249.417 215.576 249.925 231.786 249.275 247.975 248.666 262.945 243.709 266.54 226.667 266.683 208.995 266.825 203.612 263.636 203.308 248.848 202.576 215.109 203.125 181.35 203.003 147.591 202.962 135.444 209.117 130.508 220.716 131.117 223.417 131.259 226.119 131.036 228.82 131.117 246.797 131.544 248.95 133.311 249.397 150.759 249.803 166.948 249.478 183.158 249.478 199.367 249.478 199.367 249.437 199.367 249.417 199.367Z" fill="#FFFFFF" transform="matrix(1 0 0 1 91.0001 624)"/><path d="M384.312 178.283C384.312 189.739 384.312 201.175 384.312 212.631 384.312 220.858 380.453 225.184 371.901 224.676 370.561 224.595 369.2 224.676 367.859 224.737 347.75 225.563 337.688 216.03 337.675 196.137 337.675 181.309 337.472 166.481 337.756 151.673 338.101 133.25 340.315 131.28 359.226 130.955 362.598 130.894 365.97 131.097 369.322 131.056 379.356 130.955 384.211 136.114 384.292 145.925 384.373 156.711 384.292 167.476 384.292 178.262Z" fill="#FFFFFF" transform="matrix(1 0 0 1 91.0001 624)"/><path d="M317.078 178.933C317.078 189.759 316.875 200.586 317.139 211.412 317.383 220.919 312.975 224.575 303.651 224.636 264.428 224.88 271.03 225.895 270.461 194.634 270.176 179.075 270.684 163.495 270.522 147.936 270.4 135.951 276.128 130.548 287.97 131.097 292.703 131.32 297.436 131.219 302.169 131.198 312.386 131.178 316.855 136.723 316.915 146.433 316.976 157.259 316.915 168.086 316.915 178.912L317.037 178.912Z" fill="#FFFFFF" transform="matrix(1 0 0 1 91.0001 624)"/></g></g></g></g></svg>