<svg width="1357" height="758" xmlns="http://www.w3.org/2000/svg" xmlns:xlink="http://www.w3.org/1999/xlink" xml:space="preserve" overflow="hidden"><defs><filter id="fx0" x="-10%" y="-10%" width="120%" height="120%" filterUnits="userSpaceOnUse" primitiveUnits="userSpaceOnUse"><feComponentTransfer color-interpolation-filters="sRGB"><feFuncR type="discrete" tableValues="0 0"/><feFuncG type="discrete" tableValues="0 0"/><feFuncB type="discrete" tableValues="0 0"/><feFuncA type="linear" slope="0.4" intercept="0"/></feComponentTransfer><feGaussianBlur stdDeviation="6.11111 6.11111"/></filter><filter id="fx1" x="-10%" y="-10%" width="120%" height="120%" filterUnits="userSpaceOnUse" primitiveUnits="userSpaceOnUse"><feComponentTransfer color-interpolation-filters="sRGB"><feFuncR type="discrete" tableValues="0 0"/><feFuncG type="discrete" tableValues="0 0"/><feFuncB type="discrete" tableValues="0 0"/><feFuncA type="linear" slope="0.431373" intercept="0"/></feComponentTransfer><feGaussianBlur stdDeviation="4.56444 4.56444"/></filter><filter id="fx2" x="-10%" y="-10%" width="120%" height="120%" filterUnits="userSpaceOnUse" primitiveUnits="userSpaceOnUse"><feComponentTransfer color-interpolation-filters="sRGB"><feFuncR type="discrete" tableValues="0 0"/><feFuncG type="discrete" tableValues="0 0"/><feFuncB type="discrete" tableValues="0 0"/><feFuncA type="linear" slope="0.4" intercept="0"/></feComponentTransfer><feGaussianBlur stdDeviation="6.11111 6.11111"/></filter><filter id="fx3" x="-10%" y="-10%" width="120%" height="120%" filterUnits="userSpaceOnUse" primitiveUnits="userSpaceOnUse"><feComponentTransfer color-interpolation-filters="sRGB"><feFuncR type="discrete" tableValues="0 0"/><feFuncG type="discrete" tableValues="0 0"/><feFuncB type="discrete" tableValues="0 0"/><feFuncA type="linear" slope="0.431373" intercept="0"/></feComponentTransfer><feGaussianBlur stdDeviation="4.56444 4.56444"/></filter><clipPath id="clip4"><rect x="82" y="1196" width="1357" height="758"/></clipPath><clipPath id="clip5"><rect x="214" y="180" width="589" height="327"/></clipPath><clipPath id="clip6"><rect x="0" y="0" width="1003" height="761"/></clipPath><clipPath id="clip7"><rect x="219" y="184" width="543" height="280"/></clipPath><clipPath id="clip8"><rect x="0" y="0" width="965" height="723"/></clipPath><clipPath id="clip9"><rect x="219" y="184" width="540" height="280"/></clipPath></defs><g clip-path="url(#clip4)" transform="translate(-82 -1196)"><g filter="url(#fx0)" transform="translate(81 1236)"><g><path d="M19.7228 279.723C19.7228 136.129 136.129 19.7228 279.723 19.7228L967.724 19.7228C1111.32 19.7228 1227.72 136.129 1227.72 279.723L1227.72 279.723C1227.72 423.318 1111.32 539.724 967.723 539.724L279.723 539.723C136.129 539.723 19.7228 423.316 19.7228 279.722Z" fill="#FFFFFF" fill-rule="evenodd"/></g></g><g clip-path="url(#clip5)" filter="url(#fx2)" transform="translate(438 1195)"><g clip-path="url(#clip6)"><g clip-path="url(#clip7)" filter="url(#fx1)" transform="translate(19 19)"><g clip-path="url(#clip8)"><path d="M167.9-211.567 56.2353-211.567 56.2353-143.892 163.228-143.892 163.228-115.532 56.2353-115.532 56.2353 0 24.3311 0 24.3311-239.927 167.9-239.927ZM224.727 0 194.434 0 194.434-179.985 224.727-179.985ZM226.821-210.117 192.339-210.117 192.339-241.538 226.821-241.538ZM364.805-147.437 363.193-147.437C360.937-148.081 358.547-148.484 356.023-148.645 353.499-148.806 350.464-148.887 346.919-148.887 338.755-148.887 330.645-147.114 322.588-143.569 314.531-140.024 306.904-134.761 299.707-127.778L299.707 0 269.414 0 269.414-179.985 299.707-179.985 299.707-153.237C310.771-163.013 320.413-169.915 328.63-173.943 336.848-177.971 344.824-179.985 352.559-179.985 355.674-179.985 358.01-179.905 359.568-179.744 361.125-179.583 362.871-179.341 364.805-179.019ZM465.126 4.18945C436.444 4.18945 414.181-3.89404 398.336-20.061 382.492-36.228 374.569-59.1894 374.569-88.9453 374.569-118.271 382.25-141.609 397.611-158.958 412.973-176.306 433.061-184.98 457.875-184.98 469.047-184.98 478.93-183.369 487.523-180.146 496.117-176.924 503.637-171.875 510.082-165 516.527-158.125 521.469-149.719 524.906-139.783 528.344-129.846 530.062-117.681 530.062-103.286L530.062-86.8506 405.346-86.8506C405.346-65.9033 410.609-49.8975 421.137-38.833 431.664-27.7686 446.22-22.2363 464.804-22.2363 471.464-22.2363 477.99-22.9883 484.381-24.4922 490.773-25.9961 496.547-27.9297 501.703-30.293 507.182-32.7637 511.801-35.1538 515.56-37.4634 519.32-39.7729 522.435-41.9482 524.906-43.9893L526.679-43.9893 526.679-10.957C523.134-9.56055 518.729-7.81494 513.466-5.72021 508.202-3.62549 503.476-1.9873 499.286-0.805664 493.378 0.805664 488.034 2.04102 483.253 2.90039 478.473 3.75977 472.431 4.18945 465.126 4.18945ZM500.575-110.054C500.36-118.218 499.393-125.254 497.675-131.162 495.956-137.07 493.485-142.065 490.263-146.147 486.718-150.659 482.179-154.097 476.647-156.46 471.115-158.823 464.267-160.005 456.103-160.005 448.046-160.005 441.198-158.796 435.558-156.379 429.918-153.962 424.789-150.444 420.17-145.825 415.658-141.099 412.221-135.862 409.857-130.115 407.494-124.368 405.99-117.681 405.346-110.054Z" fill="#707070" transform="matrix(1 0 0 1 -224.76 -753)"/></g></g><path d="M167.9-211.567 56.2353-211.567 56.2353-143.892 163.228-143.892 163.228-115.532 56.2353-115.532 56.2353 0 24.3311 0 24.3311-239.927 167.9-239.927ZM224.727 0 194.434 0 194.434-179.985 224.727-179.985ZM226.821-210.117 192.339-210.117 192.339-241.538 226.821-241.538ZM364.805-147.437 363.193-147.437C360.937-148.081 358.547-148.484 356.023-148.645 353.499-148.806 350.464-148.887 346.919-148.887 338.755-148.887 330.645-147.114 322.588-143.569 314.531-140.024 306.904-134.761 299.707-127.778L299.707 0 269.414 0 269.414-179.985 299.707-179.985 299.707-153.237C310.771-163.013 320.413-169.915 328.63-173.943 336.848-177.971 344.824-179.985 352.559-179.985 355.674-179.985 358.01-179.905 359.568-179.744 361.125-179.583 362.871-179.341 364.805-179.019ZM465.126 4.18945C436.444 4.18945 414.181-3.89404 398.336-20.061 382.492-36.228 374.569-59.1894 374.569-88.9453 374.569-118.271 382.25-141.609 397.611-158.958 412.973-176.306 433.061-184.98 457.875-184.98 469.047-184.98 478.93-183.369 487.523-180.146 496.117-176.924 503.637-171.875 510.082-165 516.527-158.125 521.469-149.719 524.906-139.783 528.344-129.846 530.062-117.681 530.062-103.286L530.062-86.8506 405.346-86.8506C405.346-65.9033 410.609-49.8975 421.137-38.833 431.664-27.7686 446.22-22.2363 464.804-22.2363 471.464-22.2363 477.99-22.9883 484.381-24.4922 490.773-25.9961 496.547-27.9297 501.703-30.293 507.182-32.7637 511.801-35.1538 515.56-37.4634 519.32-39.7729 522.435-41.9482 524.906-43.9893L526.679-43.9893 526.679-10.957C523.134-9.56055 518.729-7.81494 513.466-5.72021 508.202-3.62549 503.476-1.9873 499.286-0.805664 493.378 0.805664 488.034 2.04102 483.253 2.90039 478.473 3.75977 472.431 4.18945 465.126 4.18945ZM500.575-110.054C500.36-118.218 499.393-125.254 497.675-131.162 495.956-137.07 493.485-142.065 490.263-146.147 486.718-150.659 482.179-154.097 476.647-156.46 471.115-158.823 464.267-160.005 456.103-160.005 448.046-160.005 441.198-158.796 435.558-156.379 429.918-153.962 424.789-150.444 420.17-145.825 415.658-141.099 412.221-135.862 409.857-130.115 407.494-124.368 405.99-117.681 405.346-110.054Z" fill="#707070" transform="matrix(1 0 0 1 222.557 451)"/></g></g><path d="M91.0001 1506C91.0001 1362.41 207.406 1246 351 1246L1039 1246C1182.6 1246 1299 1362.41 1299 1506L1299 1506C1299 1649.59 1182.59 1766 1039 1766L351 1766C207.406 1766 91.0001 1649.59 91.0001 1506Z" fill="#FFFFFF" fill-rule="evenodd"/><g clip-path="url(#clip9)" filter="url(#fx3)" transform="translate(448 1204)"><g><path d="M167.9-211.567 56.2353-211.567 56.2353-143.892 163.228-143.892 163.228-115.532 56.2353-115.532 56.2353 0 24.3311 0 24.3311-239.927 167.9-239.927ZM224.727 0 194.434 0 194.434-179.985 224.727-179.985ZM226.821-210.117 192.339-210.117 192.339-241.538 226.821-241.538ZM364.805-147.437 363.193-147.437C360.937-148.081 358.547-148.484 356.023-148.645 353.499-148.806 350.464-148.887 346.919-148.887 338.755-148.887 330.645-147.114 322.588-143.569 314.531-140.024 306.904-134.761 299.707-127.778L299.707 0 269.414 0 269.414-179.985 299.707-179.985 299.707-153.237C310.771-163.013 320.413-169.915 328.63-173.943 336.848-177.971 344.824-179.985 352.559-179.985 355.674-179.985 358.01-179.905 359.568-179.744 361.125-179.583 362.871-179.341 364.805-179.019ZM465.126 4.18945C436.444 4.18945 414.181-3.89404 398.336-20.061 382.492-36.228 374.569-59.1894 374.569-88.9453 374.569-118.271 382.25-141.609 397.611-158.958 412.973-176.306 433.061-184.98 457.875-184.98 469.047-184.98 478.93-183.369 487.523-180.146 496.117-176.924 503.637-171.875 510.082-165 516.527-158.125 521.469-149.719 524.906-139.783 528.344-129.846 530.062-117.681 530.062-103.286L530.062-86.8506 405.346-86.8506C405.346-65.9033 410.609-49.8975 421.137-38.833 431.664-27.7686 446.22-22.2363 464.804-22.2363 471.464-22.2363 477.99-22.9883 484.381-24.4922 490.773-25.9961 496.547-27.9297 501.703-30.293 507.182-32.7637 511.801-35.1538 515.56-37.4634 519.32-39.7729 522.435-41.9482 524.906-43.9893L526.679-43.9893 526.679-10.957C523.134-9.56055 518.729-7.81494 513.466-5.72021 508.202-3.62549 503.476-1.9873 499.286-0.805664 493.378 0.805664 488.034 2.04102 483.253 2.90039 478.473 3.75977 472.431 4.18945 465.126 4.18945ZM500.575-110.054C500.36-118.218 499.393-125.254 497.675-131.162 495.956-137.07 493.485-142.065 490.263-146.147 486.718-150.659 482.179-154.097 476.647-156.46 471.115-158.823 464.267-160.005 456.103-160.005 448.046-160.005 441.198-158.796 435.558-156.379 429.918-153.962 424.789-150.444 420.17-145.825 415.658-141.099 412.221-135.862 409.857-130.115 407.494-124.368 405.99-117.681 405.346-110.054Z" fill="#707070" transform="matrix(1 0 0 1 212.517 442)"/></g></g><text fill="#707070" font-family="Tahoma,Tahoma_MSFontService,sans-serif" font-weight="400" font-size="330" transform="matrix(1 0 0 1 650.834 1636)">Fire</text><g><g><g><path d="M611 1506C611 1649.59 494.594 1766 351 1766 207.406 1766 91.0001 1649.59 91.0001 1506 91.0001 1362.41 207.406 1246 351 1246 494.594 1246 611 1362.41 611 1506Z" fill="#E4613E"/><path d="M296.441 1645.57C259.797 1635.47 231.136 1578.07 243.384 1530.92 248.402 1511.63 257.055 1494.28 270.095 1479.29 281.612 1466.05 293.577 1453.17 305.52 1440.31 338.934 1404.32 339.727 1395.95 312.975 1357.19 346.816 1344.33 385.673 1371.02 386.628 1407.71 387.095 1425.83 380.291 1441.91 373.323 1458.04 367.514 1471.47 365.32 1484.9 376.289 1501.63 377.873 1485.83 376.797 1473.24 386.77 1462.8 397.82 1451.22 407.062 1447.34 423.861 1451.14 407.611 1464.5 409.703 1473.28 437.105 1511.91 462.17 1547.28 468.995 1577.62 450.511 1610.51 430.706 1645.75 387.827 1667.14 348.319 1661.23 351 1656.86 358.475 1653.33 363.959 1650.1 390.264 1634.64 394.245 1610.41 373.994 1587.72 367.27 1580.18 359.653 1573.42 352.3 1566.45 322.42 1538.11 319.13 1532.26 311.431 1492.82 270.786 1515.08 262.945 1587.78 296.441 1645.63Z" fill="#FFFFFF"/></g></g></g></g></svg>