<svg width="1674" height="758" xmlns="http://www.w3.org/2000/svg" xmlns:xlink="http://www.w3.org/1999/xlink" xml:space="preserve" overflow="hidden"><defs><filter id="fx0" x="-10%" y="-10%" width="120%" height="120%" filterUnits="userSpaceOnUse" primitiveUnits="userSpaceOnUse"><feComponentTransfer color-interpolation-filters="sRGB"><feFuncR type="discrete" tableValues="0 0"/><feFuncG type="discrete" tableValues="0 0"/><feFuncB type="discrete" tableValues="0 0"/><feFuncA type="linear" slope="0.4" intercept="0"/></feComponentTransfer><feGaussianBlur stdDeviation="6.11111 6.11111"/></filter><filter id="fx1" x="-10%" y="-10%" width="120%" height="120%" filterUnits="userSpaceOnUse" primitiveUnits="userSpaceOnUse"><feComponentTransfer color-interpolation-filters="sRGB"><feFuncR type="discrete" tableValues="0 0"/><feFuncG type="discrete" tableValues="0 0"/><feFuncB type="discrete" tableValues="0 0"/><feFuncA type="linear" slope="0.431373" intercept="0"/></feComponentTransfer><feGaussianBlur stdDeviation="4.56444 4.56444"/></filter><filter id="fx2" x="-10%" y="-10%" width="120%" height="120%" filterUnits="userSpaceOnUse" primitiveUnits="userSpaceOnUse"><feComponentTransfer color-interpolation-filters="sRGB"><feFuncR type="discrete" tableValues="0 0"/><feFuncG type="discrete" tableValues="0 0"/><feFuncB type="discrete" tableValues="0 0"/><feFuncA type="linear" slope="0.4" intercept="0"/></feComponentTransfer><feGaussianBlur stdDeviation="6.11111 6.11111"/></filter><filter id="fx3" x="-10%" y="-10%" width="120%" height="120%" filterUnits="userSpaceOnUse" primitiveUnits="userSpaceOnUse"><feComponentTransfer color-interpolation-filters="sRGB"><feFuncR type="discrete" tableValues="0 0"/><feFuncG type="discrete" tableValues="0 0"/><feFuncB type="discrete" tableValues="0 0"/><feFuncA type="linear" slope="0.431373" intercept="0"/></feComponentTransfer><feGaussianBlur stdDeviation="4.56444 4.56444"/></filter><clipPath id="clip4"><rect x="82" y="1818" width="1674" height="758"/></clipPath><clipPath id="clip5"><rect x="214" y="169" width="891" height="403"/></clipPath><clipPath id="clip6"><rect x="0" y="0" width="1317" height="761"/></clipPath><clipPath id="clip7"><rect x="219" y="175" width="844" height="354"/></clipPath><clipPath id="clip8"><rect x="0" y="0" width="1279" height="723"/></clipPath><clipPath id="clip9"><rect x="219" y="175" width="844" height="354"/></clipPath></defs><g clip-path="url(#clip4)" transform="translate(-82 -1818)"><g filter="url(#fx0)" transform="translate(81 1858)"><g><path d="M19.7228 279.723C19.7228 136.129 136.129 19.7227 279.723 19.7227L1283.72 19.7227C1427.32 19.7227 1543.72 136.129 1543.72 279.723L1543.72 279.723C1543.72 423.317 1427.32 539.723 1283.72 539.723L279.723 539.723C136.129 539.723 19.7228 423.317 19.7228 279.723Z" fill="#FFFFFF" fill-rule="evenodd"/></g></g><g clip-path="url(#clip5)" filter="url(#fx2)" transform="translate(440 1816)"><g clip-path="url(#clip6)"><g clip-path="url(#clip7)" filter="url(#fx1)" transform="translate(19 19)"><g clip-path="url(#clip8)"><path d="M167.9-211.567 56.2353-211.567 56.2353-143.892 163.228-143.892 163.228-115.532 56.2353-115.532 56.2353 0 24.3311 0 24.3311-239.927 167.9-239.927ZM224.727 0 194.434 0 194.434-250.723 224.727-250.723ZM410.889-179.985 314.048 66.3867 281.66 66.3867 313.887-8.70117 248.467-179.985 281.177-179.985 330.322-46.7285 379.307-179.985ZM464.779 0 434.486 0 434.486-179.985 464.779-179.985ZM466.873-210.117 432.391-210.117 432.391-241.538 466.873-241.538ZM650.941 0 620.648 0 620.648-102.48C620.648-110.752 620.245-118.459 619.439-125.603 618.634-132.747 617.103-138.467 614.847-142.764 612.376-147.275 608.939-150.632 604.534-152.834 600.13-155.037 594.115-156.138 586.488-156.138 578.968-156.138 571.207-154.124 563.204-150.095 555.201-146.067 547.386-140.83 539.759-134.385L539.759 0 509.466 0 509.466-179.985 539.759-179.985 539.759-160.005C548.783-168.062 557.699-174.238 566.507-178.535 575.316-182.832 584.608-184.98 594.383-184.98 612.108-184.98 625.965-179.153 635.955-167.498 645.946-155.842 650.941-138.95 650.941-116.821ZM801.654-48.8232 801.654-147.598C794.134-151.25 787.179-153.855 780.787-155.413 774.395-156.97 768.031-157.749 761.693-157.749 746.331-157.749 734.246-152.109 725.438-140.83 716.629-129.551 712.225-113.384 712.225-92.3291 712.225-72.3486 715.582-57.1484 722.296-46.7285 729.01-36.3086 739.886-31.0986 754.925-31.0986 762.767-31.0986 770.85-32.6562 779.176-35.7715 787.501-38.8867 794.993-43.2373 801.654-48.8232ZM699.818 28.8428C701.859 29.7021 704.867 30.8569 708.841 32.3071 712.816 33.7573 717.327 35.1269 722.376 36.416 727.962 37.8125 733.118 38.9404 737.845 39.7998 742.572 40.6592 747.728 41.0889 753.314 41.0889 762.659 41.0889 770.582 39.8535 777.081 37.3828 783.58 34.9121 788.656 31.4746 792.308 27.0703 795.745 22.666 798.162 17.5635 799.559 11.7627 800.955 5.96191 801.654-0.644531 801.654-8.05664L801.654-23.8477C793.49-16.7578 785.487-11.521 777.645-8.13721 769.803-4.75342 759.974-3.06152 748.158-3.06152 727.64-3.06152 711.312-10.6885 699.173-25.9424 687.034-41.1963 680.965-63.1103 680.965-91.6846 680.965-106.616 683.06-119.856 687.249-131.404 691.439-142.952 697.078-152.754 704.168-160.811 710.936-168.545 718.939-174.507 728.177-178.696 737.415-182.886 746.976-184.98 756.859-184.98 766.204-184.98 774.288-183.879 781.109-181.677 787.93-179.475 794.779-176.333 801.654-172.251L803.426-179.985 831.947-179.985 831.947-20.4639C831.947 10.0439 825.286 32.4414 811.966 46.7285 798.646 61.0156 778.289 68.1592 750.897 68.1592 742.088 68.1592 733.092 67.4609 723.907 66.0644 714.722 64.668 706.156 62.7881 698.206 60.4248L698.206 28.8428Z" fill="#707070" transform="matrix(1 0 0 1 -227.5 -1374)"/></g></g><path d="M167.9-211.567 56.2353-211.567 56.2353-143.892 163.228-143.892 163.228-115.532 56.2353-115.532 56.2353 0 24.3311 0 24.3311-239.927 167.9-239.927ZM224.727 0 194.434 0 194.434-250.723 224.727-250.723ZM410.889-179.985 314.048 66.3867 281.66 66.3867 313.887-8.70117 248.467-179.985 281.177-179.985 330.322-46.7285 379.307-179.985ZM464.779 0 434.486 0 434.486-179.985 464.779-179.985ZM466.873-210.117 432.391-210.117 432.391-241.538 466.873-241.538ZM650.941 0 620.648 0 620.648-102.48C620.648-110.752 620.245-118.459 619.439-125.603 618.634-132.747 617.103-138.467 614.847-142.764 612.376-147.275 608.939-150.632 604.534-152.834 600.13-155.037 594.115-156.138 586.488-156.138 578.968-156.138 571.207-154.124 563.204-150.095 555.201-146.067 547.386-140.83 539.759-134.385L539.759 0 509.466 0 509.466-179.985 539.759-179.985 539.759-160.005C548.783-168.062 557.699-174.238 566.507-178.535 575.316-182.832 584.608-184.98 594.383-184.98 612.108-184.98 625.965-179.153 635.955-167.498 645.946-155.842 650.941-138.95 650.941-116.821ZM801.654-48.8232 801.654-147.598C794.134-151.25 787.179-153.855 780.787-155.413 774.395-156.97 768.031-157.749 761.693-157.749 746.331-157.749 734.246-152.109 725.438-140.83 716.629-129.551 712.225-113.384 712.225-92.3291 712.225-72.3486 715.582-57.1484 722.296-46.7285 729.01-36.3086 739.886-31.0986 754.925-31.0986 762.767-31.0986 770.85-32.6562 779.176-35.7715 787.501-38.8867 794.993-43.2373 801.654-48.8232ZM699.818 28.8428C701.859 29.7021 704.867 30.8569 708.841 32.3071 712.816 33.7573 717.327 35.1269 722.376 36.416 727.962 37.8125 733.118 38.9404 737.845 39.7998 742.572 40.6592 747.728 41.0889 753.314 41.0889 762.659 41.0889 770.582 39.8535 777.081 37.3828 783.58 34.9121 788.656 31.4746 792.308 27.0703 795.745 22.666 798.162 17.5635 799.559 11.7627 800.955 5.96191 801.654-0.644531 801.654-8.05664L801.654-23.8477C793.49-16.7578 785.487-11.521 777.645-8.13721 769.803-4.75342 759.974-3.06152 748.158-3.06152 727.64-3.06152 711.312-10.6885 699.173-25.9424 687.034-41.1963 680.965-63.1103 680.965-91.6846 680.965-106.616 683.06-119.856 687.249-131.404 691.439-142.952 697.078-152.754 704.168-160.811 710.936-168.545 718.939-174.507 728.177-178.696 737.415-182.886 746.976-184.98 756.859-184.98 766.204-184.98 774.288-183.879 781.109-181.677 787.93-179.475 794.779-176.333 801.654-172.251L803.426-179.985 831.947-179.985 831.947-20.4639C831.947 10.0439 825.286 32.4414 811.966 46.7285 798.646 61.0156 778.289 68.1592 750.897 68.1592 742.088 68.1592 733.092 67.4609 723.907 66.0644 714.722 64.668 706.156 62.7881 698.206 60.4248L698.206 28.8428Z" fill="#707070" transform="matrix(1 0 0 1 221.818 452)"/></g></g><path d="M91.0001 2128C91.0001 1984.41 207.406 1868 351 1868L1355 1868C1498.59 1868 1615 1984.41 1615 2128L1615 2128C1615 2271.59 1498.59 2388 1355 2388L351 2388C207.406 2388 91.0001 2271.59 91.0001 2128Z" fill="#FFFFFF" fill-rule="evenodd"/><g clip-path="url(#clip9)" filter="url(#fx3)" transform="translate(449 1826)"><g><path d="M167.9-211.567 56.2353-211.567 56.2353-143.892 163.228-143.892 163.228-115.532 56.2353-115.532 56.2353 0 24.3311 0 24.3311-239.927 167.9-239.927ZM224.727 0 194.434 0 194.434-250.723 224.727-250.723ZM410.889-179.985 314.048 66.3867 281.66 66.3867 313.887-8.70117 248.467-179.985 281.177-179.985 330.322-46.7285 379.307-179.985ZM464.779 0 434.486 0 434.486-179.985 464.779-179.985ZM466.873-210.117 432.391-210.117 432.391-241.538 466.873-241.538ZM650.941 0 620.648 0 620.648-102.48C620.648-110.752 620.245-118.459 619.439-125.603 618.634-132.747 617.103-138.467 614.847-142.764 612.376-147.275 608.939-150.632 604.534-152.834 600.13-155.037 594.115-156.138 586.488-156.138 578.968-156.138 571.207-154.124 563.204-150.095 555.201-146.067 547.386-140.83 539.759-134.385L539.759 0 509.466 0 509.466-179.985 539.759-179.985 539.759-160.005C548.783-168.062 557.699-174.238 566.507-178.535 575.316-182.832 584.608-184.98 594.383-184.98 612.108-184.98 625.965-179.153 635.955-167.498 645.946-155.842 650.941-138.95 650.941-116.821ZM801.654-48.8232 801.654-147.598C794.134-151.25 787.179-153.855 780.787-155.413 774.395-156.97 768.031-157.749 761.693-157.749 746.331-157.749 734.246-152.109 725.438-140.83 716.629-129.551 712.225-113.384 712.225-92.3291 712.225-72.3486 715.582-57.1484 722.296-46.7285 729.01-36.3086 739.886-31.0986 754.925-31.0986 762.767-31.0986 770.85-32.6562 779.176-35.7715 787.501-38.8867 794.993-43.2373 801.654-48.8232ZM699.818 28.8428C701.859 29.7021 704.867 30.8569 708.841 32.3071 712.816 33.7573 717.327 35.1269 722.376 36.416 727.962 37.8125 733.118 38.9404 737.845 39.7998 742.572 40.6592 747.728 41.0889 753.314 41.0889 762.659 41.0889 770.582 39.8535 777.081 37.3828 783.58 34.9121 788.656 31.4746 792.308 27.0703 795.745 22.666 798.162 17.5635 799.559 11.7627 800.955 5.96191 801.654-0.644531 801.654-8.05664L801.654-23.8477C793.49-16.7578 785.487-11.521 777.645-8.13721 769.803-4.75342 759.974-3.06152 748.158-3.06152 727.64-3.06152 711.312-10.6885 699.173-25.9424 687.034-41.1963 680.965-63.1103 680.965-91.6846 680.965-106.616 683.06-119.856 687.249-131.404 691.439-142.952 697.078-152.754 704.168-160.811 710.936-168.545 718.939-174.507 728.177-178.696 737.415-182.886 746.976-184.98 756.859-184.98 766.204-184.98 774.288-183.879 781.109-181.677 787.93-179.475 794.779-176.333 801.654-172.251L803.426-179.985 831.947-179.985 831.947-20.4639C831.947 10.0439 825.286 32.4414 811.966 46.7285 798.646 61.0156 778.289 68.1592 750.897 68.1592 742.088 68.1592 733.092 67.4609 723.907 66.0644 714.722 64.668 706.156 62.7881 698.206 60.4248L698.206 28.8428Z" fill="#707070" transform="matrix(1 0 0 1 212.777 442)"/></g></g><text fill="#707070" font-family="Tahoma,Tahoma_MSFontService,sans-serif" font-weight="400" font-size="330" transform="matrix(1 0 0 1 652.095 2258)">Flying</text><g><g><g><path d="M520 260C520 403.594 403.594 520 260 520 116.406 520-2.88658e-14 403.594-2.88658e-14 260-8.65974e-14 116.406 116.406-2.88658e-14 260-2.88658e-14 403.594-8.65974e-14 520 116.406 520 260Z" fill="#74AAD0" transform="matrix(1 0 0 1 91.0001 1868)"/><path d="M308.303 301.498C276.372 339.401 233.716 339.158 192.887 343.119 191.1 343.301 189.394 344.053 188.094 345.333 167.233 365.828 155.919 394.347 131.219 413.664 130.102 414.537 128.395 414.07 127.908 412.75 123.337 400.379 124.719 389.594 126.262 379.458 134.916 322.542 148.87 266.926 170.706 213.586 182.548 184.681 201.439 163.8 234.873 158.336 284.355 150.251 331.012 131.869 378.239 115.741 384.251 113.689 390.528 111.759 396.784 114.197 398.754 114.969 400.319 116.594 400.887 118.625 402.736 125.227 399.019 130.589 395.728 136.256 368.306 183.706 326.158 212.448 276.047 231.339 268.856 234.041 260 237.047 253.886 242.734 253.236 243.344 253.723 244.481 254.597 244.522 290.103 246.025 321.14 232.944 353.762 225.753 354.88 225.509 355.875 226.667 355.469 227.744 341.148 264.184 307.145 282.567 274.422 293.048 261.625 297.151 255.43 298.045 233.126 300.076 232.375 300.137 232.294 301.072 232.903 301.234 265.139 309.359 277.144 300.117 306.719 298.086 308.405 297.964 309.359 300.158 308.283 301.458Z" fill="#FFFFFF" transform="matrix(1 0 0 1 91.0001 1868)"/></g></g></g></g></svg>