<svg width="1674" height="758" xmlns="http://www.w3.org/2000/svg" xmlns:xlink="http://www.w3.org/1999/xlink" xml:space="preserve" overflow="hidden"><defs><filter id="fx0" x="-10%" y="-10%" width="120%" height="120%" filterUnits="userSpaceOnUse" primitiveUnits="userSpaceOnUse"><feComponentTransfer color-interpolation-filters="sRGB"><feFuncR type="discrete" tableValues="0 0"/><feFuncG type="discrete" tableValues="0 0"/><feFuncB type="discrete" tableValues="0 0"/><feFuncA type="linear" slope="0.4" intercept="0"/></feComponentTransfer><feGaussianBlur stdDeviation="6.11111 6.11111"/></filter><filter id="fx1" x="-10%" y="-10%" width="120%" height="120%" filterUnits="userSpaceOnUse" primitiveUnits="userSpaceOnUse"><feComponentTransfer color-interpolation-filters="sRGB"><feFuncR type="discrete" tableValues="0 0"/><feFuncG type="discrete" tableValues="0 0"/><feFuncB type="discrete" tableValues="0 0"/><feFuncA type="linear" slope="0.431373" intercept="0"/></feComponentTransfer><feGaussianBlur stdDeviation="4.56444 4.56444"/></filter><filter id="fx2" x="-10%" y="-10%" width="120%" height="120%" filterUnits="userSpaceOnUse" primitiveUnits="userSpaceOnUse"><feComponentTransfer color-interpolation-filters="sRGB"><feFuncR type="discrete" tableValues="0 0"/><feFuncG type="discrete" tableValues="0 0"/><feFuncB type="discrete" tableValues="0 0"/><feFuncA type="linear" slope="0.4" intercept="0"/></feComponentTransfer><feGaussianBlur stdDeviation="6.11111 6.11111"/></filter><filter id="fx3" x="-10%" y="-10%" width="120%" height="120%" filterUnits="userSpaceOnUse" primitiveUnits="userSpaceOnUse"><feComponentTransfer color-interpolation-filters="sRGB"><feFuncR type="discrete" tableValues="0 0"/><feFuncG type="discrete" tableValues="0 0"/><feFuncB type="discrete" tableValues="0 0"/><feFuncA type="linear" slope="0.431373" intercept="0"/></feComponentTransfer><feGaussianBlur stdDeviation="4.56444 4.56444"/></filter><clipPath id="clip4"><rect x="82" y="2442" width="1674" height="758"/></clipPath><clipPath id="clip5"><rect x="204" y="169" width="908" height="338"/></clipPath><clipPath id="clip6"><rect x="0" y="0" width="1305" height="761"/></clipPath><clipPath id="clip7"><rect x="207" y="175" width="864" height="289"/></clipPath><clipPath id="clip8"><rect x="0" y="0" width="1267" height="723"/></clipPath><clipPath id="clip9"><rect x="207" y="175" width="864" height="289"/></clipPath></defs><g clip-path="url(#clip4)" transform="translate(-82 -2442)"><g filter="url(#fx0)" transform="translate(81 2483)"><g><path d="M19.7228 279.223C19.7228 135.905 135.905 19.7227 279.223 19.7227L1284.22 19.7227C1427.54 19.7227 1543.72 135.905 1543.72 279.223L1543.72 279.223C1543.72 422.541 1427.54 538.723 1284.22 538.723L279.223 538.723C135.905 538.723 19.7228 422.541 19.7228 279.223Z" fill="#FFFFFF" fill-rule="evenodd"/></g></g><g clip-path="url(#clip5)" filter="url(#fx2)" transform="translate(452 2441)"><g clip-path="url(#clip6)"><g clip-path="url(#clip7)" filter="url(#fx1)" transform="translate(19 19)"><g clip-path="url(#clip8)"><path d="M124.717 4.67285C107.744 4.67285 92.2217 2.09473 78.1494-3.06152 64.0771-8.21777 51.9922-16.0596 41.8945-26.5869 31.7969-37.2217 24.0625-50.3809 18.6914-66.0644 13.3203-81.748 10.6348-99.7949 10.6348-120.205 10.6348-139.541 13.3472-156.863 18.772-172.17 24.1968-187.478 31.958-200.557 42.0557-211.406 51.8311-221.934 63.8623-230.044 78.1494-235.737 92.4365-241.431 108.066-244.277 125.039-244.277 133.096-244.277 140.83-243.687 148.242-242.505 155.654-241.323 162.744-239.712 169.512-237.671 174.883-236.06 180.872-233.831 187.478-230.984 194.084-228.137 199.429-225.693 203.511-223.652L203.511-185.142 200.771-185.142C196.797-188.687 192.688-192.043 188.445-195.212 184.202-198.381 178.213-201.792 170.479-205.444 164.033-208.667 156.621-211.353 148.242-213.501 139.863-215.649 130.84-216.724 121.172-216.724 98.0762-216.724 79.4116-208.022 65.1782-190.62 50.9448-173.218 43.8281-150.068 43.8281-121.172 43.8281-105.059 45.708-90.9863 49.4678-78.9551 53.2275-66.9238 58.6523-56.7187 65.7422-48.3398 72.6172-40.0684 80.9155-33.7573 90.6372-29.4067 100.359-25.0562 111.289-22.8809 123.428-22.8809 132.451-22.8809 141.421-23.5254 150.337-24.8145 159.253-26.1035 166.772-28.0371 172.895-30.6152L172.895-92.6514 117.466-92.6514 117.466-120.688 204.478-120.688 204.478-15.9521C200.395-14.126 194.944-11.8164 188.123-9.02344 181.301-6.23047 174.937-4.02832 169.028-2.41699 161.187-0.053711 154.097 1.71875 147.759 2.90039 141.421 4.08203 133.74 4.67285 124.717 4.67285ZM383.389 0 353.096 0 353.096-102.48C353.096-110.752 352.693-118.459 351.887-125.603 351.081-132.747 349.551-138.467 347.295-142.764 344.824-147.275 341.387-150.632 336.982-152.834 332.578-155.037 326.562-156.138 318.936-156.138 311.416-156.138 303.655-154.124 295.652-150.095 287.649-146.067 279.834-140.83 272.207-134.385L272.207 0 241.914 0 241.914-250.723 272.207-250.723 272.207-160.005C281.23-168.062 290.146-174.238 298.955-178.535 307.764-182.832 317.056-184.98 326.831-184.98 344.556-184.98 358.413-179.153 368.403-167.498 378.393-155.842 383.389-138.95 383.389-116.821ZM573.901-89.9121C573.901-59.6191 566.597-36.228 551.987-19.7388 537.378-3.24951 517.935 4.99512 493.657 4.99512 468.628 4.99512 448.943-3.51807 434.602-20.5444 420.261-37.5708 413.091-60.6934 413.091-89.9121 413.091-119.99 420.476-143.354 435.247-160.005 450.017-176.655 469.487-184.98 493.657-184.98 517.935-184.98 537.378-176.682 551.987-160.085 566.597-143.489 573.901-120.098 573.901-89.9121ZM542.642-89.9121C542.642-113.223 538.398-130.544 529.912-141.877 521.426-153.21 509.341-158.877 493.657-158.877 477.866-158.877 465.701-153.21 457.161-141.877 448.621-130.544 444.351-113.223 444.351-89.9121 444.351-67.3535 448.621-50.2466 457.161-38.5913 465.701-26.936 477.866-21.1084 493.657-21.1084 509.233-21.1084 521.291-26.8286 529.831-38.269 538.372-49.7095 542.642-66.9238 542.642-89.9121ZM653.805 4.35059C641.774 4.35059 630.522 2.73926 620.048-0.483398 609.574-3.70605 600.9-7.14355 594.025-10.7959L594.025-44.7949 595.636-44.7949C598.214-42.7539 601.249-40.498 604.74-38.0273 608.232-35.5566 612.878-32.9785 618.678-30.293 623.835-27.9297 629.501-25.835 635.678-24.0088 641.855-22.1826 648.273-21.2695 654.933-21.2695 659.767-21.2695 664.923-21.8335 670.402-22.9614 675.88-24.0894 679.963-25.5127 682.648-27.2314 686.408-29.7021 689.12-32.334 690.785-35.1269 692.45-37.9199 693.283-42.1094 693.283-47.6953 693.283-54.8926 691.322-60.3174 687.401-63.9697 683.481-67.6221 676.525-70.6836 666.535-73.1543 662.668-74.1211 657.619-75.249 651.388-76.5381 645.158-77.8271 639.411-79.2236 634.147-80.7275 620.397-84.7021 610.407-90.852 604.176-99.1772 597.946-107.502 594.831-117.573 594.831-129.39 594.831-145.61 600.954-158.823 613.2-169.028 625.446-179.233 641.72-184.336 662.023-184.336 672.013-184.336 682.057-183.101 692.155-180.63 702.253-178.159 710.739-175.044 717.614-171.284L717.614-138.896 716.003-138.896C708.268-145.02 699.648-149.854 690.141-153.398 680.634-156.943 671.047-158.716 661.379-158.716 651.388-158.716 642.956-156.621 636.081-152.432 629.206-148.242 625.768-141.904 625.768-133.418 625.768-125.898 627.809-120.286 631.891-116.58 635.973-112.874 642.526-109.839 651.549-107.476 656.061-106.294 661.083-105.139 666.615-104.011 672.148-102.883 677.975-101.567 684.098-100.063 697.419-96.7334 707.436-91.2012 714.15-83.4668 720.863-75.7324 724.22-65.2051 724.22-51.8848 724.22-44.1504 722.69-36.8188 719.628-29.8901 716.567-22.9614 712.082-17.0264 706.173-12.085 699.728-6.71387 692.45-2.63184 684.34 0.161133 676.23 2.9541 666.051 4.35059 653.805 4.35059ZM806.846 3.54492C790.303 3.54492 777.412-1.15479 768.174-10.5542 758.935-19.9536 754.316-34.8047 754.316-55.1074L754.316-154.849 733.852-154.849 733.852-179.985 754.316-179.985 754.316-231.709 784.609-231.709 784.609-179.985 840.361-179.985 840.361-154.849 784.609-154.849 784.609-69.2871C784.609-60.1562 784.77-53.1201 785.093-48.1787 785.415-43.2373 786.65-38.6182 788.799-34.3213 790.625-30.5615 793.579-27.7417 797.661-25.8618 801.743-23.9819 807.275-23.042 814.258-23.042 819.199-23.042 823.979-23.7671 828.599-25.2173 833.218-26.6675 836.548-27.876 838.589-28.8428L840.361-28.8428 840.361-1.61133C834.668-5.96046e-08 828.894 1.26221 823.039 2.17529 817.185 3.08838 811.787 3.54492 806.846 3.54492Z" fill="#707070" transform="matrix(1 0 0 1 -238.896 -1999)"/></g></g><path d="M124.717 4.67285C107.744 4.67285 92.2217 2.09473 78.1494-3.06152 64.0771-8.21777 51.9922-16.0596 41.8945-26.5869 31.7969-37.2217 24.0625-50.3809 18.6914-66.0644 13.3203-81.748 10.6348-99.7949 10.6348-120.205 10.6348-139.541 13.3472-156.863 18.772-172.17 24.1968-187.478 31.958-200.557 42.0557-211.406 51.8311-221.934 63.8623-230.044 78.1494-235.737 92.4365-241.431 108.066-244.277 125.039-244.277 133.096-244.277 140.83-243.687 148.242-242.505 155.654-241.323 162.744-239.712 169.512-237.671 174.883-236.06 180.872-233.831 187.478-230.984 194.084-228.137 199.429-225.693 203.511-223.652L203.511-185.142 200.771-185.142C196.797-188.687 192.688-192.043 188.445-195.212 184.202-198.381 178.213-201.792 170.479-205.444 164.033-208.667 156.621-211.353 148.242-213.501 139.863-215.649 130.84-216.724 121.172-216.724 98.0762-216.724 79.4116-208.022 65.1782-190.62 50.9448-173.218 43.8281-150.068 43.8281-121.172 43.8281-105.059 45.708-90.9863 49.4678-78.9551 53.2275-66.9238 58.6523-56.7187 65.7422-48.3398 72.6172-40.0684 80.9155-33.7573 90.6372-29.4067 100.359-25.0562 111.289-22.8809 123.428-22.8809 132.451-22.8809 141.421-23.5254 150.337-24.8145 159.253-26.1035 166.772-28.0371 172.895-30.6152L172.895-92.6514 117.466-92.6514 117.466-120.688 204.478-120.688 204.478-15.9521C200.395-14.126 194.944-11.8164 188.123-9.02344 181.301-6.23047 174.937-4.02832 169.028-2.41699 161.187-0.053711 154.097 1.71875 147.759 2.90039 141.421 4.08203 133.74 4.67285 124.717 4.67285ZM383.389 0 353.096 0 353.096-102.48C353.096-110.752 352.693-118.459 351.887-125.603 351.081-132.747 349.551-138.467 347.295-142.764 344.824-147.275 341.387-150.632 336.982-152.834 332.578-155.037 326.562-156.138 318.936-156.138 311.416-156.138 303.655-154.124 295.652-150.095 287.649-146.067 279.834-140.83 272.207-134.385L272.207 0 241.914 0 241.914-250.723 272.207-250.723 272.207-160.005C281.23-168.062 290.146-174.238 298.955-178.535 307.764-182.832 317.056-184.98 326.831-184.98 344.556-184.98 358.413-179.153 368.403-167.498 378.393-155.842 383.389-138.95 383.389-116.821ZM573.901-89.9121C573.901-59.6191 566.597-36.228 551.987-19.7388 537.378-3.24951 517.935 4.99512 493.657 4.99512 468.628 4.99512 448.943-3.51807 434.602-20.5444 420.261-37.5708 413.091-60.6934 413.091-89.9121 413.091-119.99 420.476-143.354 435.247-160.005 450.017-176.655 469.487-184.98 493.657-184.98 517.935-184.98 537.378-176.682 551.987-160.085 566.597-143.489 573.901-120.098 573.901-89.9121ZM542.642-89.9121C542.642-113.223 538.398-130.544 529.912-141.877 521.426-153.21 509.341-158.877 493.657-158.877 477.866-158.877 465.701-153.21 457.161-141.877 448.621-130.544 444.351-113.223 444.351-89.9121 444.351-67.3535 448.621-50.2466 457.161-38.5913 465.701-26.936 477.866-21.1084 493.657-21.1084 509.233-21.1084 521.291-26.8286 529.831-38.269 538.372-49.7095 542.642-66.9238 542.642-89.9121ZM653.805 4.35059C641.774 4.35059 630.522 2.73926 620.048-0.483398 609.574-3.70605 600.9-7.14355 594.025-10.7959L594.025-44.7949 595.636-44.7949C598.214-42.7539 601.249-40.498 604.74-38.0273 608.232-35.5566 612.878-32.9785 618.678-30.293 623.835-27.9297 629.501-25.835 635.678-24.0088 641.855-22.1826 648.273-21.2695 654.933-21.2695 659.767-21.2695 664.923-21.8335 670.402-22.9614 675.88-24.0894 679.963-25.5127 682.648-27.2314 686.408-29.7021 689.12-32.334 690.785-35.1269 692.45-37.9199 693.283-42.1094 693.283-47.6953 693.283-54.8926 691.322-60.3174 687.401-63.9697 683.481-67.6221 676.525-70.6836 666.535-73.1543 662.668-74.1211 657.619-75.249 651.388-76.5381 645.158-77.8271 639.411-79.2236 634.147-80.7275 620.397-84.7021 610.407-90.852 604.176-99.1772 597.946-107.502 594.831-117.573 594.831-129.39 594.831-145.61 600.954-158.823 613.2-169.028 625.446-179.233 641.72-184.336 662.023-184.336 672.013-184.336 682.057-183.101 692.155-180.63 702.253-178.159 710.739-175.044 717.614-171.284L717.614-138.896 716.003-138.896C708.268-145.02 699.648-149.854 690.141-153.398 680.634-156.943 671.047-158.716 661.379-158.716 651.388-158.716 642.956-156.621 636.081-152.432 629.206-148.242 625.768-141.904 625.768-133.418 625.768-125.898 627.809-120.286 631.891-116.58 635.973-112.874 642.526-109.839 651.549-107.476 656.061-106.294 661.083-105.139 666.615-104.011 672.148-102.883 677.975-101.567 684.098-100.063 697.419-96.7334 707.436-91.2012 714.15-83.4668 720.863-75.7324 724.22-65.2051 724.22-51.8848 724.22-44.1504 722.69-36.8188 719.628-29.8901 716.567-22.9614 712.082-17.0264 706.173-12.085 699.728-6.71387 692.45-2.63184 684.34 0.161133 676.23 2.9541 666.051 4.35059 653.805 4.35059ZM806.846 3.54492C790.303 3.54492 777.412-1.15479 768.174-10.5542 758.935-19.9536 754.316-34.8047 754.316-55.1074L754.316-154.849 733.852-154.849 733.852-179.985 754.316-179.985 754.316-231.709 784.609-231.709 784.609-179.985 840.361-179.985 840.361-154.849 784.609-154.849 784.609-69.2871C784.609-60.1562 784.77-53.1201 785.093-48.1787 785.415-43.2373 786.65-38.6182 788.799-34.3213 790.625-30.5615 793.579-27.7417 797.661-25.8618 801.743-23.9819 807.275-23.042 814.258-23.042 819.199-23.042 823.979-23.7671 828.599-25.2173 833.218-26.6675 836.548-27.876 838.589-28.8428L840.361-28.8428 840.361-1.61133C834.668-5.96046e-08 828.894 1.26221 823.039 2.17529 817.185 3.08838 811.787 3.54492 806.846 3.54492Z" fill="#707070" transform="matrix(1 0 0 1 222.422 451)"/></g></g><path d="M91.0001 2752.5C91.0001 2609.18 207.182 2493 350.5 2493L1355.5 2493C1498.82 2493 1615 2609.18 1615 2752.5L1615 2752.5C1615 2895.82 1498.82 3012 1355.5 3012L350.5 3012C207.182 3012 91.0001 2895.82 91.0001 2752.5Z" fill="#FFFFFF" fill-rule="evenodd"/><g clip-path="url(#clip9)" filter="url(#fx3)" transform="translate(461 2450)"><g><path d="M124.717 4.67285C107.744 4.67285 92.2217 2.09473 78.1494-3.06152 64.0771-8.21777 51.9922-16.0596 41.8945-26.5869 31.7969-37.2217 24.0625-50.3809 18.6914-66.0644 13.3203-81.748 10.6348-99.7949 10.6348-120.205 10.6348-139.541 13.3472-156.863 18.772-172.17 24.1968-187.478 31.958-200.557 42.0557-211.406 51.8311-221.934 63.8623-230.044 78.1494-235.737 92.4365-241.431 108.066-244.277 125.039-244.277 133.096-244.277 140.83-243.687 148.242-242.505 155.654-241.323 162.744-239.712 169.512-237.671 174.883-236.06 180.872-233.831 187.478-230.984 194.084-228.137 199.429-225.693 203.511-223.652L203.511-185.142 200.771-185.142C196.797-188.687 192.688-192.043 188.445-195.212 184.202-198.381 178.213-201.792 170.479-205.444 164.033-208.667 156.621-211.353 148.242-213.501 139.863-215.649 130.84-216.724 121.172-216.724 98.0762-216.724 79.4116-208.022 65.1782-190.62 50.9448-173.218 43.8281-150.068 43.8281-121.172 43.8281-105.059 45.708-90.9863 49.4678-78.9551 53.2275-66.9238 58.6523-56.7187 65.7422-48.3398 72.6172-40.0684 80.9155-33.7573 90.6372-29.4067 100.359-25.0562 111.289-22.8809 123.428-22.8809 132.451-22.8809 141.421-23.5254 150.337-24.8145 159.253-26.1035 166.772-28.0371 172.895-30.6152L172.895-92.6514 117.466-92.6514 117.466-120.688 204.478-120.688 204.478-15.9521C200.395-14.126 194.944-11.8164 188.123-9.02344 181.301-6.23047 174.937-4.02832 169.028-2.41699 161.187-0.053711 154.097 1.71875 147.759 2.90039 141.421 4.08203 133.74 4.67285 124.717 4.67285ZM383.389 0 353.096 0 353.096-102.48C353.096-110.752 352.693-118.459 351.887-125.603 351.081-132.747 349.551-138.467 347.295-142.764 344.824-147.275 341.387-150.632 336.982-152.834 332.578-155.037 326.562-156.138 318.936-156.138 311.416-156.138 303.655-154.124 295.652-150.095 287.649-146.067 279.834-140.83 272.207-134.385L272.207 0 241.914 0 241.914-250.723 272.207-250.723 272.207-160.005C281.23-168.062 290.146-174.238 298.955-178.535 307.764-182.832 317.056-184.98 326.831-184.98 344.556-184.98 358.413-179.153 368.403-167.498 378.393-155.842 383.389-138.95 383.389-116.821ZM573.901-89.9121C573.901-59.6191 566.597-36.228 551.987-19.7388 537.378-3.24951 517.935 4.99512 493.657 4.99512 468.628 4.99512 448.943-3.51807 434.602-20.5444 420.261-37.5708 413.091-60.6934 413.091-89.9121 413.091-119.99 420.476-143.354 435.247-160.005 450.017-176.655 469.487-184.98 493.657-184.98 517.935-184.98 537.378-176.682 551.987-160.085 566.597-143.489 573.901-120.098 573.901-89.9121ZM542.642-89.9121C542.642-113.223 538.398-130.544 529.912-141.877 521.426-153.21 509.341-158.877 493.657-158.877 477.866-158.877 465.701-153.21 457.161-141.877 448.621-130.544 444.351-113.223 444.351-89.9121 444.351-67.3535 448.621-50.2466 457.161-38.5913 465.701-26.936 477.866-21.1084 493.657-21.1084 509.233-21.1084 521.291-26.8286 529.831-38.269 538.372-49.7095 542.642-66.9238 542.642-89.9121ZM653.805 4.35059C641.774 4.35059 630.522 2.73926 620.048-0.483398 609.574-3.70605 600.9-7.14355 594.025-10.7959L594.025-44.7949 595.636-44.7949C598.214-42.7539 601.249-40.498 604.74-38.0273 608.232-35.5566 612.878-32.9785 618.678-30.293 623.835-27.9297 629.501-25.835 635.678-24.0088 641.855-22.1826 648.273-21.2695 654.933-21.2695 659.767-21.2695 664.923-21.8335 670.402-22.9614 675.88-24.0894 679.963-25.5127 682.648-27.2314 686.408-29.7021 689.12-32.334 690.785-35.1269 692.45-37.9199 693.283-42.1094 693.283-47.6953 693.283-54.8926 691.322-60.3174 687.401-63.9697 683.481-67.6221 676.525-70.6836 666.535-73.1543 662.668-74.1211 657.619-75.249 651.388-76.5381 645.158-77.8271 639.411-79.2236 634.147-80.7275 620.397-84.7021 610.407-90.852 604.176-99.1772 597.946-107.502 594.831-117.573 594.831-129.39 594.831-145.61 600.954-158.823 613.2-169.028 625.446-179.233 641.72-184.336 662.023-184.336 672.013-184.336 682.057-183.101 692.155-180.63 702.253-178.159 710.739-175.044 717.614-171.284L717.614-138.896 716.003-138.896C708.268-145.02 699.648-149.854 690.141-153.398 680.634-156.943 671.047-158.716 661.379-158.716 651.388-158.716 642.956-156.621 636.081-152.432 629.206-148.242 625.768-141.904 625.768-133.418 625.768-125.898 627.809-120.286 631.891-116.58 635.973-112.874 642.526-109.839 651.549-107.476 656.061-106.294 661.083-105.139 666.615-104.011 672.148-102.883 677.975-101.567 684.098-100.063 697.419-96.7334 707.436-91.2012 714.15-83.4668 720.863-75.7324 724.22-65.2051 724.22-51.8848 724.22-44.1504 722.69-36.8188 719.628-29.8901 716.567-22.9614 712.082-17.0264 706.173-12.085 699.728-6.71387 692.45-2.63184 684.34 0.161133 676.23 2.9541 666.051 4.35059 653.805 4.35059ZM806.846 3.54492C790.303 3.54492 777.412-1.15479 768.174-10.5542 758.935-19.9536 754.316-34.8047 754.316-55.1074L754.316-154.849 733.852-154.849 733.852-179.985 754.316-179.985 754.316-231.709 784.609-231.709 784.609-179.985 840.361-179.985 840.361-154.849 784.609-154.849 784.609-69.2871C784.609-60.1562 784.77-53.1201 785.093-48.1787 785.415-43.2373 786.65-38.6182 788.799-34.3213 790.625-30.5615 793.579-27.7417 797.661-25.8618 801.743-23.9819 807.275-23.042 814.258-23.042 819.199-23.042 823.979-23.7671 828.599-25.2173 833.218-26.6675 836.548-27.876 838.589-28.8428L840.361-28.8428 840.361-1.61133C834.668-5.96046e-08 828.894 1.26221 823.039 2.17529 817.185 3.08838 811.787 3.54492 806.846 3.54492Z" fill="#707070" transform="matrix(1 0 0 1 213.382 442)"/></g></g><text fill="#707070" font-family="Tahoma,Tahoma_MSFontService,sans-serif" font-weight="400" font-size="330" transform="matrix(1 0 0 1 664.699 2882)">Ghost</text><g><g><g><path d="M519 259.5C519 402.818 402.818 519 259.5 519 116.182 519-2.88103e-14 402.818-2.88103e-14 259.5-8.64309e-14 116.182 116.182-2.88103e-14 259.5-2.88103e-14 402.818-8.64309e-14 519 116.182 519 259.5Z" fill="#6F4570" transform="matrix(1.00193 0 0 1 91.0001 2493)"/><path d="M367.598 261.892C403.077 257.331 422.215 270.63 427.668 302.277 428.378 306.372 429.473 310.569 425.742 313.448 422.052 316.286 417.694 315.272 414.612 312.373 407.658 305.865 402.144 306.595 395.9 313.691 372.727 340.107 372.606 339.986 343.979 321.131 329.322 339.986 316.813 360.725 299.053 377.41 268.157 406.442 250.539 406.523 219.703 377.167 202.471 360.746 189.597 341.06 175.386 321.212 172.669 322.449 170.054 323.078 168.148 324.598 145.685 342.743 142.786 342.56 126.121 318.475 120.019 309.677 114.748 302.865 104.043 312.596 100.901 315.455 96.5421 316.225 92.974 313.144 89.3856 310.042 90.7236 305.926 91.494 301.872 97.3936 270.387 115.011 258.162 152.071 261.426 148.908 217.615 159.471 178.731 194.726 149.659 215.405 132.629 239.085 124.661 265.846 126.101 326.848 129.345 364.861 179.542 367.618 261.892Z" fill="#FFFFFF" transform="matrix(1.00193 0 0 1 91.0001 2493)"/><path d="M197.058 202.836C196.956 195.213 197.261 187.185 205.573 184.083 213.885 180.961 219.642 186.901 224.549 192.517 234.746 204.194 239.815 218.081 237.909 233.469 236.186 247.377 225.785 250.924 214.939 241.882 202.836 231.786 197.382 218.446 197.058 202.856Z" fill="#785279" transform="matrix(1.00193 0 0 1 91.0001 2493)"/><path d="M321.881 203.951C321.354 218.771 315.88 231.259 304.811 241.376 300.554 245.268 296.053 248.066 290.376 246.444 283.625 244.498 281.193 238.618 280.828 232.374 279.976 217.696 284.254 204.356 293.863 193.186 299.114 187.063 305.257 180.271 314.421 184.529 322.307 188.198 322.125 196.409 321.902 203.971Z" fill="#785279" transform="matrix(1.00193 0 0 1 91.0001 2493)"/></g></g></g></g></svg>