<svg width="1621" height="758" xmlns="http://www.w3.org/2000/svg" xmlns:xlink="http://www.w3.org/1999/xlink" xml:space="preserve" overflow="hidden"><defs><filter id="fx0" x="-10%" y="-10%" width="120%" height="120%" filterUnits="userSpaceOnUse" primitiveUnits="userSpaceOnUse"><feComponentTransfer color-interpolation-filters="sRGB"><feFuncR type="discrete" tableValues="0 0"/><feFuncG type="discrete" tableValues="0 0"/><feFuncB type="discrete" tableValues="0 0"/><feFuncA type="linear" slope="0.4" intercept="0"/></feComponentTransfer><feGaussianBlur stdDeviation="6.11111 6.11111"/></filter><filter id="fx1" x="-10%" y="-10%" width="120%" height="120%" filterUnits="userSpaceOnUse" primitiveUnits="userSpaceOnUse"><feComponentTransfer color-interpolation-filters="sRGB"><feFuncR type="discrete" tableValues="0 0"/><feFuncG type="discrete" tableValues="0 0"/><feFuncB type="discrete" tableValues="0 0"/><feFuncA type="linear" slope="0.431373" intercept="0"/></feComponentTransfer><feGaussianBlur stdDeviation="4.56444 4.56444"/></filter><filter id="fx2" x="-10%" y="-10%" width="120%" height="120%" filterUnits="userSpaceOnUse" primitiveUnits="userSpaceOnUse"><feComponentTransfer color-interpolation-filters="sRGB"><feFuncR type="discrete" tableValues="0 0"/><feFuncG type="discrete" tableValues="0 0"/><feFuncB type="discrete" tableValues="0 0"/><feFuncA type="linear" slope="0.4" intercept="0"/></feComponentTransfer><feGaussianBlur stdDeviation="6.11111 6.11111"/></filter><filter id="fx3" x="-10%" y="-10%" width="120%" height="120%" filterUnits="userSpaceOnUse" primitiveUnits="userSpaceOnUse"><feComponentTransfer color-interpolation-filters="sRGB"><feFuncR type="discrete" tableValues="0 0"/><feFuncG type="discrete" tableValues="0 0"/><feFuncB type="discrete" tableValues="0 0"/><feFuncA type="linear" slope="0.431373" intercept="0"/></feComponentTransfer><feGaussianBlur stdDeviation="4.56444 4.56444"/></filter><clipPath id="clip4"><rect x="82" y="3067" width="1621" height="758"/></clipPath><clipPath id="clip5"><rect x="204" y="176" width="863" height="331"/></clipPath><clipPath id="clip6"><rect x="0" y="0" width="1265" height="761"/></clipPath><clipPath id="clip7"><rect x="207" y="181" width="820" height="283"/></clipPath><clipPath id="clip8"><rect x="0" y="0" width="1227" height="723"/></clipPath><clipPath id="clip9"><rect x="207" y="181" width="817" height="283"/></clipPath></defs><g clip-path="url(#clip4)" transform="translate(-82 -3067)"><g filter="url(#fx0)" transform="translate(81 3107)"><g><path d="M19.7228 279.724C19.7228 136.129 136.129 19.7229 279.723 19.7229L1230.72 19.7229C1374.32 19.7229 1490.72 136.129 1490.72 279.724L1490.72 279.724C1490.72 423.318 1374.32 539.724 1230.72 539.724L279.723 539.723C136.129 539.723 19.7228 423.316 19.7228 279.722Z" fill="#FFFFFF" fill-rule="evenodd"/></g></g><g clip-path="url(#clip5)" filter="url(#fx2)" transform="translate(439 3065)"><g clip-path="url(#clip6)"><g clip-path="url(#clip7)" filter="url(#fx1)" transform="translate(19 19)"><g clip-path="url(#clip8)"><path d="M124.717 4.67285C107.744 4.67285 92.2217 2.09473 78.1494-3.06152 64.0771-8.21777 51.9922-16.0596 41.8945-26.5869 31.7969-37.2217 24.0625-50.3809 18.6914-66.0644 13.3203-81.748 10.6348-99.7949 10.6348-120.205 10.6348-139.541 13.3472-156.863 18.772-172.17 24.1968-187.478 31.958-200.557 42.0557-211.406 51.8311-221.934 63.8623-230.044 78.1494-235.737 92.4365-241.431 108.066-244.277 125.039-244.277 133.096-244.277 140.83-243.687 148.242-242.505 155.654-241.323 162.744-239.712 169.512-237.671 174.883-236.06 180.872-233.831 187.478-230.984 194.084-228.137 199.429-225.693 203.511-223.652L203.511-185.142 200.771-185.142C196.797-188.687 192.688-192.043 188.445-195.212 184.202-198.381 178.213-201.792 170.479-205.444 164.033-208.667 156.621-211.353 148.242-213.501 139.863-215.649 130.84-216.724 121.172-216.724 98.0762-216.724 79.4116-208.022 65.1782-190.62 50.9448-173.218 43.8281-150.068 43.8281-121.172 43.8281-105.059 45.708-90.9863 49.4678-78.9551 53.2275-66.9238 58.6523-56.7187 65.7422-48.3398 72.6172-40.0684 80.9155-33.7573 90.6372-29.4067 100.359-25.0562 111.289-22.8809 123.428-22.8809 132.451-22.8809 141.421-23.5254 150.337-24.8145 159.253-26.1035 166.772-28.0371 172.895-30.6152L172.895-92.6514 117.466-92.6514 117.466-120.688 204.478-120.688 204.478-15.9521C200.395-14.126 194.944-11.8164 188.123-9.02344 181.301-6.23047 174.937-4.02832 169.028-2.41699 161.187-0.053711 154.097 1.71875 147.759 2.90039 141.421 4.08203 133.74 4.67285 124.717 4.67285ZM337.305-147.437 335.693-147.437C333.437-148.081 331.047-148.484 328.523-148.645 325.998-148.806 322.964-148.887 319.419-148.887 311.255-148.887 303.145-147.114 295.088-143.569 287.031-140.024 279.404-134.761 272.207-127.778L272.207 0 241.914 0 241.914-179.985 272.207-179.985 272.207-153.237C283.271-163.013 292.913-169.915 301.13-173.943 309.348-177.971 317.324-179.985 325.059-179.985 328.174-179.985 330.51-179.905 332.068-179.744 333.625-179.583 335.371-179.341 337.305-179.019ZM455.99-44.3115 455.99-94.2627C448.793-93.6182 439.689-92.7319 428.678-91.604 417.667-90.4761 408.778-88.8916 402.011-86.8506 393.954-84.3799 387.294-80.5933 382.03-75.4907 376.766-70.3882 374.135-63.2715 374.135-54.1406 374.135-43.8281 377.035-36.04 382.836-30.7764 388.637-25.5127 397.123-22.8809 408.295-22.8809 417.855-22.8809 426.503-24.9487 434.237-29.0845 441.972-33.2202 449.223-38.2959 455.99-44.3115ZM455.99-19.1748C453.519-17.3486 450.216-14.7974 446.08-11.521 441.945-8.24463 437.943-5.63965 434.076-3.70605 428.705-0.913086 423.522 1.23535 418.527 2.73926 413.532 4.24316 406.522 4.99512 397.499 4.99512 390.087 4.99512 383.051 3.59863 376.39 0.805664 369.73-1.9873 363.876-5.9082 358.827-10.957 353.993-15.8984 350.126-21.9946 347.225-29.2456 344.325-36.4966 342.875-44.1504 342.875-52.207 342.875-64.668 345.507-75.2759 350.77-84.0308 356.034-92.7856 364.359-99.7412 375.746-104.897 385.844-109.517 397.767-112.712 411.517-114.485 425.267-116.257 440.092-117.573 455.99-118.433L455.99-124.233C455.99-131.323 454.916-137.043 452.767-141.394 450.619-145.745 447.611-149.102 443.744-151.465 439.877-153.936 435.15-155.574 429.564-156.379 423.978-157.185 418.231-157.588 412.323-157.588 405.341-157.588 397.123-156.541 387.67-154.446 378.217-152.351 368.764-149.316 359.31-145.342L357.538-145.342 357.538-176.118C363.124-177.729 371.127-179.502 381.547-181.436 391.967-183.369 402.279-184.336 412.484-184.336 424.838-184.336 435.258-183.369 443.744-181.436 452.23-179.502 459.857-176.011 466.625-170.962 473.178-166.02 478.065-159.629 481.288-151.787 484.511-143.945 486.122-134.385 486.122-123.105L486.122 0 455.99 0ZM577.126 4.35059C565.095 4.35059 553.842 2.73926 543.369-0.483398 532.895-3.70605 524.221-7.14355 517.346-10.7959L517.346-44.7949 518.957-44.7949C521.535-42.7539 524.57-40.498 528.061-38.0273 531.552-35.5566 536.198-32.9785 541.999-30.293 547.155-27.9297 552.822-25.835 558.999-24.0088 565.175-22.1826 571.594-21.2695 578.254-21.2695 583.088-21.2695 588.244-21.8335 593.723-22.9614 599.201-24.0894 603.283-25.5127 605.969-27.2314 609.729-29.7021 612.441-32.334 614.106-35.1269 615.771-37.9199 616.604-42.1094 616.604-47.6953 616.604-54.8926 614.643-60.3174 610.722-63.9697 606.801-67.6221 599.846-70.6836 589.856-73.1543 585.988-74.1211 580.94-75.249 574.709-76.5381 568.479-77.8271 562.732-79.2236 557.468-80.7275 543.718-84.7021 533.728-90.852 527.497-99.1772 521.267-107.502 518.152-117.573 518.152-129.39 518.152-145.61 524.275-158.823 536.521-169.028 548.767-179.233 565.041-184.336 585.344-184.336 595.334-184.336 605.378-183.101 615.476-180.63 625.573-178.159 634.06-175.044 640.935-171.284L640.935-138.896 639.323-138.896C631.589-145.02 622.968-149.854 613.462-153.398 603.955-156.943 594.367-158.716 584.699-158.716 574.709-158.716 566.277-156.621 559.402-152.432 552.527-148.242 549.089-141.904 549.089-133.418 549.089-125.898 551.13-120.286 555.212-116.58 559.294-112.874 565.847-109.839 574.87-107.476 579.382-106.294 584.404-105.139 589.936-104.011 595.468-102.883 601.296-101.567 607.419-100.063 620.739-96.7334 630.757-91.2012 637.47-83.4668 644.184-75.7324 647.541-65.2051 647.541-51.8848 647.541-44.1504 646.01-36.8188 642.949-29.8901 639.887-22.9614 635.403-17.0264 629.494-12.085 623.049-6.71387 615.771-2.63184 607.661 0.161133 599.55 2.9541 589.372 4.35059 577.126 4.35059ZM724.366 4.35059C712.334 4.35059 701.082 2.73926 690.608-0.483398 680.135-3.70605 671.46-7.14355 664.585-10.7959L664.585-44.7949 666.197-44.7949C668.775-42.7539 671.81-40.498 675.301-38.0273 678.792-35.5566 683.438-32.9785 689.239-30.293 694.395-27.9297 700.062-25.835 706.238-24.0088 712.415-22.1826 718.833-21.2695 725.494-21.2695 730.328-21.2695 735.484-21.8335 740.962-22.9614 746.441-24.0894 750.523-25.5127 753.208-27.2314 756.968-29.7021 759.681-32.334 761.346-35.1269 763.011-37.9199 763.843-42.1094 763.843-47.6953 763.843-54.8926 761.883-60.3174 757.962-63.9697 754.041-67.6221 747.085-70.6836 737.095-73.1543 733.228-74.1211 728.179-75.249 721.949-76.5381 715.718-77.8271 709.971-79.2236 704.708-80.7275 690.958-84.7021 680.967-90.852 674.737-99.1772 668.506-107.502 665.391-117.573 665.391-129.39 665.391-145.61 671.514-158.823 683.76-169.028 696.006-179.233 712.281-184.336 732.583-184.336 742.574-184.336 752.618-183.101 762.715-180.63 772.813-178.159 781.299-175.044 788.174-171.284L788.174-138.896 786.563-138.896C778.829-145.02 770.208-149.854 760.701-153.398 751.194-156.943 741.607-158.716 731.939-158.716 721.949-158.716 713.516-156.621 706.641-152.432 699.766-148.242 696.329-141.904 696.329-133.418 696.329-125.898 698.37-120.286 702.452-116.58 706.534-112.874 713.086-109.839 722.11-107.476 726.622-106.294 731.644-105.139 737.176-104.011 742.708-102.883 748.536-101.567 754.659-100.063 767.979-96.7334 777.996-91.2012 784.71-83.4668 791.424-75.7324 794.781-65.2051 794.781-51.8848 794.781-44.1504 793.25-36.8188 790.188-29.8901 787.127-22.9614 782.642-17.0264 776.734-12.085 770.289-6.71387 763.011-2.63184 754.9 0.161133 746.79 2.9541 736.612 4.35059 724.366 4.35059Z" fill="#707070" transform="matrix(1 0 0 1 -225.592 -2623)"/></g></g><path d="M124.717 4.67285C107.744 4.67285 92.2217 2.09473 78.1494-3.06152 64.0771-8.21777 51.9922-16.0596 41.8945-26.5869 31.7969-37.2217 24.0625-50.3809 18.6914-66.0644 13.3203-81.748 10.6348-99.7949 10.6348-120.205 10.6348-139.541 13.3472-156.863 18.772-172.17 24.1968-187.478 31.958-200.557 42.0557-211.406 51.8311-221.934 63.8623-230.044 78.1494-235.737 92.4365-241.431 108.066-244.277 125.039-244.277 133.096-244.277 140.83-243.687 148.242-242.505 155.654-241.323 162.744-239.712 169.512-237.671 174.883-236.06 180.872-233.831 187.478-230.984 194.084-228.137 199.429-225.693 203.511-223.652L203.511-185.142 200.771-185.142C196.797-188.687 192.688-192.043 188.445-195.212 184.202-198.381 178.213-201.792 170.479-205.444 164.033-208.667 156.621-211.353 148.242-213.501 139.863-215.649 130.84-216.724 121.172-216.724 98.0762-216.724 79.4116-208.022 65.1782-190.62 50.9448-173.218 43.8281-150.068 43.8281-121.172 43.8281-105.059 45.708-90.9863 49.4678-78.9551 53.2275-66.9238 58.6523-56.7187 65.7422-48.3398 72.6172-40.0684 80.9155-33.7573 90.6372-29.4067 100.359-25.0562 111.289-22.8809 123.428-22.8809 132.451-22.8809 141.421-23.5254 150.337-24.8145 159.253-26.1035 166.772-28.0371 172.895-30.6152L172.895-92.6514 117.466-92.6514 117.466-120.688 204.478-120.688 204.478-15.9521C200.395-14.126 194.944-11.8164 188.123-9.02344 181.301-6.23047 174.937-4.02832 169.028-2.41699 161.187-0.053711 154.097 1.71875 147.759 2.90039 141.421 4.08203 133.74 4.67285 124.717 4.67285ZM337.305-147.437 335.693-147.437C333.437-148.081 331.047-148.484 328.523-148.645 325.998-148.806 322.964-148.887 319.419-148.887 311.255-148.887 303.145-147.114 295.088-143.569 287.031-140.024 279.404-134.761 272.207-127.778L272.207 0 241.914 0 241.914-179.985 272.207-179.985 272.207-153.237C283.271-163.013 292.913-169.915 301.13-173.943 309.348-177.971 317.324-179.985 325.059-179.985 328.174-179.985 330.51-179.905 332.068-179.744 333.625-179.583 335.371-179.341 337.305-179.019ZM455.99-44.3115 455.99-94.2627C448.793-93.6182 439.689-92.7319 428.678-91.604 417.667-90.4761 408.778-88.8916 402.011-86.8506 393.954-84.3799 387.294-80.5933 382.03-75.4907 376.766-70.3882 374.135-63.2715 374.135-54.1406 374.135-43.8281 377.035-36.04 382.836-30.7764 388.637-25.5127 397.123-22.8809 408.295-22.8809 417.855-22.8809 426.503-24.9487 434.237-29.0845 441.972-33.2202 449.223-38.2959 455.99-44.3115ZM455.99-19.1748C453.519-17.3486 450.216-14.7974 446.08-11.521 441.945-8.24463 437.943-5.63965 434.076-3.70605 428.705-0.913086 423.522 1.23535 418.527 2.73926 413.532 4.24316 406.522 4.99512 397.499 4.99512 390.087 4.99512 383.051 3.59863 376.39 0.805664 369.73-1.9873 363.876-5.9082 358.827-10.957 353.993-15.8984 350.126-21.9946 347.225-29.2456 344.325-36.4966 342.875-44.1504 342.875-52.207 342.875-64.668 345.507-75.2759 350.77-84.0308 356.034-92.7856 364.359-99.7412 375.746-104.897 385.844-109.517 397.767-112.712 411.517-114.485 425.267-116.257 440.092-117.573 455.99-118.433L455.99-124.233C455.99-131.323 454.916-137.043 452.767-141.394 450.619-145.745 447.611-149.102 443.744-151.465 439.877-153.936 435.15-155.574 429.564-156.379 423.978-157.185 418.231-157.588 412.323-157.588 405.341-157.588 397.123-156.541 387.67-154.446 378.217-152.351 368.764-149.316 359.31-145.342L357.538-145.342 357.538-176.118C363.124-177.729 371.127-179.502 381.547-181.436 391.967-183.369 402.279-184.336 412.484-184.336 424.838-184.336 435.258-183.369 443.744-181.436 452.23-179.502 459.857-176.011 466.625-170.962 473.178-166.02 478.065-159.629 481.288-151.787 484.511-143.945 486.122-134.385 486.122-123.105L486.122 0 455.99 0ZM577.126 4.35059C565.095 4.35059 553.842 2.73926 543.369-0.483398 532.895-3.70605 524.221-7.14355 517.346-10.7959L517.346-44.7949 518.957-44.7949C521.535-42.7539 524.57-40.498 528.061-38.0273 531.552-35.5566 536.198-32.9785 541.999-30.293 547.155-27.9297 552.822-25.835 558.999-24.0088 565.175-22.1826 571.594-21.2695 578.254-21.2695 583.088-21.2695 588.244-21.8335 593.723-22.9614 599.201-24.0894 603.283-25.5127 605.969-27.2314 609.729-29.7021 612.441-32.334 614.106-35.1269 615.771-37.9199 616.604-42.1094 616.604-47.6953 616.604-54.8926 614.643-60.3174 610.722-63.9697 606.801-67.6221 599.846-70.6836 589.856-73.1543 585.988-74.1211 580.94-75.249 574.709-76.5381 568.479-77.8271 562.732-79.2236 557.468-80.7275 543.718-84.7021 533.728-90.852 527.497-99.1772 521.267-107.502 518.152-117.573 518.152-129.39 518.152-145.61 524.275-158.823 536.521-169.028 548.767-179.233 565.041-184.336 585.344-184.336 595.334-184.336 605.378-183.101 615.476-180.63 625.573-178.159 634.06-175.044 640.935-171.284L640.935-138.896 639.323-138.896C631.589-145.02 622.968-149.854 613.462-153.398 603.955-156.943 594.367-158.716 584.699-158.716 574.709-158.716 566.277-156.621 559.402-152.432 552.527-148.242 549.089-141.904 549.089-133.418 549.089-125.898 551.13-120.286 555.212-116.58 559.294-112.874 565.847-109.839 574.87-107.476 579.382-106.294 584.404-105.139 589.936-104.011 595.468-102.883 601.296-101.567 607.419-100.063 620.739-96.7334 630.757-91.2012 637.47-83.4668 644.184-75.7324 647.541-65.2051 647.541-51.8848 647.541-44.1504 646.01-36.8188 642.949-29.8901 639.887-22.9614 635.403-17.0264 629.494-12.085 623.049-6.71387 615.771-2.63184 607.661 0.161133 599.55 2.9541 589.372 4.35059 577.126 4.35059ZM724.366 4.35059C712.334 4.35059 701.082 2.73926 690.608-0.483398 680.135-3.70605 671.46-7.14355 664.585-10.7959L664.585-44.7949 666.197-44.7949C668.775-42.7539 671.81-40.498 675.301-38.0273 678.792-35.5566 683.438-32.9785 689.239-30.293 694.395-27.9297 700.062-25.835 706.238-24.0088 712.415-22.1826 718.833-21.2695 725.494-21.2695 730.328-21.2695 735.484-21.8335 740.962-22.9614 746.441-24.0894 750.523-25.5127 753.208-27.2314 756.968-29.7021 759.681-32.334 761.346-35.1269 763.011-37.9199 763.843-42.1094 763.843-47.6953 763.843-54.8926 761.883-60.3174 757.962-63.9697 754.041-67.6221 747.085-70.6836 737.095-73.1543 733.228-74.1211 728.179-75.249 721.949-76.5381 715.718-77.8271 709.971-79.2236 704.708-80.7275 690.958-84.7021 680.967-90.852 674.737-99.1772 668.506-107.502 665.391-117.573 665.391-129.39 665.391-145.61 671.514-158.823 683.76-169.028 696.006-179.233 712.281-184.336 732.583-184.336 742.574-184.336 752.618-183.101 762.715-180.63 772.813-178.159 781.299-175.044 788.174-171.284L788.174-138.896 786.563-138.896C778.829-145.02 770.208-149.854 760.701-153.398 751.194-156.943 741.607-158.716 731.939-158.716 721.949-158.716 713.516-156.621 706.641-152.432 699.766-148.242 696.329-141.904 696.329-133.418 696.329-125.898 698.37-120.286 702.452-116.58 706.534-112.874 713.086-109.839 722.11-107.476 726.622-106.294 731.644-105.139 737.176-104.011 742.708-102.883 748.536-101.567 754.659-100.063 767.979-96.7334 777.996-91.2012 784.71-83.4668 791.424-75.7324 794.781-65.2051 794.781-51.8848 794.781-44.1504 793.25-36.8188 790.188-29.8901 787.127-22.9614 782.642-17.0264 776.734-12.085 770.289-6.71387 763.011-2.63184 754.9 0.161133 746.79 2.9541 736.612 4.35059 724.366 4.35059Z" fill="#707070" transform="matrix(1 0 0 1 222.726 452)"/></g></g><path d="M91.0001 3377C91.0001 3233.41 207.406 3117 351.001 3117L1302 3117C1445.6 3117 1562 3233.41 1562 3377L1562 3377C1562 3520.6 1445.59 3637 1302 3637L351.001 3637C207.406 3637 91.0001 3520.59 91.0001 3377Z" fill="#FFFFFF" fill-rule="evenodd"/><g clip-path="url(#clip9)" filter="url(#fx3)" transform="translate(449 3075)"><g><path d="M124.717 4.67285C107.744 4.67285 92.2217 2.09473 78.1494-3.06152 64.0771-8.21777 51.9922-16.0596 41.8945-26.5869 31.7969-37.2217 24.0625-50.3809 18.6914-66.0644 13.3203-81.748 10.6348-99.7949 10.6348-120.205 10.6348-139.541 13.3472-156.863 18.772-172.17 24.1968-187.478 31.958-200.557 42.0557-211.406 51.8311-221.934 63.8623-230.044 78.1494-235.737 92.4365-241.431 108.066-244.277 125.039-244.277 133.096-244.277 140.83-243.687 148.242-242.505 155.654-241.323 162.744-239.712 169.512-237.671 174.883-236.06 180.872-233.831 187.478-230.984 194.084-228.137 199.429-225.693 203.511-223.652L203.511-185.142 200.771-185.142C196.797-188.687 192.688-192.043 188.445-195.212 184.202-198.381 178.213-201.792 170.479-205.444 164.033-208.667 156.621-211.353 148.242-213.501 139.863-215.649 130.84-216.724 121.172-216.724 98.0762-216.724 79.4116-208.022 65.1782-190.62 50.9448-173.218 43.8281-150.068 43.8281-121.172 43.8281-105.059 45.708-90.9863 49.4678-78.9551 53.2275-66.9238 58.6523-56.7187 65.7422-48.3398 72.6172-40.0684 80.9155-33.7573 90.6372-29.4067 100.359-25.0562 111.289-22.8809 123.428-22.8809 132.451-22.8809 141.421-23.5254 150.337-24.8145 159.253-26.1035 166.772-28.0371 172.895-30.6152L172.895-92.6514 117.466-92.6514 117.466-120.688 204.478-120.688 204.478-15.9521C200.395-14.126 194.944-11.8164 188.123-9.02344 181.301-6.23047 174.937-4.02832 169.028-2.41699 161.187-0.053711 154.097 1.71875 147.759 2.90039 141.421 4.08203 133.74 4.67285 124.717 4.67285ZM337.305-147.437 335.693-147.437C333.437-148.081 331.047-148.484 328.523-148.645 325.998-148.806 322.964-148.887 319.419-148.887 311.255-148.887 303.145-147.114 295.088-143.569 287.031-140.024 279.404-134.761 272.207-127.778L272.207 0 241.914 0 241.914-179.985 272.207-179.985 272.207-153.237C283.271-163.013 292.913-169.915 301.13-173.943 309.348-177.971 317.324-179.985 325.059-179.985 328.174-179.985 330.51-179.905 332.068-179.744 333.625-179.583 335.371-179.341 337.305-179.019ZM455.99-44.3115 455.99-94.2627C448.793-93.6182 439.689-92.7319 428.678-91.604 417.667-90.4761 408.778-88.8916 402.011-86.8506 393.954-84.3799 387.294-80.5933 382.03-75.4907 376.766-70.3882 374.135-63.2715 374.135-54.1406 374.135-43.8281 377.035-36.04 382.836-30.7764 388.637-25.5127 397.123-22.8809 408.295-22.8809 417.855-22.8809 426.503-24.9487 434.237-29.0845 441.972-33.2202 449.223-38.2959 455.99-44.3115ZM455.99-19.1748C453.519-17.3486 450.216-14.7974 446.08-11.521 441.945-8.24463 437.943-5.63965 434.076-3.70605 428.705-0.913086 423.522 1.23535 418.527 2.73926 413.532 4.24316 406.522 4.99512 397.499 4.99512 390.087 4.99512 383.051 3.59863 376.39 0.805664 369.73-1.9873 363.876-5.9082 358.827-10.957 353.993-15.8984 350.126-21.9946 347.225-29.2456 344.325-36.4966 342.875-44.1504 342.875-52.207 342.875-64.668 345.507-75.2759 350.77-84.0308 356.034-92.7856 364.359-99.7412 375.746-104.897 385.844-109.517 397.767-112.712 411.517-114.485 425.267-116.257 440.092-117.573 455.99-118.433L455.99-124.233C455.99-131.323 454.916-137.043 452.767-141.394 450.619-145.745 447.611-149.102 443.744-151.465 439.877-153.936 435.15-155.574 429.564-156.379 423.978-157.185 418.231-157.588 412.323-157.588 405.341-157.588 397.123-156.541 387.67-154.446 378.217-152.351 368.764-149.316 359.31-145.342L357.538-145.342 357.538-176.118C363.124-177.729 371.127-179.502 381.547-181.436 391.967-183.369 402.279-184.336 412.484-184.336 424.838-184.336 435.258-183.369 443.744-181.436 452.23-179.502 459.857-176.011 466.625-170.962 473.178-166.02 478.065-159.629 481.288-151.787 484.511-143.945 486.122-134.385 486.122-123.105L486.122 0 455.99 0ZM577.126 4.35059C565.095 4.35059 553.842 2.73926 543.369-0.483398 532.895-3.70605 524.221-7.14355 517.346-10.7959L517.346-44.7949 518.957-44.7949C521.535-42.7539 524.57-40.498 528.061-38.0273 531.552-35.5566 536.198-32.9785 541.999-30.293 547.155-27.9297 552.822-25.835 558.999-24.0088 565.175-22.1826 571.594-21.2695 578.254-21.2695 583.088-21.2695 588.244-21.8335 593.723-22.9614 599.201-24.0894 603.283-25.5127 605.969-27.2314 609.729-29.7021 612.441-32.334 614.106-35.1269 615.771-37.9199 616.604-42.1094 616.604-47.6953 616.604-54.8926 614.643-60.3174 610.722-63.9697 606.801-67.6221 599.846-70.6836 589.856-73.1543 585.988-74.1211 580.94-75.249 574.709-76.5381 568.479-77.8271 562.732-79.2236 557.468-80.7275 543.718-84.7021 533.728-90.852 527.497-99.1772 521.267-107.502 518.152-117.573 518.152-129.39 518.152-145.61 524.275-158.823 536.521-169.028 548.767-179.233 565.041-184.336 585.344-184.336 595.334-184.336 605.378-183.101 615.476-180.63 625.573-178.159 634.06-175.044 640.935-171.284L640.935-138.896 639.323-138.896C631.589-145.02 622.968-149.854 613.462-153.398 603.955-156.943 594.367-158.716 584.699-158.716 574.709-158.716 566.277-156.621 559.402-152.432 552.527-148.242 549.089-141.904 549.089-133.418 549.089-125.898 551.13-120.286 555.212-116.58 559.294-112.874 565.847-109.839 574.87-107.476 579.382-106.294 584.404-105.139 589.936-104.011 595.468-102.883 601.296-101.567 607.419-100.063 620.739-96.7334 630.757-91.2012 637.47-83.4668 644.184-75.7324 647.541-65.2051 647.541-51.8848 647.541-44.1504 646.01-36.8188 642.949-29.8901 639.887-22.9614 635.403-17.0264 629.494-12.085 623.049-6.71387 615.771-2.63184 607.661 0.161133 599.55 2.9541 589.372 4.35059 577.126 4.35059ZM724.366 4.35059C712.334 4.35059 701.082 2.73926 690.608-0.483398 680.135-3.70605 671.46-7.14355 664.585-10.7959L664.585-44.7949 666.197-44.7949C668.775-42.7539 671.81-40.498 675.301-38.0273 678.792-35.5566 683.438-32.9785 689.239-30.293 694.395-27.9297 700.062-25.835 706.238-24.0088 712.415-22.1826 718.833-21.2695 725.494-21.2695 730.328-21.2695 735.484-21.8335 740.962-22.9614 746.441-24.0894 750.523-25.5127 753.208-27.2314 756.968-29.7021 759.681-32.334 761.346-35.1269 763.011-37.9199 763.843-42.1094 763.843-47.6953 763.843-54.8926 761.883-60.3174 757.962-63.9697 754.041-67.6221 747.085-70.6836 737.095-73.1543 733.228-74.1211 728.179-75.249 721.949-76.5381 715.718-77.8271 709.971-79.2236 704.708-80.7275 690.958-84.7021 680.967-90.852 674.737-99.1772 668.506-107.502 665.391-117.573 665.391-129.39 665.391-145.61 671.514-158.823 683.76-169.028 696.006-179.233 712.281-184.336 732.583-184.336 742.574-184.336 752.618-183.101 762.715-180.63 772.813-178.159 781.299-175.044 788.174-171.284L788.174-138.896 786.563-138.896C778.829-145.02 770.208-149.854 760.701-153.398 751.194-156.943 741.607-158.716 731.939-158.716 721.949-158.716 713.516-156.621 706.641-152.432 699.766-148.242 696.329-141.904 696.329-133.418 696.329-125.898 698.37-120.286 702.452-116.58 706.534-112.874 713.086-109.839 722.11-107.476 726.622-106.294 731.644-105.139 737.176-104.011 742.708-102.883 748.536-101.567 754.659-100.063 767.979-96.7334 777.996-91.2012 784.71-83.4668 791.424-75.7324 794.781-65.2051 794.781-51.8848 794.781-44.1504 793.25-36.8188 790.188-29.8901 787.127-22.9614 782.642-17.0264 776.734-12.085 770.289-6.71387 763.011-2.63184 754.9 0.161133 746.79 2.9541 736.612 4.35059 724.366 4.35059Z" fill="#707070" transform="matrix(1 0 0 1 212.686 442)"/></g></g><text fill="#707070" font-family="Tahoma,Tahoma_MSFontService,sans-serif" font-weight="400" font-size="330" transform="matrix(1 0 0 1 652.003 3507)">Grass</text><g><g><g><path d="M611 3377C611 3520.59 494.594 3637 351 3637 207.406 3637 91.0001 3520.59 91.0001 3377 91.0001 3233.41 207.406 3117 351 3117 494.594 3117 611 3233.41 611 3377Z" fill="#439837"/><path d="M485.672 3291.93C490.141 3287.6 489.247 3300.46 488.759 3304.42 480.492 3370.66 470.539 3436.62 455.955 3501.78 452.055 3519.27 449.191 3521.5 431.376 3521.77 411.714 3522.05 392.072 3521.89 372.572 3521.85 369.119 3521.85 366.783 3518.33 368.103 3515.15 400.481 3437.73 443.95 3332.27 485.672 3291.93Z" fill="#FFFFFF"/><path d="M337.736 3483.93C336.05 3435.7 341.9 3408.44 347.912 3344.46 348.156 3341.78 349.111 3339.24 350.248 3336.8 357.419 3321.61 385.47 3263.19 401.761 3243.02 405.173 3238.79 411.937 3241.09 412.283 3246.49 412.506 3250.11 412.364 3253.48 412.222 3257.1 410.414 3298.35 405.539 3339.34 399.648 3380.19 398.511 3388.03 395.139 3395.79 391.584 3403 379.945 3426.6 393.778 3398.37 355.509 3473.22 353.092 3477.97 351.203 3483.99 346.714 3487.4 343.058 3490.18 337.898 3488.52 337.736 3483.95Z" fill="#FFFFFF"/><path d="M328.291 3291.93C332.759 3287.6 331.866 3300.46 331.378 3304.42 323.111 3370.66 313.158 3436.62 298.573 3501.78 294.673 3519.27 291.809 3521.5 273.995 3521.77 254.333 3522.05 234.691 3521.89 215.191 3521.85 211.738 3521.85 209.402 3518.33 210.722 3515.15 243.1 3437.73 286.569 3332.27 328.291 3291.93Z" fill="#FFFFFF"/></g></g></g></g></svg>