<svg width="1892" height="758" xmlns="http://www.w3.org/2000/svg" xmlns:xlink="http://www.w3.org/1999/xlink" xml:space="preserve" overflow="hidden"><defs><filter id="fx0" x="-10%" y="-10%" width="120%" height="120%" filterUnits="userSpaceOnUse" primitiveUnits="userSpaceOnUse"><feComponentTransfer color-interpolation-filters="sRGB"><feFuncR type="discrete" tableValues="0 0"/><feFuncG type="discrete" tableValues="0 0"/><feFuncB type="discrete" tableValues="0 0"/><feFuncA type="linear" slope="0.4" intercept="0"/></feComponentTransfer><feGaussianBlur stdDeviation="6.11111 6.11111"/></filter><filter id="fx1" x="-10%" y="-10%" width="120%" height="120%" filterUnits="userSpaceOnUse" primitiveUnits="userSpaceOnUse"><feComponentTransfer color-interpolation-filters="sRGB"><feFuncR type="discrete" tableValues="0 0"/><feFuncG type="discrete" tableValues="0 0"/><feFuncB type="discrete" tableValues="0 0"/><feFuncA type="linear" slope="0.431373" intercept="0"/></feComponentTransfer><feGaussianBlur stdDeviation="4.56444 4.56444"/></filter><filter id="fx2" x="-10%" y="-10%" width="120%" height="120%" filterUnits="userSpaceOnUse" primitiveUnits="userSpaceOnUse"><feComponentTransfer color-interpolation-filters="sRGB"><feFuncR type="discrete" tableValues="0 0"/><feFuncG type="discrete" tableValues="0 0"/><feFuncB type="discrete" tableValues="0 0"/><feFuncA type="linear" slope="0.4" intercept="0"/></feComponentTransfer><feGaussianBlur stdDeviation="6.11111 6.11111"/></filter><filter id="fx3" x="-10%" y="-10%" width="120%" height="120%" filterUnits="userSpaceOnUse" primitiveUnits="userSpaceOnUse"><feComponentTransfer color-interpolation-filters="sRGB"><feFuncR type="discrete" tableValues="0 0"/><feFuncG type="discrete" tableValues="0 0"/><feFuncB type="discrete" tableValues="0 0"/><feFuncA type="linear" slope="0.431373" intercept="0"/></feComponentTransfer><feGaussianBlur stdDeviation="4.56444 4.56444"/></filter><clipPath id="clip4"><rect x="82" y="3708" width="1892" height="758"/></clipPath><clipPath id="clip5"><rect x="204" y="169" width="1111" height="338"/></clipPath><clipPath id="clip6"><rect x="0" y="0" width="1530" height="761"/></clipPath><clipPath id="clip7"><rect x="207" y="175" width="1068" height="289"/></clipPath><clipPath id="clip8"><rect x="0" y="0" width="1492" height="723"/></clipPath><clipPath id="clip9"><rect x="207" y="175" width="1068" height="289"/></clipPath></defs><g clip-path="url(#clip4)" transform="translate(-82 -3708)"><g filter="url(#fx0)" transform="translate(81 3748)"><g><path d="M19.7228 279.723C19.7228 136.129 136.129 19.7227 279.722 19.7227L1502.72 19.7227C1646.32 19.7227 1762.72 136.129 1762.72 279.723L1762.72 279.723C1762.72 423.317 1646.32 539.723 1502.72 539.723L279.722 539.723C136.129 539.723 19.7228 423.317 19.7228 279.723Z" fill="#FFFFFF" fill-rule="evenodd"/></g></g><g clip-path="url(#clip5)" filter="url(#fx2)" transform="translate(445 3707)"><g clip-path="url(#clip6)"><g clip-path="url(#clip7)" filter="url(#fx1)" transform="translate(19 19)"><g clip-path="url(#clip8)"><path d="M124.717 4.67285C107.744 4.67285 92.2217 2.09473 78.1494-3.06152 64.0771-8.21777 51.9922-16.0596 41.8945-26.5869 31.7969-37.2217 24.0625-50.3809 18.6914-66.0644 13.3203-81.748 10.6348-99.7949 10.6348-120.205 10.6348-139.541 13.3472-156.863 18.772-172.17 24.1968-187.478 31.958-200.557 42.0557-211.406 51.8311-221.934 63.8623-230.044 78.1494-235.737 92.4365-241.431 108.066-244.277 125.039-244.277 133.096-244.277 140.83-243.687 148.242-242.505 155.654-241.323 162.744-239.712 169.512-237.671 174.883-236.06 180.872-233.831 187.478-230.984 194.084-228.137 199.429-225.693 203.511-223.652L203.511-185.142 200.771-185.142C196.797-188.687 192.688-192.043 188.445-195.212 184.202-198.381 178.213-201.792 170.479-205.444 164.033-208.667 156.621-211.353 148.242-213.501 139.863-215.649 130.84-216.724 121.172-216.724 98.0762-216.724 79.4116-208.022 65.1782-190.62 50.9448-173.218 43.8281-150.068 43.8281-121.172 43.8281-105.059 45.708-90.9863 49.4678-78.9551 53.2275-66.9238 58.6523-56.7187 65.7422-48.3398 72.6172-40.0684 80.9155-33.7573 90.6372-29.4067 100.359-25.0562 111.289-22.8809 123.428-22.8809 132.451-22.8809 141.421-23.5254 150.337-24.8145 159.253-26.1035 166.772-28.0371 172.895-30.6152L172.895-92.6514 117.466-92.6514 117.466-120.688 204.478-120.688 204.478-15.9521C200.395-14.126 194.944-11.8164 188.123-9.02344 181.301-6.23047 174.937-4.02832 169.028-2.41699 161.187-0.053711 154.097 1.71875 147.759 2.90039 141.421 4.08203 133.74 4.67285 124.717 4.67285ZM337.305-147.437 335.693-147.437C333.437-148.081 331.047-148.484 328.523-148.645 325.998-148.806 322.964-148.887 319.419-148.887 311.255-148.887 303.145-147.114 295.088-143.569 287.031-140.024 279.404-134.761 272.207-127.778L272.207 0 241.914 0 241.914-179.985 272.207-179.985 272.207-153.237C283.271-163.013 292.913-169.915 301.13-173.943 309.348-177.971 317.324-179.985 325.059-179.985 328.174-179.985 330.51-179.905 332.068-179.744 333.625-179.583 335.371-179.341 337.305-179.019ZM507.558-89.9121C507.558-59.6191 500.253-36.228 485.643-19.7388 471.034-3.24951 451.591 4.99512 427.313 4.99512 402.284 4.99512 382.599-3.51807 368.258-20.5444 353.917-37.5708 346.747-60.6934 346.747-89.9121 346.747-119.99 354.132-143.354 368.903-160.005 383.673-176.655 403.143-184.98 427.313-184.98 451.591-184.98 471.034-176.682 485.643-160.085 500.253-143.489 507.558-120.098 507.558-89.9121ZM476.298-89.9121C476.298-113.223 472.055-130.544 463.568-141.877 455.082-153.21 442.997-158.877 427.313-158.877 411.522-158.877 399.357-153.21 390.817-141.877 382.277-130.544 378.007-113.223 378.007-89.9121 378.007-67.3535 382.277-50.2466 390.817-38.5913 399.357-26.936 411.522-21.1084 427.313-21.1084 442.89-21.1084 454.948-26.8286 463.488-38.269 472.028-49.7095 476.298-66.9238 476.298-89.9121ZM678.985 0 648.692 0 648.692-19.9805C639.346-11.8164 630.484-5.61279 622.105-1.36963 613.726 2.87353 604.38 4.99512 594.068 4.99512 586.226 4.99512 578.841 3.70605 571.912 1.12793 564.984-1.4502 558.941-5.53223 553.785-11.1182 548.629-16.7041 544.627-23.7402 541.78-32.2266 538.934-40.7129 537.51-51.0254 537.51-63.1641L537.51-179.985 567.803-179.985 567.803-77.5049C567.803-67.9443 568.152-60.022 568.851-53.7378 569.549-47.4536 571.133-41.9482 573.604-37.2217 576.075-32.6025 579.432-29.2187 583.675-27.0703 587.918-24.9219 594.014-23.8477 601.964-23.8477 609.376-23.8477 617.271-25.9424 625.65-30.1318 634.029-34.3213 641.71-39.4775 648.692-45.6006L648.692-179.985 678.985-179.985ZM864.18 0 833.887 0 833.887-102.48C833.887-110.752 833.484-118.459 832.679-125.603 831.873-132.747 830.342-138.467 828.087-142.764 825.616-147.275 822.178-150.632 817.774-152.834 813.37-155.037 807.354-156.138 799.727-156.138 792.208-156.138 784.446-154.124 776.443-150.095 768.441-146.067 760.626-140.83 752.999-134.385L752.999 0 722.706 0 722.706-179.985 752.999-179.985 752.999-160.005C762.022-168.062 770.938-174.238 779.747-178.535 788.555-182.832 797.847-184.98 807.623-184.98 825.347-184.98 839.205-179.153 849.195-167.498 859.185-155.842 864.18-138.95 864.18-116.821ZM1045.19 0 1014.89 0 1014.89-18.3691C1010.17-14.3945 1006.08-11.1182 1002.65-8.54004 999.21-5.96191 995.181-3.59863 990.562-1.4502 986.265 0.59082 981.807 2.17529 977.188 3.30322 972.569 4.43115 967.198 4.99512 961.075 4.99512 951.299 4.99512 942.249 2.9541 933.924-1.12793 925.599-5.20996 918.536-11.1719 912.735-19.0137 906.827-26.9629 902.261-36.7651 899.039-48.4204 895.816-60.0757 894.205-73.4766 894.205-88.623 894.205-104.414 896.246-118.083 900.328-129.631 904.41-141.179 910.049-151.25 917.247-159.844 923.799-167.686 931.722-173.835 941.014-178.293 950.306-182.751 960.054-184.98 970.259-184.98 979.283-184.98 987.125-183.987 993.785-181.999 1000.44-180.012 1007.48-176.924 1014.89-172.734L1014.89-250.723 1045.19-250.723ZM1014.89-43.8281 1014.89-147.598C1007.37-151.25 1000.63-153.774 994.671-155.171 988.709-156.567 982.237-157.266 975.255-157.266 959.678-157.266 947.486-151.438 938.677-139.783 929.869-128.127 925.464-111.289 925.464-89.2676 925.464-68.1055 928.848-51.9116 935.616-40.686 942.383-29.4604 953.233-23.8477 968.165-23.8477 976.114-23.8477 984.117-25.647 992.173-29.2456 1000.23-32.8442 1007.8-37.7051 1014.89-43.8281Z" fill="#707070" transform="matrix(1 0 0 1 -232.458 -3265)"/></g></g><path d="M124.717 4.67285C107.744 4.67285 92.2217 2.09473 78.1494-3.06152 64.0771-8.21777 51.9922-16.0596 41.8945-26.5869 31.7969-37.2217 24.0625-50.3809 18.6914-66.0644 13.3203-81.748 10.6348-99.7949 10.6348-120.205 10.6348-139.541 13.3472-156.863 18.772-172.17 24.1968-187.478 31.958-200.557 42.0557-211.406 51.8311-221.934 63.8623-230.044 78.1494-235.737 92.4365-241.431 108.066-244.277 125.039-244.277 133.096-244.277 140.83-243.687 148.242-242.505 155.654-241.323 162.744-239.712 169.512-237.671 174.883-236.06 180.872-233.831 187.478-230.984 194.084-228.137 199.429-225.693 203.511-223.652L203.511-185.142 200.771-185.142C196.797-188.687 192.688-192.043 188.445-195.212 184.202-198.381 178.213-201.792 170.479-205.444 164.033-208.667 156.621-211.353 148.242-213.501 139.863-215.649 130.84-216.724 121.172-216.724 98.0762-216.724 79.4116-208.022 65.1782-190.62 50.9448-173.218 43.8281-150.068 43.8281-121.172 43.8281-105.059 45.708-90.9863 49.4678-78.9551 53.2275-66.9238 58.6523-56.7187 65.7422-48.3398 72.6172-40.0684 80.9155-33.7573 90.6372-29.4067 100.359-25.0562 111.289-22.8809 123.428-22.8809 132.451-22.8809 141.421-23.5254 150.337-24.8145 159.253-26.1035 166.772-28.0371 172.895-30.6152L172.895-92.6514 117.466-92.6514 117.466-120.688 204.478-120.688 204.478-15.9521C200.395-14.126 194.944-11.8164 188.123-9.02344 181.301-6.23047 174.937-4.02832 169.028-2.41699 161.187-0.053711 154.097 1.71875 147.759 2.90039 141.421 4.08203 133.74 4.67285 124.717 4.67285ZM337.305-147.437 335.693-147.437C333.437-148.081 331.047-148.484 328.523-148.645 325.998-148.806 322.964-148.887 319.419-148.887 311.255-148.887 303.145-147.114 295.088-143.569 287.031-140.024 279.404-134.761 272.207-127.778L272.207 0 241.914 0 241.914-179.985 272.207-179.985 272.207-153.237C283.271-163.013 292.913-169.915 301.13-173.943 309.348-177.971 317.324-179.985 325.059-179.985 328.174-179.985 330.51-179.905 332.068-179.744 333.625-179.583 335.371-179.341 337.305-179.019ZM507.558-89.9121C507.558-59.6191 500.253-36.228 485.643-19.7388 471.034-3.24951 451.591 4.99512 427.313 4.99512 402.284 4.99512 382.599-3.51807 368.258-20.5444 353.917-37.5708 346.747-60.6934 346.747-89.9121 346.747-119.99 354.132-143.354 368.903-160.005 383.673-176.655 403.143-184.98 427.313-184.98 451.591-184.98 471.034-176.682 485.643-160.085 500.253-143.489 507.558-120.098 507.558-89.9121ZM476.298-89.9121C476.298-113.223 472.055-130.544 463.568-141.877 455.082-153.21 442.997-158.877 427.313-158.877 411.522-158.877 399.357-153.21 390.817-141.877 382.277-130.544 378.007-113.223 378.007-89.9121 378.007-67.3535 382.277-50.2466 390.817-38.5913 399.357-26.936 411.522-21.1084 427.313-21.1084 442.89-21.1084 454.948-26.8286 463.488-38.269 472.028-49.7095 476.298-66.9238 476.298-89.9121ZM678.985 0 648.692 0 648.692-19.9805C639.346-11.8164 630.484-5.61279 622.105-1.36963 613.726 2.87353 604.38 4.99512 594.068 4.99512 586.226 4.99512 578.841 3.70605 571.912 1.12793 564.984-1.4502 558.941-5.53223 553.785-11.1182 548.629-16.7041 544.627-23.7402 541.78-32.2266 538.934-40.7129 537.51-51.0254 537.51-63.1641L537.51-179.985 567.803-179.985 567.803-77.5049C567.803-67.9443 568.152-60.022 568.851-53.7378 569.549-47.4536 571.133-41.9482 573.604-37.2217 576.075-32.6025 579.432-29.2187 583.675-27.0703 587.918-24.9219 594.014-23.8477 601.964-23.8477 609.376-23.8477 617.271-25.9424 625.65-30.1318 634.029-34.3213 641.71-39.4775 648.692-45.6006L648.692-179.985 678.985-179.985ZM864.18 0 833.887 0 833.887-102.48C833.887-110.752 833.484-118.459 832.679-125.603 831.873-132.747 830.342-138.467 828.087-142.764 825.616-147.275 822.178-150.632 817.774-152.834 813.37-155.037 807.354-156.138 799.727-156.138 792.208-156.138 784.446-154.124 776.443-150.095 768.441-146.067 760.626-140.83 752.999-134.385L752.999 0 722.706 0 722.706-179.985 752.999-179.985 752.999-160.005C762.022-168.062 770.938-174.238 779.747-178.535 788.555-182.832 797.847-184.98 807.623-184.98 825.347-184.98 839.205-179.153 849.195-167.498 859.185-155.842 864.18-138.95 864.18-116.821ZM1045.19 0 1014.89 0 1014.89-18.3691C1010.17-14.3945 1006.08-11.1182 1002.65-8.54004 999.21-5.96191 995.181-3.59863 990.562-1.4502 986.265 0.59082 981.807 2.17529 977.188 3.30322 972.569 4.43115 967.198 4.99512 961.075 4.99512 951.299 4.99512 942.249 2.9541 933.924-1.12793 925.599-5.20996 918.536-11.1719 912.735-19.0137 906.827-26.9629 902.261-36.7651 899.039-48.4204 895.816-60.0757 894.205-73.4766 894.205-88.623 894.205-104.414 896.246-118.083 900.328-129.631 904.41-141.179 910.049-151.25 917.247-159.844 923.799-167.686 931.722-173.835 941.014-178.293 950.306-182.751 960.054-184.98 970.259-184.98 979.283-184.98 987.125-183.987 993.785-181.999 1000.44-180.012 1007.48-176.924 1014.89-172.734L1014.89-250.723 1045.19-250.723ZM1014.89-43.8281 1014.89-147.598C1007.37-151.25 1000.63-153.774 994.671-155.171 988.709-156.567 982.237-157.266 975.255-157.266 959.678-157.266 947.486-151.438 938.677-139.783 929.869-128.127 925.464-111.289 925.464-89.2676 925.464-68.1055 928.848-51.9116 935.616-40.686 942.383-29.4604 953.233-23.8477 968.165-23.8477 976.114-23.8477 984.117-25.647 992.173-29.2456 1000.23-32.8442 1007.8-37.7051 1014.89-43.8281Z" fill="#707070" transform="matrix(1 0 0 1 221.859 451)"/></g></g><path d="M91.0001 4018C91.0001 3874.41 207.406 3758 350.999 3758L1574 3758C1717.59 3758 1834 3874.41 1834 4018L1834 4018C1834 4161.59 1717.59 4278 1574 4278L350.999 4278C207.406 4278 91.0001 4161.59 91.0001 4018Z" fill="#FFFFFF" fill-rule="evenodd"/><g clip-path="url(#clip9)" filter="url(#fx3)" transform="translate(454 3716)"><g><path d="M124.717 4.67285C107.744 4.67285 92.2217 2.09473 78.1494-3.06152 64.0771-8.21777 51.9922-16.0596 41.8945-26.5869 31.7969-37.2217 24.0625-50.3809 18.6914-66.0644 13.3203-81.748 10.6348-99.7949 10.6348-120.205 10.6348-139.541 13.3472-156.863 18.772-172.17 24.1968-187.478 31.958-200.557 42.0557-211.406 51.8311-221.934 63.8623-230.044 78.1494-235.737 92.4365-241.431 108.066-244.277 125.039-244.277 133.096-244.277 140.83-243.687 148.242-242.505 155.654-241.323 162.744-239.712 169.512-237.671 174.883-236.06 180.872-233.831 187.478-230.984 194.084-228.137 199.429-225.693 203.511-223.652L203.511-185.142 200.771-185.142C196.797-188.687 192.688-192.043 188.445-195.212 184.202-198.381 178.213-201.792 170.479-205.444 164.033-208.667 156.621-211.353 148.242-213.501 139.863-215.649 130.84-216.724 121.172-216.724 98.0762-216.724 79.4116-208.022 65.1782-190.62 50.9448-173.218 43.8281-150.068 43.8281-121.172 43.8281-105.059 45.708-90.9863 49.4678-78.9551 53.2275-66.9238 58.6523-56.7187 65.7422-48.3398 72.6172-40.0684 80.9155-33.7573 90.6372-29.4067 100.359-25.0562 111.289-22.8809 123.428-22.8809 132.451-22.8809 141.421-23.5254 150.337-24.8145 159.253-26.1035 166.772-28.0371 172.895-30.6152L172.895-92.6514 117.466-92.6514 117.466-120.688 204.478-120.688 204.478-15.9521C200.395-14.126 194.944-11.8164 188.123-9.02344 181.301-6.23047 174.937-4.02832 169.028-2.41699 161.187-0.053711 154.097 1.71875 147.759 2.90039 141.421 4.08203 133.74 4.67285 124.717 4.67285ZM337.305-147.437 335.693-147.437C333.437-148.081 331.047-148.484 328.523-148.645 325.998-148.806 322.964-148.887 319.419-148.887 311.255-148.887 303.145-147.114 295.088-143.569 287.031-140.024 279.404-134.761 272.207-127.778L272.207 0 241.914 0 241.914-179.985 272.207-179.985 272.207-153.237C283.271-163.013 292.913-169.915 301.13-173.943 309.348-177.971 317.324-179.985 325.059-179.985 328.174-179.985 330.51-179.905 332.068-179.744 333.625-179.583 335.371-179.341 337.305-179.019ZM507.558-89.9121C507.558-59.6191 500.253-36.228 485.643-19.7388 471.034-3.24951 451.591 4.99512 427.313 4.99512 402.284 4.99512 382.599-3.51807 368.258-20.5444 353.917-37.5708 346.747-60.6934 346.747-89.9121 346.747-119.99 354.132-143.354 368.903-160.005 383.673-176.655 403.143-184.98 427.313-184.98 451.591-184.98 471.034-176.682 485.643-160.085 500.253-143.489 507.558-120.098 507.558-89.9121ZM476.298-89.9121C476.298-113.223 472.055-130.544 463.568-141.877 455.082-153.21 442.997-158.877 427.313-158.877 411.522-158.877 399.357-153.21 390.817-141.877 382.277-130.544 378.007-113.223 378.007-89.9121 378.007-67.3535 382.277-50.2466 390.817-38.5913 399.357-26.936 411.522-21.1084 427.313-21.1084 442.89-21.1084 454.948-26.8286 463.488-38.269 472.028-49.7095 476.298-66.9238 476.298-89.9121ZM678.985 0 648.692 0 648.692-19.9805C639.346-11.8164 630.484-5.61279 622.105-1.36963 613.726 2.87353 604.38 4.99512 594.068 4.99512 586.226 4.99512 578.841 3.70605 571.912 1.12793 564.984-1.4502 558.941-5.53223 553.785-11.1182 548.629-16.7041 544.627-23.7402 541.78-32.2266 538.934-40.7129 537.51-51.0254 537.51-63.1641L537.51-179.985 567.803-179.985 567.803-77.5049C567.803-67.9443 568.152-60.022 568.851-53.7378 569.549-47.4536 571.133-41.9482 573.604-37.2217 576.075-32.6025 579.432-29.2187 583.675-27.0703 587.918-24.9219 594.014-23.8477 601.964-23.8477 609.376-23.8477 617.271-25.9424 625.65-30.1318 634.029-34.3213 641.71-39.4775 648.692-45.6006L648.692-179.985 678.985-179.985ZM864.18 0 833.887 0 833.887-102.48C833.887-110.752 833.484-118.459 832.679-125.603 831.873-132.747 830.342-138.467 828.087-142.764 825.616-147.275 822.178-150.632 817.774-152.834 813.37-155.037 807.354-156.138 799.727-156.138 792.208-156.138 784.446-154.124 776.443-150.095 768.441-146.067 760.626-140.83 752.999-134.385L752.999 0 722.706 0 722.706-179.985 752.999-179.985 752.999-160.005C762.022-168.062 770.938-174.238 779.747-178.535 788.555-182.832 797.847-184.98 807.623-184.98 825.347-184.98 839.205-179.153 849.195-167.498 859.185-155.842 864.18-138.95 864.18-116.821ZM1045.19 0 1014.89 0 1014.89-18.3691C1010.17-14.3945 1006.08-11.1182 1002.65-8.54004 999.21-5.96191 995.181-3.59863 990.562-1.4502 986.265 0.59082 981.807 2.17529 977.188 3.30322 972.569 4.43115 967.198 4.99512 961.075 4.99512 951.299 4.99512 942.249 2.9541 933.924-1.12793 925.599-5.20996 918.536-11.1719 912.735-19.0137 906.827-26.9629 902.261-36.7651 899.039-48.4204 895.816-60.0757 894.205-73.4766 894.205-88.623 894.205-104.414 896.246-118.083 900.328-129.631 904.41-141.179 910.049-151.25 917.247-159.844 923.799-167.686 931.722-173.835 941.014-178.293 950.306-182.751 960.054-184.98 970.259-184.98 979.283-184.98 987.125-183.987 993.785-181.999 1000.44-180.012 1007.48-176.924 1014.89-172.734L1014.89-250.723 1045.19-250.723ZM1014.89-43.8281 1014.89-147.598C1007.37-151.25 1000.63-153.774 994.671-155.171 988.709-156.567 982.237-157.266 975.255-157.266 959.678-157.266 947.486-151.438 938.677-139.783 929.869-128.127 925.464-111.289 925.464-89.2676 925.464-68.1055 928.848-51.9116 935.616-40.686 942.383-29.4604 953.233-23.8477 968.165-23.8477 976.114-23.8477 984.117-25.647 992.173-29.2456 1000.23-32.8442 1007.8-37.7051 1014.89-43.8281Z" fill="#707070" transform="matrix(1 0 0 1 212.819 442)"/></g></g><text fill="#707070" font-family="Tahoma,Tahoma_MSFontService,sans-serif" font-weight="400" font-size="330" transform="matrix(1 0 0 1 657.136 4148)">Ground</text><g><g><g><path d="M520 260C520 403.594 403.594 520 260 520 116.406 520-2.88658e-14 403.594-2.88658e-14 260-8.65974e-14 116.406 116.406-2.88658e-14 260-2.88658e-14 403.594-8.65974e-14 520 116.406 520 260Z" fill="#A4733C" transform="matrix(1 0 0 1 91.0001 3758)"/><path d="M256.405 375.456C251.286 373.892 243.405 372.084 235.97 369.119 201.581 355.367 167.314 341.331 133.026 327.295 129.939 326.036 127.055 324.167 124.15 322.481 109.078 313.747 108.509 303.773 123.744 296.359 165.547 276.026 208.934 259.553 252.951 244.705 258.355 242.876 263.412 243.486 268.734 245.294 311.451 259.797 353.498 275.925 394.225 295.364 396.053 296.237 398.105 296.745 399.729 297.862 409.5 304.667 409.845 314.356 399.567 320.45 390.345 325.914 380.23 329.915 370.317 334.12 337.492 348.055 304.626 361.948 270.786 373.323 266.906 374.623 263.23 376.106 256.384 375.436Z" fill="#FFFFFF" transform="matrix(1 0 0 1 91.0001 3758)"/><path d="M259.106 426.42C250.575 426.42 226.362 417.97 210.701 412.181 181.005 401.192 151.734 388.862 122.891 375.7 121.53 375.09 115.659 371.658 112.348 369.728 102.111 363.837 101.359 362.131 107.128 350.939 110.987 343.464 112.612 344.215 122.87 348.928 155.391 363.797 188.642 376.695 221.812 389.858 254.983 403.02 264.651 403.812 298.025 389.939 330.342 376.512 362.375 362.436 395.119 349.862 405.011 346.064 409.094 342.022 413.684 352.564 417.361 360.994 421.464 363.797 406.047 370.52 372.044 385.369 338.873 401.903 303.753 413.908 289.128 418.904 268.755 426.4 259.106 426.4Z" fill="#FFFFFF" transform="matrix(1 0 0 1 91.0001 3758)"/><path d="M190.105 144.605C190.105 163.888 180.558 173.523 161.464 173.509 158.762 173.509 156.081 173.55 153.38 173.469 135.545 172.9 134.57 171.884 134.042 153.217 133.352 128.788 145.322 116.851 169.955 117.406 189.13 117.853 189.78 118.503 190.105 138.531 190.145 140.542 190.105 142.573 190.105 144.584Z" fill="#FFFFFF" transform="matrix(1 0 0 1 91.0001 3758)"/><path d="M376.39 178.181C376.106 198.839 375.7 199.184 352.036 199.001 331.723 198.839 331.236 198.25 331.439 174.505 331.622 153.826 332.15 153.359 355.712 153.705 376.309 154.009 376.715 154.477 376.39 178.181Z" fill="#FFFFFF" transform="matrix(1 0 0 1 91.0001 3758)"/><path d="M242.491 202.191C242.572 218.623 240.378 220.817 223.945 220.837 207.309 220.837 204.73 218.38 204.811 202.576 204.892 187.139 206.822 185.494 224.676 185.595 241.251 185.697 242.43 186.794 242.511 202.17Z" fill="#FFFFFF" transform="matrix(1 0 0 1 91.0001 3758)"/></g></g></g></g></svg>