<svg width="1266" height="759" xmlns="http://www.w3.org/2000/svg" xmlns:xlink="http://www.w3.org/1999/xlink" xml:space="preserve" overflow="hidden"><defs><filter id="fx0" x="-10%" y="-10%" width="120%" height="120%" filterUnits="userSpaceOnUse" primitiveUnits="userSpaceOnUse"><feComponentTransfer color-interpolation-filters="sRGB"><feFuncR type="discrete" tableValues="0 0"/><feFuncG type="discrete" tableValues="0 0"/><feFuncB type="discrete" tableValues="0 0"/><feFuncA type="linear" slope="0.4" intercept="0"/></feComponentTransfer><feGaussianBlur stdDeviation="6.11111 6.11111"/></filter><filter id="fx1" x="-10%" y="-10%" width="120%" height="120%" filterUnits="userSpaceOnUse" primitiveUnits="userSpaceOnUse"><feComponentTransfer color-interpolation-filters="sRGB"><feFuncR type="discrete" tableValues="0 0"/><feFuncG type="discrete" tableValues="0 0"/><feFuncB type="discrete" tableValues="0 0"/><feFuncA type="linear" slope="0.431373" intercept="0"/></feComponentTransfer><feGaussianBlur stdDeviation="4.56444 4.56444"/></filter><filter id="fx2" x="-10%" y="-10%" width="120%" height="120%" filterUnits="userSpaceOnUse" primitiveUnits="userSpaceOnUse"><feComponentTransfer color-interpolation-filters="sRGB"><feFuncR type="discrete" tableValues="0 0"/><feFuncG type="discrete" tableValues="0 0"/><feFuncB type="discrete" tableValues="0 0"/><feFuncA type="linear" slope="0.4" intercept="0"/></feComponentTransfer><feGaussianBlur stdDeviation="6.11111 6.11111"/></filter><filter id="fx3" x="-10%" y="-10%" width="120%" height="120%" filterUnits="userSpaceOnUse" primitiveUnits="userSpaceOnUse"><feComponentTransfer color-interpolation-filters="sRGB"><feFuncR type="discrete" tableValues="0 0"/><feFuncG type="discrete" tableValues="0 0"/><feFuncB type="discrete" tableValues="0 0"/><feFuncA type="linear" slope="0.431373" intercept="0"/></feComponentTransfer><feGaussianBlur stdDeviation="4.56444 4.56444"/></filter><clipPath id="clip4"><rect x="82" y="4349" width="1266" height="759"/></clipPath><clipPath id="clip5"><rect x="207" y="183" width="503" height="324"/></clipPath><clipPath id="clip6"><rect x="0" y="0" width="909" height="761"/></clipPath><clipPath id="clip7"><rect x="210" y="187" width="457" height="277"/></clipPath><clipPath id="clip8"><rect x="0" y="0" width="871" height="723"/></clipPath><clipPath id="clip9"><rect x="210" y="187" width="457" height="277"/></clipPath></defs><g clip-path="url(#clip4)" transform="translate(-82 -4349)"><g filter="url(#fx0)" transform="translate(81 4390)"><g><path d="M19.7228 279.223C19.7228 135.905 135.905 19.7227 279.223 19.7227L877.223 19.7227C1020.54 19.7227 1136.72 135.905 1136.72 279.223L1136.72 279.223C1136.72 422.541 1020.54 538.723 877.223 538.723L279.223 538.723C135.905 538.723 19.7228 422.541 19.7228 279.223Z" fill="#FFFFFF" fill-rule="evenodd"/></g></g><g clip-path="url(#clip5)" filter="url(#fx2)" transform="translate(441 4348)"><g clip-path="url(#clip6)"><g clip-path="url(#clip7)" filter="url(#fx1)" transform="translate(19 19)"><g clip-path="url(#clip8)"><path d="M108.12 0 14.9854 0 14.9854-24.4922 45.6006-24.4922 45.6006-215.435 14.9854-215.435 14.9854-239.927 108.12-239.927 108.12-215.435 77.5049-215.435 77.5049-24.4922 108.12-24.4922ZM212.601 4.02832C200.247 4.02832 188.914 2.12158 178.602-1.69189 168.289-5.50537 159.427-11.2793 152.015-19.0137 144.603-26.748 138.856-36.4966 134.774-48.2593 130.692-60.022 128.651-73.8525 128.651-89.751 128.651-105.542 130.772-119.185 135.015-130.679 139.258-142.173 144.925-151.841 152.015-159.683 159.105-167.524 167.94-173.567 178.521-177.81 189.102-182.053 200.462-184.175 212.601-184.175 222.484-184.175 232.017-182.778 241.202-179.985 250.386-177.192 258.577-173.97 265.775-170.317L265.775-136.318 264.002-136.318C261.854-138.145 259.088-140.239 255.704-142.603 252.32-144.966 248.211-147.383 243.377-149.854 239.188-152.002 234.246-153.882 228.553-155.493 222.86-157.104 217.381-157.91 212.117-157.91 196.434-157.91 183.839-151.975 174.332-140.105 164.825-128.235 160.071-111.45 160.071-89.751 160.071-68.4814 164.664-51.9116 173.848-40.0415 183.033-28.1714 195.789-22.2363 212.117-22.2363 222-22.2363 231.4-24.2773 240.316-28.3594 249.232-32.4414 257.127-37.7051 264.002-44.1504L265.775-44.1504 265.775-10.1514C262.767-8.75488 259.007-7.06299 254.495-5.07568 249.984-3.08838 245.902-1.61133 242.249-0.644531 237.093 0.859375 232.474 2.01416 228.392 2.81982 224.31 3.62549 219.046 4.02832 212.601 4.02832ZM371.603 4.18945C342.921 4.18945 320.658-3.89404 304.814-20.061 288.969-36.228 281.046-59.1894 281.046-88.9453 281.046-118.271 288.727-141.609 304.088-158.958 319.45-176.306 339.538-184.98 364.352-184.98 375.524-184.98 385.407-183.369 394.001-180.146 402.594-176.924 410.114-171.875 416.559-165 423.004-158.125 427.946-149.719 431.383-139.783 434.821-129.846 436.54-117.681 436.54-103.286L436.54-86.8506 311.823-86.8506C311.823-65.9033 317.086-49.8975 327.614-38.833 338.141-27.7686 352.697-22.2363 371.281-22.2363 377.941-22.2363 384.467-22.9883 390.858-24.4922 397.25-25.9961 403.024-27.9297 408.18-30.293 413.659-32.7637 418.278-35.1538 422.038-37.4634 425.797-39.7729 428.913-41.9482 431.383-43.9893L433.156-43.9893 433.156-10.957C429.611-9.56055 425.207-7.81494 419.943-5.72021 414.679-3.62549 409.953-1.9873 405.763-0.805664 399.855 0.805664 394.511 2.04102 389.73 2.90039 384.95 3.75977 378.908 4.18945 371.603 4.18945ZM407.052-110.054C406.837-118.218 405.871-125.254 404.152-131.162 402.433-137.07 399.962-142.065 396.74-146.147 393.195-150.659 388.656-154.097 383.124-156.46 377.592-158.823 370.744-160.005 362.58-160.005 354.523-160.005 347.675-158.796 342.035-156.379 336.396-153.962 331.266-150.444 326.647-145.825 322.135-141.099 318.698-135.862 316.335-130.115 313.971-124.368 312.467-117.681 311.823-110.054Z" fill="#707070" transform="matrix(1 0 0 1 -228.331 -3906)"/></g></g><path d="M108.12 0 14.9854 0 14.9854-24.4922 45.6006-24.4922 45.6006-215.435 14.9854-215.435 14.9854-239.927 108.12-239.927 108.12-215.435 77.5049-215.435 77.5049-24.4922 108.12-24.4922ZM212.601 4.02832C200.247 4.02832 188.914 2.12158 178.602-1.69189 168.289-5.50537 159.427-11.2793 152.015-19.0137 144.603-26.748 138.856-36.4966 134.774-48.2593 130.692-60.022 128.651-73.8525 128.651-89.751 128.651-105.542 130.772-119.185 135.015-130.679 139.258-142.173 144.925-151.841 152.015-159.683 159.105-167.524 167.94-173.567 178.521-177.81 189.102-182.053 200.462-184.175 212.601-184.175 222.484-184.175 232.017-182.778 241.202-179.985 250.386-177.192 258.577-173.97 265.775-170.317L265.775-136.318 264.002-136.318C261.854-138.145 259.088-140.239 255.704-142.603 252.32-144.966 248.211-147.383 243.377-149.854 239.188-152.002 234.246-153.882 228.553-155.493 222.86-157.104 217.381-157.91 212.117-157.91 196.434-157.91 183.839-151.975 174.332-140.105 164.825-128.235 160.071-111.45 160.071-89.751 160.071-68.4814 164.664-51.9116 173.848-40.0415 183.033-28.1714 195.789-22.2363 212.117-22.2363 222-22.2363 231.4-24.2773 240.316-28.3594 249.232-32.4414 257.127-37.7051 264.002-44.1504L265.775-44.1504 265.775-10.1514C262.767-8.75488 259.007-7.06299 254.495-5.07568 249.984-3.08838 245.902-1.61133 242.249-0.644531 237.093 0.859375 232.474 2.01416 228.392 2.81982 224.31 3.62549 219.046 4.02832 212.601 4.02832ZM371.603 4.18945C342.921 4.18945 320.658-3.89404 304.814-20.061 288.969-36.228 281.046-59.1894 281.046-88.9453 281.046-118.271 288.727-141.609 304.088-158.958 319.45-176.306 339.538-184.98 364.352-184.98 375.524-184.98 385.407-183.369 394.001-180.146 402.594-176.924 410.114-171.875 416.559-165 423.004-158.125 427.946-149.719 431.383-139.783 434.821-129.846 436.54-117.681 436.54-103.286L436.54-86.8506 311.823-86.8506C311.823-65.9033 317.086-49.8975 327.614-38.833 338.141-27.7686 352.697-22.2363 371.281-22.2363 377.941-22.2363 384.467-22.9883 390.858-24.4922 397.25-25.9961 403.024-27.9297 408.18-30.293 413.659-32.7637 418.278-35.1538 422.038-37.4634 425.797-39.7729 428.913-41.9482 431.383-43.9893L433.156-43.9893 433.156-10.957C429.611-9.56055 425.207-7.81494 419.943-5.72021 414.679-3.62549 409.953-1.9873 405.763-0.805664 399.855 0.805664 394.511 2.04102 389.73 2.90039 384.95 3.75977 378.908 4.18945 371.603 4.18945ZM407.052-110.054C406.837-118.218 405.871-125.254 404.152-131.162 402.433-137.07 399.962-142.065 396.74-146.147 393.195-150.659 388.656-154.097 383.124-156.46 377.592-158.823 370.744-160.005 362.58-160.005 354.523-160.005 347.675-158.796 342.035-156.379 336.396-153.962 331.266-150.444 326.647-145.825 322.135-141.099 318.698-135.862 316.335-130.115 313.971-124.368 312.467-117.681 311.823-110.054Z" fill="#707070" transform="matrix(1 0 0 1 221.986 451)"/></g></g><path d="M91.0001 4659.5C91.0001 4516.18 207.182 4400 350.5 4400L948.5 4400C1091.82 4400 1208 4516.18 1208 4659.5L1208 4659.5C1208 4802.82 1091.82 4919 948.5 4919L350.5 4919C207.182 4919 91.0001 4802.82 91.0001 4659.5Z" fill="#FFFFFF" fill-rule="evenodd"/><g clip-path="url(#clip9)" filter="url(#fx3)" transform="translate(450 4357)"><g><path d="M108.12 0 14.9854 0 14.9854-24.4922 45.6006-24.4922 45.6006-215.435 14.9854-215.435 14.9854-239.927 108.12-239.927 108.12-215.435 77.5049-215.435 77.5049-24.4922 108.12-24.4922ZM212.601 4.02832C200.247 4.02832 188.914 2.12158 178.602-1.69189 168.289-5.50537 159.427-11.2793 152.015-19.0137 144.603-26.748 138.856-36.4966 134.774-48.2593 130.692-60.022 128.651-73.8525 128.651-89.751 128.651-105.542 130.772-119.185 135.015-130.679 139.258-142.173 144.925-151.841 152.015-159.683 159.105-167.524 167.94-173.567 178.521-177.81 189.102-182.053 200.462-184.175 212.601-184.175 222.484-184.175 232.017-182.778 241.202-179.985 250.386-177.192 258.577-173.97 265.775-170.317L265.775-136.318 264.002-136.318C261.854-138.145 259.088-140.239 255.704-142.603 252.32-144.966 248.211-147.383 243.377-149.854 239.188-152.002 234.246-153.882 228.553-155.493 222.86-157.104 217.381-157.91 212.117-157.91 196.434-157.91 183.839-151.975 174.332-140.105 164.825-128.235 160.071-111.45 160.071-89.751 160.071-68.4814 164.664-51.9116 173.848-40.0415 183.033-28.1714 195.789-22.2363 212.117-22.2363 222-22.2363 231.4-24.2773 240.316-28.3594 249.232-32.4414 257.127-37.7051 264.002-44.1504L265.775-44.1504 265.775-10.1514C262.767-8.75488 259.007-7.06299 254.495-5.07568 249.984-3.08838 245.902-1.61133 242.249-0.644531 237.093 0.859375 232.474 2.01416 228.392 2.81982 224.31 3.62549 219.046 4.02832 212.601 4.02832ZM371.603 4.18945C342.921 4.18945 320.658-3.89404 304.814-20.061 288.969-36.228 281.046-59.1894 281.046-88.9453 281.046-118.271 288.727-141.609 304.088-158.958 319.45-176.306 339.538-184.98 364.352-184.98 375.524-184.98 385.407-183.369 394.001-180.146 402.594-176.924 410.114-171.875 416.559-165 423.004-158.125 427.946-149.719 431.383-139.783 434.821-129.846 436.54-117.681 436.54-103.286L436.54-86.8506 311.823-86.8506C311.823-65.9033 317.086-49.8975 327.614-38.833 338.141-27.7686 352.697-22.2363 371.281-22.2363 377.941-22.2363 384.467-22.9883 390.858-24.4922 397.25-25.9961 403.024-27.9297 408.18-30.293 413.659-32.7637 418.278-35.1538 422.038-37.4634 425.797-39.7729 428.913-41.9482 431.383-43.9893L433.156-43.9893 433.156-10.957C429.611-9.56055 425.207-7.81494 419.943-5.72021 414.679-3.62549 409.953-1.9873 405.763-0.805664 399.855 0.805664 394.511 2.04102 389.73 2.90039 384.95 3.75977 378.908 4.18945 371.603 4.18945ZM407.052-110.054C406.837-118.218 405.871-125.254 404.152-131.162 402.433-137.07 399.962-142.065 396.74-146.147 393.195-150.659 388.656-154.097 383.124-156.46 377.592-158.823 370.744-160.005 362.58-160.005 354.523-160.005 347.675-158.796 342.035-156.379 336.396-153.962 331.266-150.444 326.647-145.825 322.135-141.099 318.698-135.862 316.335-130.115 313.971-124.368 312.467-117.681 311.823-110.054Z" fill="#707070" transform="matrix(1 0 0 1 212.946 442)"/></g></g><text fill="#707070" font-family="Tahoma,Tahoma_MSFontService,sans-serif" font-weight="400" font-size="330" transform="matrix(1 0 0 1 653.264 4790)">Ice</text><g><g><g><path d="M519 259.5C519 402.818 402.818 519 259.5 519 116.182 519-2.88103e-14 402.818-2.88103e-14 259.5-8.64309e-14 116.182 116.182-2.88103e-14 259.5-2.88103e-14 402.818-8.64309e-14 519 116.182 519 259.5Z" fill="#47C8C8" transform="matrix(1.00193 0 0 1 91.0001 4400)"/><path d="M223.738 122.877C236.003 110.957 246.849 100.394 259.764 87.8245 271.867 100.252 282.409 111.078 294.512 123.486 284.538 135.224 275.638 145.705 264.629 158.68 290.579 173.764 318.151 191.766 345.865 207.884L345.865 160.728 394.541 160.728C394.541 176.561 394.724 194.544 394.724 212.08 350.73 212.08 383.269 212.608 349.636 212.608 349.636 243.748 350.528 276.53 350.528 308.927L394.704 308.927 394.704 357.948 346.169 357.948 346.169 313.59C319.367 328.916 291.309 344.689 264.305 360.117 274.705 372.078 283.362 381.992 294.512 394.805 283.625 406.28 272.901 417.572 259.318 431.885 247.235 418.93 236.591 407.516 224.609 394.663 234.706 383.107 243.748 372.768 254.695 360.259 227.833 344.831 199.957 329.139 172.851 313.569L172.851 358.617 124.094 358.617 124.094 309.028 168.756 309.028C168.756 277.483 168.594 242.349 168.594 209.972L123.891 209.81 123.891 160.708 172.993 160.708C172.993 204.741 172.993 166.546 172.993 203.768 199.531 188.746 227.103 174.737 254.411 159.268 244.214 147.185 235.395 136.724 223.697 122.877Z" fill="#FBFDFD" transform="matrix(1.00193 0 0 1 91.0001 4400)"/><path d="M195.558 285.43 195.558 220.433C221.001 205.917 221.001 206.627 250.843 189.962L263.068 206.039C217.169 232.03 264.508 205.451 217.169 232.03L217.169 285.43 195.558 285.43Z" fill="#64CFCF" transform="matrix(1.00193 0 0 1 91.0001 4400)"/></g></g></g></g></svg>