<svg width="1877" height="758" xmlns="http://www.w3.org/2000/svg" xmlns:xlink="http://www.w3.org/1999/xlink" xml:space="preserve" overflow="hidden"><defs><filter id="fx0" x="-10%" y="-10%" width="120%" height="120%" filterUnits="userSpaceOnUse" primitiveUnits="userSpaceOnUse"><feComponentTransfer color-interpolation-filters="sRGB"><feFuncR type="discrete" tableValues="0 0"/><feFuncG type="discrete" tableValues="0 0"/><feFuncB type="discrete" tableValues="0 0"/><feFuncA type="linear" slope="0.4" intercept="0"/></feComponentTransfer><feGaussianBlur stdDeviation="6.11111 6.11111"/></filter><filter id="fx1" x="-10%" y="-10%" width="120%" height="120%" filterUnits="userSpaceOnUse" primitiveUnits="userSpaceOnUse"><feComponentTransfer color-interpolation-filters="sRGB"><feFuncR type="discrete" tableValues="0 0"/><feFuncG type="discrete" tableValues="0 0"/><feFuncB type="discrete" tableValues="0 0"/><feFuncA type="linear" slope="0.431373" intercept="0"/></feComponentTransfer><feGaussianBlur stdDeviation="4.56444 4.56444"/></filter><filter id="fx2" x="-10%" y="-10%" width="120%" height="120%" filterUnits="userSpaceOnUse" primitiveUnits="userSpaceOnUse"><feComponentTransfer color-interpolation-filters="sRGB"><feFuncR type="discrete" tableValues="0 0"/><feFuncG type="discrete" tableValues="0 0"/><feFuncB type="discrete" tableValues="0 0"/><feFuncA type="linear" slope="0.4" intercept="0"/></feComponentTransfer><feGaussianBlur stdDeviation="6.11111 6.11111"/></filter><filter id="fx3" x="-10%" y="-10%" width="120%" height="120%" filterUnits="userSpaceOnUse" primitiveUnits="userSpaceOnUse"><feComponentTransfer color-interpolation-filters="sRGB"><feFuncR type="discrete" tableValues="0 0"/><feFuncG type="discrete" tableValues="0 0"/><feFuncB type="discrete" tableValues="0 0"/><feFuncA type="linear" slope="0.431373" intercept="0"/></feComponentTransfer><feGaussianBlur stdDeviation="4.56444 4.56444"/></filter><clipPath id="clip4"><rect x="2188" y="2442" width="1877" height="758"/></clipPath><clipPath id="clip5"><rect x="214" y="169" width="1081" height="338"/></clipPath><clipPath id="clip6"><rect x="0" y="0" width="1509" height="761"/></clipPath><clipPath id="clip7"><rect x="219" y="175" width="1032" height="289"/></clipPath><clipPath id="clip8"><rect x="0" y="0" width="1471" height="723"/></clipPath><clipPath id="clip9"><rect x="219" y="175" width="1032" height="289"/></clipPath></defs><g clip-path="url(#clip4)" transform="translate(-2188 -2442)"><g filter="url(#fx0)" transform="translate(2187 2483)"><g><path d="M19.7227 279.224C19.7227 135.905 135.905 19.7227 279.223 19.7227L1488.22 19.7227C1631.54 19.7227 1747.72 135.905 1747.72 279.224L1747.72 279.224C1747.72 422.542 1631.54 538.725 1488.22 538.725L279.223 538.723C135.905 538.723 19.7227 422.54 19.7227 279.222Z" fill="#FFFFFF" fill-rule="evenodd"/></g></g><g clip-path="url(#clip5)" filter="url(#fx2)" transform="translate(2558 2441)"><g clip-path="url(#clip6)"><g clip-path="url(#clip7)" filter="url(#fx1)" transform="translate(19 19)"><g clip-path="url(#clip8)"><path d="M195.937 0 160.166 0 54.1406-206.895 54.1406 0 24.3311 0 24.3311-239.927 69.6094-239.927 166.128-49.9512 166.128-239.927 195.937-239.927ZM389.995-89.9121C389.995-59.6191 382.69-36.228 368.081-19.7388 353.472-3.24951 334.028 4.99512 309.751 4.99512 284.722 4.99512 265.037-3.51807 250.696-20.5444 236.355-37.5708 229.185-60.6934 229.185-89.9121 229.185-119.99 236.57-143.354 251.34-160.005 266.111-176.655 285.581-184.98 309.751-184.98 334.028-184.98 353.472-176.682 368.081-160.085 382.69-143.489 389.995-120.098 389.995-89.9121ZM358.735-89.9121C358.735-113.223 354.492-130.544 346.006-141.877 337.519-153.21 325.435-158.877 309.751-158.877 293.96-158.877 281.794-153.21 273.254-141.877 264.714-130.544 260.444-113.223 260.444-89.9121 260.444-67.3535 264.714-50.2466 273.254-38.5913 281.794-26.936 293.96-21.1084 309.751-21.1084 325.327-21.1084 337.385-26.8286 345.925-38.269 354.465-49.7095 358.735-66.9238 358.735-89.9121ZM516.628-147.437 515.016-147.437C512.76-148.081 510.37-148.484 507.846-148.645 505.321-148.806 502.287-148.887 498.742-148.887 490.578-148.887 482.467-147.114 474.411-143.569 466.354-140.024 458.727-134.761 451.53-127.778L451.53 0 421.237 0 421.237-179.985 451.53-179.985 451.53-153.237C462.594-163.013 472.235-169.915 480.453-173.943 488.671-177.971 496.647-179.985 504.381-179.985 507.497-179.985 509.833-179.905 511.391-179.744 512.948-179.583 514.694-179.341 516.628-179.019ZM744.72 0 744.72-104.092C744.72-112.363 744.398-120.017 743.753-127.053 743.109-134.089 741.766-139.595 739.725-143.569 737.576-147.866 734.515-151.035 730.54-153.076 726.566-155.117 721.195-156.138 714.427-156.138 708.197-156.138 701.51-154.231 694.366-150.417 687.222-146.604 679.837-141.099 672.21-133.901 672.318-132.075 672.452-129.9 672.613-127.375 672.774-124.851 672.855-121.87 672.855-118.433L672.855 0 642.562 0 642.562-104.092C642.562-112.363 642.24-120.017 641.595-127.053 640.95-134.089 639.608-139.595 637.567-143.569 635.418-147.866 632.357-151.035 628.382-153.076 624.408-155.117 619.036-156.138 612.269-156.138 605.716-156.138 598.841-154.097 591.644-150.015 584.447-145.933 577.464-140.723 570.697-134.385L570.697 0 540.404 0 540.404-179.985 570.697-179.985 570.697-160.005C578.646-167.954 586.514-174.104 594.303-178.455 602.091-182.805 610.658-184.98 620.003-184.98 630.638-184.98 640.064-182.563 648.282-177.729 656.5-172.895 662.757-164.946 667.054-153.882 676.185-164.087 685.101-171.821 693.802-177.085 702.503-182.349 711.956-184.98 722.161-184.98 729.896-184.98 736.932-183.772 743.27-181.355 749.608-178.938 755.14-175.044 759.867-169.673 764.7-164.194 768.433-157.373 771.065-149.209 773.697-141.045 775.013-130.786 775.013-118.433L775.013 0ZM918.242-44.3115 918.242-94.2627C911.045-93.6182 901.941-92.7319 890.93-91.604 879.919-90.4761 871.03-88.8916 864.263-86.8506 856.206-84.3799 849.546-80.5933 844.282-75.4907 839.019-70.3882 836.387-63.2715 836.387-54.1406 836.387-43.8281 839.287-36.04 845.088-30.7764 850.889-25.5127 859.375-22.8809 870.547-22.8809 880.107-22.8809 888.755-24.9487 896.489-29.0845 904.224-33.2202 911.475-38.2959 918.242-44.3115ZM918.242-19.1748C915.771-17.3486 912.468-14.7974 908.333-11.521 904.197-8.24463 900.195-5.63965 896.328-3.70605 890.957-0.913086 885.774 1.23535 880.779 2.73926 875.784 4.24316 868.774 4.99512 859.751 4.99512 852.339 4.99512 845.303 3.59863 838.643 0.805664 831.982-1.9873 826.128-5.9082 821.079-10.957 816.245-15.8984 812.378-21.9946 809.478-29.2456 806.577-36.4966 805.127-44.1504 805.127-52.207 805.127-64.668 807.759-75.2759 813.022-84.0308 818.286-92.7856 826.611-99.7412 837.998-104.897 848.096-109.517 860.02-112.712 873.77-114.485 887.52-116.257 902.344-117.573 918.242-118.433L918.242-124.233C918.242-131.323 917.168-137.043 915.02-141.394 912.871-145.745 909.863-149.102 905.996-151.465 902.129-153.936 897.402-155.574 891.816-156.379 886.23-157.185 880.483-157.588 874.575-157.588 867.593-157.588 859.375-156.541 849.922-154.446 840.469-152.351 831.016-149.316 821.562-145.342L819.79-145.342 819.79-176.118C825.376-177.729 833.379-179.502 843.799-181.436 854.219-183.369 864.531-184.336 874.736-184.336 887.09-184.336 897.51-183.369 905.996-181.436 914.482-179.502 922.109-176.011 928.877-170.962 935.43-166.02 940.317-159.629 943.54-151.787 946.763-143.945 948.374-134.385 948.374-123.105L948.374 0 918.242 0ZM1021.65 0 991.361 0 991.361-250.723 1021.65-250.723Z" fill="#707070" transform="matrix(1 0 0 1 -2344.75 -1999)"/></g></g><path d="M195.937 0 160.166 0 54.1406-206.895 54.1406 0 24.3311 0 24.3311-239.927 69.6094-239.927 166.128-49.9512 166.128-239.927 195.937-239.927ZM389.995-89.9121C389.995-59.6191 382.69-36.228 368.081-19.7388 353.472-3.24951 334.028 4.99512 309.751 4.99512 284.722 4.99512 265.037-3.51807 250.696-20.5444 236.355-37.5708 229.185-60.6934 229.185-89.9121 229.185-119.99 236.57-143.354 251.34-160.005 266.111-176.655 285.581-184.98 309.751-184.98 334.028-184.98 353.472-176.682 368.081-160.085 382.69-143.489 389.995-120.098 389.995-89.9121ZM358.735-89.9121C358.735-113.223 354.492-130.544 346.006-141.877 337.519-153.21 325.435-158.877 309.751-158.877 293.96-158.877 281.794-153.21 273.254-141.877 264.714-130.544 260.444-113.223 260.444-89.9121 260.444-67.3535 264.714-50.2466 273.254-38.5913 281.794-26.936 293.96-21.1084 309.751-21.1084 325.327-21.1084 337.385-26.8286 345.925-38.269 354.465-49.7095 358.735-66.9238 358.735-89.9121ZM516.628-147.437 515.016-147.437C512.76-148.081 510.37-148.484 507.846-148.645 505.321-148.806 502.287-148.887 498.742-148.887 490.578-148.887 482.467-147.114 474.411-143.569 466.354-140.024 458.727-134.761 451.53-127.778L451.53 0 421.237 0 421.237-179.985 451.53-179.985 451.53-153.237C462.594-163.013 472.235-169.915 480.453-173.943 488.671-177.971 496.647-179.985 504.381-179.985 507.497-179.985 509.833-179.905 511.391-179.744 512.948-179.583 514.694-179.341 516.628-179.019ZM744.72 0 744.72-104.092C744.72-112.363 744.398-120.017 743.753-127.053 743.109-134.089 741.766-139.595 739.725-143.569 737.576-147.866 734.515-151.035 730.54-153.076 726.566-155.117 721.195-156.138 714.427-156.138 708.197-156.138 701.51-154.231 694.366-150.417 687.222-146.604 679.837-141.099 672.21-133.901 672.318-132.075 672.452-129.9 672.613-127.375 672.774-124.851 672.855-121.87 672.855-118.433L672.855 0 642.562 0 642.562-104.092C642.562-112.363 642.24-120.017 641.595-127.053 640.95-134.089 639.608-139.595 637.567-143.569 635.418-147.866 632.357-151.035 628.382-153.076 624.408-155.117 619.036-156.138 612.269-156.138 605.716-156.138 598.841-154.097 591.644-150.015 584.447-145.933 577.464-140.723 570.697-134.385L570.697 0 540.404 0 540.404-179.985 570.697-179.985 570.697-160.005C578.646-167.954 586.514-174.104 594.303-178.455 602.091-182.805 610.658-184.98 620.003-184.98 630.638-184.98 640.064-182.563 648.282-177.729 656.5-172.895 662.757-164.946 667.054-153.882 676.185-164.087 685.101-171.821 693.802-177.085 702.503-182.349 711.956-184.98 722.161-184.98 729.896-184.98 736.932-183.772 743.27-181.355 749.608-178.938 755.14-175.044 759.867-169.673 764.7-164.194 768.433-157.373 771.065-149.209 773.697-141.045 775.013-130.786 775.013-118.433L775.013 0ZM918.242-44.3115 918.242-94.2627C911.045-93.6182 901.941-92.7319 890.93-91.604 879.919-90.4761 871.03-88.8916 864.263-86.8506 856.206-84.3799 849.546-80.5933 844.282-75.4907 839.019-70.3882 836.387-63.2715 836.387-54.1406 836.387-43.8281 839.287-36.04 845.088-30.7764 850.889-25.5127 859.375-22.8809 870.547-22.8809 880.107-22.8809 888.755-24.9487 896.489-29.0845 904.224-33.2202 911.475-38.2959 918.242-44.3115ZM918.242-19.1748C915.771-17.3486 912.468-14.7974 908.333-11.521 904.197-8.24463 900.195-5.63965 896.328-3.70605 890.957-0.913086 885.774 1.23535 880.779 2.73926 875.784 4.24316 868.774 4.99512 859.751 4.99512 852.339 4.99512 845.303 3.59863 838.643 0.805664 831.982-1.9873 826.128-5.9082 821.079-10.957 816.245-15.8984 812.378-21.9946 809.478-29.2456 806.577-36.4966 805.127-44.1504 805.127-52.207 805.127-64.668 807.759-75.2759 813.022-84.0308 818.286-92.7856 826.611-99.7412 837.998-104.897 848.096-109.517 860.02-112.712 873.77-114.485 887.52-116.257 902.344-117.573 918.242-118.433L918.242-124.233C918.242-131.323 917.168-137.043 915.02-141.394 912.871-145.745 909.863-149.102 905.996-151.465 902.129-153.936 897.402-155.574 891.816-156.379 886.23-157.185 880.483-157.588 874.575-157.588 867.593-157.588 859.375-156.541 849.922-154.446 840.469-152.351 831.016-149.316 821.562-145.342L819.79-145.342 819.79-176.118C825.376-177.729 833.379-179.502 843.799-181.436 854.219-183.369 864.531-184.336 874.736-184.336 887.09-184.336 897.51-183.369 905.996-181.436 914.482-179.502 922.109-176.011 928.877-170.962 935.43-166.02 940.317-159.629 943.54-151.787 946.763-143.945 948.374-134.385 948.374-123.105L948.374 0 918.242 0ZM1021.65 0 991.361 0 991.361-250.723 1021.65-250.723Z" fill="#707070" transform="matrix(1 0 0 1 222.563 451)"/></g></g><path d="M2197 2752.5C2197 2609.18 2313.18 2493 2456.5 2493L3665.5 2493C3808.82 2493 3925 2609.18 3925 2752.5L3925 2752.5C3925 2895.82 3808.82 3012 3665.5 3012L2456.5 3012C2313.18 3012 2197 2895.82 2197 2752.5Z" fill="#FFFFFF" fill-rule="evenodd"/><g clip-path="url(#clip9)" filter="url(#fx3)" transform="translate(2568 2450)"><g><path d="M195.937 0 160.166 0 54.1406-206.895 54.1406 0 24.3311 0 24.3311-239.927 69.6094-239.927 166.128-49.9512 166.128-239.927 195.937-239.927ZM389.995-89.9121C389.995-59.6191 382.69-36.228 368.081-19.7388 353.472-3.24951 334.028 4.99512 309.751 4.99512 284.722 4.99512 265.037-3.51807 250.696-20.5444 236.355-37.5708 229.185-60.6934 229.185-89.9121 229.185-119.99 236.57-143.354 251.34-160.005 266.111-176.655 285.581-184.98 309.751-184.98 334.028-184.98 353.472-176.682 368.081-160.085 382.69-143.489 389.995-120.098 389.995-89.9121ZM358.735-89.9121C358.735-113.223 354.492-130.544 346.006-141.877 337.519-153.21 325.435-158.877 309.751-158.877 293.96-158.877 281.794-153.21 273.254-141.877 264.714-130.544 260.444-113.223 260.444-89.9121 260.444-67.3535 264.714-50.2466 273.254-38.5913 281.794-26.936 293.96-21.1084 309.751-21.1084 325.327-21.1084 337.385-26.8286 345.925-38.269 354.465-49.7095 358.735-66.9238 358.735-89.9121ZM516.628-147.437 515.016-147.437C512.76-148.081 510.37-148.484 507.846-148.645 505.321-148.806 502.287-148.887 498.742-148.887 490.578-148.887 482.467-147.114 474.411-143.569 466.354-140.024 458.727-134.761 451.53-127.778L451.53 0 421.237 0 421.237-179.985 451.53-179.985 451.53-153.237C462.594-163.013 472.235-169.915 480.453-173.943 488.671-177.971 496.647-179.985 504.381-179.985 507.497-179.985 509.833-179.905 511.391-179.744 512.948-179.583 514.694-179.341 516.628-179.019ZM744.72 0 744.72-104.092C744.72-112.363 744.398-120.017 743.753-127.053 743.109-134.089 741.766-139.595 739.725-143.569 737.576-147.866 734.515-151.035 730.54-153.076 726.566-155.117 721.195-156.138 714.427-156.138 708.197-156.138 701.51-154.231 694.366-150.417 687.222-146.604 679.837-141.099 672.21-133.901 672.318-132.075 672.452-129.9 672.613-127.375 672.774-124.851 672.855-121.87 672.855-118.433L672.855 0 642.562 0 642.562-104.092C642.562-112.363 642.24-120.017 641.595-127.053 640.95-134.089 639.608-139.595 637.567-143.569 635.418-147.866 632.357-151.035 628.382-153.076 624.408-155.117 619.036-156.138 612.269-156.138 605.716-156.138 598.841-154.097 591.644-150.015 584.447-145.933 577.464-140.723 570.697-134.385L570.697 0 540.404 0 540.404-179.985 570.697-179.985 570.697-160.005C578.646-167.954 586.514-174.104 594.303-178.455 602.091-182.805 610.658-184.98 620.003-184.98 630.638-184.98 640.064-182.563 648.282-177.729 656.5-172.895 662.757-164.946 667.054-153.882 676.185-164.087 685.101-171.821 693.802-177.085 702.503-182.349 711.956-184.98 722.161-184.98 729.896-184.98 736.932-183.772 743.27-181.355 749.608-178.938 755.14-175.044 759.867-169.673 764.7-164.194 768.433-157.373 771.065-149.209 773.697-141.045 775.013-130.786 775.013-118.433L775.013 0ZM918.242-44.3115 918.242-94.2627C911.045-93.6182 901.941-92.7319 890.93-91.604 879.919-90.4761 871.03-88.8916 864.263-86.8506 856.206-84.3799 849.546-80.5933 844.282-75.4907 839.019-70.3882 836.387-63.2715 836.387-54.1406 836.387-43.8281 839.287-36.04 845.088-30.7764 850.889-25.5127 859.375-22.8809 870.547-22.8809 880.107-22.8809 888.755-24.9487 896.489-29.0845 904.224-33.2202 911.475-38.2959 918.242-44.3115ZM918.242-19.1748C915.771-17.3486 912.468-14.7974 908.333-11.521 904.197-8.24463 900.195-5.63965 896.328-3.70605 890.957-0.913086 885.774 1.23535 880.779 2.73926 875.784 4.24316 868.774 4.99512 859.751 4.99512 852.339 4.99512 845.303 3.59863 838.643 0.805664 831.982-1.9873 826.128-5.9082 821.079-10.957 816.245-15.8984 812.378-21.9946 809.478-29.2456 806.577-36.4966 805.127-44.1504 805.127-52.207 805.127-64.668 807.759-75.2759 813.022-84.0308 818.286-92.7856 826.611-99.7412 837.998-104.897 848.096-109.517 860.02-112.712 873.77-114.485 887.52-116.257 902.344-117.573 918.242-118.433L918.242-124.233C918.242-131.323 917.168-137.043 915.02-141.394 912.871-145.745 909.863-149.102 905.996-151.465 902.129-153.936 897.402-155.574 891.816-156.379 886.23-157.185 880.483-157.588 874.575-157.588 867.593-157.588 859.375-156.541 849.922-154.446 840.469-152.351 831.016-149.316 821.562-145.342L819.79-145.342 819.79-176.118C825.376-177.729 833.379-179.502 843.799-181.436 854.219-183.369 864.531-184.336 874.736-184.336 887.09-184.336 897.51-183.369 905.996-181.436 914.482-179.502 922.109-176.011 928.877-170.962 935.43-166.02 940.317-159.629 943.54-151.787 946.763-143.945 948.374-134.385 948.374-123.105L948.374 0 918.242 0ZM1021.65 0 991.361 0 991.361-250.723 1021.65-250.723Z" fill="#707070" transform="matrix(1 0 0 1 212.522 442)"/></g></g><text fill="#707070" font-family="Tahoma,Tahoma_MSFontService,sans-serif" font-weight="400" font-size="330" transform="matrix(1 0 0 1 2770.84 2882)">Normal</text><g><g><g><path d="M2716 2752.5C2716 2895.82 2599.82 3012 2456.5 3012 2313.18 3012 2197 2895.82 2197 2752.5 2197 2609.18 2313.18 2493 2456.5 2493 2599.82 2493 2716 2609.18 2716 2752.5Z" fill="#828282"/><path d="M2460.07 2906.76C2354.3 2907.02 2284.46 2807.4 2320.08 2711.26 2323.28 2702.63 2324.26 2694.68 2320.69 2685.84 2311.87 2664.03 2316.41 2644.58 2333.66 2628.81 2351.1 2612.88 2371.47 2611.46 2391.91 2621.59 2400.24 2625.73 2407.42 2625.16 2415.18 2622.95 2442.45 2615.17 2469.7 2615.13 2496.91 2622.77 2507.06 2625.63 2515.74 2624.59 2525.92 2620.26 2545.76 2611.82 2565.63 2613.46 2582.15 2629.66 2599.06 2646.23 2602.27 2665.79 2593.26 2687.1 2589.82 2695.25 2589.49 2702.51 2592.68 2710.45 2619.94 2778.41 2589.7 2855.69 2525.06 2890.36 2503.84 2901.75 2481.03 2907 2460.09 2906.74Z" fill="#FFFFFF"/><path d="M2353.67 2762.96C2350.96 2709.72 2398.13 2659.18 2455.53 2659.38 2513.02 2659.57 2558.01 2704.03 2559.63 2761.01 2561.01 2809.77 2520.54 2863.84 2457.47 2864.73 2400.83 2865.54 2353.94 2819.58 2353.67 2762.96Z" fill="#828282"/></g></g></g></g></svg>