<svg width="1786" height="758" xmlns="http://www.w3.org/2000/svg" xmlns:xlink="http://www.w3.org/1999/xlink" xml:space="preserve" overflow="hidden"><defs><filter id="fx0" x="-10%" y="-10%" width="120%" height="120%" filterUnits="userSpaceOnUse" primitiveUnits="userSpaceOnUse"><feComponentTransfer color-interpolation-filters="sRGB"><feFuncR type="discrete" tableValues="0 0"/><feFuncG type="discrete" tableValues="0 0"/><feFuncB type="discrete" tableValues="0 0"/><feFuncA type="linear" slope="0.4" intercept="0"/></feComponentTransfer><feGaussianBlur stdDeviation="6.11111 6.11111"/></filter><filter id="fx1" x="-10%" y="-10%" width="120%" height="120%" filterUnits="userSpaceOnUse" primitiveUnits="userSpaceOnUse"><feComponentTransfer color-interpolation-filters="sRGB"><feFuncR type="discrete" tableValues="0 0"/><feFuncG type="discrete" tableValues="0 0"/><feFuncB type="discrete" tableValues="0 0"/><feFuncA type="linear" slope="0.431373" intercept="0"/></feComponentTransfer><feGaussianBlur stdDeviation="4.56444 4.56444"/></filter><filter id="fx2" x="-10%" y="-10%" width="120%" height="120%" filterUnits="userSpaceOnUse" primitiveUnits="userSpaceOnUse"><feComponentTransfer color-interpolation-filters="sRGB"><feFuncR type="discrete" tableValues="0 0"/><feFuncG type="discrete" tableValues="0 0"/><feFuncB type="discrete" tableValues="0 0"/><feFuncA type="linear" slope="0.4" intercept="0"/></feComponentTransfer><feGaussianBlur stdDeviation="6.11111 6.11111"/></filter><filter id="fx3" x="-10%" y="-10%" width="120%" height="120%" filterUnits="userSpaceOnUse" primitiveUnits="userSpaceOnUse"><feComponentTransfer color-interpolation-filters="sRGB"><feFuncR type="discrete" tableValues="0 0"/><feFuncG type="discrete" tableValues="0 0"/><feFuncB type="discrete" tableValues="0 0"/><feFuncA type="linear" slope="0.431373" intercept="0"/></feComponentTransfer><feGaussianBlur stdDeviation="4.56444 4.56444"/></filter><clipPath id="clip4"><rect x="2188" y="3067" width="1786" height="758"/></clipPath><clipPath id="clip5"><rect x="214" y="180" width="977" height="327"/></clipPath><clipPath id="clip6"><rect x="0" y="0" width="1404" height="761"/></clipPath><clipPath id="clip7"><rect x="219" y="184" width="932" height="280"/></clipPath><clipPath id="clip8"><rect x="0" y="0" width="1366" height="723"/></clipPath><clipPath id="clip9"><rect x="219" y="184" width="932" height="280"/></clipPath><clipPath id="clip10"><rect x="2196" y="3117" width="520" height="520"/></clipPath><clipPath id="clip11"><rect x="2196" y="3117" width="520" height="520"/></clipPath><clipPath id="clip12"><rect x="2196" y="3117" width="520" height="520"/></clipPath></defs><g clip-path="url(#clip4)" transform="translate(-2188 -3067)"><g filter="url(#fx0)" transform="translate(2187 3107)"><g><path d="M19.7227 279.723C19.7227 136.129 136.128 19.7229 279.722 19.7229L1395.72 19.7229C1539.32 19.7229 1655.72 136.129 1655.72 279.723L1655.72 279.723C1655.72 423.317 1539.32 539.723 1395.72 539.723L279.722 539.723C136.128 539.723 19.7227 423.317 19.7227 279.723Z" fill="#FFFFFF" fill-rule="evenodd"/></g></g><g clip-path="url(#clip5)" filter="url(#fx2)" transform="translate(2571 3065)"><g clip-path="url(#clip6)"><g clip-path="url(#clip7)" filter="url(#fx1)" transform="translate(19 19)"><g clip-path="url(#clip8)"><path d="M175.796-167.578C175.796-157.158 173.943-147.302 170.237-138.01 166.531-128.718 161.401-120.796 154.849-114.243 146.577-106.079 136.855-99.9023 125.684-95.7129 114.512-91.5234 100.386-89.4287 83.3057-89.4287L56.2353-89.4287 56.2353 0 24.3311 0 24.3311-239.927 84.5947-239.927C98.7744-239.927 110.859-238.745 120.85-236.382 130.84-234.019 139.648-230.205 147.275-224.941 156.191-218.818 163.174-211.057 168.223-201.658 173.271-192.258 175.796-180.898 175.796-167.578ZM142.603-166.772C142.603-175.044 141.179-182.241 138.333-188.364 135.486-194.487 131.162-199.482 125.361-203.35 120.312-206.68 114.431-209.043 107.717-210.439 101.003-211.836 92.6514-212.534 82.6611-212.534L56.2353-212.534 56.2353-116.66 77.9883-116.66C90.8789-116.66 101.299-117.708 109.248-119.802 117.197-121.897 123.804-125.63 129.067-131.001 133.794-135.835 137.231-141.099 139.38-146.792 141.528-152.485 142.603-159.145 142.603-166.772ZM344.62-89.9121C344.62-59.6191 337.315-36.228 322.706-19.7388 308.097-3.24951 288.653 4.99512 264.376 4.99512 239.347 4.99512 219.662-3.51807 205.321-20.5444 190.98-37.5708 183.81-60.6934 183.81-89.9121 183.81-119.99 191.195-143.354 205.965-160.005 220.736-176.655 240.206-184.98 264.376-184.98 288.653-184.98 308.097-176.682 322.706-160.085 337.315-143.489 344.62-120.098 344.62-89.9121ZM313.36-89.9121C313.36-113.223 309.117-130.544 300.631-141.877 292.145-153.21 280.06-158.877 264.376-158.877 248.585-158.877 236.419-153.21 227.879-141.877 219.339-130.544 215.069-113.223 215.069-89.9121 215.069-67.3535 219.339-50.2466 227.879-38.5913 236.419-26.936 248.585-21.1084 264.376-21.1084 279.952-21.1084 292.01-26.8286 300.55-38.269 309.09-49.7095 313.36-66.9238 313.36-89.9121ZM406.799 0 376.506 0 376.506-179.985 406.799-179.985ZM408.894-210.117 374.412-210.117 374.412-241.538 408.894-241.538ZM500.149 4.35059C488.118 4.35059 476.865 2.73926 466.392-0.483398 455.918-3.70605 447.244-7.14355 440.369-10.7959L440.369-44.7949 441.98-44.7949C444.558-42.7539 447.593-40.498 451.084-38.0273 454.575-35.5566 459.221-32.9785 465.022-30.293 470.178-27.9297 475.845-25.835 482.022-24.0088 488.198-22.1826 494.617-21.2695 501.277-21.2695 506.111-21.2695 511.267-21.8335 516.746-22.9614 522.224-24.0894 526.306-25.5127 528.992-27.2314 532.752-29.7021 535.464-32.334 537.129-35.1269 538.794-37.9199 539.627-42.1094 539.627-47.6953 539.627-54.8926 537.666-60.3174 533.745-63.9697 529.824-67.6221 522.869-70.6836 512.879-73.1543 509.011-74.1211 503.963-75.249 497.732-76.5381 491.502-77.8271 485.755-79.2236 480.491-80.7275 466.741-84.7021 456.751-90.852 450.52-99.1772 444.29-107.502 441.174-117.573 441.174-129.39 441.174-145.61 447.297-158.823 459.544-169.028 471.79-179.233 488.064-184.336 508.367-184.336 518.357-184.336 528.401-183.101 538.499-180.63 548.596-178.159 557.083-175.044 563.958-171.284L563.958-138.896 562.346-138.896C554.612-145.02 545.991-149.854 536.484-153.398 526.978-156.943 517.39-158.716 507.722-158.716 497.732-158.716 489.299-156.621 482.424-152.432 475.549-148.242 472.112-141.904 472.112-133.418 472.112-125.898 474.153-120.286 478.235-116.58 482.317-112.874 488.87-109.839 497.893-107.476 502.405-106.294 507.427-105.139 512.959-104.011 518.491-102.883 524.319-101.567 530.442-100.063 543.762-96.7334 553.779-91.2012 560.493-83.4668 567.207-75.7324 570.564-65.2051 570.564-51.8848 570.564-44.1504 569.033-36.8188 565.972-29.8901 562.91-22.9614 558.425-17.0264 552.517-12.085 546.072-6.71387 538.794-2.63184 530.684 0.161133 522.573 2.9541 512.395 4.35059 500.149 4.35059ZM746.808-89.9121C746.807-59.6191 739.503-36.228 724.893-19.7388 710.284-3.24951 690.841 4.99512 666.563 4.99512 641.534 4.99512 621.849-3.51807 607.508-20.5444 593.167-37.5708 585.997-60.6934 585.997-89.9121 585.997-119.99 593.382-143.354 608.153-160.005 622.923-176.655 642.393-184.98 666.563-184.98 690.841-184.98 710.284-176.682 724.893-160.085 739.503-143.489 746.807-120.098 746.808-89.9121ZM715.548-89.9121C715.548-113.223 711.305-130.544 702.818-141.877 694.332-153.21 682.247-158.877 666.563-158.877 650.772-158.877 638.607-153.21 630.067-141.877 621.527-130.544 617.257-113.223 617.257-89.9121 617.257-67.3535 621.527-50.2466 630.067-38.5913 638.607-26.936 650.772-21.1084 666.563-21.1084 682.14-21.1084 694.198-26.8286 702.738-38.269 711.278-49.7095 715.548-66.9238 715.548-89.9121ZM919.524 0 889.231 0 889.231-102.48C889.231-110.752 888.828-118.459 888.023-125.603 887.217-132.747 885.686-138.467 883.43-142.764 880.96-147.275 877.522-150.632 873.118-152.834 868.714-155.037 862.698-156.138 855.071-156.138 847.551-156.138 839.79-154.124 831.787-150.095 823.784-146.067 815.969-140.83 808.342-134.385L808.342 0 778.049 0 778.049-179.985 808.342-179.985 808.342-160.005C817.366-168.062 826.282-174.238 835.09-178.535 843.899-182.832 853.191-184.98 862.966-184.98 880.691-184.98 894.548-179.153 904.539-167.498 914.529-155.842 919.524-138.95 919.524-116.821Z" fill="#707070" transform="matrix(1 0 0 1 -2358.04 -2623)"/></g></g><path d="M175.796-167.578C175.796-157.158 173.943-147.302 170.237-138.01 166.531-128.718 161.401-120.796 154.849-114.243 146.577-106.079 136.855-99.9023 125.684-95.7129 114.512-91.5234 100.386-89.4287 83.3057-89.4287L56.2353-89.4287 56.2353 0 24.3311 0 24.3311-239.927 84.5947-239.927C98.7744-239.927 110.859-238.745 120.85-236.382 130.84-234.019 139.648-230.205 147.275-224.941 156.191-218.818 163.174-211.057 168.223-201.658 173.271-192.258 175.796-180.898 175.796-167.578ZM142.603-166.772C142.603-175.044 141.179-182.241 138.333-188.364 135.486-194.487 131.162-199.482 125.361-203.35 120.312-206.68 114.431-209.043 107.717-210.439 101.003-211.836 92.6514-212.534 82.6611-212.534L56.2353-212.534 56.2353-116.66 77.9883-116.66C90.8789-116.66 101.299-117.708 109.248-119.802 117.197-121.897 123.804-125.63 129.067-131.001 133.794-135.835 137.231-141.099 139.38-146.792 141.528-152.485 142.603-159.145 142.603-166.772ZM344.62-89.9121C344.62-59.6191 337.315-36.228 322.706-19.7388 308.097-3.24951 288.653 4.99512 264.376 4.99512 239.347 4.99512 219.662-3.51807 205.321-20.5444 190.98-37.5708 183.81-60.6934 183.81-89.9121 183.81-119.99 191.195-143.354 205.965-160.005 220.736-176.655 240.206-184.98 264.376-184.98 288.653-184.98 308.097-176.682 322.706-160.085 337.315-143.489 344.62-120.098 344.62-89.9121ZM313.36-89.9121C313.36-113.223 309.117-130.544 300.631-141.877 292.145-153.21 280.06-158.877 264.376-158.877 248.585-158.877 236.419-153.21 227.879-141.877 219.339-130.544 215.069-113.223 215.069-89.9121 215.069-67.3535 219.339-50.2466 227.879-38.5913 236.419-26.936 248.585-21.1084 264.376-21.1084 279.952-21.1084 292.01-26.8286 300.55-38.269 309.09-49.7095 313.36-66.9238 313.36-89.9121ZM406.799 0 376.506 0 376.506-179.985 406.799-179.985ZM408.894-210.117 374.412-210.117 374.412-241.538 408.894-241.538ZM500.149 4.35059C488.118 4.35059 476.865 2.73926 466.392-0.483398 455.918-3.70605 447.244-7.14355 440.369-10.7959L440.369-44.7949 441.98-44.7949C444.558-42.7539 447.593-40.498 451.084-38.0273 454.575-35.5566 459.221-32.9785 465.022-30.293 470.178-27.9297 475.845-25.835 482.022-24.0088 488.198-22.1826 494.617-21.2695 501.277-21.2695 506.111-21.2695 511.267-21.8335 516.746-22.9614 522.224-24.0894 526.306-25.5127 528.992-27.2314 532.752-29.7021 535.464-32.334 537.129-35.1269 538.794-37.9199 539.627-42.1094 539.627-47.6953 539.627-54.8926 537.666-60.3174 533.745-63.9697 529.824-67.6221 522.869-70.6836 512.879-73.1543 509.011-74.1211 503.963-75.249 497.732-76.5381 491.502-77.8271 485.755-79.2236 480.491-80.7275 466.741-84.7021 456.751-90.852 450.52-99.1772 444.29-107.502 441.174-117.573 441.174-129.39 441.174-145.61 447.297-158.823 459.544-169.028 471.79-179.233 488.064-184.336 508.367-184.336 518.357-184.336 528.401-183.101 538.499-180.63 548.596-178.159 557.083-175.044 563.958-171.284L563.958-138.896 562.346-138.896C554.612-145.02 545.991-149.854 536.484-153.398 526.978-156.943 517.39-158.716 507.722-158.716 497.732-158.716 489.299-156.621 482.424-152.432 475.549-148.242 472.112-141.904 472.112-133.418 472.112-125.898 474.153-120.286 478.235-116.58 482.317-112.874 488.87-109.839 497.893-107.476 502.405-106.294 507.427-105.139 512.959-104.011 518.491-102.883 524.319-101.567 530.442-100.063 543.762-96.7334 553.779-91.2012 560.493-83.4668 567.207-75.7324 570.564-65.2051 570.564-51.8848 570.564-44.1504 569.033-36.8188 565.972-29.8901 562.91-22.9614 558.425-17.0264 552.517-12.085 546.072-6.71387 538.794-2.63184 530.684 0.161133 522.573 2.9541 512.395 4.35059 500.149 4.35059ZM746.808-89.9121C746.807-59.6191 739.503-36.228 724.893-19.7388 710.284-3.24951 690.841 4.99512 666.563 4.99512 641.534 4.99512 621.849-3.51807 607.508-20.5444 593.167-37.5708 585.997-60.6934 585.997-89.9121 585.997-119.99 593.382-143.354 608.153-160.005 622.923-176.655 642.393-184.98 666.563-184.98 690.841-184.98 710.284-176.682 724.893-160.085 739.503-143.489 746.807-120.098 746.808-89.9121ZM715.548-89.9121C715.548-113.223 711.305-130.544 702.818-141.877 694.332-153.21 682.247-158.877 666.563-158.877 650.772-158.877 638.607-153.21 630.067-141.877 621.527-130.544 617.257-113.223 617.257-89.9121 617.257-67.3535 621.527-50.2466 630.067-38.5913 638.607-26.936 650.772-21.1084 666.563-21.1084 682.14-21.1084 694.198-26.8286 702.738-38.269 711.278-49.7095 715.548-66.9238 715.548-89.9121ZM919.524 0 889.231 0 889.231-102.48C889.231-110.752 888.828-118.459 888.023-125.603 887.217-132.747 885.686-138.467 883.43-142.764 880.96-147.275 877.522-150.632 873.118-152.834 868.714-155.037 862.698-156.138 855.071-156.138 847.551-156.138 839.79-154.124 831.787-150.095 823.784-146.067 815.969-140.83 808.342-134.385L808.342 0 778.049 0 778.049-179.985 808.342-179.985 808.342-160.005C817.366-168.062 826.282-174.238 835.09-178.535 843.899-182.832 853.191-184.98 862.966-184.98 880.691-184.98 894.548-179.153 904.539-167.498 914.529-155.842 919.524-138.95 919.524-116.821Z" fill="#707070" transform="matrix(1 0 0 1 222.281 452)"/></g></g><path d="M2197 3377C2197 3233.41 2313.41 3117 2457 3117L3573 3117C3716.59 3117 3833 3233.41 3833 3377L3833 3377C3833 3520.59 3716.59 3637 3573 3637L2457 3637C2313.41 3637 2197 3520.59 2197 3377Z" fill="#FFFFFF" fill-rule="evenodd"/><g clip-path="url(#clip9)" filter="url(#fx3)" transform="translate(2580 3075)"><g><path d="M175.796-167.578C175.796-157.158 173.943-147.302 170.237-138.01 166.531-128.718 161.401-120.796 154.849-114.243 146.577-106.079 136.855-99.9023 125.684-95.7129 114.512-91.5234 100.386-89.4287 83.3057-89.4287L56.2353-89.4287 56.2353 0 24.3311 0 24.3311-239.927 84.5947-239.927C98.7744-239.927 110.859-238.745 120.85-236.382 130.84-234.019 139.648-230.205 147.275-224.941 156.191-218.818 163.174-211.057 168.223-201.658 173.271-192.258 175.796-180.898 175.796-167.578ZM142.603-166.772C142.603-175.044 141.179-182.241 138.333-188.364 135.486-194.487 131.162-199.482 125.361-203.35 120.312-206.68 114.431-209.043 107.717-210.439 101.003-211.836 92.6514-212.534 82.6611-212.534L56.2353-212.534 56.2353-116.66 77.9883-116.66C90.8789-116.66 101.299-117.708 109.248-119.802 117.197-121.897 123.804-125.63 129.067-131.001 133.794-135.835 137.231-141.099 139.38-146.792 141.528-152.485 142.603-159.145 142.603-166.772ZM344.62-89.9121C344.62-59.6191 337.315-36.228 322.706-19.7388 308.097-3.24951 288.653 4.99512 264.376 4.99512 239.347 4.99512 219.662-3.51807 205.321-20.5444 190.98-37.5708 183.81-60.6934 183.81-89.9121 183.81-119.99 191.195-143.354 205.965-160.005 220.736-176.655 240.206-184.98 264.376-184.98 288.653-184.98 308.097-176.682 322.706-160.085 337.315-143.489 344.62-120.098 344.62-89.9121ZM313.36-89.9121C313.36-113.223 309.117-130.544 300.631-141.877 292.145-153.21 280.06-158.877 264.376-158.877 248.585-158.877 236.419-153.21 227.879-141.877 219.339-130.544 215.069-113.223 215.069-89.9121 215.069-67.3535 219.339-50.2466 227.879-38.5913 236.419-26.936 248.585-21.1084 264.376-21.1084 279.952-21.1084 292.01-26.8286 300.55-38.269 309.09-49.7095 313.36-66.9238 313.36-89.9121ZM406.799 0 376.506 0 376.506-179.985 406.799-179.985ZM408.894-210.117 374.412-210.117 374.412-241.538 408.894-241.538ZM500.149 4.35059C488.118 4.35059 476.865 2.73926 466.392-0.483398 455.918-3.70605 447.244-7.14355 440.369-10.7959L440.369-44.7949 441.98-44.7949C444.558-42.7539 447.593-40.498 451.084-38.0273 454.575-35.5566 459.221-32.9785 465.022-30.293 470.178-27.9297 475.845-25.835 482.022-24.0088 488.198-22.1826 494.617-21.2695 501.277-21.2695 506.111-21.2695 511.267-21.8335 516.746-22.9614 522.224-24.0894 526.306-25.5127 528.992-27.2314 532.752-29.7021 535.464-32.334 537.129-35.1269 538.794-37.9199 539.627-42.1094 539.627-47.6953 539.627-54.8926 537.666-60.3174 533.745-63.9697 529.824-67.6221 522.869-70.6836 512.879-73.1543 509.011-74.1211 503.963-75.249 497.732-76.5381 491.502-77.8271 485.755-79.2236 480.491-80.7275 466.741-84.7021 456.751-90.852 450.52-99.1772 444.29-107.502 441.174-117.573 441.174-129.39 441.174-145.61 447.297-158.823 459.544-169.028 471.79-179.233 488.064-184.336 508.367-184.336 518.357-184.336 528.401-183.101 538.499-180.63 548.596-178.159 557.083-175.044 563.958-171.284L563.958-138.896 562.346-138.896C554.612-145.02 545.991-149.854 536.484-153.398 526.978-156.943 517.39-158.716 507.722-158.716 497.732-158.716 489.299-156.621 482.424-152.432 475.549-148.242 472.112-141.904 472.112-133.418 472.112-125.898 474.153-120.286 478.235-116.58 482.317-112.874 488.87-109.839 497.893-107.476 502.405-106.294 507.427-105.139 512.959-104.011 518.491-102.883 524.319-101.567 530.442-100.063 543.762-96.7334 553.779-91.2012 560.493-83.4668 567.207-75.7324 570.564-65.2051 570.564-51.8848 570.564-44.1504 569.033-36.8188 565.972-29.8901 562.91-22.9614 558.425-17.0264 552.517-12.085 546.072-6.71387 538.794-2.63184 530.684 0.161133 522.573 2.9541 512.395 4.35059 500.149 4.35059ZM746.808-89.9121C746.807-59.6191 739.503-36.228 724.893-19.7388 710.284-3.24951 690.841 4.99512 666.563 4.99512 641.534 4.99512 621.849-3.51807 607.508-20.5444 593.167-37.5708 585.997-60.6934 585.997-89.9121 585.997-119.99 593.382-143.354 608.153-160.005 622.923-176.655 642.393-184.98 666.563-184.98 690.841-184.98 710.284-176.682 724.893-160.085 739.503-143.489 746.807-120.098 746.808-89.9121ZM715.548-89.9121C715.548-113.223 711.305-130.544 702.818-141.877 694.332-153.21 682.247-158.877 666.563-158.877 650.772-158.877 638.607-153.21 630.067-141.877 621.527-130.544 617.257-113.223 617.257-89.9121 617.257-67.3535 621.527-50.2466 630.067-38.5913 638.607-26.936 650.772-21.1084 666.563-21.1084 682.14-21.1084 694.198-26.8286 702.738-38.269 711.278-49.7095 715.548-66.9238 715.548-89.9121ZM919.524 0 889.231 0 889.231-102.48C889.231-110.752 888.828-118.459 888.023-125.603 887.217-132.747 885.686-138.467 883.43-142.764 880.96-147.275 877.522-150.632 873.118-152.834 868.714-155.037 862.698-156.138 855.071-156.138 847.551-156.138 839.79-154.124 831.787-150.095 823.784-146.067 815.969-140.83 808.342-134.385L808.342 0 778.049 0 778.049-179.985 808.342-179.985 808.342-160.005C817.366-168.062 826.282-174.238 835.09-178.535 843.899-182.832 853.191-184.98 862.966-184.98 880.691-184.98 894.548-179.153 904.539-167.498 914.529-155.842 919.524-138.95 919.524-116.821Z" fill="#707070" transform="matrix(1 0 0 1 213.241 442)"/></g></g><text fill="#707070" font-family="Tahoma,Tahoma_MSFontService,sans-serif" font-weight="400" font-size="330" transform="matrix(1 0 0 1 2783.56 3507)">Poison</text><g clip-path="url(#clip10)"><g clip-path="url(#clip11)"><g clip-path="url(#clip12)"><path d="M519 259.5C519 402.818 402.818 519 259.5 519 116.182 519-2.88103e-14 402.818-2.88103e-14 259.5-8.64309e-14 116.182 116.182-2.88103e-14 259.5-2.88103e-14 402.818-8.64309e-14 519 116.182 519 259.5Z" fill="#9354CB" transform="matrix(1 0 0 1.00193 2197 3117)"/><path d="M357.157 249.769C357.157 268.579 341.908 283.828 323.098 283.828 304.287 283.828 289.038 268.579 289.038 249.769 289.038 230.958 304.287 215.709 323.098 215.709 341.908 215.709 357.157 230.958 357.157 249.769Z" fill="#FFFFFF" transform="matrix(1 0 0 1.00193 2197 3117)"/><path d="M264.872 175.568C264.872 207.143 239.276 232.739 207.701 232.739 176.127 232.739 150.53 207.143 150.53 175.568 150.53 143.993 176.127 118.397 207.701 118.397 239.276 118.397 264.872 143.993 264.872 175.568Z" fill="#FFFFFF" transform="matrix(1 0 0 1.00193 2197 3117)"/><path d="M400.299 388.338C405.084 385.297 406.624 382.094 406.949 378.383 407.05 377.613 407.111 376.822 407.111 375.991 407.111 375.444 407.05 374.937 406.989 374.45 406.665 368.977 404.435 365.246 390.304 360.644 387.851 359.854 385.155 359.063 382.256 358.272 366.24 353.467 350.71 350.609 333.113 349.088 326.159 348.196 318.942 347.385 311.562 346.696 308.095 345.642 306.879 344.101 306.048 341.749 304.933 335.769 302.703 330.194 299.581 325.227 291.897 312.069 279.632 304.446 263.453 303.291 262.46 303.21 261.467 303.149 260.453 303.128 260.372 303.128 260.291 303.128 260.21 303.128 260.149 303.128 260.108 303.128 260.047 303.128 259.865 303.128 259.682 303.128 259.5 303.128 258.953 303.128 258.426 303.149 257.878 303.169 239.145 303.514 225.076 312.576 217.352 328.916 216.095 331.39 215.02 333.964 214.209 336.661 212.324 341.668 210.986 344.709 206.85 346.514 196.875 347.365 187.286 348.44 178.264 349.697 169.587 350.629 161.012 352.15 152.517 354.096 141.367 356.407 131.899 359.022 124.682 361.8 123.607 362.185 122.573 362.611 121.56 363.077 112.923 366.929 112.173 370.517 112.112 374.998 112.072 375.525 112.011 376.052 112.031 376.62 112.031 376.944 112.092 377.248 112.112 377.573 112.234 382.702 113.572 386.817 123.688 391.034 125.594 391.865 127.601 392.575 129.649 393.224 132.994 394.339 136.704 395.413 140.758 396.447 157.91 401.09 175.264 403.685 192.699 405.307 213.418 407.598 236.327 408.936 259.338 408.956 259.338 408.956 259.338 408.956 259.358 408.956 259.358 408.956 259.358 408.956 259.358 408.956 259.419 408.956 259.48 408.956 259.541 408.956 280.767 408.956 302.095 407.76 321.679 405.732 342.256 404.029 362.631 401.069 382.661 395.231 383.594 394.967 384.506 394.704 385.398 394.44 385.581 394.379 385.743 394.339 385.925 394.278 390.568 392.838 395.636 391.257 399.63 388.743 399.792 388.642 399.954 388.54 400.137 388.439 400.177 388.399 400.238 388.378 400.279 388.338Z" fill="#FFFFFF" transform="matrix(1 0 0 1.00193 2197 3117)"/></g></g></g></g></svg>