<svg width="1895" height="758" xmlns="http://www.w3.org/2000/svg" xmlns:xlink="http://www.w3.org/1999/xlink" xml:space="preserve" overflow="hidden"><defs><filter id="fx0" x="-10%" y="-10%" width="120%" height="120%" filterUnits="userSpaceOnUse" primitiveUnits="userSpaceOnUse"><feComponentTransfer color-interpolation-filters="sRGB"><feFuncR type="discrete" tableValues="0 0"/><feFuncG type="discrete" tableValues="0 0"/><feFuncB type="discrete" tableValues="0 0"/><feFuncA type="linear" slope="0.4" intercept="0"/></feComponentTransfer><feGaussianBlur stdDeviation="6.11111 6.11111"/></filter><filter id="fx1" x="-10%" y="-10%" width="120%" height="120%" filterUnits="userSpaceOnUse" primitiveUnits="userSpaceOnUse"><feComponentTransfer color-interpolation-filters="sRGB"><feFuncR type="discrete" tableValues="0 0"/><feFuncG type="discrete" tableValues="0 0"/><feFuncB type="discrete" tableValues="0 0"/><feFuncA type="linear" slope="0.431373" intercept="0"/></feComponentTransfer><feGaussianBlur stdDeviation="4.56444 4.56444"/></filter><filter id="fx2" x="-10%" y="-10%" width="120%" height="120%" filterUnits="userSpaceOnUse" primitiveUnits="userSpaceOnUse"><feComponentTransfer color-interpolation-filters="sRGB"><feFuncR type="discrete" tableValues="0 0"/><feFuncG type="discrete" tableValues="0 0"/><feFuncB type="discrete" tableValues="0 0"/><feFuncA type="linear" slope="0.4" intercept="0"/></feComponentTransfer><feGaussianBlur stdDeviation="6.11111 6.11111"/></filter><filter id="fx3" x="-10%" y="-10%" width="120%" height="120%" filterUnits="userSpaceOnUse" primitiveUnits="userSpaceOnUse"><feComponentTransfer color-interpolation-filters="sRGB"><feFuncR type="discrete" tableValues="0 0"/><feFuncG type="discrete" tableValues="0 0"/><feFuncB type="discrete" tableValues="0 0"/><feFuncA type="linear" slope="0.431373" intercept="0"/></feComponentTransfer><feGaussianBlur stdDeviation="4.56444 4.56444"/></filter><clipPath id="clip4"><rect x="2188" y="3708" width="1895" height="758"/></clipPath><clipPath id="clip5"><rect x="214" y="169" width="1108" height="400"/></clipPath><clipPath id="clip6"><rect x="0" y="0" width="1519" height="761"/></clipPath><clipPath id="clip7"><rect x="219" y="175" width="1062" height="351"/></clipPath><clipPath id="clip8"><rect x="0" y="0" width="1481" height="723"/></clipPath><clipPath id="clip9"><rect x="219" y="175" width="1062" height="351"/></clipPath><clipPath id="clip10"><rect x="2196" y="3757" width="520" height="521"/></clipPath><clipPath id="clip11"><rect x="2196" y="3757" width="520" height="521"/></clipPath><clipPath id="clip12"><rect x="2196" y="3757" width="520" height="521"/></clipPath></defs><g clip-path="url(#clip4)" transform="translate(-2188 -3708)"><g filter="url(#fx0)" transform="translate(2187 3748)"><g><path d="M19.7227 279.724C19.7227 136.129 136.129 19.7227 279.723 19.7227L1505.72 19.7227C1649.32 19.7227 1765.72 136.129 1765.72 279.724L1765.72 279.724C1765.72 423.318 1649.32 539.725 1505.72 539.725L279.723 539.723C136.129 539.723 19.7227 423.316 19.7227 279.722Z" fill="#FFFFFF" fill-rule="evenodd"/></g></g><g clip-path="url(#clip5)" filter="url(#fx2)" transform="translate(2565 3707)"><g clip-path="url(#clip6)"><g clip-path="url(#clip7)" filter="url(#fx1)" transform="translate(19 19)"><g clip-path="url(#clip8)"><path d="M175.796-167.578C175.796-157.158 173.943-147.302 170.237-138.01 166.531-128.718 161.401-120.796 154.849-114.243 146.577-106.079 136.855-99.9023 125.684-95.7129 114.512-91.5234 100.386-89.4287 83.3057-89.4287L56.2353-89.4287 56.2353 0 24.3311 0 24.3311-239.927 84.5947-239.927C98.7744-239.927 110.859-238.745 120.85-236.382 130.84-234.019 139.648-230.205 147.275-224.941 156.191-218.818 163.174-211.057 168.223-201.658 173.271-192.258 175.796-180.898 175.796-167.578ZM142.603-166.772C142.603-175.044 141.179-182.241 138.333-188.364 135.486-194.487 131.162-199.482 125.361-203.35 120.312-206.68 114.431-209.043 107.717-210.439 101.003-211.836 92.6514-212.534 82.6611-212.534L56.2353-212.534 56.2353-116.66 77.9883-116.66C90.8789-116.66 101.299-117.708 109.248-119.802 117.197-121.897 123.804-125.63 129.067-131.001 133.794-135.835 137.231-141.099 139.38-146.792 141.528-152.485 142.603-159.145 142.603-166.772ZM252.764 4.35059C240.732 4.35059 229.48 2.73926 219.006-0.483398 208.533-3.70605 199.858-7.14355 192.983-10.7959L192.983-44.7949 194.595-44.7949C197.173-42.7539 200.207-40.498 203.699-38.0273 207.19-35.5566 211.836-32.9785 217.637-30.293 222.793-27.9297 228.459-25.835 234.636-24.0088 240.813-22.1826 247.231-21.2695 253.892-21.2695 258.726-21.2695 263.882-21.8335 269.36-22.9614 274.839-24.0894 278.921-25.5127 281.606-27.2314 285.366-29.7021 288.079-32.334 289.744-35.1269 291.409-37.9199 292.241-42.1094 292.241-47.6953 292.241-54.8926 290.281-60.3174 286.36-63.9697 282.439-67.6221 275.483-70.6836 265.493-73.1543 261.626-74.1211 256.577-75.249 250.347-76.5381 244.116-77.8271 238.369-79.2236 233.105-80.7275 219.355-84.7021 209.365-90.852 203.135-99.1772 196.904-107.502 193.789-117.573 193.789-129.39 193.789-145.61 199.912-158.823 212.158-169.028 224.404-179.233 240.679-184.336 260.981-184.336 270.972-184.336 281.016-183.101 291.113-180.63 301.211-178.159 309.697-175.044 316.572-171.284L316.572-138.896 314.961-138.896C307.227-145.02 298.606-149.854 289.099-153.398 279.592-156.943 270.005-158.716 260.337-158.716 250.347-158.716 241.914-156.621 235.039-152.432 228.164-148.242 224.727-141.904 224.727-133.418 224.727-125.898 226.768-120.286 230.85-116.58 234.932-112.874 241.484-109.839 250.508-107.476 255.019-106.294 260.041-105.139 265.574-104.011 271.106-102.883 276.934-101.567 283.057-100.063 296.377-96.7334 306.394-91.2012 313.108-83.4668 319.822-75.7324 323.179-65.2051 323.179-51.8848 323.179-44.1504 321.648-36.8188 318.586-29.8901 315.525-22.9614 311.04-17.0264 305.132-12.085 298.686-6.71387 291.409-2.63184 283.298 0.161133 275.188 2.9541 265.01 4.35059 252.764 4.35059ZM492.816-179.985 395.975 66.3867 363.587 66.3867 395.814-8.70117 330.394-179.985 363.104-179.985 412.249-46.7285 461.234-179.985ZM584.722 4.02832C572.368 4.02832 561.035 2.12158 550.723-1.69189 540.41-5.50537 531.548-11.2793 524.136-19.0137 516.724-26.748 510.976-36.4966 506.894-48.2593 502.812-60.022 500.771-73.8525 500.771-89.751 500.771-105.542 502.893-119.185 507.136-130.679 511.379-142.173 517.046-151.841 524.136-159.683 531.225-167.524 540.061-173.567 550.642-177.81 561.223-182.053 572.583-184.175 584.722-184.175 594.604-184.175 604.138-182.778 613.323-179.985 622.507-177.192 630.698-173.97 637.895-170.317L637.895-136.318 636.123-136.318C633.974-138.145 631.208-140.239 627.825-142.603 624.441-144.966 620.332-147.383 615.498-149.854 611.308-152.002 606.367-153.882 600.674-155.493 594.98-157.104 589.502-157.91 584.238-157.91 568.555-157.91 555.959-151.975 546.453-140.105 536.946-128.235 532.192-111.45 532.192-89.751 532.192-68.4814 536.785-51.9116 545.969-40.0415 555.154-28.1714 567.91-22.2363 584.238-22.2363 594.121-22.2363 603.52-24.2773 612.436-28.3594 621.352-32.4414 629.248-37.7051 636.123-44.1504L637.895-44.1504 637.895-10.1514C634.888-8.75488 631.128-7.06299 626.616-5.07568 622.104-3.08838 618.022-1.61133 614.37-0.644531 609.214 0.859375 604.595 2.01416 600.513 2.81982 596.431 3.62549 591.167 4.02832 584.722 4.02832ZM807.049 0 776.756 0 776.756-102.48C776.756-110.752 776.353-118.459 775.548-125.603 774.742-132.747 773.211-138.467 770.955-142.764 768.485-147.275 765.047-150.632 760.643-152.834 756.239-155.037 750.223-156.138 742.596-156.138 735.076-156.138 727.315-154.124 719.312-150.095 711.309-146.067 703.494-140.83 695.867-134.385L695.867 0 665.574 0 665.574-250.723 695.867-250.723 695.867-160.005C704.891-168.062 713.807-174.238 722.615-178.535 731.424-182.832 740.716-184.98 750.491-184.98 768.216-184.98 782.073-179.153 792.064-167.498 802.054-155.842 807.049-138.95 807.049-116.821ZM880.418 0 850.125 0 850.125-179.985 880.418-179.985ZM882.513-210.117 848.031-210.117 848.031-241.538 882.513-241.538ZM996.649 4.02832C984.295 4.02832 972.962 2.12158 962.65-1.69189 952.337-5.50537 943.475-11.2793 936.063-19.0137 928.651-26.748 922.904-36.4966 918.822-48.2593 914.74-60.022 912.698-73.8525 912.698-89.751 912.698-105.542 914.82-119.185 919.063-130.679 923.306-142.173 928.973-151.841 936.063-159.683 943.153-167.524 951.988-173.567 962.569-177.81 973.15-182.053 984.51-184.175 996.649-184.175 1006.53-184.175 1016.07-182.778 1025.25-179.985 1034.43-177.192 1042.63-173.97 1049.82-170.317L1049.82-136.318 1048.05-136.318C1045.9-138.145 1043.14-140.239 1039.75-142.603 1036.37-144.966 1032.26-147.383 1027.43-149.854 1023.24-152.002 1018.29-153.882 1012.6-155.493 1006.91-157.104 1001.43-157.91 996.165-157.91 980.482-157.91 967.886-151.975 958.38-140.105 948.873-128.235 944.119-111.45 944.119-89.751 944.119-68.4814 948.712-51.9116 957.896-40.0415 967.081-28.1714 979.837-22.2363 996.165-22.2363 1006.05-22.2363 1015.45-24.2773 1024.36-28.3594 1033.28-32.4414 1041.18-37.7051 1048.05-44.1504L1049.82-44.1504 1049.82-10.1514C1046.81-8.75488 1043.05-7.06299 1038.54-5.07568 1034.03-3.08838 1029.95-1.61133 1026.3-0.644531 1021.14 0.859375 1016.52 2.01416 1012.44 2.81982 1008.36 3.62549 1003.09 4.02832 996.649 4.02832Z" fill="#707070" transform="matrix(1 0 0 1 -2352.15 -3265)"/></g></g><path d="M175.796-167.578C175.796-157.158 173.943-147.302 170.237-138.01 166.531-128.718 161.401-120.796 154.849-114.243 146.577-106.079 136.855-99.9023 125.684-95.7129 114.512-91.5234 100.386-89.4287 83.3057-89.4287L56.2353-89.4287 56.2353 0 24.3311 0 24.3311-239.927 84.5947-239.927C98.7744-239.927 110.859-238.745 120.85-236.382 130.84-234.019 139.648-230.205 147.275-224.941 156.191-218.818 163.174-211.057 168.223-201.658 173.271-192.258 175.796-180.898 175.796-167.578ZM142.603-166.772C142.603-175.044 141.179-182.241 138.333-188.364 135.486-194.487 131.162-199.482 125.361-203.35 120.312-206.68 114.431-209.043 107.717-210.439 101.003-211.836 92.6514-212.534 82.6611-212.534L56.2353-212.534 56.2353-116.66 77.9883-116.66C90.8789-116.66 101.299-117.708 109.248-119.802 117.197-121.897 123.804-125.63 129.067-131.001 133.794-135.835 137.231-141.099 139.38-146.792 141.528-152.485 142.603-159.145 142.603-166.772ZM252.764 4.35059C240.732 4.35059 229.48 2.73926 219.006-0.483398 208.533-3.70605 199.858-7.14355 192.983-10.7959L192.983-44.7949 194.595-44.7949C197.173-42.7539 200.207-40.498 203.699-38.0273 207.19-35.5566 211.836-32.9785 217.637-30.293 222.793-27.9297 228.459-25.835 234.636-24.0088 240.813-22.1826 247.231-21.2695 253.892-21.2695 258.726-21.2695 263.882-21.8335 269.36-22.9614 274.839-24.0894 278.921-25.5127 281.606-27.2314 285.366-29.7021 288.079-32.334 289.744-35.1269 291.409-37.9199 292.241-42.1094 292.241-47.6953 292.241-54.8926 290.281-60.3174 286.36-63.9697 282.439-67.6221 275.483-70.6836 265.493-73.1543 261.626-74.1211 256.577-75.249 250.347-76.5381 244.116-77.8271 238.369-79.2236 233.105-80.7275 219.355-84.7021 209.365-90.852 203.135-99.1772 196.904-107.502 193.789-117.573 193.789-129.39 193.789-145.61 199.912-158.823 212.158-169.028 224.404-179.233 240.679-184.336 260.981-184.336 270.972-184.336 281.016-183.101 291.113-180.63 301.211-178.159 309.697-175.044 316.572-171.284L316.572-138.896 314.961-138.896C307.227-145.02 298.606-149.854 289.099-153.398 279.592-156.943 270.005-158.716 260.337-158.716 250.347-158.716 241.914-156.621 235.039-152.432 228.164-148.242 224.727-141.904 224.727-133.418 224.727-125.898 226.768-120.286 230.85-116.58 234.932-112.874 241.484-109.839 250.508-107.476 255.019-106.294 260.041-105.139 265.574-104.011 271.106-102.883 276.934-101.567 283.057-100.063 296.377-96.7334 306.394-91.2012 313.108-83.4668 319.822-75.7324 323.179-65.2051 323.179-51.8848 323.179-44.1504 321.648-36.8188 318.586-29.8901 315.525-22.9614 311.04-17.0264 305.132-12.085 298.686-6.71387 291.409-2.63184 283.298 0.161133 275.188 2.9541 265.01 4.35059 252.764 4.35059ZM492.816-179.985 395.975 66.3867 363.587 66.3867 395.814-8.70117 330.394-179.985 363.104-179.985 412.249-46.7285 461.234-179.985ZM584.722 4.02832C572.368 4.02832 561.035 2.12158 550.723-1.69189 540.41-5.50537 531.548-11.2793 524.136-19.0137 516.724-26.748 510.976-36.4966 506.894-48.2593 502.812-60.022 500.771-73.8525 500.771-89.751 500.771-105.542 502.893-119.185 507.136-130.679 511.379-142.173 517.046-151.841 524.136-159.683 531.225-167.524 540.061-173.567 550.642-177.81 561.223-182.053 572.583-184.175 584.722-184.175 594.604-184.175 604.138-182.778 613.323-179.985 622.507-177.192 630.698-173.97 637.895-170.317L637.895-136.318 636.123-136.318C633.974-138.145 631.208-140.239 627.825-142.603 624.441-144.966 620.332-147.383 615.498-149.854 611.308-152.002 606.367-153.882 600.674-155.493 594.98-157.104 589.502-157.91 584.238-157.91 568.555-157.91 555.959-151.975 546.453-140.105 536.946-128.235 532.192-111.45 532.192-89.751 532.192-68.4814 536.785-51.9116 545.969-40.0415 555.154-28.1714 567.91-22.2363 584.238-22.2363 594.121-22.2363 603.52-24.2773 612.436-28.3594 621.352-32.4414 629.248-37.7051 636.123-44.1504L637.895-44.1504 637.895-10.1514C634.888-8.75488 631.128-7.06299 626.616-5.07568 622.104-3.08838 618.022-1.61133 614.37-0.644531 609.214 0.859375 604.595 2.01416 600.513 2.81982 596.431 3.62549 591.167 4.02832 584.722 4.02832ZM807.049 0 776.756 0 776.756-102.48C776.756-110.752 776.353-118.459 775.548-125.603 774.742-132.747 773.211-138.467 770.955-142.764 768.485-147.275 765.047-150.632 760.643-152.834 756.239-155.037 750.223-156.138 742.596-156.138 735.076-156.138 727.315-154.124 719.312-150.095 711.309-146.067 703.494-140.83 695.867-134.385L695.867 0 665.574 0 665.574-250.723 695.867-250.723 695.867-160.005C704.891-168.062 713.807-174.238 722.615-178.535 731.424-182.832 740.716-184.98 750.491-184.98 768.216-184.98 782.073-179.153 792.064-167.498 802.054-155.842 807.049-138.95 807.049-116.821ZM880.418 0 850.125 0 850.125-179.985 880.418-179.985ZM882.513-210.117 848.031-210.117 848.031-241.538 882.513-241.538ZM996.649 4.02832C984.295 4.02832 972.962 2.12158 962.65-1.69189 952.337-5.50537 943.475-11.2793 936.063-19.0137 928.651-26.748 922.904-36.4966 918.822-48.2593 914.74-60.022 912.698-73.8525 912.698-89.751 912.698-105.542 914.82-119.185 919.063-130.679 923.306-142.173 928.973-151.841 936.063-159.683 943.153-167.524 951.988-173.567 962.569-177.81 973.15-182.053 984.51-184.175 996.649-184.175 1006.53-184.175 1016.07-182.778 1025.25-179.985 1034.43-177.192 1042.63-173.97 1049.82-170.317L1049.82-136.318 1048.05-136.318C1045.9-138.145 1043.14-140.239 1039.75-142.603 1036.37-144.966 1032.26-147.383 1027.43-149.854 1023.24-152.002 1018.29-153.882 1012.6-155.493 1006.91-157.104 1001.43-157.91 996.165-157.91 980.482-157.91 967.886-151.975 958.38-140.105 948.873-128.235 944.119-111.45 944.119-89.751 944.119-68.4814 948.712-51.9116 957.896-40.0415 967.081-28.1714 979.837-22.2363 996.165-22.2363 1006.05-22.2363 1015.45-24.2773 1024.36-28.3594 1033.28-32.4414 1041.18-37.7051 1048.05-44.1504L1049.82-44.1504 1049.82-10.1514C1046.81-8.75488 1043.05-7.06299 1038.54-5.07568 1034.03-3.08838 1029.95-1.61133 1026.3-0.644531 1021.14 0.859375 1016.52 2.01416 1012.44 2.81982 1008.36 3.62549 1003.09 4.02832 996.649 4.02832Z" fill="#707070" transform="matrix(1 0 0 1 222.163 451)"/></g></g><path d="M2197 4018C2197 3874.41 2313.41 3758 2457 3758L3683 3758C3826.6 3758 3943 3874.41 3943 4018L3943 4018C3943 4161.6 3826.59 4278 3683 4278L2457 4278C2313.41 4278 2197 4161.59 2197 4018Z" fill="#FFFFFF" fill-rule="evenodd"/><g clip-path="url(#clip9)" filter="url(#fx3)" transform="translate(2574 3716)"><g><path d="M175.796-167.578C175.796-157.158 173.943-147.302 170.237-138.01 166.531-128.718 161.401-120.796 154.849-114.243 146.577-106.079 136.855-99.9023 125.684-95.7129 114.512-91.5234 100.386-89.4287 83.3057-89.4287L56.2353-89.4287 56.2353 0 24.3311 0 24.3311-239.927 84.5947-239.927C98.7744-239.927 110.859-238.745 120.85-236.382 130.84-234.019 139.648-230.205 147.275-224.941 156.191-218.818 163.174-211.057 168.223-201.658 173.271-192.258 175.796-180.898 175.796-167.578ZM142.603-166.772C142.603-175.044 141.179-182.241 138.333-188.364 135.486-194.487 131.162-199.482 125.361-203.35 120.312-206.68 114.431-209.043 107.717-210.439 101.003-211.836 92.6514-212.534 82.6611-212.534L56.2353-212.534 56.2353-116.66 77.9883-116.66C90.8789-116.66 101.299-117.708 109.248-119.802 117.197-121.897 123.804-125.63 129.067-131.001 133.794-135.835 137.231-141.099 139.38-146.792 141.528-152.485 142.603-159.145 142.603-166.772ZM252.764 4.35059C240.732 4.35059 229.48 2.73926 219.006-0.483398 208.533-3.70605 199.858-7.14355 192.983-10.7959L192.983-44.7949 194.595-44.7949C197.173-42.7539 200.207-40.498 203.699-38.0273 207.19-35.5566 211.836-32.9785 217.637-30.293 222.793-27.9297 228.459-25.835 234.636-24.0088 240.813-22.1826 247.231-21.2695 253.892-21.2695 258.726-21.2695 263.882-21.8335 269.36-22.9614 274.839-24.0894 278.921-25.5127 281.606-27.2314 285.366-29.7021 288.079-32.334 289.744-35.1269 291.409-37.9199 292.241-42.1094 292.241-47.6953 292.241-54.8926 290.281-60.3174 286.36-63.9697 282.439-67.6221 275.483-70.6836 265.493-73.1543 261.626-74.1211 256.577-75.249 250.347-76.5381 244.116-77.8271 238.369-79.2236 233.105-80.7275 219.355-84.7021 209.365-90.852 203.135-99.1772 196.904-107.502 193.789-117.573 193.789-129.39 193.789-145.61 199.912-158.823 212.158-169.028 224.404-179.233 240.679-184.336 260.981-184.336 270.972-184.336 281.016-183.101 291.113-180.63 301.211-178.159 309.697-175.044 316.572-171.284L316.572-138.896 314.961-138.896C307.227-145.02 298.606-149.854 289.099-153.398 279.592-156.943 270.005-158.716 260.337-158.716 250.347-158.716 241.914-156.621 235.039-152.432 228.164-148.242 224.727-141.904 224.727-133.418 224.727-125.898 226.768-120.286 230.85-116.58 234.932-112.874 241.484-109.839 250.508-107.476 255.019-106.294 260.041-105.139 265.574-104.011 271.106-102.883 276.934-101.567 283.057-100.063 296.377-96.7334 306.394-91.2012 313.108-83.4668 319.822-75.7324 323.179-65.2051 323.179-51.8848 323.179-44.1504 321.648-36.8188 318.586-29.8901 315.525-22.9614 311.04-17.0264 305.132-12.085 298.686-6.71387 291.409-2.63184 283.298 0.161133 275.188 2.9541 265.01 4.35059 252.764 4.35059ZM492.816-179.985 395.975 66.3867 363.587 66.3867 395.814-8.70117 330.394-179.985 363.104-179.985 412.249-46.7285 461.234-179.985ZM584.722 4.02832C572.368 4.02832 561.035 2.12158 550.723-1.69189 540.41-5.50537 531.548-11.2793 524.136-19.0137 516.724-26.748 510.976-36.4966 506.894-48.2593 502.812-60.022 500.771-73.8525 500.771-89.751 500.771-105.542 502.893-119.185 507.136-130.679 511.379-142.173 517.046-151.841 524.136-159.683 531.225-167.524 540.061-173.567 550.642-177.81 561.223-182.053 572.583-184.175 584.722-184.175 594.604-184.175 604.138-182.778 613.323-179.985 622.507-177.192 630.698-173.97 637.895-170.317L637.895-136.318 636.123-136.318C633.974-138.145 631.208-140.239 627.825-142.603 624.441-144.966 620.332-147.383 615.498-149.854 611.308-152.002 606.367-153.882 600.674-155.493 594.98-157.104 589.502-157.91 584.238-157.91 568.555-157.91 555.959-151.975 546.453-140.105 536.946-128.235 532.192-111.45 532.192-89.751 532.192-68.4814 536.785-51.9116 545.969-40.0415 555.154-28.1714 567.91-22.2363 584.238-22.2363 594.121-22.2363 603.52-24.2773 612.436-28.3594 621.352-32.4414 629.248-37.7051 636.123-44.1504L637.895-44.1504 637.895-10.1514C634.888-8.75488 631.128-7.06299 626.616-5.07568 622.104-3.08838 618.022-1.61133 614.37-0.644531 609.214 0.859375 604.595 2.01416 600.513 2.81982 596.431 3.62549 591.167 4.02832 584.722 4.02832ZM807.049 0 776.756 0 776.756-102.48C776.756-110.752 776.353-118.459 775.548-125.603 774.742-132.747 773.211-138.467 770.955-142.764 768.485-147.275 765.047-150.632 760.643-152.834 756.239-155.037 750.223-156.138 742.596-156.138 735.076-156.138 727.315-154.124 719.312-150.095 711.309-146.067 703.494-140.83 695.867-134.385L695.867 0 665.574 0 665.574-250.723 695.867-250.723 695.867-160.005C704.891-168.062 713.807-174.238 722.615-178.535 731.424-182.832 740.716-184.98 750.491-184.98 768.216-184.98 782.073-179.153 792.064-167.498 802.054-155.842 807.049-138.95 807.049-116.821ZM880.418 0 850.125 0 850.125-179.985 880.418-179.985ZM882.513-210.117 848.031-210.117 848.031-241.538 882.513-241.538ZM996.649 4.02832C984.295 4.02832 972.962 2.12158 962.65-1.69189 952.337-5.50537 943.475-11.2793 936.063-19.0137 928.651-26.748 922.904-36.4966 918.822-48.2593 914.74-60.022 912.698-73.8525 912.698-89.751 912.698-105.542 914.82-119.185 919.063-130.679 923.306-142.173 928.973-151.841 936.063-159.683 943.153-167.524 951.988-173.567 962.569-177.81 973.15-182.053 984.51-184.175 996.649-184.175 1006.53-184.175 1016.07-182.778 1025.25-179.985 1034.43-177.192 1042.63-173.97 1049.82-170.317L1049.82-136.318 1048.05-136.318C1045.9-138.145 1043.14-140.239 1039.75-142.603 1036.37-144.966 1032.26-147.383 1027.43-149.854 1023.24-152.002 1018.29-153.882 1012.6-155.493 1006.91-157.104 1001.43-157.91 996.165-157.91 980.482-157.91 967.886-151.975 958.38-140.105 948.873-128.235 944.119-111.45 944.119-89.751 944.119-68.4814 948.712-51.9116 957.896-40.0415 967.081-28.1714 979.837-22.2363 996.165-22.2363 1006.05-22.2363 1015.45-24.2773 1024.36-28.3594 1033.28-32.4414 1041.18-37.7051 1048.05-44.1504L1049.82-44.1504 1049.82-10.1514C1046.81-8.75488 1043.05-7.06299 1038.54-5.07568 1034.03-3.08838 1029.95-1.61133 1026.3-0.644531 1021.14 0.859375 1016.52 2.01416 1012.44 2.81982 1008.36 3.62549 1003.09 4.02832 996.649 4.02832Z" fill="#707070" transform="matrix(1 0 0 1 213.123 442)"/></g></g><text fill="#707070" font-family="Tahoma,Tahoma_MSFontService,sans-serif" font-weight="400" font-size="330" transform="matrix(1 0 0 1 2777.44 4148)">Psychic</text><g clip-path="url(#clip10)"><g clip-path="url(#clip11)"><g clip-path="url(#clip12)"><path d="M519 259.5C519 402.818 402.818 519 259.5 519 116.182 519-2.88103e-14 402.818-2.88103e-14 259.5-8.64309e-14 116.182 116.182-2.88103e-14 259.5-2.88103e-14 402.818-8.64309e-14 519 116.182 519 259.5Z" fill="#E96C8C" transform="matrix(1 0 0 1.00193 2197 3758)"/><path d="M400.299 202.207C400.887 212.851 396.224 221.974 391.399 230.854 381.262 249.525 381.424 267.731 390.649 286.93 411.389 330.112 397.988 354.664 350.933 359.043 328.308 361.151 311.968 370.497 299.418 389.676 275.678 425.965 243.241 425.702 219.217 389.169 207.093 370.74 191.32 361.333 169.445 359.185 120.647 354.4 107.53 330.822 128.615 286.362 137.373 267.873 137.17 250.478 128.331 232.05 107.632 188.847 120.992 164.316 168.047 159.937 190.651 157.829 207.032 148.483 219.561 129.304 242.856 93.6633 275.982 92.9334 298.526 128.209 312.9 150.692 332.444 158.761 357.583 160.708 385.763 162.897 400.502 178.447 400.279 202.228Z" fill="#FFFFFF" transform="matrix(1 0 0 1.00193 2197 3758)"/><path d="M353.913 313.549C311.785 317.239 282.044 333.741 259.905 368.085 236.49 334.289 207.195 316.975 167.256 313.731 181.427 277.503 184.995 242.856 165.533 206.282 205.877 201.559 236.429 185.279 259.601 151.625 282.51 184.671 311.785 201.984 351.724 205.228 337.654 241.477 333.944 276.104 353.913 313.529Z" fill="#E96C8D" transform="matrix(1 0 0 1.00193 2197 3758)"/></g></g></g></g></svg>