<svg width="1550" height="759" xmlns="http://www.w3.org/2000/svg" xmlns:xlink="http://www.w3.org/1999/xlink" xml:space="preserve" overflow="hidden"><defs><filter id="fx0" x="-10%" y="-10%" width="120%" height="120%" filterUnits="userSpaceOnUse" primitiveUnits="userSpaceOnUse"><feComponentTransfer color-interpolation-filters="sRGB"><feFuncR type="discrete" tableValues="0 0"/><feFuncG type="discrete" tableValues="0 0"/><feFuncB type="discrete" tableValues="0 0"/><feFuncA type="linear" slope="0.4" intercept="0"/></feComponentTransfer><feGaussianBlur stdDeviation="6.11111 6.11111"/></filter><filter id="fx1" x="-10%" y="-10%" width="120%" height="120%" filterUnits="userSpaceOnUse" primitiveUnits="userSpaceOnUse"><feComponentTransfer color-interpolation-filters="sRGB"><feFuncR type="discrete" tableValues="0 0"/><feFuncG type="discrete" tableValues="0 0"/><feFuncB type="discrete" tableValues="0 0"/><feFuncA type="linear" slope="0.431373" intercept="0"/></feComponentTransfer><feGaussianBlur stdDeviation="4.56444 4.56444"/></filter><filter id="fx2" x="-10%" y="-10%" width="120%" height="120%" filterUnits="userSpaceOnUse" primitiveUnits="userSpaceOnUse"><feComponentTransfer color-interpolation-filters="sRGB"><feFuncR type="discrete" tableValues="0 0"/><feFuncG type="discrete" tableValues="0 0"/><feFuncB type="discrete" tableValues="0 0"/><feFuncA type="linear" slope="0.4" intercept="0"/></feComponentTransfer><feGaussianBlur stdDeviation="6.11111 6.11111"/></filter><filter id="fx3" x="-10%" y="-10%" width="120%" height="120%" filterUnits="userSpaceOnUse" primitiveUnits="userSpaceOnUse"><feComponentTransfer color-interpolation-filters="sRGB"><feFuncR type="discrete" tableValues="0 0"/><feFuncG type="discrete" tableValues="0 0"/><feFuncB type="discrete" tableValues="0 0"/><feFuncA type="linear" slope="0.431373" intercept="0"/></feComponentTransfer><feGaussianBlur stdDeviation="4.56444 4.56444"/></filter><clipPath id="clip4"><rect x="2188" y="4349" width="1550" height="759"/></clipPath><clipPath id="clip5"><rect x="214" y="169" width="761" height="338"/></clipPath><clipPath id="clip6"><rect x="0" y="0" width="1159" height="761"/></clipPath><clipPath id="clip7"><rect x="219" y="175" width="714" height="289"/></clipPath><clipPath id="clip8"><rect x="0" y="0" width="1121" height="723"/></clipPath><clipPath id="clip9"><rect x="219" y="175" width="714" height="289"/></clipPath></defs><g clip-path="url(#clip4)" transform="translate(-2188 -4349)"><g filter="url(#fx0)" transform="translate(2187 4390)"><g><path d="M19.7227 279.223C19.7227 135.905 135.905 19.7227 279.223 19.7227L1161.22 19.7227C1304.54 19.7227 1420.72 135.905 1420.72 279.223L1420.72 279.223C1420.72 422.542 1304.54 538.724 1161.22 538.724L279.223 538.723C135.905 538.723 19.7227 422.54 19.7227 279.222Z" fill="#FFFFFF" fill-rule="evenodd"/></g></g><g clip-path="url(#clip5)" filter="url(#fx2)" transform="translate(2581 4348)"><g clip-path="url(#clip6)"><g clip-path="url(#clip7)" filter="url(#fx1)" transform="translate(19 19)"><g clip-path="url(#clip8)"><path d="M210.117 0 168.706 0 92.6514-95.3906 56.2353-95.3906 56.2353 0 24.3311 0 24.3311-239.927 86.206-239.927C99.956-239.927 111.477-239.175 120.769-237.671 130.061-236.167 138.896-232.676 147.275-227.197 155.654-221.826 162.288-214.897 167.175-206.411 172.063-197.925 174.507-187.397 174.507-174.829 174.507-157.212 170.049-142.495 161.133-130.679 152.217-118.862 140.078-110.107 124.717-104.414ZM141.152-172.412C141.152-179.395 139.917-185.598 137.446-191.023 134.976-196.448 131.162-200.879 126.006-204.316 121.494-207.324 116.23-209.446 110.215-210.681 104.199-211.916 96.7334-212.534 87.8174-212.534L56.2353-212.534 56.2353-121.978 84.2725-121.978C93.4033-121.978 101.621-122.783 108.926-124.395 116.23-126.006 122.461-129.336 127.617-134.385 132.236-138.896 135.647-144.268 137.849-150.498 140.051-156.729 141.152-164.033 141.152-172.412ZM368.568-89.9121C368.568-59.6191 361.263-36.228 346.654-19.7388 332.045-3.24951 312.601 4.99512 288.324 4.99512 263.295 4.99512 243.61-3.51807 229.269-20.5444 214.928-37.5708 207.757-60.6934 207.757-89.9121 207.757-119.99 215.143-143.354 229.913-160.005 244.684-176.655 264.154-184.98 288.324-184.98 312.601-184.98 332.045-176.682 346.654-160.085 361.263-143.489 368.568-120.098 368.568-89.9121ZM337.308-89.9121C337.308-113.223 333.065-130.544 324.579-141.877 316.092-153.21 304.007-158.877 288.324-158.877 272.533-158.877 260.367-153.21 251.827-141.877 243.287-130.544 239.017-113.223 239.017-89.9121 239.017-67.3535 243.287-50.2466 251.827-38.5913 260.367-26.936 272.533-21.1084 288.324-21.1084 303.9-21.1084 315.958-26.8286 324.498-38.269 333.038-49.7095 337.308-66.9238 337.308-89.9121ZM471.353 4.02832C458.999 4.02832 447.666 2.12158 437.354-1.69189 427.041-5.50537 418.179-11.2793 410.767-19.0137 403.355-26.748 397.608-36.4966 393.526-48.2593 389.444-60.022 387.403-73.8525 387.403-89.751 387.403-105.542 389.524-119.185 393.767-130.679 398.011-142.173 403.677-151.841 410.767-159.683 417.857-167.524 426.692-173.567 437.273-177.81 447.854-182.053 459.214-184.175 471.353-184.175 481.236-184.175 490.769-182.778 499.954-179.985 509.138-177.192 517.329-173.97 524.527-170.317L524.527-136.318 522.754-136.318C520.606-138.145 517.84-140.239 514.456-142.603 511.072-144.966 506.963-147.383 502.129-149.854 497.94-152.002 492.998-153.882 487.305-155.493 481.612-157.104 476.133-157.91 470.869-157.91 455.186-157.91 442.591-151.975 433.084-140.105 423.577-128.235 418.824-111.45 418.824-89.751 418.824-68.4814 423.416-51.9116 432.6-40.0415 441.785-28.1714 454.541-22.2363 470.869-22.2363 480.752-22.2363 490.152-24.2773 499.068-28.3594 507.984-32.4414 515.879-37.7051 522.754-44.1504L524.527-44.1504 524.527-10.1514C521.519-8.75488 517.759-7.06299 513.247-5.07568 508.736-3.08838 504.654-1.61133 501.001-0.644531 495.845 0.859375 491.226 2.01416 487.144 2.81982 483.062 3.62549 477.798 4.02832 471.353 4.02832ZM701.415 0 661.615 0 594.422-86.8506 582.499-75.249 582.499 0 552.206 0 552.206-250.723 582.499-250.723 582.499-103.931 653.719-179.985 691.424-179.985 617.464-104.736Z" fill="#707070" transform="matrix(1 0 0 1 -2368.18 -3906)"/></g></g><path d="M210.117 0 168.706 0 92.6514-95.3906 56.2353-95.3906 56.2353 0 24.3311 0 24.3311-239.927 86.206-239.927C99.956-239.927 111.477-239.175 120.769-237.671 130.061-236.167 138.896-232.676 147.275-227.197 155.654-221.826 162.288-214.897 167.175-206.411 172.063-197.925 174.507-187.397 174.507-174.829 174.507-157.212 170.049-142.495 161.133-130.679 152.217-118.862 140.078-110.107 124.717-104.414ZM141.152-172.412C141.152-179.395 139.917-185.598 137.446-191.023 134.976-196.448 131.162-200.879 126.006-204.316 121.494-207.324 116.23-209.446 110.215-210.681 104.199-211.916 96.7334-212.534 87.8174-212.534L56.2353-212.534 56.2353-121.978 84.2725-121.978C93.4033-121.978 101.621-122.783 108.926-124.395 116.23-126.006 122.461-129.336 127.617-134.385 132.236-138.896 135.647-144.268 137.849-150.498 140.051-156.729 141.152-164.033 141.152-172.412ZM368.568-89.9121C368.568-59.6191 361.263-36.228 346.654-19.7388 332.045-3.24951 312.601 4.99512 288.324 4.99512 263.295 4.99512 243.61-3.51807 229.269-20.5444 214.928-37.5708 207.757-60.6934 207.757-89.9121 207.757-119.99 215.143-143.354 229.913-160.005 244.684-176.655 264.154-184.98 288.324-184.98 312.601-184.98 332.045-176.682 346.654-160.085 361.263-143.489 368.568-120.098 368.568-89.9121ZM337.308-89.9121C337.308-113.223 333.065-130.544 324.579-141.877 316.092-153.21 304.007-158.877 288.324-158.877 272.533-158.877 260.367-153.21 251.827-141.877 243.287-130.544 239.017-113.223 239.017-89.9121 239.017-67.3535 243.287-50.2466 251.827-38.5913 260.367-26.936 272.533-21.1084 288.324-21.1084 303.9-21.1084 315.958-26.8286 324.498-38.269 333.038-49.7095 337.308-66.9238 337.308-89.9121ZM471.353 4.02832C458.999 4.02832 447.666 2.12158 437.354-1.69189 427.041-5.50537 418.179-11.2793 410.767-19.0137 403.355-26.748 397.608-36.4966 393.526-48.2593 389.444-60.022 387.403-73.8525 387.403-89.751 387.403-105.542 389.524-119.185 393.767-130.679 398.011-142.173 403.677-151.841 410.767-159.683 417.857-167.524 426.692-173.567 437.273-177.81 447.854-182.053 459.214-184.175 471.353-184.175 481.236-184.175 490.769-182.778 499.954-179.985 509.138-177.192 517.329-173.97 524.527-170.317L524.527-136.318 522.754-136.318C520.606-138.145 517.84-140.239 514.456-142.603 511.072-144.966 506.963-147.383 502.129-149.854 497.94-152.002 492.998-153.882 487.305-155.493 481.612-157.104 476.133-157.91 470.869-157.91 455.186-157.91 442.591-151.975 433.084-140.105 423.577-128.235 418.824-111.45 418.824-89.751 418.824-68.4814 423.416-51.9116 432.6-40.0415 441.785-28.1714 454.541-22.2363 470.869-22.2363 480.752-22.2363 490.152-24.2773 499.068-28.3594 507.984-32.4414 515.879-37.7051 522.754-44.1504L524.527-44.1504 524.527-10.1514C521.519-8.75488 517.759-7.06299 513.247-5.07568 508.736-3.08838 504.654-1.61133 501.001-0.644531 495.845 0.859375 491.226 2.01416 487.144 2.81982 483.062 3.62549 477.798 4.02832 471.353 4.02832ZM701.415 0 661.615 0 594.422-86.8506 582.499-75.249 582.499 0 552.206 0 552.206-250.723 582.499-250.723 582.499-103.931 653.719-179.985 691.424-179.985 617.464-104.736Z" fill="#707070" transform="matrix(1 0 0 1 222.135 451)"/></g></g><path d="M2197 4659.5C2197 4516.18 2313.18 4400 2456.5 4400L3338.5 4400C3481.82 4400 3598 4516.18 3598 4659.5L3598 4659.5C3598 4802.82 3481.82 4919 3338.5 4919L2456.5 4919C2313.18 4919 2197 4802.82 2197 4659.5Z" fill="#FFFFFF" fill-rule="evenodd"/><g clip-path="url(#clip9)" filter="url(#fx3)" transform="translate(2590 4357)"><g><path d="M210.117 0 168.706 0 92.6514-95.3906 56.2353-95.3906 56.2353 0 24.3311 0 24.3311-239.927 86.206-239.927C99.956-239.927 111.477-239.175 120.769-237.671 130.061-236.167 138.896-232.676 147.275-227.197 155.654-221.826 162.288-214.897 167.175-206.411 172.063-197.925 174.507-187.397 174.507-174.829 174.507-157.212 170.049-142.495 161.133-130.679 152.217-118.862 140.078-110.107 124.717-104.414ZM141.152-172.412C141.152-179.395 139.917-185.598 137.446-191.023 134.976-196.448 131.162-200.879 126.006-204.316 121.494-207.324 116.23-209.446 110.215-210.681 104.199-211.916 96.7334-212.534 87.8174-212.534L56.2353-212.534 56.2353-121.978 84.2725-121.978C93.4033-121.978 101.621-122.783 108.926-124.395 116.23-126.006 122.461-129.336 127.617-134.385 132.236-138.896 135.647-144.268 137.849-150.498 140.051-156.729 141.152-164.033 141.152-172.412ZM368.568-89.9121C368.568-59.6191 361.263-36.228 346.654-19.7388 332.045-3.24951 312.601 4.99512 288.324 4.99512 263.295 4.99512 243.61-3.51807 229.269-20.5444 214.928-37.5708 207.757-60.6934 207.757-89.9121 207.757-119.99 215.143-143.354 229.913-160.005 244.684-176.655 264.154-184.98 288.324-184.98 312.601-184.98 332.045-176.682 346.654-160.085 361.263-143.489 368.568-120.098 368.568-89.9121ZM337.308-89.9121C337.308-113.223 333.065-130.544 324.579-141.877 316.092-153.21 304.007-158.877 288.324-158.877 272.533-158.877 260.367-153.21 251.827-141.877 243.287-130.544 239.017-113.223 239.017-89.9121 239.017-67.3535 243.287-50.2466 251.827-38.5913 260.367-26.936 272.533-21.1084 288.324-21.1084 303.9-21.1084 315.958-26.8286 324.498-38.269 333.038-49.7095 337.308-66.9238 337.308-89.9121ZM471.353 4.02832C458.999 4.02832 447.666 2.12158 437.354-1.69189 427.041-5.50537 418.179-11.2793 410.767-19.0137 403.355-26.748 397.608-36.4966 393.526-48.2593 389.444-60.022 387.403-73.8525 387.403-89.751 387.403-105.542 389.524-119.185 393.767-130.679 398.011-142.173 403.677-151.841 410.767-159.683 417.857-167.524 426.692-173.567 437.273-177.81 447.854-182.053 459.214-184.175 471.353-184.175 481.236-184.175 490.769-182.778 499.954-179.985 509.138-177.192 517.329-173.97 524.527-170.317L524.527-136.318 522.754-136.318C520.606-138.145 517.84-140.239 514.456-142.603 511.072-144.966 506.963-147.383 502.129-149.854 497.94-152.002 492.998-153.882 487.305-155.493 481.612-157.104 476.133-157.91 470.869-157.91 455.186-157.91 442.591-151.975 433.084-140.105 423.577-128.235 418.824-111.45 418.824-89.751 418.824-68.4814 423.416-51.9116 432.6-40.0415 441.785-28.1714 454.541-22.2363 470.869-22.2363 480.752-22.2363 490.152-24.2773 499.068-28.3594 507.984-32.4414 515.879-37.7051 522.754-44.1504L524.527-44.1504 524.527-10.1514C521.519-8.75488 517.759-7.06299 513.247-5.07568 508.736-3.08838 504.654-1.61133 501.001-0.644531 495.845 0.859375 491.226 2.01416 487.144 2.81982 483.062 3.62549 477.798 4.02832 471.353 4.02832ZM701.415 0 661.615 0 594.422-86.8506 582.499-75.249 582.499 0 552.206 0 552.206-250.723 582.499-250.723 582.499-103.931 653.719-179.985 691.424-179.985 617.464-104.736Z" fill="#707070" transform="matrix(1 0 0 1 213.095 442)"/></g></g><text fill="#707070" font-family="Tahoma,Tahoma_MSFontService,sans-serif" font-weight="400" font-size="330" transform="matrix(1 0 0 1 2793.41 4790)">Rock</text><g><g><g><path d="M2716 4659.5C2716 4802.82 2599.82 4919 2456.5 4919 2313.18 4919 2197 4802.82 2197 4659.5 2197 4516.18 2313.18 4400 2456.5 4400 2599.82 4400 2716 4516.18 2716 4659.5Z" fill="#A9A481"/><path d="M2601.8 4599.15 2562.02 4559.37 2569.22 4606.77C2569.28 4607.15 2568.81 4607.4 2568.53 4607.11L2509.37 4547.96C2509.09 4547.67 2509.33 4547.21 2509.72 4547.27L2557.12 4554.46 2516.83 4514.18C2516.83 4514.18 2516.65 4514.06 2516.55 4514.06L2396.41 4514.06C2396.31 4514.06 2396.21 4514.1 2396.13 4514.18L2311.18 4599.13C2311.18 4599.13 2311.06 4599.31 2311.06 4599.41L2311.06 4719.55C2311.06 4719.65 2311.1 4719.75 2311.18 4719.83L2350.77 4759.43 2331.09 4668.1C2331.01 4667.71 2331.49 4667.45 2331.78 4667.73L2448.9 4784.85C2449.18 4785.13 2448.92 4785.62 2448.53 4785.54L2357.2 4765.85 2396.15 4804.8C2396.15 4804.8 2396.33 4804.92 2396.43 4804.92L2516.57 4804.92C2516.67 4804.92 2516.77 4804.88 2516.85 4804.8L2555.86 4765.79 2464.35 4785.56C2463.96 4785.64 2463.7 4785.15 2463.98 4784.87L2581.08 4667.77C2581.36 4667.49 2581.85 4667.75 2581.77 4668.14L2562 4759.65 2601.82 4719.83C2601.82 4719.83 2601.94 4719.65 2601.94 4719.55L2601.94 4599.41C2601.94 4599.31 2601.9 4599.21 2601.82 4599.13Z" fill="#FFFFFF"/></g></g></g></g></svg>