<svg width="1576" height="758" xmlns="http://www.w3.org/2000/svg" xmlns:xlink="http://www.w3.org/1999/xlink" xml:space="preserve" overflow="hidden"><defs><filter id="fx0" x="-10%" y="-10%" width="120%" height="120%" filterUnits="userSpaceOnUse" primitiveUnits="userSpaceOnUse"><feComponentTransfer color-interpolation-filters="sRGB"><feFuncR type="discrete" tableValues="0 0"/><feFuncG type="discrete" tableValues="0 0"/><feFuncB type="discrete" tableValues="0 0"/><feFuncA type="linear" slope="0.4" intercept="0"/></feComponentTransfer><feGaussianBlur stdDeviation="6.11111 6.11111"/></filter><filter id="fx1" x="-10%" y="-10%" width="120%" height="120%" filterUnits="userSpaceOnUse" primitiveUnits="userSpaceOnUse"><feComponentTransfer color-interpolation-filters="sRGB"><feFuncR type="discrete" tableValues="0 0"/><feFuncG type="discrete" tableValues="0 0"/><feFuncB type="discrete" tableValues="0 0"/><feFuncA type="linear" slope="0.431373" intercept="0"/></feComponentTransfer><feGaussianBlur stdDeviation="4.56444 4.56444"/></filter><filter id="fx2" x="-10%" y="-10%" width="120%" height="120%" filterUnits="userSpaceOnUse" primitiveUnits="userSpaceOnUse"><feComponentTransfer color-interpolation-filters="sRGB"><feFuncR type="discrete" tableValues="0 0"/><feFuncG type="discrete" tableValues="0 0"/><feFuncB type="discrete" tableValues="0 0"/><feFuncA type="linear" slope="0.4" intercept="0"/></feComponentTransfer><feGaussianBlur stdDeviation="6.11111 6.11111"/></filter><filter id="fx3" x="-10%" y="-10%" width="120%" height="120%" filterUnits="userSpaceOnUse" primitiveUnits="userSpaceOnUse"><feComponentTransfer color-interpolation-filters="sRGB"><feFuncR type="discrete" tableValues="0 0"/><feFuncG type="discrete" tableValues="0 0"/><feFuncB type="discrete" tableValues="0 0"/><feFuncA type="linear" slope="0.431373" intercept="0"/></feComponentTransfer><feGaussianBlur stdDeviation="4.56444 4.56444"/></filter><clipPath id="clip4"><rect x="82" y="4991" width="1576" height="758"/></clipPath><clipPath id="clip5"><rect x="204" y="169" width="760" height="338"/></clipPath><clipPath id="clip6"><rect x="0" y="0" width="1181" height="761"/></clipPath><clipPath id="clip7"><rect x="207" y="175" width="717" height="289"/></clipPath><clipPath id="clip8"><rect x="0" y="0" width="1143" height="723"/></clipPath><clipPath id="clip9"><rect x="207" y="175" width="717" height="289"/></clipPath></defs><g clip-path="url(#clip4)" transform="translate(-82 -4991)"><g filter="url(#fx0)" transform="translate(81 5031)"><g><path d="M19.7228 279.723C19.7228 136.129 136.129 19.7227 279.723 19.7227L1185.72 19.7227C1329.32 19.7227 1445.72 136.129 1445.72 279.723L1445.72 279.723C1445.72 423.318 1329.32 539.724 1185.72 539.724L279.723 539.722C136.129 539.722 19.7228 423.316 19.7228 279.722Z" fill="#FFFFFF" fill-rule="evenodd"/></g></g><g clip-path="url(#clip5)" filter="url(#fx2)" transform="translate(478 4989)"><g clip-path="url(#clip6)"><g clip-path="url(#clip7)" filter="url(#fx1)" transform="translate(19 19)"><g clip-path="url(#clip8)"><path d="M91.2012 4.35059C73.7988 4.35059 59.0015 2.55127 46.8091-1.04736 34.6167-4.646 23.1494-9.07715 12.4072-14.3408L12.4072-54.3018 14.6631-54.3018C25.1904-44.4189 37.1143-36.7651 50.4346-31.3403 63.7549-25.9155 76.5918-23.2031 88.9453-23.2031 106.562-23.2031 119.883-26.8823 128.906-34.2407 137.93-41.5991 142.441-51.2939 142.441-63.3252 142.441-72.8857 140.078-80.6738 135.352-86.6894 130.625-92.7051 123.105-97.1631 112.793-100.063 105.381-102.212 98.6133-103.984 92.4902-105.381 86.3672-106.777 78.6865-108.657 69.4482-111.021 61.1768-113.169 53.7646-115.908 47.2119-119.238 40.6592-122.568 34.8584-126.919 29.8096-132.29 24.8682-137.554 21.0278-143.757 18.2886-150.901 15.5493-158.044 14.1797-166.289 14.1797-175.635 14.1797-195.078 21.7529-211.379 36.8994-224.539 52.0459-237.698 71.3818-244.277 94.9072-244.277 108.335-244.277 121.038-242.935 133.015-240.249 144.993-237.563 156.084-233.75 166.289-228.809L166.289-190.62 163.872-190.62C156.245-197.603 146.47-203.699 134.546-208.909 122.622-214.119 110.107-216.724 97.0019-216.724 82.1777-216.724 70.2002-213.259 61.0693-206.331 51.9385-199.402 47.373-190.298 47.373-179.019 47.373-168.813 50.0586-160.703 55.4297-154.687 60.8008-148.672 68.5889-144.268 78.7939-141.475 85.5615-139.648 93.833-137.581 103.608-135.271 113.384-132.961 121.494-130.84 127.939-128.906 144.482-123.857 156.567-116.23 164.194-106.025 171.821-95.8203 175.635-83.2519 175.635-68.3203 175.635-58.9746 173.728-49.7363 169.915-40.6055 166.101-31.4746 160.757-23.7402 153.882-17.4023 146.147-10.4199 137.419-5.04883 127.698-1.28906 117.976 2.4707 105.811 4.35059 91.2012 4.35059ZM260.283 3.54492C243.74 3.54492 230.85-1.15479 221.611-10.5542 212.373-19.9536 207.754-34.8047 207.754-55.1074L207.754-154.849 187.29-154.849 187.29-179.985 207.754-179.985 207.754-231.709 238.047-231.709 238.047-179.985 293.799-179.985 293.799-154.849 238.047-154.849 238.047-69.2871C238.047-60.1562 238.208-53.1201 238.53-48.1787 238.853-43.2373 240.088-38.6182 242.236-34.3213 244.062-30.5615 247.017-27.7417 251.099-25.8618 255.181-23.9819 260.713-23.042 267.695-23.042 272.637-23.042 277.417-23.7671 282.036-25.2173 286.655-26.6675 289.985-27.876 292.026-28.8428L293.799-28.8428 293.799-1.61133C288.105-5.96046e-08 282.332 1.26221 276.477 2.17529 270.623 3.08838 265.225 3.54492 260.283 3.54492ZM394.543 4.18945C365.861 4.18945 343.598-3.89404 327.753-20.061 311.908-36.228 303.986-59.1894 303.986-88.9453 303.986-118.271 311.667-141.609 327.028-158.958 342.389-176.306 362.477-184.98 387.292-184.98 398.464-184.98 408.346-183.369 416.94-180.146 425.534-176.924 433.053-171.875 439.499-165 445.944-158.125 450.885-149.719 454.323-139.783 457.76-129.846 459.479-117.681 459.479-103.286L459.479-86.8506 334.762-86.8506C334.762-65.9033 340.026-49.8975 350.553-38.833 361.081-27.7686 375.636-22.2363 394.22-22.2363 400.881-22.2363 407.406-22.9883 413.798-24.4922 420.19-25.9961 425.964-27.9297 431.12-30.293 436.598-32.7637 441.217-35.1538 444.977-37.4634 448.737-39.7729 451.852-41.9482 454.323-43.9893L456.095-43.9893 456.095-10.957C452.55-9.56055 448.146-7.81494 442.882-5.72021 437.619-3.62549 432.892-1.9873 428.703-0.805664 422.795 0.805664 417.45 2.04102 412.67 2.90039 407.89 3.75977 401.847 4.18945 394.543 4.18945ZM429.992-110.054C429.777-118.218 428.81-125.254 427.091-131.162 425.373-137.07 422.902-142.065 419.679-146.147 416.134-150.659 411.596-154.097 406.064-156.46 400.531-158.823 393.683-160.005 385.519-160.005 377.463-160.005 370.614-158.796 364.975-156.379 359.335-153.962 354.206-150.444 349.587-145.825 345.075-141.099 341.637-135.862 339.274-130.115 336.911-124.368 335.407-117.681 334.762-110.054ZM568.136 4.18945C539.455 4.18945 517.192-3.89404 501.347-20.061 485.502-36.228 477.58-59.1894 477.58-88.9453 477.58-118.271 485.26-141.609 500.622-158.958 515.983-176.306 536.071-184.98 560.885-184.98 572.057-184.98 581.94-183.369 590.534-180.146 599.128-176.924 606.647-171.875 613.092-165 619.538-158.125 624.479-149.719 627.917-139.783 631.354-129.846 633.073-117.681 633.073-103.286L633.073-86.8506 508.356-86.8506C508.356-65.9033 513.62-49.8975 524.147-38.833 534.674-27.7686 549.23-22.2363 567.814-22.2363 574.474-22.2363 581-22.9883 587.392-24.4922 593.783-25.9961 599.557-27.9297 604.714-30.293 610.192-32.7637 614.811-35.1538 618.571-37.4634 622.331-39.7729 625.446-41.9482 627.917-43.9893L629.689-43.9893 629.689-10.957C626.144-9.56055 621.74-7.81494 616.476-5.72021 611.213-3.62549 606.486-1.9873 602.297-0.805664 596.388 0.805664 591.044 2.04102 586.264 2.90039 581.484 3.75977 575.441 4.18945 568.136 4.18945ZM603.586-110.054C603.371-118.218 602.404-125.254 600.685-131.162 598.966-137.07 596.496-142.065 593.273-146.147 589.728-150.659 585.19-154.097 579.657-156.46 574.125-158.823 567.277-160.005 559.113-160.005 551.056-160.005 544.208-158.796 538.568-156.379 532.929-153.962 527.799-150.444 523.18-145.825 518.669-141.099 515.231-135.862 512.868-130.115 510.504-124.368 509.001-117.681 508.356-110.054ZM694.518 0 664.225 0 664.225-250.723 694.518-250.723Z" fill="#707070" transform="matrix(1 0 0 1 -265.114 -4547)"/></g></g><path d="M91.2012 4.35059C73.7988 4.35059 59.0015 2.55127 46.8091-1.04736 34.6167-4.646 23.1494-9.07715 12.4072-14.3408L12.4072-54.3018 14.6631-54.3018C25.1904-44.4189 37.1143-36.7651 50.4346-31.3403 63.7549-25.9155 76.5918-23.2031 88.9453-23.2031 106.562-23.2031 119.883-26.8823 128.906-34.2407 137.93-41.5991 142.441-51.2939 142.441-63.3252 142.441-72.8857 140.078-80.6738 135.352-86.6894 130.625-92.7051 123.105-97.1631 112.793-100.063 105.381-102.212 98.6133-103.984 92.4902-105.381 86.3672-106.777 78.6865-108.657 69.4482-111.021 61.1768-113.169 53.7646-115.908 47.2119-119.238 40.6592-122.568 34.8584-126.919 29.8096-132.29 24.8682-137.554 21.0278-143.757 18.2886-150.901 15.5493-158.044 14.1797-166.289 14.1797-175.635 14.1797-195.078 21.7529-211.379 36.8994-224.539 52.0459-237.698 71.3818-244.277 94.9072-244.277 108.335-244.277 121.038-242.935 133.015-240.249 144.993-237.563 156.084-233.75 166.289-228.809L166.289-190.62 163.872-190.62C156.245-197.603 146.47-203.699 134.546-208.909 122.622-214.119 110.107-216.724 97.0019-216.724 82.1777-216.724 70.2002-213.259 61.0693-206.331 51.9385-199.402 47.373-190.298 47.373-179.019 47.373-168.813 50.0586-160.703 55.4297-154.687 60.8008-148.672 68.5889-144.268 78.7939-141.475 85.5615-139.648 93.833-137.581 103.608-135.271 113.384-132.961 121.494-130.84 127.939-128.906 144.482-123.857 156.567-116.23 164.194-106.025 171.821-95.8203 175.635-83.2519 175.635-68.3203 175.635-58.9746 173.728-49.7363 169.915-40.6055 166.101-31.4746 160.757-23.7402 153.882-17.4023 146.147-10.4199 137.419-5.04883 127.698-1.28906 117.976 2.4707 105.811 4.35059 91.2012 4.35059ZM260.283 3.54492C243.74 3.54492 230.85-1.15479 221.611-10.5542 212.373-19.9536 207.754-34.8047 207.754-55.1074L207.754-154.849 187.29-154.849 187.29-179.985 207.754-179.985 207.754-231.709 238.047-231.709 238.047-179.985 293.799-179.985 293.799-154.849 238.047-154.849 238.047-69.2871C238.047-60.1562 238.208-53.1201 238.53-48.1787 238.853-43.2373 240.088-38.6182 242.236-34.3213 244.062-30.5615 247.017-27.7417 251.099-25.8618 255.181-23.9819 260.713-23.042 267.695-23.042 272.637-23.042 277.417-23.7671 282.036-25.2173 286.655-26.6675 289.985-27.876 292.026-28.8428L293.799-28.8428 293.799-1.61133C288.105-5.96046e-08 282.332 1.26221 276.477 2.17529 270.623 3.08838 265.225 3.54492 260.283 3.54492ZM394.543 4.18945C365.861 4.18945 343.598-3.89404 327.753-20.061 311.908-36.228 303.986-59.1894 303.986-88.9453 303.986-118.271 311.667-141.609 327.028-158.958 342.389-176.306 362.477-184.98 387.292-184.98 398.464-184.98 408.346-183.369 416.94-180.146 425.534-176.924 433.053-171.875 439.499-165 445.944-158.125 450.885-149.719 454.323-139.783 457.76-129.846 459.479-117.681 459.479-103.286L459.479-86.8506 334.762-86.8506C334.762-65.9033 340.026-49.8975 350.553-38.833 361.081-27.7686 375.636-22.2363 394.22-22.2363 400.881-22.2363 407.406-22.9883 413.798-24.4922 420.19-25.9961 425.964-27.9297 431.12-30.293 436.598-32.7637 441.217-35.1538 444.977-37.4634 448.737-39.7729 451.852-41.9482 454.323-43.9893L456.095-43.9893 456.095-10.957C452.55-9.56055 448.146-7.81494 442.882-5.72021 437.619-3.62549 432.892-1.9873 428.703-0.805664 422.795 0.805664 417.45 2.04102 412.67 2.90039 407.89 3.75977 401.847 4.18945 394.543 4.18945ZM429.992-110.054C429.777-118.218 428.81-125.254 427.091-131.162 425.373-137.07 422.902-142.065 419.679-146.147 416.134-150.659 411.596-154.097 406.064-156.46 400.531-158.823 393.683-160.005 385.519-160.005 377.463-160.005 370.614-158.796 364.975-156.379 359.335-153.962 354.206-150.444 349.587-145.825 345.075-141.099 341.637-135.862 339.274-130.115 336.911-124.368 335.407-117.681 334.762-110.054ZM568.136 4.18945C539.455 4.18945 517.192-3.89404 501.347-20.061 485.502-36.228 477.58-59.1894 477.58-88.9453 477.58-118.271 485.26-141.609 500.622-158.958 515.983-176.306 536.071-184.98 560.885-184.98 572.057-184.98 581.94-183.369 590.534-180.146 599.128-176.924 606.647-171.875 613.092-165 619.538-158.125 624.479-149.719 627.917-139.783 631.354-129.846 633.073-117.681 633.073-103.286L633.073-86.8506 508.356-86.8506C508.356-65.9033 513.62-49.8975 524.147-38.833 534.674-27.7686 549.23-22.2363 567.814-22.2363 574.474-22.2363 581-22.9883 587.392-24.4922 593.783-25.9961 599.557-27.9297 604.714-30.293 610.192-32.7637 614.811-35.1538 618.571-37.4634 622.331-39.7729 625.446-41.9482 627.917-43.9893L629.689-43.9893 629.689-10.957C626.144-9.56055 621.74-7.81494 616.476-5.72021 611.213-3.62549 606.486-1.9873 602.297-0.805664 596.388 0.805664 591.044 2.04102 586.264 2.90039 581.484 3.75977 575.441 4.18945 568.136 4.18945ZM603.586-110.054C603.371-118.218 602.404-125.254 600.685-131.162 598.966-137.07 596.496-142.065 593.273-146.147 589.728-150.659 585.19-154.097 579.657-156.46 574.125-158.823 567.277-160.005 559.113-160.005 551.056-160.005 544.208-158.796 538.568-156.379 532.929-153.962 527.799-150.444 523.18-145.825 518.669-141.099 515.231-135.862 512.868-130.115 510.504-124.368 509.001-117.681 508.356-110.054ZM694.518 0 664.225 0 664.225-250.723 694.518-250.723Z" fill="#707070" transform="matrix(1 0 0 1 222.203 452)"/></g></g><path d="M91.0001 5301C91.0001 5157.41 207.406 5041 351 5041L1257 5041C1400.6 5041 1517 5157.41 1517 5301L1517 5301C1517 5444.6 1400.59 5561 1257 5561L351 5561C207.406 5561 91.0001 5444.59 91.0001 5301Z" fill="#FFFFFF" fill-rule="evenodd"/><g clip-path="url(#clip9)" filter="url(#fx3)" transform="translate(487 4999)"><g><path d="M91.2012 4.35059C73.7988 4.35059 59.0015 2.55127 46.8091-1.04736 34.6167-4.646 23.1494-9.07715 12.4072-14.3408L12.4072-54.3018 14.6631-54.3018C25.1904-44.4189 37.1143-36.7651 50.4346-31.3403 63.7549-25.9155 76.5918-23.2031 88.9453-23.2031 106.562-23.2031 119.883-26.8823 128.906-34.2407 137.93-41.5991 142.441-51.2939 142.441-63.3252 142.441-72.8857 140.078-80.6738 135.352-86.6894 130.625-92.7051 123.105-97.1631 112.793-100.063 105.381-102.212 98.6133-103.984 92.4902-105.381 86.3672-106.777 78.6865-108.657 69.4482-111.021 61.1768-113.169 53.7646-115.908 47.2119-119.238 40.6592-122.568 34.8584-126.919 29.8096-132.29 24.8682-137.554 21.0278-143.757 18.2886-150.901 15.5493-158.044 14.1797-166.289 14.1797-175.635 14.1797-195.078 21.7529-211.379 36.8994-224.539 52.0459-237.698 71.3818-244.277 94.9072-244.277 108.335-244.277 121.038-242.935 133.015-240.249 144.993-237.563 156.084-233.75 166.289-228.809L166.289-190.62 163.872-190.62C156.245-197.603 146.47-203.699 134.546-208.909 122.622-214.119 110.107-216.724 97.0019-216.724 82.1777-216.724 70.2002-213.259 61.0693-206.331 51.9385-199.402 47.373-190.298 47.373-179.019 47.373-168.813 50.0586-160.703 55.4297-154.687 60.8008-148.672 68.5889-144.268 78.7939-141.475 85.5615-139.648 93.833-137.581 103.608-135.271 113.384-132.961 121.494-130.84 127.939-128.906 144.482-123.857 156.567-116.23 164.194-106.025 171.821-95.8203 175.635-83.2519 175.635-68.3203 175.635-58.9746 173.728-49.7363 169.915-40.6055 166.101-31.4746 160.757-23.7402 153.882-17.4023 146.147-10.4199 137.419-5.04883 127.698-1.28906 117.976 2.4707 105.811 4.35059 91.2012 4.35059ZM260.283 3.54492C243.74 3.54492 230.85-1.15479 221.611-10.5542 212.373-19.9536 207.754-34.8047 207.754-55.1074L207.754-154.849 187.29-154.849 187.29-179.985 207.754-179.985 207.754-231.709 238.047-231.709 238.047-179.985 293.799-179.985 293.799-154.849 238.047-154.849 238.047-69.2871C238.047-60.1562 238.208-53.1201 238.53-48.1787 238.853-43.2373 240.088-38.6182 242.236-34.3213 244.062-30.5615 247.017-27.7417 251.099-25.8618 255.181-23.9819 260.713-23.042 267.695-23.042 272.637-23.042 277.417-23.7671 282.036-25.2173 286.655-26.6675 289.985-27.876 292.026-28.8428L293.799-28.8428 293.799-1.61133C288.105-5.96046e-08 282.332 1.26221 276.477 2.17529 270.623 3.08838 265.225 3.54492 260.283 3.54492ZM394.543 4.18945C365.861 4.18945 343.598-3.89404 327.753-20.061 311.908-36.228 303.986-59.1894 303.986-88.9453 303.986-118.271 311.667-141.609 327.028-158.958 342.389-176.306 362.477-184.98 387.292-184.98 398.464-184.98 408.346-183.369 416.94-180.146 425.534-176.924 433.053-171.875 439.499-165 445.944-158.125 450.885-149.719 454.323-139.783 457.76-129.846 459.479-117.681 459.479-103.286L459.479-86.8506 334.762-86.8506C334.762-65.9033 340.026-49.8975 350.553-38.833 361.081-27.7686 375.636-22.2363 394.22-22.2363 400.881-22.2363 407.406-22.9883 413.798-24.4922 420.19-25.9961 425.964-27.9297 431.12-30.293 436.598-32.7637 441.217-35.1538 444.977-37.4634 448.737-39.7729 451.852-41.9482 454.323-43.9893L456.095-43.9893 456.095-10.957C452.55-9.56055 448.146-7.81494 442.882-5.72021 437.619-3.62549 432.892-1.9873 428.703-0.805664 422.795 0.805664 417.45 2.04102 412.67 2.90039 407.89 3.75977 401.847 4.18945 394.543 4.18945ZM429.992-110.054C429.777-118.218 428.81-125.254 427.091-131.162 425.373-137.07 422.902-142.065 419.679-146.147 416.134-150.659 411.596-154.097 406.064-156.46 400.531-158.823 393.683-160.005 385.519-160.005 377.463-160.005 370.614-158.796 364.975-156.379 359.335-153.962 354.206-150.444 349.587-145.825 345.075-141.099 341.637-135.862 339.274-130.115 336.911-124.368 335.407-117.681 334.762-110.054ZM568.136 4.18945C539.455 4.18945 517.192-3.89404 501.347-20.061 485.502-36.228 477.58-59.1894 477.58-88.9453 477.58-118.271 485.26-141.609 500.622-158.958 515.983-176.306 536.071-184.98 560.885-184.98 572.057-184.98 581.94-183.369 590.534-180.146 599.128-176.924 606.647-171.875 613.092-165 619.538-158.125 624.479-149.719 627.917-139.783 631.354-129.846 633.073-117.681 633.073-103.286L633.073-86.8506 508.356-86.8506C508.356-65.9033 513.62-49.8975 524.147-38.833 534.674-27.7686 549.23-22.2363 567.814-22.2363 574.474-22.2363 581-22.9883 587.392-24.4922 593.783-25.9961 599.557-27.9297 604.714-30.293 610.192-32.7637 614.811-35.1538 618.571-37.4634 622.331-39.7729 625.446-41.9482 627.917-43.9893L629.689-43.9893 629.689-10.957C626.144-9.56055 621.74-7.81494 616.476-5.72021 611.213-3.62549 606.486-1.9873 602.297-0.805664 596.388 0.805664 591.044 2.04102 586.264 2.90039 581.484 3.75977 575.441 4.18945 568.136 4.18945ZM603.586-110.054C603.371-118.218 602.404-125.254 600.685-131.162 598.966-137.07 596.496-142.065 593.273-146.147 589.728-150.659 585.19-154.097 579.657-156.46 574.125-158.823 567.277-160.005 559.113-160.005 551.056-160.005 544.208-158.796 538.568-156.379 532.929-153.962 527.799-150.444 523.18-145.825 518.669-141.099 515.231-135.862 512.868-130.115 510.504-124.368 509.001-117.681 508.356-110.054ZM694.518 0 664.225 0 664.225-250.723 694.518-250.723Z" fill="#707070" transform="matrix(1 0 0 1 213.163 442)"/></g></g><text fill="#707070" font-family="Tahoma,Tahoma_MSFontService,sans-serif" font-weight="400" font-size="330" transform="matrix(1 0 0 1 690.48 5431)">Steel</text><g><g><g><path d="M611 5301C611 5444.59 494.594 5561 351 5561 207.406 5561 91.0001 5444.59 91.0001 5301 91.0001 5157.41 207.406 5041 351 5041 494.594 5041 611 5157.41 611 5301Z" fill="#74B0CB"/><path d="M329.144 5230.35C334.425 5257.59 338.853 5280.44 343.891 5306.38 297.72 5319.57 253.134 5332.28 202.353 5346.76 222.341 5285.12 240.256 5229.93 258.395 5174.01L439.989 5174.01C441.919 5178.09 444.316 5183.13 447.789 5190.44 407.895 5203.87 370.053 5216.6 329.144 5230.35Z" fill="#FFFFFF"/><path d="M498.875 5346.76C468.589 5368.64 441.005 5388.57 407.875 5412.5 392.133 5356.6 377.772 5305.59 362.416 5251.01 395.931 5240.33 424.937 5231.06 457.478 5220.68 471.616 5263.77 484.9 5304.21 498.875 5346.76Z" fill="#FFFFFF"/><path d="M382.423 5430.17C371.82 5438.25 361.989 5445.77 350.391 5454.6 310.355 5425.41 271.497 5397.08 226.098 5363.99 271.131 5350.97 309.156 5339.98 350.248 5328.12 361.339 5363.3 371.536 5395.6 382.444 5430.17Z" fill="#FFFFFF"/><path d="M303.652 5205.15C303.652 5213.72 296.704 5220.66 288.133 5220.66 279.562 5220.66 272.614 5213.72 272.614 5205.15 272.614 5196.57 279.562 5189.63 288.133 5189.63 296.704 5189.63 303.652 5196.57 303.652 5205.15Z" fill="#77B2CB"/><path d="M440.537 5278.55C440.537 5290.23 431.07 5299.7 419.392 5299.7 407.714 5299.7 398.247 5290.23 398.247 5278.55 398.247 5266.88 407.714 5257.41 419.392 5257.41 431.07 5257.41 440.537 5266.88 440.537 5278.55Z" fill="#77B2CB"/></g></g></g></g></svg>