<svg width="1708" height="758" xmlns="http://www.w3.org/2000/svg" xmlns:xlink="http://www.w3.org/1999/xlink" xml:space="preserve" overflow="hidden"><defs><filter id="fx0" x="-10%" y="-10%" width="120%" height="120%" filterUnits="userSpaceOnUse" primitiveUnits="userSpaceOnUse"><feComponentTransfer color-interpolation-filters="sRGB"><feFuncR type="discrete" tableValues="0 0"/><feFuncG type="discrete" tableValues="0 0"/><feFuncB type="discrete" tableValues="0 0"/><feFuncA type="linear" slope="0.4" intercept="0"/></feComponentTransfer><feGaussianBlur stdDeviation="6.11111 6.11111"/></filter><filter id="fx1" x="-10%" y="-10%" width="120%" height="120%" filterUnits="userSpaceOnUse" primitiveUnits="userSpaceOnUse"><feComponentTransfer color-interpolation-filters="sRGB"><feFuncR type="discrete" tableValues="0 0"/><feFuncG type="discrete" tableValues="0 0"/><feFuncB type="discrete" tableValues="0 0"/><feFuncA type="linear" slope="0.431373" intercept="0"/></feComponentTransfer><feGaussianBlur stdDeviation="4.56444 4.56444"/></filter><filter id="fx2" x="-10%" y="-10%" width="120%" height="120%" filterUnits="userSpaceOnUse" primitiveUnits="userSpaceOnUse"><feComponentTransfer color-interpolation-filters="sRGB"><feFuncR type="discrete" tableValues="0 0"/><feFuncG type="discrete" tableValues="0 0"/><feFuncB type="discrete" tableValues="0 0"/><feFuncA type="linear" slope="0.4" intercept="0"/></feComponentTransfer><feGaussianBlur stdDeviation="6.11111 6.11111"/></filter><filter id="fx3" x="-10%" y="-10%" width="120%" height="120%" filterUnits="userSpaceOnUse" primitiveUnits="userSpaceOnUse"><feComponentTransfer color-interpolation-filters="sRGB"><feFuncR type="discrete" tableValues="0 0"/><feFuncG type="discrete" tableValues="0 0"/><feFuncB type="discrete" tableValues="0 0"/><feFuncA type="linear" slope="0.431373" intercept="0"/></feComponentTransfer><feGaussianBlur stdDeviation="4.56444 4.56444"/></filter><clipPath id="clip4"><rect x="2188" y="4991" width="1708" height="758"/></clipPath><clipPath id="clip5"><rect x="197" y="183" width="932" height="324"/></clipPath><clipPath id="clip6"><rect x="0" y="0" width="1326" height="761"/></clipPath><clipPath id="clip7"><rect x="201" y="187" width="888" height="277"/></clipPath><clipPath id="clip8"><rect x="0" y="0" width="1288" height="723"/></clipPath><clipPath id="clip9"><rect x="201" y="187" width="891" height="277"/></clipPath><clipPath id="clip10"><rect x="2196" y="5041" width="520" height="520"/></clipPath><clipPath id="clip11"><rect x="2196" y="5041" width="520" height="520"/></clipPath><clipPath id="clip12"><rect x="2196" y="5041" width="520" height="520"/></clipPath></defs><g clip-path="url(#clip4)" transform="translate(-2188 -4991)"><g filter="url(#fx0)" transform="translate(2187 5031)"><g><path d="M19.7227 279.723C19.7227 136.129 136.129 19.7227 279.723 19.7227L1318.72 19.7227C1462.32 19.7227 1578.72 136.129 1578.72 279.723L1578.72 279.723C1578.72 423.318 1462.32 539.724 1318.72 539.724L279.723 539.722C136.129 539.722 19.7227 423.316 19.7227 279.722Z" fill="#FFFFFF" fill-rule="evenodd"/></g></g><g clip-path="url(#clip5)" filter="url(#fx2)" transform="translate(2572 4989)"><g clip-path="url(#clip6)"><g clip-path="url(#clip7)" filter="url(#fx1)" transform="translate(19 19)"><g clip-path="url(#clip8)"><path d="M293.423-239.927 233.159 0 197.227 0 148.403-199.16 100.708 0 65.581 0 4.18945-239.927 36.8994-239.927 85.2393-40.4443 133.257-239.927 165.645-239.927 214.145-38.5107 262.163-239.927ZM407.567-44.3115 407.567-94.2627C400.37-93.6182 391.266-92.7319 380.255-91.604 369.244-90.4761 360.355-88.8916 353.588-86.8506 345.531-84.3799 338.871-80.5933 333.607-75.4907 328.344-70.3882 325.712-63.2715 325.712-54.1406 325.712-43.8281 328.612-36.04 334.413-30.7764 340.214-25.5127 348.7-22.8809 359.872-22.8809 369.432-22.8809 378.08-24.9487 385.814-29.0845 393.549-33.2202 400.8-38.2959 407.567-44.3115ZM407.567-19.1748C405.096-17.3486 401.793-14.7974 397.658-11.521 393.522-8.24463 389.52-5.63965 385.653-3.70605 380.282-0.913086 375.099 1.23535 370.104 2.73926 365.109 4.24316 358.099 4.99512 349.076 4.99512 341.664 4.99512 334.628 3.59863 327.968 0.805664 321.307-1.9873 315.453-5.9082 310.404-10.957 305.57-15.8984 301.703-21.9946 298.803-29.2456 295.902-36.4966 294.452-44.1504 294.452-52.207 294.452-64.668 297.084-75.2759 302.347-84.0308 307.611-92.7856 315.936-99.7412 327.323-104.897 337.421-109.517 349.344-112.712 363.095-114.485 376.844-116.257 391.669-117.573 407.567-118.433L407.567-124.233C407.567-131.323 406.493-137.043 404.345-141.394 402.196-145.745 399.188-149.102 395.321-151.465 391.454-153.936 386.727-155.574 381.141-156.379 375.555-157.185 369.808-157.588 363.9-157.588 356.918-157.588 348.7-156.541 339.247-154.446 329.794-152.351 320.341-149.316 310.887-145.342L309.115-145.342 309.115-176.118C314.701-177.729 322.704-179.502 333.124-181.436 343.544-183.369 353.856-184.336 364.061-184.336 376.415-184.336 386.835-183.369 395.321-181.436 403.807-179.502 411.434-176.011 418.202-170.962 424.755-166.02 429.642-159.629 432.865-151.787 436.088-143.945 437.699-134.385 437.699-123.105L437.699 0 407.567 0ZM534.504 3.54492C517.961 3.54492 505.07-1.15479 495.832-10.5542 486.594-19.9536 481.975-34.8047 481.975-55.1074L481.975-154.849 461.511-154.849 461.511-179.985 481.975-179.985 481.975-231.709 512.268-231.709 512.268-179.985 568.02-179.985 568.02-154.849 512.268-154.849 512.268-69.2871C512.268-60.1562 512.429-53.1201 512.751-48.1787 513.073-43.2373 514.309-38.6182 516.457-34.3213 518.283-30.5615 521.237-27.7417 525.319-25.8618 529.401-23.9819 534.934-23.042 541.916-23.042 546.858-23.042 551.638-23.7671 556.257-25.2173 560.876-26.6675 564.206-27.876 566.247-28.8428L568.02-28.8428 568.02-1.61133C562.326-5.96046e-08 556.552 1.26221 550.698 2.17529 544.843 3.08838 539.445 3.54492 534.504 3.54492ZM668.763 4.18945C640.082 4.18945 617.819-3.89404 601.974-20.061 586.129-36.228 578.207-59.1894 578.207-88.9453 578.207-118.271 585.888-141.609 601.249-158.958 616.61-176.306 636.698-184.98 661.513-184.98 672.684-184.98 682.567-183.369 691.161-180.146 699.755-176.924 707.274-171.875 713.72-165 720.165-158.125 725.106-149.719 728.544-139.783 731.981-129.846 733.7-117.681 733.7-103.286L733.7-86.8506 608.983-86.8506C608.983-65.9033 614.247-49.8975 624.774-38.833 635.302-27.7686 649.857-22.2363 668.441-22.2363 675.101-22.2363 681.627-22.9883 688.019-24.4922 694.41-25.9961 700.184-27.9297 705.341-30.293 710.819-32.7637 715.438-35.1538 719.198-37.4634 722.958-39.7729 726.073-41.9482 728.544-43.9893L730.316-43.9893 730.316-10.957C726.771-9.56055 722.367-7.81494 717.103-5.72021 711.84-3.62549 707.113-1.9873 702.924-0.805664 697.015 0.805664 691.671 2.04102 686.891 2.90039 682.111 3.75977 676.068 4.18945 668.763 4.18945ZM704.213-110.054C703.998-118.218 703.031-125.254 701.312-131.162 699.594-137.07 697.123-142.065 693.9-146.147 690.355-150.659 685.817-154.097 680.284-156.46 674.752-158.823 667.904-160.005 659.74-160.005 651.683-160.005 644.835-158.796 639.196-156.379 633.556-153.962 628.427-150.444 623.807-145.825 619.296-141.099 615.858-135.862 613.495-130.115 611.132-124.368 609.628-117.681 608.983-110.054ZM859.598-147.437 857.987-147.437C855.731-148.081 853.341-148.484 850.817-148.645 848.292-148.806 845.258-148.887 841.713-148.887 833.549-148.887 825.438-147.114 817.382-143.569 809.325-140.024 801.698-134.761 794.501-127.778L794.501 0 764.208 0 764.208-179.985 794.501-179.985 794.501-153.237C805.565-163.013 815.206-169.915 823.424-173.943 831.642-177.971 839.618-179.985 847.352-179.985 850.468-179.985 852.804-179.905 854.362-179.744 855.919-179.583 857.665-179.341 859.598-179.019Z" fill="#707070" transform="matrix(1 0 0 1 -2358.8 -4547)"/></g></g><path d="M293.423-239.927 233.159 0 197.227 0 148.403-199.16 100.708 0 65.581 0 4.18945-239.927 36.8994-239.927 85.2393-40.4443 133.257-239.927 165.645-239.927 214.145-38.5107 262.163-239.927ZM407.567-44.3115 407.567-94.2627C400.37-93.6182 391.266-92.7319 380.255-91.604 369.244-90.4761 360.355-88.8916 353.588-86.8506 345.531-84.3799 338.871-80.5933 333.607-75.4907 328.344-70.3882 325.712-63.2715 325.712-54.1406 325.712-43.8281 328.612-36.04 334.413-30.7764 340.214-25.5127 348.7-22.8809 359.872-22.8809 369.432-22.8809 378.08-24.9487 385.814-29.0845 393.549-33.2202 400.8-38.2959 407.567-44.3115ZM407.567-19.1748C405.096-17.3486 401.793-14.7974 397.658-11.521 393.522-8.24463 389.52-5.63965 385.653-3.70605 380.282-0.913086 375.099 1.23535 370.104 2.73926 365.109 4.24316 358.099 4.99512 349.076 4.99512 341.664 4.99512 334.628 3.59863 327.968 0.805664 321.307-1.9873 315.453-5.9082 310.404-10.957 305.57-15.8984 301.703-21.9946 298.803-29.2456 295.902-36.4966 294.452-44.1504 294.452-52.207 294.452-64.668 297.084-75.2759 302.347-84.0308 307.611-92.7856 315.936-99.7412 327.323-104.897 337.421-109.517 349.344-112.712 363.095-114.485 376.844-116.257 391.669-117.573 407.567-118.433L407.567-124.233C407.567-131.323 406.493-137.043 404.345-141.394 402.196-145.745 399.188-149.102 395.321-151.465 391.454-153.936 386.727-155.574 381.141-156.379 375.555-157.185 369.808-157.588 363.9-157.588 356.918-157.588 348.7-156.541 339.247-154.446 329.794-152.351 320.341-149.316 310.887-145.342L309.115-145.342 309.115-176.118C314.701-177.729 322.704-179.502 333.124-181.436 343.544-183.369 353.856-184.336 364.061-184.336 376.415-184.336 386.835-183.369 395.321-181.436 403.807-179.502 411.434-176.011 418.202-170.962 424.755-166.02 429.642-159.629 432.865-151.787 436.088-143.945 437.699-134.385 437.699-123.105L437.699 0 407.567 0ZM534.504 3.54492C517.961 3.54492 505.07-1.15479 495.832-10.5542 486.594-19.9536 481.975-34.8047 481.975-55.1074L481.975-154.849 461.511-154.849 461.511-179.985 481.975-179.985 481.975-231.709 512.268-231.709 512.268-179.985 568.02-179.985 568.02-154.849 512.268-154.849 512.268-69.2871C512.268-60.1562 512.429-53.1201 512.751-48.1787 513.073-43.2373 514.309-38.6182 516.457-34.3213 518.283-30.5615 521.237-27.7417 525.319-25.8618 529.401-23.9819 534.934-23.042 541.916-23.042 546.858-23.042 551.638-23.7671 556.257-25.2173 560.876-26.6675 564.206-27.876 566.247-28.8428L568.02-28.8428 568.02-1.61133C562.326-5.96046e-08 556.552 1.26221 550.698 2.17529 544.843 3.08838 539.445 3.54492 534.504 3.54492ZM668.763 4.18945C640.082 4.18945 617.819-3.89404 601.974-20.061 586.129-36.228 578.207-59.1894 578.207-88.9453 578.207-118.271 585.888-141.609 601.249-158.958 616.61-176.306 636.698-184.98 661.513-184.98 672.684-184.98 682.567-183.369 691.161-180.146 699.755-176.924 707.274-171.875 713.72-165 720.165-158.125 725.106-149.719 728.544-139.783 731.981-129.846 733.7-117.681 733.7-103.286L733.7-86.8506 608.983-86.8506C608.983-65.9033 614.247-49.8975 624.774-38.833 635.302-27.7686 649.857-22.2363 668.441-22.2363 675.101-22.2363 681.627-22.9883 688.019-24.4922 694.41-25.9961 700.184-27.9297 705.341-30.293 710.819-32.7637 715.438-35.1538 719.198-37.4634 722.958-39.7729 726.073-41.9482 728.544-43.9893L730.316-43.9893 730.316-10.957C726.771-9.56055 722.367-7.81494 717.103-5.72021 711.84-3.62549 707.113-1.9873 702.924-0.805664 697.015 0.805664 691.671 2.04102 686.891 2.90039 682.111 3.75977 676.068 4.18945 668.763 4.18945ZM704.213-110.054C703.998-118.218 703.031-125.254 701.312-131.162 699.594-137.07 697.123-142.065 693.9-146.147 690.355-150.659 685.817-154.097 680.284-156.46 674.752-158.823 667.904-160.005 659.74-160.005 651.683-160.005 644.835-158.796 639.196-156.379 633.556-153.962 628.427-150.444 623.807-145.825 619.296-141.099 615.858-135.862 613.495-130.115 611.132-124.368 609.628-117.681 608.983-110.054ZM859.598-147.437 857.987-147.437C855.731-148.081 853.341-148.484 850.817-148.645 848.292-148.806 845.258-148.887 841.713-148.887 833.549-148.887 825.438-147.114 817.382-143.569 809.325-140.024 801.698-134.761 794.501-127.778L794.501 0 764.208 0 764.208-179.985 794.501-179.985 794.501-153.237C805.565-163.013 815.206-169.915 823.424-173.943 831.642-177.971 839.618-179.985 847.352-179.985 850.468-179.985 852.804-179.905 854.362-179.744 855.919-179.583 857.665-179.341 859.598-179.019Z" fill="#707070" transform="matrix(1 0 0 1 222.519 452)"/></g></g><path d="M2197 5301C2197 5157.41 2313.41 5041 2457 5041L3496 5041C3639.6 5041 3756 5157.41 3756 5301L3756 5301C3756 5444.6 3639.59 5561 3496 5561L2457 5561C2313.41 5561 2197 5444.59 2197 5301Z" fill="#FFFFFF" fill-rule="evenodd"/><g clip-path="url(#clip9)" filter="url(#fx3)" transform="translate(2581 4999)"><g><path d="M293.423-239.927 233.159 0 197.227 0 148.403-199.16 100.708 0 65.581 0 4.18945-239.927 36.8994-239.927 85.2393-40.4443 133.257-239.927 165.645-239.927 214.145-38.5107 262.163-239.927ZM407.567-44.3115 407.567-94.2627C400.37-93.6182 391.266-92.7319 380.255-91.604 369.244-90.4761 360.355-88.8916 353.588-86.8506 345.531-84.3799 338.871-80.5933 333.607-75.4907 328.344-70.3882 325.712-63.2715 325.712-54.1406 325.712-43.8281 328.612-36.04 334.413-30.7764 340.214-25.5127 348.7-22.8809 359.872-22.8809 369.432-22.8809 378.08-24.9487 385.814-29.0845 393.549-33.2202 400.8-38.2959 407.567-44.3115ZM407.567-19.1748C405.096-17.3486 401.793-14.7974 397.658-11.521 393.522-8.24463 389.52-5.63965 385.653-3.70605 380.282-0.913086 375.099 1.23535 370.104 2.73926 365.109 4.24316 358.099 4.99512 349.076 4.99512 341.664 4.99512 334.628 3.59863 327.968 0.805664 321.307-1.9873 315.453-5.9082 310.404-10.957 305.57-15.8984 301.703-21.9946 298.803-29.2456 295.902-36.4966 294.452-44.1504 294.452-52.207 294.452-64.668 297.084-75.2759 302.347-84.0308 307.611-92.7856 315.936-99.7412 327.323-104.897 337.421-109.517 349.344-112.712 363.095-114.485 376.844-116.257 391.669-117.573 407.567-118.433L407.567-124.233C407.567-131.323 406.493-137.043 404.345-141.394 402.196-145.745 399.188-149.102 395.321-151.465 391.454-153.936 386.727-155.574 381.141-156.379 375.555-157.185 369.808-157.588 363.9-157.588 356.918-157.588 348.7-156.541 339.247-154.446 329.794-152.351 320.341-149.316 310.887-145.342L309.115-145.342 309.115-176.118C314.701-177.729 322.704-179.502 333.124-181.436 343.544-183.369 353.856-184.336 364.061-184.336 376.415-184.336 386.835-183.369 395.321-181.436 403.807-179.502 411.434-176.011 418.202-170.962 424.755-166.02 429.642-159.629 432.865-151.787 436.088-143.945 437.699-134.385 437.699-123.105L437.699 0 407.567 0ZM534.504 3.54492C517.961 3.54492 505.07-1.15479 495.832-10.5542 486.594-19.9536 481.975-34.8047 481.975-55.1074L481.975-154.849 461.511-154.849 461.511-179.985 481.975-179.985 481.975-231.709 512.268-231.709 512.268-179.985 568.02-179.985 568.02-154.849 512.268-154.849 512.268-69.2871C512.268-60.1562 512.429-53.1201 512.751-48.1787 513.073-43.2373 514.309-38.6182 516.457-34.3213 518.283-30.5615 521.237-27.7417 525.319-25.8618 529.401-23.9819 534.934-23.042 541.916-23.042 546.858-23.042 551.638-23.7671 556.257-25.2173 560.876-26.6675 564.206-27.876 566.247-28.8428L568.02-28.8428 568.02-1.61133C562.326-5.96046e-08 556.552 1.26221 550.698 2.17529 544.843 3.08838 539.445 3.54492 534.504 3.54492ZM668.763 4.18945C640.082 4.18945 617.819-3.89404 601.974-20.061 586.129-36.228 578.207-59.1894 578.207-88.9453 578.207-118.271 585.888-141.609 601.249-158.958 616.61-176.306 636.698-184.98 661.513-184.98 672.684-184.98 682.567-183.369 691.161-180.146 699.755-176.924 707.274-171.875 713.72-165 720.165-158.125 725.106-149.719 728.544-139.783 731.981-129.846 733.7-117.681 733.7-103.286L733.7-86.8506 608.983-86.8506C608.983-65.9033 614.247-49.8975 624.774-38.833 635.302-27.7686 649.857-22.2363 668.441-22.2363 675.101-22.2363 681.627-22.9883 688.019-24.4922 694.41-25.9961 700.184-27.9297 705.341-30.293 710.819-32.7637 715.438-35.1538 719.198-37.4634 722.958-39.7729 726.073-41.9482 728.544-43.9893L730.316-43.9893 730.316-10.957C726.771-9.56055 722.367-7.81494 717.103-5.72021 711.84-3.62549 707.113-1.9873 702.924-0.805664 697.015 0.805664 691.671 2.04102 686.891 2.90039 682.111 3.75977 676.068 4.18945 668.763 4.18945ZM704.213-110.054C703.998-118.218 703.031-125.254 701.312-131.162 699.594-137.07 697.123-142.065 693.9-146.147 690.355-150.659 685.817-154.097 680.284-156.46 674.752-158.823 667.904-160.005 659.74-160.005 651.683-160.005 644.835-158.796 639.196-156.379 633.556-153.962 628.427-150.444 623.807-145.825 619.296-141.099 615.858-135.862 613.495-130.115 611.132-124.368 609.628-117.681 608.983-110.054ZM859.598-147.437 857.987-147.437C855.731-148.081 853.341-148.484 850.817-148.645 848.292-148.806 845.258-148.887 841.713-148.887 833.549-148.887 825.438-147.114 817.382-143.569 809.325-140.024 801.698-134.761 794.501-127.778L794.501 0 764.208 0 764.208-179.985 794.501-179.985 794.501-153.237C805.565-163.013 815.206-169.915 823.424-173.943 831.642-177.971 839.618-179.985 847.352-179.985 850.468-179.985 852.804-179.905 854.362-179.744 855.919-179.583 857.665-179.341 859.598-179.019Z" fill="#707070" transform="matrix(1 0 0 1 213.479 442)"/></g></g><text fill="#707070" font-family="Tahoma,Tahoma_MSFontService,sans-serif" font-weight="400" font-size="330" transform="matrix(1 0 0 1 2784.8 5431)">Water</text><g clip-path="url(#clip10)"><g clip-path="url(#clip11)"><g clip-path="url(#clip12)"><path d="M519 259.5C519 402.818 402.818 519 259.5 519 116.182 519-2.88103e-14 402.818-2.88103e-14 259.5-8.64309e-14 116.182 116.182-2.88103e-14 259.5-2.88103e-14 402.818-8.64309e-14 519 116.182 519 259.5Z" fill="#3099E1" transform="matrix(1 0 0 1.00193 2197 5041)"/><path d="M260.21 418.119C190.793 418.383 146.395 352.454 171.412 286.788 179.886 264.528 193.267 245.025 205.471 224.974 224.589 193.551 237.321 159.876 245.836 124.357 246.931 119.796 247.741 115.072 249.647 110.855 251.533 106.659 253.965 102.158 259.824 102.401 265.562 102.644 267.609 107.287 269.698 111.403 271.198 114.342 271.907 117.728 272.556 120.992 281.598 165.837 300.757 206.262 325.348 244.518 341.101 269.008 354.664 294.35 353.995 325.105 352.839 378.789 313.813 417.937 260.189 418.14Z" fill="#FFFFFF" transform="matrix(1 0 0 1.00193 2197 5041)"/><path d="M261.852 392.311C233.874 390.183 210.013 383.127 195.112 358.799 192.375 354.339 188.766 348.622 191.645 343.716 195.456 337.208 201.234 342.276 205.897 343.878 242.146 356.427 278.273 356.387 314.401 343.331 318.577 341.81 323.179 337.796 327.294 342.459 331.187 346.879 327.396 351.4 325.429 355.414 312.211 382.56 287.194 388.845 261.872 392.291Z" fill="#3A9DE2" transform="matrix(1 0 0 1.00193 2197 5041)"/></g></g></g></g></svg>